M48
;DRILL file {KiCad 5.0.2-bee76a0~70~ubuntu16.04.1} date Wed 12 Jun 2019 02:38:29 PM PDT
;FORMAT={-:-/ absolute / inch / decimal}
FMAT,2
INCH,TZ
T1C0.0709
%
G90
G05
T1
X5.05Y-4.6
X6.1Y-5.
X3.05Y-4.53
X5.05Y-4.35
X5.12Y-2.45
X3.05Y-3.4
X6.1Y-4.2
X4.Y-4.26
X2.8Y-4.05
X4.Y-4.94
X3.3Y-4.05
X4.6Y-4.05
X6.1Y-4.45
X2.8Y-3.21
X6.1Y-4.75
X7.45Y-2.45
X5.37Y-2.45
X4.59Y-5.15
X3.02Y-2.15
X3.3Y-5.15
X3.27Y-2.75
X5.05Y-4.85
X7.45Y-4.6
T0
M30
