G04 #@! TF.GenerationSoftware,KiCad,Pcbnew,5.0.2-bee76a0~70~ubuntu16.04.1*
G04 #@! TF.CreationDate,2019-07-30T20:51:49-07:00*
G04 #@! TF.ProjectId,rtl-half-adder,72746c2d-6861-46c6-962d-61646465722e,v1*
G04 #@! TF.SameCoordinates,Original*
G04 #@! TF.FileFunction,Other,Fab,Bot*
%FSLAX46Y46*%
G04 Gerber Fmt 4.6, Leading zero omitted, Abs format (unit mm)*
G04 Created by KiCad (PCBNEW 5.0.2-bee76a0~70~ubuntu16.04.1) date Tue 30 Jul 2019 08:51:49 PM PDT*
%MOMM*%
%LPD*%
G01*
G04 APERTURE LIST*
%ADD10C,0.100000*%
%ADD11C,0.150000*%
%ADD12C,0.075000*%
%ADD13C,0.080000*%
%ADD14C,0.120000*%
G04 APERTURE END LIST*
D10*
G04 #@! TO.C,Q17*
X125792000Y-103128000D02*
X127192000Y-103128000D01*
X127192000Y-106168000D02*
X127192000Y-103128000D01*
X125792000Y-105598000D02*
X126342000Y-106168000D01*
X126342000Y-106168000D02*
X127192000Y-106168000D01*
X125792000Y-105598000D02*
X125792000Y-103148000D01*
G04 #@! TO.C,Q18*
X155256000Y-98048000D02*
X156656000Y-98048000D01*
X156656000Y-101088000D02*
X156656000Y-98048000D01*
X155256000Y-100518000D02*
X155806000Y-101088000D01*
X155806000Y-101088000D02*
X156656000Y-101088000D01*
X155256000Y-100518000D02*
X155256000Y-98068000D01*
G04 #@! TO.C,R28*
X127778000Y-74514000D02*
X129778000Y-74514000D01*
X127778000Y-73314000D02*
X127778000Y-74514000D01*
X129778000Y-73314000D02*
X127778000Y-73314000D01*
X129778000Y-74514000D02*
X129778000Y-73314000D01*
G04 #@! TO.C,R29*
X130648000Y-68818000D02*
X130648000Y-66818000D01*
X129448000Y-68818000D02*
X130648000Y-68818000D01*
X129448000Y-66818000D02*
X129448000Y-68818000D01*
X130648000Y-66818000D02*
X129448000Y-66818000D01*
G04 #@! TO.C,R34*
X124044000Y-125206000D02*
X124044000Y-123206000D01*
X122844000Y-125206000D02*
X124044000Y-125206000D01*
X122844000Y-123206000D02*
X122844000Y-125206000D01*
X124044000Y-123206000D02*
X122844000Y-123206000D01*
G04 #@! TO.C,R35*
X150714000Y-100568000D02*
X150714000Y-98568000D01*
X149514000Y-100568000D02*
X150714000Y-100568000D01*
X149514000Y-98568000D02*
X149514000Y-100568000D01*
X150714000Y-98568000D02*
X149514000Y-98568000D01*
G04 #@! TO.C,R36*
X149514000Y-104664000D02*
X149514000Y-106664000D01*
X150714000Y-104664000D02*
X149514000Y-104664000D01*
X150714000Y-106664000D02*
X150714000Y-104664000D01*
X149514000Y-106664000D02*
X150714000Y-106664000D01*
G04 #@! TO.C,R37*
X149514000Y-111014000D02*
X149514000Y-113014000D01*
X150714000Y-111014000D02*
X149514000Y-111014000D01*
X150714000Y-113014000D02*
X150714000Y-111014000D01*
X149514000Y-113014000D02*
X150714000Y-113014000D01*
G04 #@! TO.C,R39*
X150714000Y-122666000D02*
X150714000Y-120666000D01*
X149514000Y-122666000D02*
X150714000Y-122666000D01*
X149514000Y-120666000D02*
X149514000Y-122666000D01*
X150714000Y-120666000D02*
X149514000Y-120666000D01*
G04 #@! TO.C,R30*
X136998000Y-68809000D02*
X136998000Y-66809000D01*
X135798000Y-68809000D02*
X136998000Y-68809000D01*
X135798000Y-66809000D02*
X135798000Y-68809000D01*
X136998000Y-66809000D02*
X135798000Y-66809000D01*
G04 #@! TO.C,R31*
X121250000Y-105648000D02*
X121250000Y-103648000D01*
X120050000Y-105648000D02*
X121250000Y-105648000D01*
X120050000Y-103648000D02*
X120050000Y-105648000D01*
X121250000Y-103648000D02*
X120050000Y-103648000D01*
G04 #@! TO.C,Q16*
X134174000Y-71378000D02*
X135574000Y-71378000D01*
X135574000Y-74418000D02*
X135574000Y-71378000D01*
X134174000Y-73848000D02*
X134724000Y-74418000D01*
X134724000Y-74418000D02*
X135574000Y-74418000D01*
X134174000Y-73848000D02*
X134174000Y-71398000D01*
G04 #@! TO.C,Q19*
X155256000Y-132592000D02*
X156656000Y-132592000D01*
X156656000Y-135632000D02*
X156656000Y-132592000D01*
X155256000Y-135062000D02*
X155806000Y-135632000D01*
X155806000Y-135632000D02*
X156656000Y-135632000D01*
X155256000Y-135062000D02*
X155256000Y-132612000D01*
G04 #@! TO.C,R32*
X124044000Y-112506000D02*
X124044000Y-110506000D01*
X122844000Y-112506000D02*
X124044000Y-112506000D01*
X122844000Y-110506000D02*
X122844000Y-112506000D01*
X124044000Y-110506000D02*
X122844000Y-110506000D01*
G04 #@! TO.C,R33*
X124044000Y-118856000D02*
X124044000Y-116856000D01*
X122844000Y-118856000D02*
X124044000Y-118856000D01*
X122844000Y-116856000D02*
X122844000Y-118856000D01*
X124044000Y-116856000D02*
X122844000Y-116856000D01*
G04 #@! TO.C,R38*
X150714000Y-135112000D02*
X150714000Y-133112000D01*
X149514000Y-135112000D02*
X150714000Y-135112000D01*
X149514000Y-133112000D02*
X149514000Y-135112000D01*
X150714000Y-133112000D02*
X149514000Y-133112000D01*
G04 #@! TO.C,R40*
X150714000Y-129016000D02*
X150714000Y-127016000D01*
X149514000Y-129016000D02*
X150714000Y-129016000D01*
X149514000Y-127016000D02*
X149514000Y-129016000D01*
X150714000Y-127016000D02*
X149514000Y-127016000D01*
G04 #@! TO.C,R41*
X77308000Y-59207000D02*
X76108000Y-59207000D01*
X76108000Y-59207000D02*
X76108000Y-61207000D01*
X76108000Y-61207000D02*
X77308000Y-61207000D01*
X77308000Y-61207000D02*
X77308000Y-59207000D01*
G04 #@! TO.C,R42*
X77708000Y-80934000D02*
X75708000Y-80934000D01*
X77708000Y-82134000D02*
X77708000Y-80934000D01*
X75708000Y-82134000D02*
X77708000Y-82134000D01*
X75708000Y-80934000D02*
X75708000Y-82134000D01*
G04 #@! TO.C,R43*
X75708000Y-102270000D02*
X75708000Y-103470000D01*
X75708000Y-103470000D02*
X77708000Y-103470000D01*
X77708000Y-103470000D02*
X77708000Y-102270000D01*
X77708000Y-102270000D02*
X75708000Y-102270000D01*
G04 #@! TO.C,R44*
X83836000Y-106842000D02*
X83836000Y-108042000D01*
X83836000Y-108042000D02*
X85836000Y-108042000D01*
X85836000Y-108042000D02*
X85836000Y-106842000D01*
X85836000Y-106842000D02*
X83836000Y-106842000D01*
G04 #@! TO.C,R45*
X97003000Y-108804000D02*
X97003000Y-107604000D01*
X97003000Y-107604000D02*
X95003000Y-107604000D01*
X95003000Y-107604000D02*
X95003000Y-108804000D01*
X95003000Y-108804000D02*
X97003000Y-108804000D01*
G04 #@! TO.C,R46*
X114824000Y-108042000D02*
X116824000Y-108042000D01*
X114824000Y-106842000D02*
X114824000Y-108042000D01*
X116824000Y-106842000D02*
X114824000Y-106842000D01*
X116824000Y-108042000D02*
X116824000Y-106842000D01*
G04 #@! TO.C,R47*
X83658000Y-76438000D02*
X83658000Y-74438000D01*
X82458000Y-76438000D02*
X83658000Y-76438000D01*
X82458000Y-74438000D02*
X82458000Y-76438000D01*
X83658000Y-74438000D02*
X82458000Y-74438000D01*
G04 #@! TO.C,R48*
X82058000Y-85760000D02*
X82058000Y-86960000D01*
X82058000Y-86960000D02*
X84058000Y-86960000D01*
X84058000Y-86960000D02*
X84058000Y-85760000D01*
X84058000Y-85760000D02*
X82058000Y-85760000D01*
G04 #@! TO.C,R49*
X82058000Y-114462000D02*
X82058000Y-115662000D01*
X82058000Y-115662000D02*
X84058000Y-115662000D01*
X84058000Y-115662000D02*
X84058000Y-114462000D01*
X84058000Y-114462000D02*
X82058000Y-114462000D01*
G04 #@! TO.C,R50*
X85836000Y-125638000D02*
X83836000Y-125638000D01*
X85836000Y-126838000D02*
X85836000Y-125638000D01*
X83836000Y-126838000D02*
X85836000Y-126838000D01*
X83836000Y-125638000D02*
X83836000Y-126838000D01*
G04 #@! TO.C,R51*
X95012000Y-126076000D02*
X97012000Y-126076000D01*
X95012000Y-124876000D02*
X95012000Y-126076000D01*
X97012000Y-124876000D02*
X95012000Y-124876000D01*
X97012000Y-126076000D02*
X97012000Y-124876000D01*
G04 #@! TO.C,R52*
X114570000Y-126838000D02*
X116570000Y-126838000D01*
X114570000Y-125638000D02*
X114570000Y-126838000D01*
X116570000Y-125638000D02*
X114570000Y-125638000D01*
X116570000Y-126838000D02*
X116570000Y-125638000D01*
G04 #@! TO.C,R53*
X189830000Y-66818000D02*
X188630000Y-66818000D01*
X188630000Y-66818000D02*
X188630000Y-68818000D01*
X188630000Y-68818000D02*
X189830000Y-68818000D01*
X189830000Y-68818000D02*
X189830000Y-66818000D01*
G04 #@! TO.C,R54*
X188630000Y-110252000D02*
X188630000Y-112252000D01*
X189830000Y-110252000D02*
X188630000Y-110252000D01*
X189830000Y-112252000D02*
X189830000Y-110252000D01*
X188630000Y-112252000D02*
X189830000Y-112252000D01*
G04 #@! TO.C,D5*
X129248000Y-60630000D02*
X130848000Y-60630000D01*
X129248000Y-63830000D02*
X129248000Y-60630000D01*
X130448000Y-63830000D02*
X129248000Y-63830000D01*
X130848000Y-63430000D02*
X130448000Y-63830000D01*
X130848000Y-60630000D02*
X130848000Y-63430000D01*
G04 #@! TO.C,D6*
X135598000Y-60630000D02*
X137198000Y-60630000D01*
X135598000Y-63830000D02*
X135598000Y-60630000D01*
X136798000Y-63830000D02*
X135598000Y-63830000D01*
X137198000Y-63430000D02*
X136798000Y-63830000D01*
X137198000Y-60630000D02*
X137198000Y-63430000D01*
G04 #@! TO.C,D7*
X129870000Y-109690000D02*
X129870000Y-111290000D01*
X126670000Y-109690000D02*
X129870000Y-109690000D01*
X126670000Y-110890000D02*
X126670000Y-109690000D01*
X127070000Y-111290000D02*
X126670000Y-110890000D01*
X129870000Y-111290000D02*
X127070000Y-111290000D01*
G04 #@! TO.C,D8*
X129870000Y-117640000D02*
X127070000Y-117640000D01*
X127070000Y-117640000D02*
X126670000Y-117240000D01*
X126670000Y-117240000D02*
X126670000Y-116040000D01*
X126670000Y-116040000D02*
X129870000Y-116040000D01*
X129870000Y-116040000D02*
X129870000Y-117640000D01*
G04 #@! TO.C,D9*
X129870000Y-122390000D02*
X129870000Y-123990000D01*
X126670000Y-122390000D02*
X129870000Y-122390000D01*
X126670000Y-123590000D02*
X126670000Y-122390000D01*
X127070000Y-123990000D02*
X126670000Y-123590000D01*
X129870000Y-123990000D02*
X127070000Y-123990000D01*
G04 #@! TO.C,D10*
X156540000Y-107480000D02*
X153740000Y-107480000D01*
X153740000Y-107480000D02*
X153340000Y-107080000D01*
X153340000Y-107080000D02*
X153340000Y-105880000D01*
X153340000Y-105880000D02*
X156540000Y-105880000D01*
X156540000Y-105880000D02*
X156540000Y-107480000D01*
G04 #@! TO.C,D11*
X156540000Y-113830000D02*
X153740000Y-113830000D01*
X153740000Y-113830000D02*
X153340000Y-113430000D01*
X153340000Y-113430000D02*
X153340000Y-112230000D01*
X153340000Y-112230000D02*
X156540000Y-112230000D01*
X156540000Y-112230000D02*
X156540000Y-113830000D01*
G04 #@! TO.C,D12*
X156540000Y-119850000D02*
X156540000Y-121450000D01*
X153340000Y-119850000D02*
X156540000Y-119850000D01*
X153340000Y-121050000D02*
X153340000Y-119850000D01*
X153740000Y-121450000D02*
X153340000Y-121050000D01*
X156540000Y-121450000D02*
X153740000Y-121450000D01*
G04 #@! TO.C,D13*
X156540000Y-127800000D02*
X153740000Y-127800000D01*
X153740000Y-127800000D02*
X153340000Y-127400000D01*
X153340000Y-127400000D02*
X153340000Y-126200000D01*
X153340000Y-126200000D02*
X156540000Y-126200000D01*
X156540000Y-126200000D02*
X156540000Y-127800000D01*
G04 #@! TO.C,D14*
X77508000Y-53010000D02*
X77508000Y-55810000D01*
X77508000Y-55810000D02*
X77108000Y-56210000D01*
X77108000Y-56210000D02*
X75908000Y-56210000D01*
X75908000Y-56210000D02*
X75908000Y-53010000D01*
X75908000Y-53010000D02*
X77508000Y-53010000D01*
G04 #@! TO.C,D15*
X69520000Y-80734000D02*
X72320000Y-80734000D01*
X72320000Y-80734000D02*
X72720000Y-81134000D01*
X72720000Y-81134000D02*
X72720000Y-82334000D01*
X72720000Y-82334000D02*
X69520000Y-82334000D01*
X69520000Y-82334000D02*
X69520000Y-80734000D01*
G04 #@! TO.C,D16*
X69520000Y-103670000D02*
X69520000Y-102070000D01*
X72720000Y-103670000D02*
X69520000Y-103670000D01*
X72720000Y-102470000D02*
X72720000Y-103670000D01*
X72320000Y-102070000D02*
X72720000Y-102470000D01*
X69520000Y-102070000D02*
X72320000Y-102070000D01*
G04 #@! TO.C,D17*
X84620000Y-101270000D02*
X84620000Y-104070000D01*
X84620000Y-104070000D02*
X84220000Y-104470000D01*
X84220000Y-104470000D02*
X83020000Y-104470000D01*
X83020000Y-104470000D02*
X83020000Y-101270000D01*
X83020000Y-101270000D02*
X84620000Y-101270000D01*
G04 #@! TO.C,D18*
X103200000Y-107404000D02*
X103200000Y-109004000D01*
X100000000Y-107404000D02*
X103200000Y-107404000D01*
X100000000Y-108604000D02*
X100000000Y-107404000D01*
X100400000Y-109004000D02*
X100000000Y-108604000D01*
X103200000Y-109004000D02*
X100400000Y-109004000D01*
G04 #@! TO.C,D19*
X117640000Y-101270000D02*
X117640000Y-104070000D01*
X117640000Y-104070000D02*
X117240000Y-104470000D01*
X117240000Y-104470000D02*
X116040000Y-104470000D01*
X116040000Y-104470000D02*
X116040000Y-101270000D01*
X116040000Y-101270000D02*
X117640000Y-101270000D01*
G04 #@! TO.C,D20*
X82258000Y-68250000D02*
X83858000Y-68250000D01*
X82258000Y-71450000D02*
X82258000Y-68250000D01*
X83458000Y-71450000D02*
X82258000Y-71450000D01*
X83858000Y-71050000D02*
X83458000Y-71450000D01*
X83858000Y-68250000D02*
X83858000Y-71050000D01*
G04 #@! TO.C,D21*
X75870000Y-87160000D02*
X75870000Y-85560000D01*
X79070000Y-87160000D02*
X75870000Y-87160000D01*
X79070000Y-85960000D02*
X79070000Y-87160000D01*
X78670000Y-85560000D02*
X79070000Y-85960000D01*
X75870000Y-85560000D02*
X78670000Y-85560000D01*
G04 #@! TO.C,D22*
X75870000Y-115862000D02*
X75870000Y-114262000D01*
X79070000Y-115862000D02*
X75870000Y-115862000D01*
X79070000Y-114662000D02*
X79070000Y-115862000D01*
X78670000Y-114262000D02*
X79070000Y-114662000D01*
X75870000Y-114262000D02*
X78670000Y-114262000D01*
G04 #@! TO.C,D23*
X83020000Y-132410000D02*
X83020000Y-129610000D01*
X83020000Y-129610000D02*
X83420000Y-129210000D01*
X83420000Y-129210000D02*
X84620000Y-129210000D01*
X84620000Y-129210000D02*
X84620000Y-132410000D01*
X84620000Y-132410000D02*
X83020000Y-132410000D01*
G04 #@! TO.C,D24*
X103200000Y-126276000D02*
X100400000Y-126276000D01*
X100400000Y-126276000D02*
X100000000Y-125876000D01*
X100000000Y-125876000D02*
X100000000Y-124676000D01*
X100000000Y-124676000D02*
X103200000Y-124676000D01*
X103200000Y-124676000D02*
X103200000Y-126276000D01*
G04 #@! TO.C,D25*
X115786000Y-132410000D02*
X115786000Y-129610000D01*
X115786000Y-129610000D02*
X116186000Y-129210000D01*
X116186000Y-129210000D02*
X117386000Y-129210000D01*
X117386000Y-129210000D02*
X117386000Y-132410000D01*
X117386000Y-132410000D02*
X115786000Y-132410000D01*
G04 #@! TO.C,D26*
X188430000Y-60630000D02*
X190030000Y-60630000D01*
X188430000Y-63830000D02*
X188430000Y-60630000D01*
X189630000Y-63830000D02*
X188430000Y-63830000D01*
X190030000Y-63430000D02*
X189630000Y-63830000D01*
X190030000Y-60630000D02*
X190030000Y-63430000D01*
G04 #@! TO.C,D27*
X190030000Y-118440000D02*
X188430000Y-118440000D01*
X190030000Y-115240000D02*
X190030000Y-118440000D01*
X188830000Y-115240000D02*
X190030000Y-115240000D01*
X188430000Y-115640000D02*
X188830000Y-115240000D01*
X188430000Y-118440000D02*
X188430000Y-115640000D01*
G04 #@! TD*
G04 #@! TO.C,Q17*
D11*
X129872952Y-102695619D02*
X129968190Y-102648000D01*
X130063428Y-102552761D01*
X130206285Y-102409904D01*
X130301523Y-102362285D01*
X130396761Y-102362285D01*
X130349142Y-102600380D02*
X130444380Y-102552761D01*
X130539619Y-102457523D01*
X130587238Y-102267047D01*
X130587238Y-101933714D01*
X130539619Y-101743238D01*
X130444380Y-101648000D01*
X130349142Y-101600380D01*
X130158666Y-101600380D01*
X130063428Y-101648000D01*
X129968190Y-101743238D01*
X129920571Y-101933714D01*
X129920571Y-102267047D01*
X129968190Y-102457523D01*
X130063428Y-102552761D01*
X130158666Y-102600380D01*
X130349142Y-102600380D01*
X129730095Y-102695619D02*
X128968190Y-102695619D01*
X128730095Y-102600380D02*
X128730095Y-101600380D01*
X128158666Y-102600380D01*
X128158666Y-101600380D01*
X127682476Y-102600380D02*
X127682476Y-101600380D01*
X127301523Y-101600380D01*
X127206285Y-101648000D01*
X127158666Y-101695619D01*
X127111047Y-101790857D01*
X127111047Y-101933714D01*
X127158666Y-102028952D01*
X127206285Y-102076571D01*
X127301523Y-102124190D01*
X127682476Y-102124190D01*
X126682476Y-102600380D02*
X126682476Y-101600380D01*
X126111047Y-102600380D01*
X126111047Y-101600380D01*
X125872952Y-102695619D02*
X125111047Y-102695619D01*
X124539619Y-102076571D02*
X124396761Y-102124190D01*
X124349142Y-102171809D01*
X124301523Y-102267047D01*
X124301523Y-102409904D01*
X124349142Y-102505142D01*
X124396761Y-102552761D01*
X124492000Y-102600380D01*
X124872952Y-102600380D01*
X124872952Y-101600380D01*
X124539619Y-101600380D01*
X124444380Y-101648000D01*
X124396761Y-101695619D01*
X124349142Y-101790857D01*
X124349142Y-101886095D01*
X124396761Y-101981333D01*
X124444380Y-102028952D01*
X124539619Y-102076571D01*
X124872952Y-102076571D01*
X123872952Y-102076571D02*
X123539619Y-102076571D01*
X123396761Y-102600380D02*
X123872952Y-102600380D01*
X123872952Y-101600380D01*
X123396761Y-101600380D01*
X122396761Y-102505142D02*
X122444380Y-102552761D01*
X122587238Y-102600380D01*
X122682476Y-102600380D01*
X122825333Y-102552761D01*
X122920571Y-102457523D01*
X122968190Y-102362285D01*
X123015809Y-102171809D01*
X123015809Y-102028952D01*
X122968190Y-101838476D01*
X122920571Y-101743238D01*
X122825333Y-101648000D01*
X122682476Y-101600380D01*
X122587238Y-101600380D01*
X122444380Y-101648000D01*
X122396761Y-101695619D01*
D12*
X126218190Y-104933714D02*
X126242000Y-104981333D01*
X126289619Y-105028952D01*
X126361047Y-105100380D01*
X126384857Y-105148000D01*
X126384857Y-105195619D01*
X126265809Y-105171809D02*
X126289619Y-105219428D01*
X126337238Y-105267047D01*
X126432476Y-105290857D01*
X126599142Y-105290857D01*
X126694380Y-105267047D01*
X126742000Y-105219428D01*
X126765809Y-105171809D01*
X126765809Y-105076571D01*
X126742000Y-105028952D01*
X126694380Y-104981333D01*
X126599142Y-104957523D01*
X126432476Y-104957523D01*
X126337238Y-104981333D01*
X126289619Y-105028952D01*
X126265809Y-105076571D01*
X126265809Y-105171809D01*
X126265809Y-104481333D02*
X126265809Y-104767047D01*
X126265809Y-104624190D02*
X126765809Y-104624190D01*
X126694380Y-104671809D01*
X126646761Y-104719428D01*
X126622952Y-104767047D01*
X126765809Y-104314666D02*
X126765809Y-103981333D01*
X126265809Y-104195619D01*
G04 #@! TO.C,Q18*
D11*
X159336952Y-97615619D02*
X159432190Y-97568000D01*
X159527428Y-97472761D01*
X159670285Y-97329904D01*
X159765523Y-97282285D01*
X159860761Y-97282285D01*
X159813142Y-97520380D02*
X159908380Y-97472761D01*
X160003619Y-97377523D01*
X160051238Y-97187047D01*
X160051238Y-96853714D01*
X160003619Y-96663238D01*
X159908380Y-96568000D01*
X159813142Y-96520380D01*
X159622666Y-96520380D01*
X159527428Y-96568000D01*
X159432190Y-96663238D01*
X159384571Y-96853714D01*
X159384571Y-97187047D01*
X159432190Y-97377523D01*
X159527428Y-97472761D01*
X159622666Y-97520380D01*
X159813142Y-97520380D01*
X159194095Y-97615619D02*
X158432190Y-97615619D01*
X158194095Y-97520380D02*
X158194095Y-96520380D01*
X157622666Y-97520380D01*
X157622666Y-96520380D01*
X157146476Y-97520380D02*
X157146476Y-96520380D01*
X156765523Y-96520380D01*
X156670285Y-96568000D01*
X156622666Y-96615619D01*
X156575047Y-96710857D01*
X156575047Y-96853714D01*
X156622666Y-96948952D01*
X156670285Y-96996571D01*
X156765523Y-97044190D01*
X157146476Y-97044190D01*
X156146476Y-97520380D02*
X156146476Y-96520380D01*
X155575047Y-97520380D01*
X155575047Y-96520380D01*
X155336952Y-97615619D02*
X154575047Y-97615619D01*
X154003619Y-96996571D02*
X153860761Y-97044190D01*
X153813142Y-97091809D01*
X153765523Y-97187047D01*
X153765523Y-97329904D01*
X153813142Y-97425142D01*
X153860761Y-97472761D01*
X153956000Y-97520380D01*
X154336952Y-97520380D01*
X154336952Y-96520380D01*
X154003619Y-96520380D01*
X153908380Y-96568000D01*
X153860761Y-96615619D01*
X153813142Y-96710857D01*
X153813142Y-96806095D01*
X153860761Y-96901333D01*
X153908380Y-96948952D01*
X154003619Y-96996571D01*
X154336952Y-96996571D01*
X153336952Y-96996571D02*
X153003619Y-96996571D01*
X152860761Y-97520380D02*
X153336952Y-97520380D01*
X153336952Y-96520380D01*
X152860761Y-96520380D01*
X151860761Y-97425142D02*
X151908380Y-97472761D01*
X152051238Y-97520380D01*
X152146476Y-97520380D01*
X152289333Y-97472761D01*
X152384571Y-97377523D01*
X152432190Y-97282285D01*
X152479809Y-97091809D01*
X152479809Y-96948952D01*
X152432190Y-96758476D01*
X152384571Y-96663238D01*
X152289333Y-96568000D01*
X152146476Y-96520380D01*
X152051238Y-96520380D01*
X151908380Y-96568000D01*
X151860761Y-96615619D01*
D12*
X155682190Y-99853714D02*
X155706000Y-99901333D01*
X155753619Y-99948952D01*
X155825047Y-100020380D01*
X155848857Y-100068000D01*
X155848857Y-100115619D01*
X155729809Y-100091809D02*
X155753619Y-100139428D01*
X155801238Y-100187047D01*
X155896476Y-100210857D01*
X156063142Y-100210857D01*
X156158380Y-100187047D01*
X156206000Y-100139428D01*
X156229809Y-100091809D01*
X156229809Y-99996571D01*
X156206000Y-99948952D01*
X156158380Y-99901333D01*
X156063142Y-99877523D01*
X155896476Y-99877523D01*
X155801238Y-99901333D01*
X155753619Y-99948952D01*
X155729809Y-99996571D01*
X155729809Y-100091809D01*
X155729809Y-99401333D02*
X155729809Y-99687047D01*
X155729809Y-99544190D02*
X156229809Y-99544190D01*
X156158380Y-99591809D01*
X156110761Y-99639428D01*
X156086952Y-99687047D01*
X156015523Y-99115619D02*
X156039333Y-99163238D01*
X156063142Y-99187047D01*
X156110761Y-99210857D01*
X156134571Y-99210857D01*
X156182190Y-99187047D01*
X156206000Y-99163238D01*
X156229809Y-99115619D01*
X156229809Y-99020380D01*
X156206000Y-98972761D01*
X156182190Y-98948952D01*
X156134571Y-98925142D01*
X156110761Y-98925142D01*
X156063142Y-98948952D01*
X156039333Y-98972761D01*
X156015523Y-99020380D01*
X156015523Y-99115619D01*
X155991714Y-99163238D01*
X155967904Y-99187047D01*
X155920285Y-99210857D01*
X155825047Y-99210857D01*
X155777428Y-99187047D01*
X155753619Y-99163238D01*
X155729809Y-99115619D01*
X155729809Y-99020380D01*
X155753619Y-98972761D01*
X155777428Y-98948952D01*
X155825047Y-98925142D01*
X155920285Y-98925142D01*
X155967904Y-98948952D01*
X155991714Y-98972761D01*
X156015523Y-99020380D01*
G04 #@! TO.C,R28*
D11*
X129373238Y-76016380D02*
X129944666Y-76016380D01*
X129658952Y-76016380D02*
X129658952Y-75016380D01*
X129754190Y-75159238D01*
X129849428Y-75254476D01*
X129944666Y-75302095D01*
X128754190Y-75016380D02*
X128658952Y-75016380D01*
X128563714Y-75064000D01*
X128516095Y-75111619D01*
X128468476Y-75206857D01*
X128420857Y-75397333D01*
X128420857Y-75635428D01*
X128468476Y-75825904D01*
X128516095Y-75921142D01*
X128563714Y-75968761D01*
X128658952Y-76016380D01*
X128754190Y-76016380D01*
X128849428Y-75968761D01*
X128897047Y-75921142D01*
X128944666Y-75825904D01*
X128992285Y-75635428D01*
X128992285Y-75397333D01*
X128944666Y-75206857D01*
X128897047Y-75111619D01*
X128849428Y-75064000D01*
X128754190Y-75016380D01*
X127992285Y-76016380D02*
X127992285Y-75016380D01*
X127897047Y-75635428D02*
X127611333Y-76016380D01*
X127611333Y-75349714D02*
X127992285Y-75730666D01*
D13*
X129099428Y-74140190D02*
X129266095Y-73902095D01*
X129385142Y-74140190D02*
X129385142Y-73640190D01*
X129194666Y-73640190D01*
X129147047Y-73664000D01*
X129123238Y-73687809D01*
X129099428Y-73735428D01*
X129099428Y-73806857D01*
X129123238Y-73854476D01*
X129147047Y-73878285D01*
X129194666Y-73902095D01*
X129385142Y-73902095D01*
X128908952Y-73687809D02*
X128885142Y-73664000D01*
X128837523Y-73640190D01*
X128718476Y-73640190D01*
X128670857Y-73664000D01*
X128647047Y-73687809D01*
X128623238Y-73735428D01*
X128623238Y-73783047D01*
X128647047Y-73854476D01*
X128932761Y-74140190D01*
X128623238Y-74140190D01*
X128337523Y-73854476D02*
X128385142Y-73830666D01*
X128408952Y-73806857D01*
X128432761Y-73759238D01*
X128432761Y-73735428D01*
X128408952Y-73687809D01*
X128385142Y-73664000D01*
X128337523Y-73640190D01*
X128242285Y-73640190D01*
X128194666Y-73664000D01*
X128170857Y-73687809D01*
X128147047Y-73735428D01*
X128147047Y-73759238D01*
X128170857Y-73806857D01*
X128194666Y-73830666D01*
X128242285Y-73854476D01*
X128337523Y-73854476D01*
X128385142Y-73878285D01*
X128408952Y-73902095D01*
X128432761Y-73949714D01*
X128432761Y-74044952D01*
X128408952Y-74092571D01*
X128385142Y-74116380D01*
X128337523Y-74140190D01*
X128242285Y-74140190D01*
X128194666Y-74116380D01*
X128170857Y-74092571D01*
X128147047Y-74044952D01*
X128147047Y-73949714D01*
X128170857Y-73902095D01*
X128194666Y-73878285D01*
X128242285Y-73854476D01*
G04 #@! TO.C,R29*
D11*
X131151380Y-67532285D02*
X131151380Y-67341809D01*
X131199000Y-67246571D01*
X131246619Y-67198952D01*
X131389476Y-67103714D01*
X131579952Y-67056095D01*
X131960904Y-67056095D01*
X132056142Y-67103714D01*
X132103761Y-67151333D01*
X132151380Y-67246571D01*
X132151380Y-67437047D01*
X132103761Y-67532285D01*
X132056142Y-67579904D01*
X131960904Y-67627523D01*
X131722809Y-67627523D01*
X131627571Y-67579904D01*
X131579952Y-67532285D01*
X131532333Y-67437047D01*
X131532333Y-67246571D01*
X131579952Y-67151333D01*
X131627571Y-67103714D01*
X131722809Y-67056095D01*
X131579952Y-68198952D02*
X131532333Y-68103714D01*
X131484714Y-68056095D01*
X131389476Y-68008476D01*
X131341857Y-68008476D01*
X131246619Y-68056095D01*
X131199000Y-68103714D01*
X131151380Y-68198952D01*
X131151380Y-68389428D01*
X131199000Y-68484666D01*
X131246619Y-68532285D01*
X131341857Y-68579904D01*
X131389476Y-68579904D01*
X131484714Y-68532285D01*
X131532333Y-68484666D01*
X131579952Y-68389428D01*
X131579952Y-68198952D01*
X131627571Y-68103714D01*
X131675190Y-68056095D01*
X131770428Y-68008476D01*
X131960904Y-68008476D01*
X132056142Y-68056095D01*
X132103761Y-68103714D01*
X132151380Y-68198952D01*
X132151380Y-68389428D01*
X132103761Y-68484666D01*
X132056142Y-68532285D01*
X131960904Y-68579904D01*
X131770428Y-68579904D01*
X131675190Y-68532285D01*
X131627571Y-68484666D01*
X131579952Y-68389428D01*
D13*
X130274190Y-67496571D02*
X130036095Y-67329904D01*
X130274190Y-67210857D02*
X129774190Y-67210857D01*
X129774190Y-67401333D01*
X129798000Y-67448952D01*
X129821809Y-67472761D01*
X129869428Y-67496571D01*
X129940857Y-67496571D01*
X129988476Y-67472761D01*
X130012285Y-67448952D01*
X130036095Y-67401333D01*
X130036095Y-67210857D01*
X129821809Y-67687047D02*
X129798000Y-67710857D01*
X129774190Y-67758476D01*
X129774190Y-67877523D01*
X129798000Y-67925142D01*
X129821809Y-67948952D01*
X129869428Y-67972761D01*
X129917047Y-67972761D01*
X129988476Y-67948952D01*
X130274190Y-67663238D01*
X130274190Y-67972761D01*
X130274190Y-68210857D02*
X130274190Y-68306095D01*
X130250380Y-68353714D01*
X130226571Y-68377523D01*
X130155142Y-68425142D01*
X130059904Y-68448952D01*
X129869428Y-68448952D01*
X129821809Y-68425142D01*
X129798000Y-68401333D01*
X129774190Y-68353714D01*
X129774190Y-68258476D01*
X129798000Y-68210857D01*
X129821809Y-68187047D01*
X129869428Y-68163238D01*
X129988476Y-68163238D01*
X130036095Y-68187047D01*
X130059904Y-68210857D01*
X130083714Y-68258476D01*
X130083714Y-68353714D01*
X130059904Y-68401333D01*
X130036095Y-68425142D01*
X129988476Y-68448952D01*
G04 #@! TO.C,R34*
D11*
X124546380Y-123920285D02*
X124546380Y-123729809D01*
X124594000Y-123634571D01*
X124641619Y-123586952D01*
X124784476Y-123491714D01*
X124974952Y-123444095D01*
X125355904Y-123444095D01*
X125451142Y-123491714D01*
X125498761Y-123539333D01*
X125546380Y-123634571D01*
X125546380Y-123825047D01*
X125498761Y-123920285D01*
X125451142Y-123967904D01*
X125355904Y-124015523D01*
X125117809Y-124015523D01*
X125022571Y-123967904D01*
X124974952Y-123920285D01*
X124927333Y-123825047D01*
X124927333Y-123634571D01*
X124974952Y-123539333D01*
X125022571Y-123491714D01*
X125117809Y-123444095D01*
X124974952Y-124586952D02*
X124927333Y-124491714D01*
X124879714Y-124444095D01*
X124784476Y-124396476D01*
X124736857Y-124396476D01*
X124641619Y-124444095D01*
X124594000Y-124491714D01*
X124546380Y-124586952D01*
X124546380Y-124777428D01*
X124594000Y-124872666D01*
X124641619Y-124920285D01*
X124736857Y-124967904D01*
X124784476Y-124967904D01*
X124879714Y-124920285D01*
X124927333Y-124872666D01*
X124974952Y-124777428D01*
X124974952Y-124586952D01*
X125022571Y-124491714D01*
X125070190Y-124444095D01*
X125165428Y-124396476D01*
X125355904Y-124396476D01*
X125451142Y-124444095D01*
X125498761Y-124491714D01*
X125546380Y-124586952D01*
X125546380Y-124777428D01*
X125498761Y-124872666D01*
X125451142Y-124920285D01*
X125355904Y-124967904D01*
X125165428Y-124967904D01*
X125070190Y-124920285D01*
X125022571Y-124872666D01*
X124974952Y-124777428D01*
D13*
X123670190Y-123884571D02*
X123432095Y-123717904D01*
X123670190Y-123598857D02*
X123170190Y-123598857D01*
X123170190Y-123789333D01*
X123194000Y-123836952D01*
X123217809Y-123860761D01*
X123265428Y-123884571D01*
X123336857Y-123884571D01*
X123384476Y-123860761D01*
X123408285Y-123836952D01*
X123432095Y-123789333D01*
X123432095Y-123598857D01*
X123170190Y-124051238D02*
X123170190Y-124360761D01*
X123360666Y-124194095D01*
X123360666Y-124265523D01*
X123384476Y-124313142D01*
X123408285Y-124336952D01*
X123455904Y-124360761D01*
X123574952Y-124360761D01*
X123622571Y-124336952D01*
X123646380Y-124313142D01*
X123670190Y-124265523D01*
X123670190Y-124122666D01*
X123646380Y-124075047D01*
X123622571Y-124051238D01*
X123336857Y-124789333D02*
X123670190Y-124789333D01*
X123146380Y-124670285D02*
X123503523Y-124551238D01*
X123503523Y-124860761D01*
G04 #@! TO.C,R35*
D11*
X152216380Y-98972761D02*
X152216380Y-98401333D01*
X152216380Y-98687047D02*
X151216380Y-98687047D01*
X151359238Y-98591809D01*
X151454476Y-98496571D01*
X151502095Y-98401333D01*
X151216380Y-99591809D02*
X151216380Y-99687047D01*
X151264000Y-99782285D01*
X151311619Y-99829904D01*
X151406857Y-99877523D01*
X151597333Y-99925142D01*
X151835428Y-99925142D01*
X152025904Y-99877523D01*
X152121142Y-99829904D01*
X152168761Y-99782285D01*
X152216380Y-99687047D01*
X152216380Y-99591809D01*
X152168761Y-99496571D01*
X152121142Y-99448952D01*
X152025904Y-99401333D01*
X151835428Y-99353714D01*
X151597333Y-99353714D01*
X151406857Y-99401333D01*
X151311619Y-99448952D01*
X151264000Y-99496571D01*
X151216380Y-99591809D01*
X152216380Y-100353714D02*
X151216380Y-100353714D01*
X151835428Y-100448952D02*
X152216380Y-100734666D01*
X151549714Y-100734666D02*
X151930666Y-100353714D01*
D13*
X150340190Y-99246571D02*
X150102095Y-99079904D01*
X150340190Y-98960857D02*
X149840190Y-98960857D01*
X149840190Y-99151333D01*
X149864000Y-99198952D01*
X149887809Y-99222761D01*
X149935428Y-99246571D01*
X150006857Y-99246571D01*
X150054476Y-99222761D01*
X150078285Y-99198952D01*
X150102095Y-99151333D01*
X150102095Y-98960857D01*
X149840190Y-99413238D02*
X149840190Y-99722761D01*
X150030666Y-99556095D01*
X150030666Y-99627523D01*
X150054476Y-99675142D01*
X150078285Y-99698952D01*
X150125904Y-99722761D01*
X150244952Y-99722761D01*
X150292571Y-99698952D01*
X150316380Y-99675142D01*
X150340190Y-99627523D01*
X150340190Y-99484666D01*
X150316380Y-99437047D01*
X150292571Y-99413238D01*
X149840190Y-100175142D02*
X149840190Y-99937047D01*
X150078285Y-99913238D01*
X150054476Y-99937047D01*
X150030666Y-99984666D01*
X150030666Y-100103714D01*
X150054476Y-100151333D01*
X150078285Y-100175142D01*
X150125904Y-100198952D01*
X150244952Y-100198952D01*
X150292571Y-100175142D01*
X150316380Y-100151333D01*
X150340190Y-100103714D01*
X150340190Y-99984666D01*
X150316380Y-99937047D01*
X150292571Y-99913238D01*
G04 #@! TO.C,R36*
D11*
X147916380Y-105378285D02*
X147916380Y-105187809D01*
X147964000Y-105092571D01*
X148011619Y-105044952D01*
X148154476Y-104949714D01*
X148344952Y-104902095D01*
X148725904Y-104902095D01*
X148821142Y-104949714D01*
X148868761Y-104997333D01*
X148916380Y-105092571D01*
X148916380Y-105283047D01*
X148868761Y-105378285D01*
X148821142Y-105425904D01*
X148725904Y-105473523D01*
X148487809Y-105473523D01*
X148392571Y-105425904D01*
X148344952Y-105378285D01*
X148297333Y-105283047D01*
X148297333Y-105092571D01*
X148344952Y-104997333D01*
X148392571Y-104949714D01*
X148487809Y-104902095D01*
X148344952Y-106044952D02*
X148297333Y-105949714D01*
X148249714Y-105902095D01*
X148154476Y-105854476D01*
X148106857Y-105854476D01*
X148011619Y-105902095D01*
X147964000Y-105949714D01*
X147916380Y-106044952D01*
X147916380Y-106235428D01*
X147964000Y-106330666D01*
X148011619Y-106378285D01*
X148106857Y-106425904D01*
X148154476Y-106425904D01*
X148249714Y-106378285D01*
X148297333Y-106330666D01*
X148344952Y-106235428D01*
X148344952Y-106044952D01*
X148392571Y-105949714D01*
X148440190Y-105902095D01*
X148535428Y-105854476D01*
X148725904Y-105854476D01*
X148821142Y-105902095D01*
X148868761Y-105949714D01*
X148916380Y-106044952D01*
X148916380Y-106235428D01*
X148868761Y-106330666D01*
X148821142Y-106378285D01*
X148725904Y-106425904D01*
X148535428Y-106425904D01*
X148440190Y-106378285D01*
X148392571Y-106330666D01*
X148344952Y-106235428D01*
D13*
X150340190Y-105342571D02*
X150102095Y-105175904D01*
X150340190Y-105056857D02*
X149840190Y-105056857D01*
X149840190Y-105247333D01*
X149864000Y-105294952D01*
X149887809Y-105318761D01*
X149935428Y-105342571D01*
X150006857Y-105342571D01*
X150054476Y-105318761D01*
X150078285Y-105294952D01*
X150102095Y-105247333D01*
X150102095Y-105056857D01*
X149840190Y-105509238D02*
X149840190Y-105818761D01*
X150030666Y-105652095D01*
X150030666Y-105723523D01*
X150054476Y-105771142D01*
X150078285Y-105794952D01*
X150125904Y-105818761D01*
X150244952Y-105818761D01*
X150292571Y-105794952D01*
X150316380Y-105771142D01*
X150340190Y-105723523D01*
X150340190Y-105580666D01*
X150316380Y-105533047D01*
X150292571Y-105509238D01*
X149840190Y-106247333D02*
X149840190Y-106152095D01*
X149864000Y-106104476D01*
X149887809Y-106080666D01*
X149959238Y-106033047D01*
X150054476Y-106009238D01*
X150244952Y-106009238D01*
X150292571Y-106033047D01*
X150316380Y-106056857D01*
X150340190Y-106104476D01*
X150340190Y-106199714D01*
X150316380Y-106247333D01*
X150292571Y-106271142D01*
X150244952Y-106294952D01*
X150125904Y-106294952D01*
X150078285Y-106271142D01*
X150054476Y-106247333D01*
X150030666Y-106199714D01*
X150030666Y-106104476D01*
X150054476Y-106056857D01*
X150078285Y-106033047D01*
X150125904Y-106009238D01*
G04 #@! TO.C,R37*
D11*
X147916380Y-111728285D02*
X147916380Y-111537809D01*
X147964000Y-111442571D01*
X148011619Y-111394952D01*
X148154476Y-111299714D01*
X148344952Y-111252095D01*
X148725904Y-111252095D01*
X148821142Y-111299714D01*
X148868761Y-111347333D01*
X148916380Y-111442571D01*
X148916380Y-111633047D01*
X148868761Y-111728285D01*
X148821142Y-111775904D01*
X148725904Y-111823523D01*
X148487809Y-111823523D01*
X148392571Y-111775904D01*
X148344952Y-111728285D01*
X148297333Y-111633047D01*
X148297333Y-111442571D01*
X148344952Y-111347333D01*
X148392571Y-111299714D01*
X148487809Y-111252095D01*
X148344952Y-112394952D02*
X148297333Y-112299714D01*
X148249714Y-112252095D01*
X148154476Y-112204476D01*
X148106857Y-112204476D01*
X148011619Y-112252095D01*
X147964000Y-112299714D01*
X147916380Y-112394952D01*
X147916380Y-112585428D01*
X147964000Y-112680666D01*
X148011619Y-112728285D01*
X148106857Y-112775904D01*
X148154476Y-112775904D01*
X148249714Y-112728285D01*
X148297333Y-112680666D01*
X148344952Y-112585428D01*
X148344952Y-112394952D01*
X148392571Y-112299714D01*
X148440190Y-112252095D01*
X148535428Y-112204476D01*
X148725904Y-112204476D01*
X148821142Y-112252095D01*
X148868761Y-112299714D01*
X148916380Y-112394952D01*
X148916380Y-112585428D01*
X148868761Y-112680666D01*
X148821142Y-112728285D01*
X148725904Y-112775904D01*
X148535428Y-112775904D01*
X148440190Y-112728285D01*
X148392571Y-112680666D01*
X148344952Y-112585428D01*
D13*
X150340190Y-111692571D02*
X150102095Y-111525904D01*
X150340190Y-111406857D02*
X149840190Y-111406857D01*
X149840190Y-111597333D01*
X149864000Y-111644952D01*
X149887809Y-111668761D01*
X149935428Y-111692571D01*
X150006857Y-111692571D01*
X150054476Y-111668761D01*
X150078285Y-111644952D01*
X150102095Y-111597333D01*
X150102095Y-111406857D01*
X149840190Y-111859238D02*
X149840190Y-112168761D01*
X150030666Y-112002095D01*
X150030666Y-112073523D01*
X150054476Y-112121142D01*
X150078285Y-112144952D01*
X150125904Y-112168761D01*
X150244952Y-112168761D01*
X150292571Y-112144952D01*
X150316380Y-112121142D01*
X150340190Y-112073523D01*
X150340190Y-111930666D01*
X150316380Y-111883047D01*
X150292571Y-111859238D01*
X149840190Y-112335428D02*
X149840190Y-112668761D01*
X150340190Y-112454476D01*
G04 #@! TO.C,R39*
D11*
X151216380Y-121380285D02*
X151216380Y-121189809D01*
X151264000Y-121094571D01*
X151311619Y-121046952D01*
X151454476Y-120951714D01*
X151644952Y-120904095D01*
X152025904Y-120904095D01*
X152121142Y-120951714D01*
X152168761Y-120999333D01*
X152216380Y-121094571D01*
X152216380Y-121285047D01*
X152168761Y-121380285D01*
X152121142Y-121427904D01*
X152025904Y-121475523D01*
X151787809Y-121475523D01*
X151692571Y-121427904D01*
X151644952Y-121380285D01*
X151597333Y-121285047D01*
X151597333Y-121094571D01*
X151644952Y-120999333D01*
X151692571Y-120951714D01*
X151787809Y-120904095D01*
X151644952Y-122046952D02*
X151597333Y-121951714D01*
X151549714Y-121904095D01*
X151454476Y-121856476D01*
X151406857Y-121856476D01*
X151311619Y-121904095D01*
X151264000Y-121951714D01*
X151216380Y-122046952D01*
X151216380Y-122237428D01*
X151264000Y-122332666D01*
X151311619Y-122380285D01*
X151406857Y-122427904D01*
X151454476Y-122427904D01*
X151549714Y-122380285D01*
X151597333Y-122332666D01*
X151644952Y-122237428D01*
X151644952Y-122046952D01*
X151692571Y-121951714D01*
X151740190Y-121904095D01*
X151835428Y-121856476D01*
X152025904Y-121856476D01*
X152121142Y-121904095D01*
X152168761Y-121951714D01*
X152216380Y-122046952D01*
X152216380Y-122237428D01*
X152168761Y-122332666D01*
X152121142Y-122380285D01*
X152025904Y-122427904D01*
X151835428Y-122427904D01*
X151740190Y-122380285D01*
X151692571Y-122332666D01*
X151644952Y-122237428D01*
D13*
X150340190Y-121344571D02*
X150102095Y-121177904D01*
X150340190Y-121058857D02*
X149840190Y-121058857D01*
X149840190Y-121249333D01*
X149864000Y-121296952D01*
X149887809Y-121320761D01*
X149935428Y-121344571D01*
X150006857Y-121344571D01*
X150054476Y-121320761D01*
X150078285Y-121296952D01*
X150102095Y-121249333D01*
X150102095Y-121058857D01*
X149840190Y-121511238D02*
X149840190Y-121820761D01*
X150030666Y-121654095D01*
X150030666Y-121725523D01*
X150054476Y-121773142D01*
X150078285Y-121796952D01*
X150125904Y-121820761D01*
X150244952Y-121820761D01*
X150292571Y-121796952D01*
X150316380Y-121773142D01*
X150340190Y-121725523D01*
X150340190Y-121582666D01*
X150316380Y-121535047D01*
X150292571Y-121511238D01*
X150340190Y-122058857D02*
X150340190Y-122154095D01*
X150316380Y-122201714D01*
X150292571Y-122225523D01*
X150221142Y-122273142D01*
X150125904Y-122296952D01*
X149935428Y-122296952D01*
X149887809Y-122273142D01*
X149864000Y-122249333D01*
X149840190Y-122201714D01*
X149840190Y-122106476D01*
X149864000Y-122058857D01*
X149887809Y-122035047D01*
X149935428Y-122011238D01*
X150054476Y-122011238D01*
X150102095Y-122035047D01*
X150125904Y-122058857D01*
X150149714Y-122106476D01*
X150149714Y-122201714D01*
X150125904Y-122249333D01*
X150102095Y-122273142D01*
X150054476Y-122296952D01*
G04 #@! TO.C,R30*
D11*
X137501380Y-67532285D02*
X137501380Y-67341809D01*
X137549000Y-67246571D01*
X137596619Y-67198952D01*
X137739476Y-67103714D01*
X137929952Y-67056095D01*
X138310904Y-67056095D01*
X138406142Y-67103714D01*
X138453761Y-67151333D01*
X138501380Y-67246571D01*
X138501380Y-67437047D01*
X138453761Y-67532285D01*
X138406142Y-67579904D01*
X138310904Y-67627523D01*
X138072809Y-67627523D01*
X137977571Y-67579904D01*
X137929952Y-67532285D01*
X137882333Y-67437047D01*
X137882333Y-67246571D01*
X137929952Y-67151333D01*
X137977571Y-67103714D01*
X138072809Y-67056095D01*
X137929952Y-68198952D02*
X137882333Y-68103714D01*
X137834714Y-68056095D01*
X137739476Y-68008476D01*
X137691857Y-68008476D01*
X137596619Y-68056095D01*
X137549000Y-68103714D01*
X137501380Y-68198952D01*
X137501380Y-68389428D01*
X137549000Y-68484666D01*
X137596619Y-68532285D01*
X137691857Y-68579904D01*
X137739476Y-68579904D01*
X137834714Y-68532285D01*
X137882333Y-68484666D01*
X137929952Y-68389428D01*
X137929952Y-68198952D01*
X137977571Y-68103714D01*
X138025190Y-68056095D01*
X138120428Y-68008476D01*
X138310904Y-68008476D01*
X138406142Y-68056095D01*
X138453761Y-68103714D01*
X138501380Y-68198952D01*
X138501380Y-68389428D01*
X138453761Y-68484666D01*
X138406142Y-68532285D01*
X138310904Y-68579904D01*
X138120428Y-68579904D01*
X138025190Y-68532285D01*
X137977571Y-68484666D01*
X137929952Y-68389428D01*
D13*
X136624190Y-67496571D02*
X136386095Y-67329904D01*
X136624190Y-67210857D02*
X136124190Y-67210857D01*
X136124190Y-67401333D01*
X136148000Y-67448952D01*
X136171809Y-67472761D01*
X136219428Y-67496571D01*
X136290857Y-67496571D01*
X136338476Y-67472761D01*
X136362285Y-67448952D01*
X136386095Y-67401333D01*
X136386095Y-67210857D01*
X136124190Y-67663238D02*
X136124190Y-67972761D01*
X136314666Y-67806095D01*
X136314666Y-67877523D01*
X136338476Y-67925142D01*
X136362285Y-67948952D01*
X136409904Y-67972761D01*
X136528952Y-67972761D01*
X136576571Y-67948952D01*
X136600380Y-67925142D01*
X136624190Y-67877523D01*
X136624190Y-67734666D01*
X136600380Y-67687047D01*
X136576571Y-67663238D01*
X136124190Y-68282285D02*
X136124190Y-68329904D01*
X136148000Y-68377523D01*
X136171809Y-68401333D01*
X136219428Y-68425142D01*
X136314666Y-68448952D01*
X136433714Y-68448952D01*
X136528952Y-68425142D01*
X136576571Y-68401333D01*
X136600380Y-68377523D01*
X136624190Y-68329904D01*
X136624190Y-68282285D01*
X136600380Y-68234666D01*
X136576571Y-68210857D01*
X136528952Y-68187047D01*
X136433714Y-68163238D01*
X136314666Y-68163238D01*
X136219428Y-68187047D01*
X136171809Y-68210857D01*
X136148000Y-68234666D01*
X136124190Y-68282285D01*
G04 #@! TO.C,R31*
D11*
X122752380Y-104052761D02*
X122752380Y-103481333D01*
X122752380Y-103767047D02*
X121752380Y-103767047D01*
X121895238Y-103671809D01*
X121990476Y-103576571D01*
X122038095Y-103481333D01*
X121752380Y-104671809D02*
X121752380Y-104767047D01*
X121800000Y-104862285D01*
X121847619Y-104909904D01*
X121942857Y-104957523D01*
X122133333Y-105005142D01*
X122371428Y-105005142D01*
X122561904Y-104957523D01*
X122657142Y-104909904D01*
X122704761Y-104862285D01*
X122752380Y-104767047D01*
X122752380Y-104671809D01*
X122704761Y-104576571D01*
X122657142Y-104528952D01*
X122561904Y-104481333D01*
X122371428Y-104433714D01*
X122133333Y-104433714D01*
X121942857Y-104481333D01*
X121847619Y-104528952D01*
X121800000Y-104576571D01*
X121752380Y-104671809D01*
X122752380Y-105433714D02*
X121752380Y-105433714D01*
X122371428Y-105528952D02*
X122752380Y-105814666D01*
X122085714Y-105814666D02*
X122466666Y-105433714D01*
D13*
X120876190Y-104326571D02*
X120638095Y-104159904D01*
X120876190Y-104040857D02*
X120376190Y-104040857D01*
X120376190Y-104231333D01*
X120400000Y-104278952D01*
X120423809Y-104302761D01*
X120471428Y-104326571D01*
X120542857Y-104326571D01*
X120590476Y-104302761D01*
X120614285Y-104278952D01*
X120638095Y-104231333D01*
X120638095Y-104040857D01*
X120376190Y-104493238D02*
X120376190Y-104802761D01*
X120566666Y-104636095D01*
X120566666Y-104707523D01*
X120590476Y-104755142D01*
X120614285Y-104778952D01*
X120661904Y-104802761D01*
X120780952Y-104802761D01*
X120828571Y-104778952D01*
X120852380Y-104755142D01*
X120876190Y-104707523D01*
X120876190Y-104564666D01*
X120852380Y-104517047D01*
X120828571Y-104493238D01*
X120876190Y-105278952D02*
X120876190Y-104993238D01*
X120876190Y-105136095D02*
X120376190Y-105136095D01*
X120447619Y-105088476D01*
X120495238Y-105040857D01*
X120519047Y-104993238D01*
G04 #@! TO.C,Q16*
D11*
X138254952Y-70969119D02*
X138350190Y-70921500D01*
X138445428Y-70826261D01*
X138588285Y-70683404D01*
X138683523Y-70635785D01*
X138778761Y-70635785D01*
X138731142Y-70873880D02*
X138826380Y-70826261D01*
X138921619Y-70731023D01*
X138969238Y-70540547D01*
X138969238Y-70207214D01*
X138921619Y-70016738D01*
X138826380Y-69921500D01*
X138731142Y-69873880D01*
X138540666Y-69873880D01*
X138445428Y-69921500D01*
X138350190Y-70016738D01*
X138302571Y-70207214D01*
X138302571Y-70540547D01*
X138350190Y-70731023D01*
X138445428Y-70826261D01*
X138540666Y-70873880D01*
X138731142Y-70873880D01*
X138112095Y-70969119D02*
X137350190Y-70969119D01*
X137112095Y-70873880D02*
X137112095Y-69873880D01*
X136540666Y-70873880D01*
X136540666Y-69873880D01*
X136064476Y-70873880D02*
X136064476Y-69873880D01*
X135683523Y-69873880D01*
X135588285Y-69921500D01*
X135540666Y-69969119D01*
X135493047Y-70064357D01*
X135493047Y-70207214D01*
X135540666Y-70302452D01*
X135588285Y-70350071D01*
X135683523Y-70397690D01*
X136064476Y-70397690D01*
X135064476Y-70873880D02*
X135064476Y-69873880D01*
X134493047Y-70873880D01*
X134493047Y-69873880D01*
X134254952Y-70969119D02*
X133493047Y-70969119D01*
X132921619Y-70350071D02*
X132778761Y-70397690D01*
X132731142Y-70445309D01*
X132683523Y-70540547D01*
X132683523Y-70683404D01*
X132731142Y-70778642D01*
X132778761Y-70826261D01*
X132874000Y-70873880D01*
X133254952Y-70873880D01*
X133254952Y-69873880D01*
X132921619Y-69873880D01*
X132826380Y-69921500D01*
X132778761Y-69969119D01*
X132731142Y-70064357D01*
X132731142Y-70159595D01*
X132778761Y-70254833D01*
X132826380Y-70302452D01*
X132921619Y-70350071D01*
X133254952Y-70350071D01*
X132254952Y-70350071D02*
X131921619Y-70350071D01*
X131778761Y-70873880D02*
X132254952Y-70873880D01*
X132254952Y-69873880D01*
X131778761Y-69873880D01*
X130778761Y-70778642D02*
X130826380Y-70826261D01*
X130969238Y-70873880D01*
X131064476Y-70873880D01*
X131207333Y-70826261D01*
X131302571Y-70731023D01*
X131350190Y-70635785D01*
X131397809Y-70445309D01*
X131397809Y-70302452D01*
X131350190Y-70111976D01*
X131302571Y-70016738D01*
X131207333Y-69921500D01*
X131064476Y-69873880D01*
X130969238Y-69873880D01*
X130826380Y-69921500D01*
X130778761Y-69969119D01*
D12*
X135147809Y-72612285D02*
X135124000Y-72564666D01*
X135076380Y-72517047D01*
X135004952Y-72445619D01*
X134981142Y-72398000D01*
X134981142Y-72350380D01*
X135100190Y-72374190D02*
X135076380Y-72326571D01*
X135028761Y-72278952D01*
X134933523Y-72255142D01*
X134766857Y-72255142D01*
X134671619Y-72278952D01*
X134624000Y-72326571D01*
X134600190Y-72374190D01*
X134600190Y-72469428D01*
X134624000Y-72517047D01*
X134671619Y-72564666D01*
X134766857Y-72588476D01*
X134933523Y-72588476D01*
X135028761Y-72564666D01*
X135076380Y-72517047D01*
X135100190Y-72469428D01*
X135100190Y-72374190D01*
X135100190Y-73064666D02*
X135100190Y-72778952D01*
X135100190Y-72921809D02*
X134600190Y-72921809D01*
X134671619Y-72874190D01*
X134719238Y-72826571D01*
X134743047Y-72778952D01*
X134600190Y-73493238D02*
X134600190Y-73398000D01*
X134624000Y-73350380D01*
X134647809Y-73326571D01*
X134719238Y-73278952D01*
X134814476Y-73255142D01*
X135004952Y-73255142D01*
X135052571Y-73278952D01*
X135076380Y-73302761D01*
X135100190Y-73350380D01*
X135100190Y-73445619D01*
X135076380Y-73493238D01*
X135052571Y-73517047D01*
X135004952Y-73540857D01*
X134885904Y-73540857D01*
X134838285Y-73517047D01*
X134814476Y-73493238D01*
X134790666Y-73445619D01*
X134790666Y-73350380D01*
X134814476Y-73302761D01*
X134838285Y-73278952D01*
X134885904Y-73255142D01*
G04 #@! TO.C,Q19*
D11*
X159336952Y-132159619D02*
X159432190Y-132112000D01*
X159527428Y-132016761D01*
X159670285Y-131873904D01*
X159765523Y-131826285D01*
X159860761Y-131826285D01*
X159813142Y-132064380D02*
X159908380Y-132016761D01*
X160003619Y-131921523D01*
X160051238Y-131731047D01*
X160051238Y-131397714D01*
X160003619Y-131207238D01*
X159908380Y-131112000D01*
X159813142Y-131064380D01*
X159622666Y-131064380D01*
X159527428Y-131112000D01*
X159432190Y-131207238D01*
X159384571Y-131397714D01*
X159384571Y-131731047D01*
X159432190Y-131921523D01*
X159527428Y-132016761D01*
X159622666Y-132064380D01*
X159813142Y-132064380D01*
X159194095Y-132159619D02*
X158432190Y-132159619D01*
X158194095Y-132064380D02*
X158194095Y-131064380D01*
X157622666Y-132064380D01*
X157622666Y-131064380D01*
X157146476Y-132064380D02*
X157146476Y-131064380D01*
X156765523Y-131064380D01*
X156670285Y-131112000D01*
X156622666Y-131159619D01*
X156575047Y-131254857D01*
X156575047Y-131397714D01*
X156622666Y-131492952D01*
X156670285Y-131540571D01*
X156765523Y-131588190D01*
X157146476Y-131588190D01*
X156146476Y-132064380D02*
X156146476Y-131064380D01*
X155575047Y-132064380D01*
X155575047Y-131064380D01*
X155336952Y-132159619D02*
X154575047Y-132159619D01*
X154003619Y-131540571D02*
X153860761Y-131588190D01*
X153813142Y-131635809D01*
X153765523Y-131731047D01*
X153765523Y-131873904D01*
X153813142Y-131969142D01*
X153860761Y-132016761D01*
X153956000Y-132064380D01*
X154336952Y-132064380D01*
X154336952Y-131064380D01*
X154003619Y-131064380D01*
X153908380Y-131112000D01*
X153860761Y-131159619D01*
X153813142Y-131254857D01*
X153813142Y-131350095D01*
X153860761Y-131445333D01*
X153908380Y-131492952D01*
X154003619Y-131540571D01*
X154336952Y-131540571D01*
X153336952Y-131540571D02*
X153003619Y-131540571D01*
X152860761Y-132064380D02*
X153336952Y-132064380D01*
X153336952Y-131064380D01*
X152860761Y-131064380D01*
X151860761Y-131969142D02*
X151908380Y-132016761D01*
X152051238Y-132064380D01*
X152146476Y-132064380D01*
X152289333Y-132016761D01*
X152384571Y-131921523D01*
X152432190Y-131826285D01*
X152479809Y-131635809D01*
X152479809Y-131492952D01*
X152432190Y-131302476D01*
X152384571Y-131207238D01*
X152289333Y-131112000D01*
X152146476Y-131064380D01*
X152051238Y-131064380D01*
X151908380Y-131112000D01*
X151860761Y-131159619D01*
D12*
X155682190Y-134397714D02*
X155706000Y-134445333D01*
X155753619Y-134492952D01*
X155825047Y-134564380D01*
X155848857Y-134612000D01*
X155848857Y-134659619D01*
X155729809Y-134635809D02*
X155753619Y-134683428D01*
X155801238Y-134731047D01*
X155896476Y-134754857D01*
X156063142Y-134754857D01*
X156158380Y-134731047D01*
X156206000Y-134683428D01*
X156229809Y-134635809D01*
X156229809Y-134540571D01*
X156206000Y-134492952D01*
X156158380Y-134445333D01*
X156063142Y-134421523D01*
X155896476Y-134421523D01*
X155801238Y-134445333D01*
X155753619Y-134492952D01*
X155729809Y-134540571D01*
X155729809Y-134635809D01*
X155729809Y-133945333D02*
X155729809Y-134231047D01*
X155729809Y-134088190D02*
X156229809Y-134088190D01*
X156158380Y-134135809D01*
X156110761Y-134183428D01*
X156086952Y-134231047D01*
X155729809Y-133707238D02*
X155729809Y-133612000D01*
X155753619Y-133564380D01*
X155777428Y-133540571D01*
X155848857Y-133492952D01*
X155944095Y-133469142D01*
X156134571Y-133469142D01*
X156182190Y-133492952D01*
X156206000Y-133516761D01*
X156229809Y-133564380D01*
X156229809Y-133659619D01*
X156206000Y-133707238D01*
X156182190Y-133731047D01*
X156134571Y-133754857D01*
X156015523Y-133754857D01*
X155967904Y-133731047D01*
X155944095Y-133707238D01*
X155920285Y-133659619D01*
X155920285Y-133564380D01*
X155944095Y-133516761D01*
X155967904Y-133492952D01*
X156015523Y-133469142D01*
G04 #@! TO.C,R32*
D11*
X124546380Y-111220285D02*
X124546380Y-111029809D01*
X124594000Y-110934571D01*
X124641619Y-110886952D01*
X124784476Y-110791714D01*
X124974952Y-110744095D01*
X125355904Y-110744095D01*
X125451142Y-110791714D01*
X125498761Y-110839333D01*
X125546380Y-110934571D01*
X125546380Y-111125047D01*
X125498761Y-111220285D01*
X125451142Y-111267904D01*
X125355904Y-111315523D01*
X125117809Y-111315523D01*
X125022571Y-111267904D01*
X124974952Y-111220285D01*
X124927333Y-111125047D01*
X124927333Y-110934571D01*
X124974952Y-110839333D01*
X125022571Y-110791714D01*
X125117809Y-110744095D01*
X124974952Y-111886952D02*
X124927333Y-111791714D01*
X124879714Y-111744095D01*
X124784476Y-111696476D01*
X124736857Y-111696476D01*
X124641619Y-111744095D01*
X124594000Y-111791714D01*
X124546380Y-111886952D01*
X124546380Y-112077428D01*
X124594000Y-112172666D01*
X124641619Y-112220285D01*
X124736857Y-112267904D01*
X124784476Y-112267904D01*
X124879714Y-112220285D01*
X124927333Y-112172666D01*
X124974952Y-112077428D01*
X124974952Y-111886952D01*
X125022571Y-111791714D01*
X125070190Y-111744095D01*
X125165428Y-111696476D01*
X125355904Y-111696476D01*
X125451142Y-111744095D01*
X125498761Y-111791714D01*
X125546380Y-111886952D01*
X125546380Y-112077428D01*
X125498761Y-112172666D01*
X125451142Y-112220285D01*
X125355904Y-112267904D01*
X125165428Y-112267904D01*
X125070190Y-112220285D01*
X125022571Y-112172666D01*
X124974952Y-112077428D01*
D13*
X123670190Y-111184571D02*
X123432095Y-111017904D01*
X123670190Y-110898857D02*
X123170190Y-110898857D01*
X123170190Y-111089333D01*
X123194000Y-111136952D01*
X123217809Y-111160761D01*
X123265428Y-111184571D01*
X123336857Y-111184571D01*
X123384476Y-111160761D01*
X123408285Y-111136952D01*
X123432095Y-111089333D01*
X123432095Y-110898857D01*
X123170190Y-111351238D02*
X123170190Y-111660761D01*
X123360666Y-111494095D01*
X123360666Y-111565523D01*
X123384476Y-111613142D01*
X123408285Y-111636952D01*
X123455904Y-111660761D01*
X123574952Y-111660761D01*
X123622571Y-111636952D01*
X123646380Y-111613142D01*
X123670190Y-111565523D01*
X123670190Y-111422666D01*
X123646380Y-111375047D01*
X123622571Y-111351238D01*
X123217809Y-111851238D02*
X123194000Y-111875047D01*
X123170190Y-111922666D01*
X123170190Y-112041714D01*
X123194000Y-112089333D01*
X123217809Y-112113142D01*
X123265428Y-112136952D01*
X123313047Y-112136952D01*
X123384476Y-112113142D01*
X123670190Y-111827428D01*
X123670190Y-112136952D01*
G04 #@! TO.C,R33*
D11*
X124546380Y-117570285D02*
X124546380Y-117379809D01*
X124594000Y-117284571D01*
X124641619Y-117236952D01*
X124784476Y-117141714D01*
X124974952Y-117094095D01*
X125355904Y-117094095D01*
X125451142Y-117141714D01*
X125498761Y-117189333D01*
X125546380Y-117284571D01*
X125546380Y-117475047D01*
X125498761Y-117570285D01*
X125451142Y-117617904D01*
X125355904Y-117665523D01*
X125117809Y-117665523D01*
X125022571Y-117617904D01*
X124974952Y-117570285D01*
X124927333Y-117475047D01*
X124927333Y-117284571D01*
X124974952Y-117189333D01*
X125022571Y-117141714D01*
X125117809Y-117094095D01*
X124974952Y-118236952D02*
X124927333Y-118141714D01*
X124879714Y-118094095D01*
X124784476Y-118046476D01*
X124736857Y-118046476D01*
X124641619Y-118094095D01*
X124594000Y-118141714D01*
X124546380Y-118236952D01*
X124546380Y-118427428D01*
X124594000Y-118522666D01*
X124641619Y-118570285D01*
X124736857Y-118617904D01*
X124784476Y-118617904D01*
X124879714Y-118570285D01*
X124927333Y-118522666D01*
X124974952Y-118427428D01*
X124974952Y-118236952D01*
X125022571Y-118141714D01*
X125070190Y-118094095D01*
X125165428Y-118046476D01*
X125355904Y-118046476D01*
X125451142Y-118094095D01*
X125498761Y-118141714D01*
X125546380Y-118236952D01*
X125546380Y-118427428D01*
X125498761Y-118522666D01*
X125451142Y-118570285D01*
X125355904Y-118617904D01*
X125165428Y-118617904D01*
X125070190Y-118570285D01*
X125022571Y-118522666D01*
X124974952Y-118427428D01*
D13*
X123670190Y-117534571D02*
X123432095Y-117367904D01*
X123670190Y-117248857D02*
X123170190Y-117248857D01*
X123170190Y-117439333D01*
X123194000Y-117486952D01*
X123217809Y-117510761D01*
X123265428Y-117534571D01*
X123336857Y-117534571D01*
X123384476Y-117510761D01*
X123408285Y-117486952D01*
X123432095Y-117439333D01*
X123432095Y-117248857D01*
X123170190Y-117701238D02*
X123170190Y-118010761D01*
X123360666Y-117844095D01*
X123360666Y-117915523D01*
X123384476Y-117963142D01*
X123408285Y-117986952D01*
X123455904Y-118010761D01*
X123574952Y-118010761D01*
X123622571Y-117986952D01*
X123646380Y-117963142D01*
X123670190Y-117915523D01*
X123670190Y-117772666D01*
X123646380Y-117725047D01*
X123622571Y-117701238D01*
X123170190Y-118177428D02*
X123170190Y-118486952D01*
X123360666Y-118320285D01*
X123360666Y-118391714D01*
X123384476Y-118439333D01*
X123408285Y-118463142D01*
X123455904Y-118486952D01*
X123574952Y-118486952D01*
X123622571Y-118463142D01*
X123646380Y-118439333D01*
X123670190Y-118391714D01*
X123670190Y-118248857D01*
X123646380Y-118201238D01*
X123622571Y-118177428D01*
G04 #@! TO.C,R38*
D11*
X152216380Y-133516761D02*
X152216380Y-132945333D01*
X152216380Y-133231047D02*
X151216380Y-133231047D01*
X151359238Y-133135809D01*
X151454476Y-133040571D01*
X151502095Y-132945333D01*
X151216380Y-134135809D02*
X151216380Y-134231047D01*
X151264000Y-134326285D01*
X151311619Y-134373904D01*
X151406857Y-134421523D01*
X151597333Y-134469142D01*
X151835428Y-134469142D01*
X152025904Y-134421523D01*
X152121142Y-134373904D01*
X152168761Y-134326285D01*
X152216380Y-134231047D01*
X152216380Y-134135809D01*
X152168761Y-134040571D01*
X152121142Y-133992952D01*
X152025904Y-133945333D01*
X151835428Y-133897714D01*
X151597333Y-133897714D01*
X151406857Y-133945333D01*
X151311619Y-133992952D01*
X151264000Y-134040571D01*
X151216380Y-134135809D01*
X152216380Y-134897714D02*
X151216380Y-134897714D01*
X151835428Y-134992952D02*
X152216380Y-135278666D01*
X151549714Y-135278666D02*
X151930666Y-134897714D01*
D13*
X150340190Y-133790571D02*
X150102095Y-133623904D01*
X150340190Y-133504857D02*
X149840190Y-133504857D01*
X149840190Y-133695333D01*
X149864000Y-133742952D01*
X149887809Y-133766761D01*
X149935428Y-133790571D01*
X150006857Y-133790571D01*
X150054476Y-133766761D01*
X150078285Y-133742952D01*
X150102095Y-133695333D01*
X150102095Y-133504857D01*
X149840190Y-133957238D02*
X149840190Y-134266761D01*
X150030666Y-134100095D01*
X150030666Y-134171523D01*
X150054476Y-134219142D01*
X150078285Y-134242952D01*
X150125904Y-134266761D01*
X150244952Y-134266761D01*
X150292571Y-134242952D01*
X150316380Y-134219142D01*
X150340190Y-134171523D01*
X150340190Y-134028666D01*
X150316380Y-133981047D01*
X150292571Y-133957238D01*
X150054476Y-134552476D02*
X150030666Y-134504857D01*
X150006857Y-134481047D01*
X149959238Y-134457238D01*
X149935428Y-134457238D01*
X149887809Y-134481047D01*
X149864000Y-134504857D01*
X149840190Y-134552476D01*
X149840190Y-134647714D01*
X149864000Y-134695333D01*
X149887809Y-134719142D01*
X149935428Y-134742952D01*
X149959238Y-134742952D01*
X150006857Y-134719142D01*
X150030666Y-134695333D01*
X150054476Y-134647714D01*
X150054476Y-134552476D01*
X150078285Y-134504857D01*
X150102095Y-134481047D01*
X150149714Y-134457238D01*
X150244952Y-134457238D01*
X150292571Y-134481047D01*
X150316380Y-134504857D01*
X150340190Y-134552476D01*
X150340190Y-134647714D01*
X150316380Y-134695333D01*
X150292571Y-134719142D01*
X150244952Y-134742952D01*
X150149714Y-134742952D01*
X150102095Y-134719142D01*
X150078285Y-134695333D01*
X150054476Y-134647714D01*
G04 #@! TO.C,R40*
D11*
X151216380Y-127730285D02*
X151216380Y-127539809D01*
X151264000Y-127444571D01*
X151311619Y-127396952D01*
X151454476Y-127301714D01*
X151644952Y-127254095D01*
X152025904Y-127254095D01*
X152121142Y-127301714D01*
X152168761Y-127349333D01*
X152216380Y-127444571D01*
X152216380Y-127635047D01*
X152168761Y-127730285D01*
X152121142Y-127777904D01*
X152025904Y-127825523D01*
X151787809Y-127825523D01*
X151692571Y-127777904D01*
X151644952Y-127730285D01*
X151597333Y-127635047D01*
X151597333Y-127444571D01*
X151644952Y-127349333D01*
X151692571Y-127301714D01*
X151787809Y-127254095D01*
X151644952Y-128396952D02*
X151597333Y-128301714D01*
X151549714Y-128254095D01*
X151454476Y-128206476D01*
X151406857Y-128206476D01*
X151311619Y-128254095D01*
X151264000Y-128301714D01*
X151216380Y-128396952D01*
X151216380Y-128587428D01*
X151264000Y-128682666D01*
X151311619Y-128730285D01*
X151406857Y-128777904D01*
X151454476Y-128777904D01*
X151549714Y-128730285D01*
X151597333Y-128682666D01*
X151644952Y-128587428D01*
X151644952Y-128396952D01*
X151692571Y-128301714D01*
X151740190Y-128254095D01*
X151835428Y-128206476D01*
X152025904Y-128206476D01*
X152121142Y-128254095D01*
X152168761Y-128301714D01*
X152216380Y-128396952D01*
X152216380Y-128587428D01*
X152168761Y-128682666D01*
X152121142Y-128730285D01*
X152025904Y-128777904D01*
X151835428Y-128777904D01*
X151740190Y-128730285D01*
X151692571Y-128682666D01*
X151644952Y-128587428D01*
D13*
X150340190Y-127694571D02*
X150102095Y-127527904D01*
X150340190Y-127408857D02*
X149840190Y-127408857D01*
X149840190Y-127599333D01*
X149864000Y-127646952D01*
X149887809Y-127670761D01*
X149935428Y-127694571D01*
X150006857Y-127694571D01*
X150054476Y-127670761D01*
X150078285Y-127646952D01*
X150102095Y-127599333D01*
X150102095Y-127408857D01*
X150006857Y-128123142D02*
X150340190Y-128123142D01*
X149816380Y-128004095D02*
X150173523Y-127885047D01*
X150173523Y-128194571D01*
X149840190Y-128480285D02*
X149840190Y-128527904D01*
X149864000Y-128575523D01*
X149887809Y-128599333D01*
X149935428Y-128623142D01*
X150030666Y-128646952D01*
X150149714Y-128646952D01*
X150244952Y-128623142D01*
X150292571Y-128599333D01*
X150316380Y-128575523D01*
X150340190Y-128527904D01*
X150340190Y-128480285D01*
X150316380Y-128432666D01*
X150292571Y-128408857D01*
X150244952Y-128385047D01*
X150149714Y-128361238D01*
X150030666Y-128361238D01*
X149935428Y-128385047D01*
X149887809Y-128408857D01*
X149864000Y-128432666D01*
X149840190Y-128480285D01*
G04 #@! TO.C,R41*
D11*
X77810380Y-59921285D02*
X77810380Y-59730809D01*
X77858000Y-59635571D01*
X77905619Y-59587952D01*
X78048476Y-59492714D01*
X78238952Y-59445095D01*
X78619904Y-59445095D01*
X78715142Y-59492714D01*
X78762761Y-59540333D01*
X78810380Y-59635571D01*
X78810380Y-59826047D01*
X78762761Y-59921285D01*
X78715142Y-59968904D01*
X78619904Y-60016523D01*
X78381809Y-60016523D01*
X78286571Y-59968904D01*
X78238952Y-59921285D01*
X78191333Y-59826047D01*
X78191333Y-59635571D01*
X78238952Y-59540333D01*
X78286571Y-59492714D01*
X78381809Y-59445095D01*
X78238952Y-60587952D02*
X78191333Y-60492714D01*
X78143714Y-60445095D01*
X78048476Y-60397476D01*
X78000857Y-60397476D01*
X77905619Y-60445095D01*
X77858000Y-60492714D01*
X77810380Y-60587952D01*
X77810380Y-60778428D01*
X77858000Y-60873666D01*
X77905619Y-60921285D01*
X78000857Y-60968904D01*
X78048476Y-60968904D01*
X78143714Y-60921285D01*
X78191333Y-60873666D01*
X78238952Y-60778428D01*
X78238952Y-60587952D01*
X78286571Y-60492714D01*
X78334190Y-60445095D01*
X78429428Y-60397476D01*
X78619904Y-60397476D01*
X78715142Y-60445095D01*
X78762761Y-60492714D01*
X78810380Y-60587952D01*
X78810380Y-60778428D01*
X78762761Y-60873666D01*
X78715142Y-60921285D01*
X78619904Y-60968904D01*
X78429428Y-60968904D01*
X78334190Y-60921285D01*
X78286571Y-60873666D01*
X78238952Y-60778428D01*
D13*
X76934190Y-59885571D02*
X76696095Y-59718904D01*
X76934190Y-59599857D02*
X76434190Y-59599857D01*
X76434190Y-59790333D01*
X76458000Y-59837952D01*
X76481809Y-59861761D01*
X76529428Y-59885571D01*
X76600857Y-59885571D01*
X76648476Y-59861761D01*
X76672285Y-59837952D01*
X76696095Y-59790333D01*
X76696095Y-59599857D01*
X76600857Y-60314142D02*
X76934190Y-60314142D01*
X76410380Y-60195095D02*
X76767523Y-60076047D01*
X76767523Y-60385571D01*
X76934190Y-60837952D02*
X76934190Y-60552238D01*
X76934190Y-60695095D02*
X76434190Y-60695095D01*
X76505619Y-60647476D01*
X76553238Y-60599857D01*
X76577047Y-60552238D01*
G04 #@! TO.C,R42*
D11*
X76993714Y-79336380D02*
X77184190Y-79336380D01*
X77279428Y-79384000D01*
X77327047Y-79431619D01*
X77422285Y-79574476D01*
X77469904Y-79764952D01*
X77469904Y-80145904D01*
X77422285Y-80241142D01*
X77374666Y-80288761D01*
X77279428Y-80336380D01*
X77088952Y-80336380D01*
X76993714Y-80288761D01*
X76946095Y-80241142D01*
X76898476Y-80145904D01*
X76898476Y-79907809D01*
X76946095Y-79812571D01*
X76993714Y-79764952D01*
X77088952Y-79717333D01*
X77279428Y-79717333D01*
X77374666Y-79764952D01*
X77422285Y-79812571D01*
X77469904Y-79907809D01*
X76327047Y-79764952D02*
X76422285Y-79717333D01*
X76469904Y-79669714D01*
X76517523Y-79574476D01*
X76517523Y-79526857D01*
X76469904Y-79431619D01*
X76422285Y-79384000D01*
X76327047Y-79336380D01*
X76136571Y-79336380D01*
X76041333Y-79384000D01*
X75993714Y-79431619D01*
X75946095Y-79526857D01*
X75946095Y-79574476D01*
X75993714Y-79669714D01*
X76041333Y-79717333D01*
X76136571Y-79764952D01*
X76327047Y-79764952D01*
X76422285Y-79812571D01*
X76469904Y-79860190D01*
X76517523Y-79955428D01*
X76517523Y-80145904D01*
X76469904Y-80241142D01*
X76422285Y-80288761D01*
X76327047Y-80336380D01*
X76136571Y-80336380D01*
X76041333Y-80288761D01*
X75993714Y-80241142D01*
X75946095Y-80145904D01*
X75946095Y-79955428D01*
X75993714Y-79860190D01*
X76041333Y-79812571D01*
X76136571Y-79764952D01*
D13*
X77029428Y-81760190D02*
X77196095Y-81522095D01*
X77315142Y-81760190D02*
X77315142Y-81260190D01*
X77124666Y-81260190D01*
X77077047Y-81284000D01*
X77053238Y-81307809D01*
X77029428Y-81355428D01*
X77029428Y-81426857D01*
X77053238Y-81474476D01*
X77077047Y-81498285D01*
X77124666Y-81522095D01*
X77315142Y-81522095D01*
X76600857Y-81426857D02*
X76600857Y-81760190D01*
X76719904Y-81236380D02*
X76838952Y-81593523D01*
X76529428Y-81593523D01*
X76362761Y-81307809D02*
X76338952Y-81284000D01*
X76291333Y-81260190D01*
X76172285Y-81260190D01*
X76124666Y-81284000D01*
X76100857Y-81307809D01*
X76077047Y-81355428D01*
X76077047Y-81403047D01*
X76100857Y-81474476D01*
X76386571Y-81760190D01*
X76077047Y-81760190D01*
G04 #@! TO.C,R43*
D11*
X76993714Y-100672380D02*
X77184190Y-100672380D01*
X77279428Y-100720000D01*
X77327047Y-100767619D01*
X77422285Y-100910476D01*
X77469904Y-101100952D01*
X77469904Y-101481904D01*
X77422285Y-101577142D01*
X77374666Y-101624761D01*
X77279428Y-101672380D01*
X77088952Y-101672380D01*
X76993714Y-101624761D01*
X76946095Y-101577142D01*
X76898476Y-101481904D01*
X76898476Y-101243809D01*
X76946095Y-101148571D01*
X76993714Y-101100952D01*
X77088952Y-101053333D01*
X77279428Y-101053333D01*
X77374666Y-101100952D01*
X77422285Y-101148571D01*
X77469904Y-101243809D01*
X76327047Y-101100952D02*
X76422285Y-101053333D01*
X76469904Y-101005714D01*
X76517523Y-100910476D01*
X76517523Y-100862857D01*
X76469904Y-100767619D01*
X76422285Y-100720000D01*
X76327047Y-100672380D01*
X76136571Y-100672380D01*
X76041333Y-100720000D01*
X75993714Y-100767619D01*
X75946095Y-100862857D01*
X75946095Y-100910476D01*
X75993714Y-101005714D01*
X76041333Y-101053333D01*
X76136571Y-101100952D01*
X76327047Y-101100952D01*
X76422285Y-101148571D01*
X76469904Y-101196190D01*
X76517523Y-101291428D01*
X76517523Y-101481904D01*
X76469904Y-101577142D01*
X76422285Y-101624761D01*
X76327047Y-101672380D01*
X76136571Y-101672380D01*
X76041333Y-101624761D01*
X75993714Y-101577142D01*
X75946095Y-101481904D01*
X75946095Y-101291428D01*
X75993714Y-101196190D01*
X76041333Y-101148571D01*
X76136571Y-101100952D01*
D13*
X77029428Y-103096190D02*
X77196095Y-102858095D01*
X77315142Y-103096190D02*
X77315142Y-102596190D01*
X77124666Y-102596190D01*
X77077047Y-102620000D01*
X77053238Y-102643809D01*
X77029428Y-102691428D01*
X77029428Y-102762857D01*
X77053238Y-102810476D01*
X77077047Y-102834285D01*
X77124666Y-102858095D01*
X77315142Y-102858095D01*
X76600857Y-102762857D02*
X76600857Y-103096190D01*
X76719904Y-102572380D02*
X76838952Y-102929523D01*
X76529428Y-102929523D01*
X76386571Y-102596190D02*
X76077047Y-102596190D01*
X76243714Y-102786666D01*
X76172285Y-102786666D01*
X76124666Y-102810476D01*
X76100857Y-102834285D01*
X76077047Y-102881904D01*
X76077047Y-103000952D01*
X76100857Y-103048571D01*
X76124666Y-103072380D01*
X76172285Y-103096190D01*
X76315142Y-103096190D01*
X76362761Y-103072380D01*
X76386571Y-103048571D01*
G04 #@! TO.C,R44*
D11*
X85121714Y-105244380D02*
X85312190Y-105244380D01*
X85407428Y-105292000D01*
X85455047Y-105339619D01*
X85550285Y-105482476D01*
X85597904Y-105672952D01*
X85597904Y-106053904D01*
X85550285Y-106149142D01*
X85502666Y-106196761D01*
X85407428Y-106244380D01*
X85216952Y-106244380D01*
X85121714Y-106196761D01*
X85074095Y-106149142D01*
X85026476Y-106053904D01*
X85026476Y-105815809D01*
X85074095Y-105720571D01*
X85121714Y-105672952D01*
X85216952Y-105625333D01*
X85407428Y-105625333D01*
X85502666Y-105672952D01*
X85550285Y-105720571D01*
X85597904Y-105815809D01*
X84455047Y-105672952D02*
X84550285Y-105625333D01*
X84597904Y-105577714D01*
X84645523Y-105482476D01*
X84645523Y-105434857D01*
X84597904Y-105339619D01*
X84550285Y-105292000D01*
X84455047Y-105244380D01*
X84264571Y-105244380D01*
X84169333Y-105292000D01*
X84121714Y-105339619D01*
X84074095Y-105434857D01*
X84074095Y-105482476D01*
X84121714Y-105577714D01*
X84169333Y-105625333D01*
X84264571Y-105672952D01*
X84455047Y-105672952D01*
X84550285Y-105720571D01*
X84597904Y-105768190D01*
X84645523Y-105863428D01*
X84645523Y-106053904D01*
X84597904Y-106149142D01*
X84550285Y-106196761D01*
X84455047Y-106244380D01*
X84264571Y-106244380D01*
X84169333Y-106196761D01*
X84121714Y-106149142D01*
X84074095Y-106053904D01*
X84074095Y-105863428D01*
X84121714Y-105768190D01*
X84169333Y-105720571D01*
X84264571Y-105672952D01*
D13*
X85157428Y-107668190D02*
X85324095Y-107430095D01*
X85443142Y-107668190D02*
X85443142Y-107168190D01*
X85252666Y-107168190D01*
X85205047Y-107192000D01*
X85181238Y-107215809D01*
X85157428Y-107263428D01*
X85157428Y-107334857D01*
X85181238Y-107382476D01*
X85205047Y-107406285D01*
X85252666Y-107430095D01*
X85443142Y-107430095D01*
X84728857Y-107334857D02*
X84728857Y-107668190D01*
X84847904Y-107144380D02*
X84966952Y-107501523D01*
X84657428Y-107501523D01*
X84252666Y-107334857D02*
X84252666Y-107668190D01*
X84371714Y-107144380D02*
X84490761Y-107501523D01*
X84181238Y-107501523D01*
G04 #@! TO.C,R45*
D11*
X96288714Y-109306380D02*
X96479190Y-109306380D01*
X96574428Y-109354000D01*
X96622047Y-109401619D01*
X96717285Y-109544476D01*
X96764904Y-109734952D01*
X96764904Y-110115904D01*
X96717285Y-110211142D01*
X96669666Y-110258761D01*
X96574428Y-110306380D01*
X96383952Y-110306380D01*
X96288714Y-110258761D01*
X96241095Y-110211142D01*
X96193476Y-110115904D01*
X96193476Y-109877809D01*
X96241095Y-109782571D01*
X96288714Y-109734952D01*
X96383952Y-109687333D01*
X96574428Y-109687333D01*
X96669666Y-109734952D01*
X96717285Y-109782571D01*
X96764904Y-109877809D01*
X95622047Y-109734952D02*
X95717285Y-109687333D01*
X95764904Y-109639714D01*
X95812523Y-109544476D01*
X95812523Y-109496857D01*
X95764904Y-109401619D01*
X95717285Y-109354000D01*
X95622047Y-109306380D01*
X95431571Y-109306380D01*
X95336333Y-109354000D01*
X95288714Y-109401619D01*
X95241095Y-109496857D01*
X95241095Y-109544476D01*
X95288714Y-109639714D01*
X95336333Y-109687333D01*
X95431571Y-109734952D01*
X95622047Y-109734952D01*
X95717285Y-109782571D01*
X95764904Y-109830190D01*
X95812523Y-109925428D01*
X95812523Y-110115904D01*
X95764904Y-110211142D01*
X95717285Y-110258761D01*
X95622047Y-110306380D01*
X95431571Y-110306380D01*
X95336333Y-110258761D01*
X95288714Y-110211142D01*
X95241095Y-110115904D01*
X95241095Y-109925428D01*
X95288714Y-109830190D01*
X95336333Y-109782571D01*
X95431571Y-109734952D01*
D13*
X96324428Y-108430190D02*
X96491095Y-108192095D01*
X96610142Y-108430190D02*
X96610142Y-107930190D01*
X96419666Y-107930190D01*
X96372047Y-107954000D01*
X96348238Y-107977809D01*
X96324428Y-108025428D01*
X96324428Y-108096857D01*
X96348238Y-108144476D01*
X96372047Y-108168285D01*
X96419666Y-108192095D01*
X96610142Y-108192095D01*
X95895857Y-108096857D02*
X95895857Y-108430190D01*
X96014904Y-107906380D02*
X96133952Y-108263523D01*
X95824428Y-108263523D01*
X95395857Y-107930190D02*
X95633952Y-107930190D01*
X95657761Y-108168285D01*
X95633952Y-108144476D01*
X95586333Y-108120666D01*
X95467285Y-108120666D01*
X95419666Y-108144476D01*
X95395857Y-108168285D01*
X95372047Y-108215904D01*
X95372047Y-108334952D01*
X95395857Y-108382571D01*
X95419666Y-108406380D01*
X95467285Y-108430190D01*
X95586333Y-108430190D01*
X95633952Y-108406380D01*
X95657761Y-108382571D01*
G04 #@! TO.C,R46*
D11*
X116109714Y-108544380D02*
X116300190Y-108544380D01*
X116395428Y-108592000D01*
X116443047Y-108639619D01*
X116538285Y-108782476D01*
X116585904Y-108972952D01*
X116585904Y-109353904D01*
X116538285Y-109449142D01*
X116490666Y-109496761D01*
X116395428Y-109544380D01*
X116204952Y-109544380D01*
X116109714Y-109496761D01*
X116062095Y-109449142D01*
X116014476Y-109353904D01*
X116014476Y-109115809D01*
X116062095Y-109020571D01*
X116109714Y-108972952D01*
X116204952Y-108925333D01*
X116395428Y-108925333D01*
X116490666Y-108972952D01*
X116538285Y-109020571D01*
X116585904Y-109115809D01*
X115443047Y-108972952D02*
X115538285Y-108925333D01*
X115585904Y-108877714D01*
X115633523Y-108782476D01*
X115633523Y-108734857D01*
X115585904Y-108639619D01*
X115538285Y-108592000D01*
X115443047Y-108544380D01*
X115252571Y-108544380D01*
X115157333Y-108592000D01*
X115109714Y-108639619D01*
X115062095Y-108734857D01*
X115062095Y-108782476D01*
X115109714Y-108877714D01*
X115157333Y-108925333D01*
X115252571Y-108972952D01*
X115443047Y-108972952D01*
X115538285Y-109020571D01*
X115585904Y-109068190D01*
X115633523Y-109163428D01*
X115633523Y-109353904D01*
X115585904Y-109449142D01*
X115538285Y-109496761D01*
X115443047Y-109544380D01*
X115252571Y-109544380D01*
X115157333Y-109496761D01*
X115109714Y-109449142D01*
X115062095Y-109353904D01*
X115062095Y-109163428D01*
X115109714Y-109068190D01*
X115157333Y-109020571D01*
X115252571Y-108972952D01*
D13*
X116145428Y-107668190D02*
X116312095Y-107430095D01*
X116431142Y-107668190D02*
X116431142Y-107168190D01*
X116240666Y-107168190D01*
X116193047Y-107192000D01*
X116169238Y-107215809D01*
X116145428Y-107263428D01*
X116145428Y-107334857D01*
X116169238Y-107382476D01*
X116193047Y-107406285D01*
X116240666Y-107430095D01*
X116431142Y-107430095D01*
X115716857Y-107334857D02*
X115716857Y-107668190D01*
X115835904Y-107144380D02*
X115954952Y-107501523D01*
X115645428Y-107501523D01*
X115240666Y-107168190D02*
X115335904Y-107168190D01*
X115383523Y-107192000D01*
X115407333Y-107215809D01*
X115454952Y-107287238D01*
X115478761Y-107382476D01*
X115478761Y-107572952D01*
X115454952Y-107620571D01*
X115431142Y-107644380D01*
X115383523Y-107668190D01*
X115288285Y-107668190D01*
X115240666Y-107644380D01*
X115216857Y-107620571D01*
X115193047Y-107572952D01*
X115193047Y-107453904D01*
X115216857Y-107406285D01*
X115240666Y-107382476D01*
X115288285Y-107358666D01*
X115383523Y-107358666D01*
X115431142Y-107382476D01*
X115454952Y-107406285D01*
X115478761Y-107453904D01*
G04 #@! TO.C,R47*
D11*
X84160380Y-75152285D02*
X84160380Y-74961809D01*
X84208000Y-74866571D01*
X84255619Y-74818952D01*
X84398476Y-74723714D01*
X84588952Y-74676095D01*
X84969904Y-74676095D01*
X85065142Y-74723714D01*
X85112761Y-74771333D01*
X85160380Y-74866571D01*
X85160380Y-75057047D01*
X85112761Y-75152285D01*
X85065142Y-75199904D01*
X84969904Y-75247523D01*
X84731809Y-75247523D01*
X84636571Y-75199904D01*
X84588952Y-75152285D01*
X84541333Y-75057047D01*
X84541333Y-74866571D01*
X84588952Y-74771333D01*
X84636571Y-74723714D01*
X84731809Y-74676095D01*
X84588952Y-75818952D02*
X84541333Y-75723714D01*
X84493714Y-75676095D01*
X84398476Y-75628476D01*
X84350857Y-75628476D01*
X84255619Y-75676095D01*
X84208000Y-75723714D01*
X84160380Y-75818952D01*
X84160380Y-76009428D01*
X84208000Y-76104666D01*
X84255619Y-76152285D01*
X84350857Y-76199904D01*
X84398476Y-76199904D01*
X84493714Y-76152285D01*
X84541333Y-76104666D01*
X84588952Y-76009428D01*
X84588952Y-75818952D01*
X84636571Y-75723714D01*
X84684190Y-75676095D01*
X84779428Y-75628476D01*
X84969904Y-75628476D01*
X85065142Y-75676095D01*
X85112761Y-75723714D01*
X85160380Y-75818952D01*
X85160380Y-76009428D01*
X85112761Y-76104666D01*
X85065142Y-76152285D01*
X84969904Y-76199904D01*
X84779428Y-76199904D01*
X84684190Y-76152285D01*
X84636571Y-76104666D01*
X84588952Y-76009428D01*
D13*
X83284190Y-75116571D02*
X83046095Y-74949904D01*
X83284190Y-74830857D02*
X82784190Y-74830857D01*
X82784190Y-75021333D01*
X82808000Y-75068952D01*
X82831809Y-75092761D01*
X82879428Y-75116571D01*
X82950857Y-75116571D01*
X82998476Y-75092761D01*
X83022285Y-75068952D01*
X83046095Y-75021333D01*
X83046095Y-74830857D01*
X82950857Y-75545142D02*
X83284190Y-75545142D01*
X82760380Y-75426095D02*
X83117523Y-75307047D01*
X83117523Y-75616571D01*
X82784190Y-75759428D02*
X82784190Y-76092761D01*
X83284190Y-75878476D01*
G04 #@! TO.C,R48*
D11*
X83343714Y-84162380D02*
X83534190Y-84162380D01*
X83629428Y-84210000D01*
X83677047Y-84257619D01*
X83772285Y-84400476D01*
X83819904Y-84590952D01*
X83819904Y-84971904D01*
X83772285Y-85067142D01*
X83724666Y-85114761D01*
X83629428Y-85162380D01*
X83438952Y-85162380D01*
X83343714Y-85114761D01*
X83296095Y-85067142D01*
X83248476Y-84971904D01*
X83248476Y-84733809D01*
X83296095Y-84638571D01*
X83343714Y-84590952D01*
X83438952Y-84543333D01*
X83629428Y-84543333D01*
X83724666Y-84590952D01*
X83772285Y-84638571D01*
X83819904Y-84733809D01*
X82677047Y-84590952D02*
X82772285Y-84543333D01*
X82819904Y-84495714D01*
X82867523Y-84400476D01*
X82867523Y-84352857D01*
X82819904Y-84257619D01*
X82772285Y-84210000D01*
X82677047Y-84162380D01*
X82486571Y-84162380D01*
X82391333Y-84210000D01*
X82343714Y-84257619D01*
X82296095Y-84352857D01*
X82296095Y-84400476D01*
X82343714Y-84495714D01*
X82391333Y-84543333D01*
X82486571Y-84590952D01*
X82677047Y-84590952D01*
X82772285Y-84638571D01*
X82819904Y-84686190D01*
X82867523Y-84781428D01*
X82867523Y-84971904D01*
X82819904Y-85067142D01*
X82772285Y-85114761D01*
X82677047Y-85162380D01*
X82486571Y-85162380D01*
X82391333Y-85114761D01*
X82343714Y-85067142D01*
X82296095Y-84971904D01*
X82296095Y-84781428D01*
X82343714Y-84686190D01*
X82391333Y-84638571D01*
X82486571Y-84590952D01*
D13*
X83379428Y-86586190D02*
X83546095Y-86348095D01*
X83665142Y-86586190D02*
X83665142Y-86086190D01*
X83474666Y-86086190D01*
X83427047Y-86110000D01*
X83403238Y-86133809D01*
X83379428Y-86181428D01*
X83379428Y-86252857D01*
X83403238Y-86300476D01*
X83427047Y-86324285D01*
X83474666Y-86348095D01*
X83665142Y-86348095D01*
X82950857Y-86252857D02*
X82950857Y-86586190D01*
X83069904Y-86062380D02*
X83188952Y-86419523D01*
X82879428Y-86419523D01*
X82617523Y-86300476D02*
X82665142Y-86276666D01*
X82688952Y-86252857D01*
X82712761Y-86205238D01*
X82712761Y-86181428D01*
X82688952Y-86133809D01*
X82665142Y-86110000D01*
X82617523Y-86086190D01*
X82522285Y-86086190D01*
X82474666Y-86110000D01*
X82450857Y-86133809D01*
X82427047Y-86181428D01*
X82427047Y-86205238D01*
X82450857Y-86252857D01*
X82474666Y-86276666D01*
X82522285Y-86300476D01*
X82617523Y-86300476D01*
X82665142Y-86324285D01*
X82688952Y-86348095D01*
X82712761Y-86395714D01*
X82712761Y-86490952D01*
X82688952Y-86538571D01*
X82665142Y-86562380D01*
X82617523Y-86586190D01*
X82522285Y-86586190D01*
X82474666Y-86562380D01*
X82450857Y-86538571D01*
X82427047Y-86490952D01*
X82427047Y-86395714D01*
X82450857Y-86348095D01*
X82474666Y-86324285D01*
X82522285Y-86300476D01*
G04 #@! TO.C,R49*
D11*
X83343714Y-112864380D02*
X83534190Y-112864380D01*
X83629428Y-112912000D01*
X83677047Y-112959619D01*
X83772285Y-113102476D01*
X83819904Y-113292952D01*
X83819904Y-113673904D01*
X83772285Y-113769142D01*
X83724666Y-113816761D01*
X83629428Y-113864380D01*
X83438952Y-113864380D01*
X83343714Y-113816761D01*
X83296095Y-113769142D01*
X83248476Y-113673904D01*
X83248476Y-113435809D01*
X83296095Y-113340571D01*
X83343714Y-113292952D01*
X83438952Y-113245333D01*
X83629428Y-113245333D01*
X83724666Y-113292952D01*
X83772285Y-113340571D01*
X83819904Y-113435809D01*
X82677047Y-113292952D02*
X82772285Y-113245333D01*
X82819904Y-113197714D01*
X82867523Y-113102476D01*
X82867523Y-113054857D01*
X82819904Y-112959619D01*
X82772285Y-112912000D01*
X82677047Y-112864380D01*
X82486571Y-112864380D01*
X82391333Y-112912000D01*
X82343714Y-112959619D01*
X82296095Y-113054857D01*
X82296095Y-113102476D01*
X82343714Y-113197714D01*
X82391333Y-113245333D01*
X82486571Y-113292952D01*
X82677047Y-113292952D01*
X82772285Y-113340571D01*
X82819904Y-113388190D01*
X82867523Y-113483428D01*
X82867523Y-113673904D01*
X82819904Y-113769142D01*
X82772285Y-113816761D01*
X82677047Y-113864380D01*
X82486571Y-113864380D01*
X82391333Y-113816761D01*
X82343714Y-113769142D01*
X82296095Y-113673904D01*
X82296095Y-113483428D01*
X82343714Y-113388190D01*
X82391333Y-113340571D01*
X82486571Y-113292952D01*
D13*
X83379428Y-115288190D02*
X83546095Y-115050095D01*
X83665142Y-115288190D02*
X83665142Y-114788190D01*
X83474666Y-114788190D01*
X83427047Y-114812000D01*
X83403238Y-114835809D01*
X83379428Y-114883428D01*
X83379428Y-114954857D01*
X83403238Y-115002476D01*
X83427047Y-115026285D01*
X83474666Y-115050095D01*
X83665142Y-115050095D01*
X82950857Y-114954857D02*
X82950857Y-115288190D01*
X83069904Y-114764380D02*
X83188952Y-115121523D01*
X82879428Y-115121523D01*
X82665142Y-115288190D02*
X82569904Y-115288190D01*
X82522285Y-115264380D01*
X82498476Y-115240571D01*
X82450857Y-115169142D01*
X82427047Y-115073904D01*
X82427047Y-114883428D01*
X82450857Y-114835809D01*
X82474666Y-114812000D01*
X82522285Y-114788190D01*
X82617523Y-114788190D01*
X82665142Y-114812000D01*
X82688952Y-114835809D01*
X82712761Y-114883428D01*
X82712761Y-115002476D01*
X82688952Y-115050095D01*
X82665142Y-115073904D01*
X82617523Y-115097714D01*
X82522285Y-115097714D01*
X82474666Y-115073904D01*
X82450857Y-115050095D01*
X82427047Y-115002476D01*
G04 #@! TO.C,R50*
D11*
X85121714Y-124040380D02*
X85312190Y-124040380D01*
X85407428Y-124088000D01*
X85455047Y-124135619D01*
X85550285Y-124278476D01*
X85597904Y-124468952D01*
X85597904Y-124849904D01*
X85550285Y-124945142D01*
X85502666Y-124992761D01*
X85407428Y-125040380D01*
X85216952Y-125040380D01*
X85121714Y-124992761D01*
X85074095Y-124945142D01*
X85026476Y-124849904D01*
X85026476Y-124611809D01*
X85074095Y-124516571D01*
X85121714Y-124468952D01*
X85216952Y-124421333D01*
X85407428Y-124421333D01*
X85502666Y-124468952D01*
X85550285Y-124516571D01*
X85597904Y-124611809D01*
X84455047Y-124468952D02*
X84550285Y-124421333D01*
X84597904Y-124373714D01*
X84645523Y-124278476D01*
X84645523Y-124230857D01*
X84597904Y-124135619D01*
X84550285Y-124088000D01*
X84455047Y-124040380D01*
X84264571Y-124040380D01*
X84169333Y-124088000D01*
X84121714Y-124135619D01*
X84074095Y-124230857D01*
X84074095Y-124278476D01*
X84121714Y-124373714D01*
X84169333Y-124421333D01*
X84264571Y-124468952D01*
X84455047Y-124468952D01*
X84550285Y-124516571D01*
X84597904Y-124564190D01*
X84645523Y-124659428D01*
X84645523Y-124849904D01*
X84597904Y-124945142D01*
X84550285Y-124992761D01*
X84455047Y-125040380D01*
X84264571Y-125040380D01*
X84169333Y-124992761D01*
X84121714Y-124945142D01*
X84074095Y-124849904D01*
X84074095Y-124659428D01*
X84121714Y-124564190D01*
X84169333Y-124516571D01*
X84264571Y-124468952D01*
D13*
X85157428Y-126464190D02*
X85324095Y-126226095D01*
X85443142Y-126464190D02*
X85443142Y-125964190D01*
X85252666Y-125964190D01*
X85205047Y-125988000D01*
X85181238Y-126011809D01*
X85157428Y-126059428D01*
X85157428Y-126130857D01*
X85181238Y-126178476D01*
X85205047Y-126202285D01*
X85252666Y-126226095D01*
X85443142Y-126226095D01*
X84705047Y-125964190D02*
X84943142Y-125964190D01*
X84966952Y-126202285D01*
X84943142Y-126178476D01*
X84895523Y-126154666D01*
X84776476Y-126154666D01*
X84728857Y-126178476D01*
X84705047Y-126202285D01*
X84681238Y-126249904D01*
X84681238Y-126368952D01*
X84705047Y-126416571D01*
X84728857Y-126440380D01*
X84776476Y-126464190D01*
X84895523Y-126464190D01*
X84943142Y-126440380D01*
X84966952Y-126416571D01*
X84371714Y-125964190D02*
X84324095Y-125964190D01*
X84276476Y-125988000D01*
X84252666Y-126011809D01*
X84228857Y-126059428D01*
X84205047Y-126154666D01*
X84205047Y-126273714D01*
X84228857Y-126368952D01*
X84252666Y-126416571D01*
X84276476Y-126440380D01*
X84324095Y-126464190D01*
X84371714Y-126464190D01*
X84419333Y-126440380D01*
X84443142Y-126416571D01*
X84466952Y-126368952D01*
X84490761Y-126273714D01*
X84490761Y-126154666D01*
X84466952Y-126059428D01*
X84443142Y-126011809D01*
X84419333Y-125988000D01*
X84371714Y-125964190D01*
G04 #@! TO.C,R51*
D11*
X96297714Y-126578380D02*
X96488190Y-126578380D01*
X96583428Y-126626000D01*
X96631047Y-126673619D01*
X96726285Y-126816476D01*
X96773904Y-127006952D01*
X96773904Y-127387904D01*
X96726285Y-127483142D01*
X96678666Y-127530761D01*
X96583428Y-127578380D01*
X96392952Y-127578380D01*
X96297714Y-127530761D01*
X96250095Y-127483142D01*
X96202476Y-127387904D01*
X96202476Y-127149809D01*
X96250095Y-127054571D01*
X96297714Y-127006952D01*
X96392952Y-126959333D01*
X96583428Y-126959333D01*
X96678666Y-127006952D01*
X96726285Y-127054571D01*
X96773904Y-127149809D01*
X95631047Y-127006952D02*
X95726285Y-126959333D01*
X95773904Y-126911714D01*
X95821523Y-126816476D01*
X95821523Y-126768857D01*
X95773904Y-126673619D01*
X95726285Y-126626000D01*
X95631047Y-126578380D01*
X95440571Y-126578380D01*
X95345333Y-126626000D01*
X95297714Y-126673619D01*
X95250095Y-126768857D01*
X95250095Y-126816476D01*
X95297714Y-126911714D01*
X95345333Y-126959333D01*
X95440571Y-127006952D01*
X95631047Y-127006952D01*
X95726285Y-127054571D01*
X95773904Y-127102190D01*
X95821523Y-127197428D01*
X95821523Y-127387904D01*
X95773904Y-127483142D01*
X95726285Y-127530761D01*
X95631047Y-127578380D01*
X95440571Y-127578380D01*
X95345333Y-127530761D01*
X95297714Y-127483142D01*
X95250095Y-127387904D01*
X95250095Y-127197428D01*
X95297714Y-127102190D01*
X95345333Y-127054571D01*
X95440571Y-127006952D01*
D13*
X96333428Y-125702190D02*
X96500095Y-125464095D01*
X96619142Y-125702190D02*
X96619142Y-125202190D01*
X96428666Y-125202190D01*
X96381047Y-125226000D01*
X96357238Y-125249809D01*
X96333428Y-125297428D01*
X96333428Y-125368857D01*
X96357238Y-125416476D01*
X96381047Y-125440285D01*
X96428666Y-125464095D01*
X96619142Y-125464095D01*
X95881047Y-125202190D02*
X96119142Y-125202190D01*
X96142952Y-125440285D01*
X96119142Y-125416476D01*
X96071523Y-125392666D01*
X95952476Y-125392666D01*
X95904857Y-125416476D01*
X95881047Y-125440285D01*
X95857238Y-125487904D01*
X95857238Y-125606952D01*
X95881047Y-125654571D01*
X95904857Y-125678380D01*
X95952476Y-125702190D01*
X96071523Y-125702190D01*
X96119142Y-125678380D01*
X96142952Y-125654571D01*
X95381047Y-125702190D02*
X95666761Y-125702190D01*
X95523904Y-125702190D02*
X95523904Y-125202190D01*
X95571523Y-125273619D01*
X95619142Y-125321238D01*
X95666761Y-125345047D01*
G04 #@! TO.C,R52*
D11*
X115855714Y-127340380D02*
X116046190Y-127340380D01*
X116141428Y-127388000D01*
X116189047Y-127435619D01*
X116284285Y-127578476D01*
X116331904Y-127768952D01*
X116331904Y-128149904D01*
X116284285Y-128245142D01*
X116236666Y-128292761D01*
X116141428Y-128340380D01*
X115950952Y-128340380D01*
X115855714Y-128292761D01*
X115808095Y-128245142D01*
X115760476Y-128149904D01*
X115760476Y-127911809D01*
X115808095Y-127816571D01*
X115855714Y-127768952D01*
X115950952Y-127721333D01*
X116141428Y-127721333D01*
X116236666Y-127768952D01*
X116284285Y-127816571D01*
X116331904Y-127911809D01*
X115189047Y-127768952D02*
X115284285Y-127721333D01*
X115331904Y-127673714D01*
X115379523Y-127578476D01*
X115379523Y-127530857D01*
X115331904Y-127435619D01*
X115284285Y-127388000D01*
X115189047Y-127340380D01*
X114998571Y-127340380D01*
X114903333Y-127388000D01*
X114855714Y-127435619D01*
X114808095Y-127530857D01*
X114808095Y-127578476D01*
X114855714Y-127673714D01*
X114903333Y-127721333D01*
X114998571Y-127768952D01*
X115189047Y-127768952D01*
X115284285Y-127816571D01*
X115331904Y-127864190D01*
X115379523Y-127959428D01*
X115379523Y-128149904D01*
X115331904Y-128245142D01*
X115284285Y-128292761D01*
X115189047Y-128340380D01*
X114998571Y-128340380D01*
X114903333Y-128292761D01*
X114855714Y-128245142D01*
X114808095Y-128149904D01*
X114808095Y-127959428D01*
X114855714Y-127864190D01*
X114903333Y-127816571D01*
X114998571Y-127768952D01*
D13*
X115891428Y-126464190D02*
X116058095Y-126226095D01*
X116177142Y-126464190D02*
X116177142Y-125964190D01*
X115986666Y-125964190D01*
X115939047Y-125988000D01*
X115915238Y-126011809D01*
X115891428Y-126059428D01*
X115891428Y-126130857D01*
X115915238Y-126178476D01*
X115939047Y-126202285D01*
X115986666Y-126226095D01*
X116177142Y-126226095D01*
X115439047Y-125964190D02*
X115677142Y-125964190D01*
X115700952Y-126202285D01*
X115677142Y-126178476D01*
X115629523Y-126154666D01*
X115510476Y-126154666D01*
X115462857Y-126178476D01*
X115439047Y-126202285D01*
X115415238Y-126249904D01*
X115415238Y-126368952D01*
X115439047Y-126416571D01*
X115462857Y-126440380D01*
X115510476Y-126464190D01*
X115629523Y-126464190D01*
X115677142Y-126440380D01*
X115700952Y-126416571D01*
X115224761Y-126011809D02*
X115200952Y-125988000D01*
X115153333Y-125964190D01*
X115034285Y-125964190D01*
X114986666Y-125988000D01*
X114962857Y-126011809D01*
X114939047Y-126059428D01*
X114939047Y-126107047D01*
X114962857Y-126178476D01*
X115248571Y-126464190D01*
X114939047Y-126464190D01*
G04 #@! TO.C,R53*
D11*
X190332380Y-67532285D02*
X190332380Y-67341809D01*
X190380000Y-67246571D01*
X190427619Y-67198952D01*
X190570476Y-67103714D01*
X190760952Y-67056095D01*
X191141904Y-67056095D01*
X191237142Y-67103714D01*
X191284761Y-67151333D01*
X191332380Y-67246571D01*
X191332380Y-67437047D01*
X191284761Y-67532285D01*
X191237142Y-67579904D01*
X191141904Y-67627523D01*
X190903809Y-67627523D01*
X190808571Y-67579904D01*
X190760952Y-67532285D01*
X190713333Y-67437047D01*
X190713333Y-67246571D01*
X190760952Y-67151333D01*
X190808571Y-67103714D01*
X190903809Y-67056095D01*
X190760952Y-68198952D02*
X190713333Y-68103714D01*
X190665714Y-68056095D01*
X190570476Y-68008476D01*
X190522857Y-68008476D01*
X190427619Y-68056095D01*
X190380000Y-68103714D01*
X190332380Y-68198952D01*
X190332380Y-68389428D01*
X190380000Y-68484666D01*
X190427619Y-68532285D01*
X190522857Y-68579904D01*
X190570476Y-68579904D01*
X190665714Y-68532285D01*
X190713333Y-68484666D01*
X190760952Y-68389428D01*
X190760952Y-68198952D01*
X190808571Y-68103714D01*
X190856190Y-68056095D01*
X190951428Y-68008476D01*
X191141904Y-68008476D01*
X191237142Y-68056095D01*
X191284761Y-68103714D01*
X191332380Y-68198952D01*
X191332380Y-68389428D01*
X191284761Y-68484666D01*
X191237142Y-68532285D01*
X191141904Y-68579904D01*
X190951428Y-68579904D01*
X190856190Y-68532285D01*
X190808571Y-68484666D01*
X190760952Y-68389428D01*
D13*
X189456190Y-67496571D02*
X189218095Y-67329904D01*
X189456190Y-67210857D02*
X188956190Y-67210857D01*
X188956190Y-67401333D01*
X188980000Y-67448952D01*
X189003809Y-67472761D01*
X189051428Y-67496571D01*
X189122857Y-67496571D01*
X189170476Y-67472761D01*
X189194285Y-67448952D01*
X189218095Y-67401333D01*
X189218095Y-67210857D01*
X188956190Y-67948952D02*
X188956190Y-67710857D01*
X189194285Y-67687047D01*
X189170476Y-67710857D01*
X189146666Y-67758476D01*
X189146666Y-67877523D01*
X189170476Y-67925142D01*
X189194285Y-67948952D01*
X189241904Y-67972761D01*
X189360952Y-67972761D01*
X189408571Y-67948952D01*
X189432380Y-67925142D01*
X189456190Y-67877523D01*
X189456190Y-67758476D01*
X189432380Y-67710857D01*
X189408571Y-67687047D01*
X188956190Y-68139428D02*
X188956190Y-68448952D01*
X189146666Y-68282285D01*
X189146666Y-68353714D01*
X189170476Y-68401333D01*
X189194285Y-68425142D01*
X189241904Y-68448952D01*
X189360952Y-68448952D01*
X189408571Y-68425142D01*
X189432380Y-68401333D01*
X189456190Y-68353714D01*
X189456190Y-68210857D01*
X189432380Y-68163238D01*
X189408571Y-68139428D01*
G04 #@! TO.C,R54*
D11*
X187032380Y-110966285D02*
X187032380Y-110775809D01*
X187080000Y-110680571D01*
X187127619Y-110632952D01*
X187270476Y-110537714D01*
X187460952Y-110490095D01*
X187841904Y-110490095D01*
X187937142Y-110537714D01*
X187984761Y-110585333D01*
X188032380Y-110680571D01*
X188032380Y-110871047D01*
X187984761Y-110966285D01*
X187937142Y-111013904D01*
X187841904Y-111061523D01*
X187603809Y-111061523D01*
X187508571Y-111013904D01*
X187460952Y-110966285D01*
X187413333Y-110871047D01*
X187413333Y-110680571D01*
X187460952Y-110585333D01*
X187508571Y-110537714D01*
X187603809Y-110490095D01*
X187460952Y-111632952D02*
X187413333Y-111537714D01*
X187365714Y-111490095D01*
X187270476Y-111442476D01*
X187222857Y-111442476D01*
X187127619Y-111490095D01*
X187080000Y-111537714D01*
X187032380Y-111632952D01*
X187032380Y-111823428D01*
X187080000Y-111918666D01*
X187127619Y-111966285D01*
X187222857Y-112013904D01*
X187270476Y-112013904D01*
X187365714Y-111966285D01*
X187413333Y-111918666D01*
X187460952Y-111823428D01*
X187460952Y-111632952D01*
X187508571Y-111537714D01*
X187556190Y-111490095D01*
X187651428Y-111442476D01*
X187841904Y-111442476D01*
X187937142Y-111490095D01*
X187984761Y-111537714D01*
X188032380Y-111632952D01*
X188032380Y-111823428D01*
X187984761Y-111918666D01*
X187937142Y-111966285D01*
X187841904Y-112013904D01*
X187651428Y-112013904D01*
X187556190Y-111966285D01*
X187508571Y-111918666D01*
X187460952Y-111823428D01*
D13*
X189456190Y-110930571D02*
X189218095Y-110763904D01*
X189456190Y-110644857D02*
X188956190Y-110644857D01*
X188956190Y-110835333D01*
X188980000Y-110882952D01*
X189003809Y-110906761D01*
X189051428Y-110930571D01*
X189122857Y-110930571D01*
X189170476Y-110906761D01*
X189194285Y-110882952D01*
X189218095Y-110835333D01*
X189218095Y-110644857D01*
X188956190Y-111382952D02*
X188956190Y-111144857D01*
X189194285Y-111121047D01*
X189170476Y-111144857D01*
X189146666Y-111192476D01*
X189146666Y-111311523D01*
X189170476Y-111359142D01*
X189194285Y-111382952D01*
X189241904Y-111406761D01*
X189360952Y-111406761D01*
X189408571Y-111382952D01*
X189432380Y-111359142D01*
X189456190Y-111311523D01*
X189456190Y-111192476D01*
X189432380Y-111144857D01*
X189408571Y-111121047D01*
X189122857Y-111835333D02*
X189456190Y-111835333D01*
X188932380Y-111716285D02*
X189289523Y-111597238D01*
X189289523Y-111906761D01*
G04 #@! TO.C,D5*
D11*
X128250380Y-61587142D02*
X128250380Y-61110952D01*
X127250380Y-61110952D01*
X127726571Y-61920476D02*
X127726571Y-62253809D01*
X128250380Y-62396666D02*
X128250380Y-61920476D01*
X127250380Y-61920476D01*
X127250380Y-62396666D01*
X128250380Y-62825238D02*
X127250380Y-62825238D01*
X127250380Y-63063333D01*
X127298000Y-63206190D01*
X127393238Y-63301428D01*
X127488476Y-63349047D01*
X127678952Y-63396666D01*
X127821809Y-63396666D01*
X128012285Y-63349047D01*
X128107523Y-63301428D01*
X128202761Y-63206190D01*
X128250380Y-63063333D01*
X128250380Y-62825238D01*
D14*
X130409904Y-61639523D02*
X129609904Y-61639523D01*
X129609904Y-61830000D01*
X129648000Y-61944285D01*
X129724190Y-62020476D01*
X129800380Y-62058571D01*
X129952761Y-62096666D01*
X130067047Y-62096666D01*
X130219428Y-62058571D01*
X130295619Y-62020476D01*
X130371809Y-61944285D01*
X130409904Y-61830000D01*
X130409904Y-61639523D01*
X129609904Y-62820476D02*
X129609904Y-62439523D01*
X129990857Y-62401428D01*
X129952761Y-62439523D01*
X129914666Y-62515714D01*
X129914666Y-62706190D01*
X129952761Y-62782380D01*
X129990857Y-62820476D01*
X130067047Y-62858571D01*
X130257523Y-62858571D01*
X130333714Y-62820476D01*
X130371809Y-62782380D01*
X130409904Y-62706190D01*
X130409904Y-62515714D01*
X130371809Y-62439523D01*
X130333714Y-62401428D01*
G04 #@! TO.C,D6*
D11*
X134600380Y-61587142D02*
X134600380Y-61110952D01*
X133600380Y-61110952D01*
X134076571Y-61920476D02*
X134076571Y-62253809D01*
X134600380Y-62396666D02*
X134600380Y-61920476D01*
X133600380Y-61920476D01*
X133600380Y-62396666D01*
X134600380Y-62825238D02*
X133600380Y-62825238D01*
X133600380Y-63063333D01*
X133648000Y-63206190D01*
X133743238Y-63301428D01*
X133838476Y-63349047D01*
X134028952Y-63396666D01*
X134171809Y-63396666D01*
X134362285Y-63349047D01*
X134457523Y-63301428D01*
X134552761Y-63206190D01*
X134600380Y-63063333D01*
X134600380Y-62825238D01*
D14*
X136759904Y-61639523D02*
X135959904Y-61639523D01*
X135959904Y-61830000D01*
X135998000Y-61944285D01*
X136074190Y-62020476D01*
X136150380Y-62058571D01*
X136302761Y-62096666D01*
X136417047Y-62096666D01*
X136569428Y-62058571D01*
X136645619Y-62020476D01*
X136721809Y-61944285D01*
X136759904Y-61830000D01*
X136759904Y-61639523D01*
X135959904Y-62782380D02*
X135959904Y-62630000D01*
X135998000Y-62553809D01*
X136036095Y-62515714D01*
X136150380Y-62439523D01*
X136302761Y-62401428D01*
X136607523Y-62401428D01*
X136683714Y-62439523D01*
X136721809Y-62477619D01*
X136759904Y-62553809D01*
X136759904Y-62706190D01*
X136721809Y-62782380D01*
X136683714Y-62820476D01*
X136607523Y-62858571D01*
X136417047Y-62858571D01*
X136340857Y-62820476D01*
X136302761Y-62782380D01*
X136264666Y-62706190D01*
X136264666Y-62553809D01*
X136302761Y-62477619D01*
X136340857Y-62439523D01*
X136417047Y-62401428D01*
G04 #@! TO.C,D7*
D11*
X128912857Y-108692380D02*
X129389047Y-108692380D01*
X129389047Y-107692380D01*
X128579523Y-108168571D02*
X128246190Y-108168571D01*
X128103333Y-108692380D02*
X128579523Y-108692380D01*
X128579523Y-107692380D01*
X128103333Y-107692380D01*
X127674761Y-108692380D02*
X127674761Y-107692380D01*
X127436666Y-107692380D01*
X127293809Y-107740000D01*
X127198571Y-107835238D01*
X127150952Y-107930476D01*
X127103333Y-108120952D01*
X127103333Y-108263809D01*
X127150952Y-108454285D01*
X127198571Y-108549523D01*
X127293809Y-108644761D01*
X127436666Y-108692380D01*
X127674761Y-108692380D01*
D14*
X128860476Y-110851904D02*
X128860476Y-110051904D01*
X128670000Y-110051904D01*
X128555714Y-110090000D01*
X128479523Y-110166190D01*
X128441428Y-110242380D01*
X128403333Y-110394761D01*
X128403333Y-110509047D01*
X128441428Y-110661428D01*
X128479523Y-110737619D01*
X128555714Y-110813809D01*
X128670000Y-110851904D01*
X128860476Y-110851904D01*
X128136666Y-110051904D02*
X127603333Y-110051904D01*
X127946190Y-110851904D01*
G04 #@! TO.C,D8*
D11*
X128912857Y-115042380D02*
X129389047Y-115042380D01*
X129389047Y-114042380D01*
X128579523Y-114518571D02*
X128246190Y-114518571D01*
X128103333Y-115042380D02*
X128579523Y-115042380D01*
X128579523Y-114042380D01*
X128103333Y-114042380D01*
X127674761Y-115042380D02*
X127674761Y-114042380D01*
X127436666Y-114042380D01*
X127293809Y-114090000D01*
X127198571Y-114185238D01*
X127150952Y-114280476D01*
X127103333Y-114470952D01*
X127103333Y-114613809D01*
X127150952Y-114804285D01*
X127198571Y-114899523D01*
X127293809Y-114994761D01*
X127436666Y-115042380D01*
X127674761Y-115042380D01*
D14*
X128860476Y-117201904D02*
X128860476Y-116401904D01*
X128670000Y-116401904D01*
X128555714Y-116440000D01*
X128479523Y-116516190D01*
X128441428Y-116592380D01*
X128403333Y-116744761D01*
X128403333Y-116859047D01*
X128441428Y-117011428D01*
X128479523Y-117087619D01*
X128555714Y-117163809D01*
X128670000Y-117201904D01*
X128860476Y-117201904D01*
X127946190Y-116744761D02*
X128022380Y-116706666D01*
X128060476Y-116668571D01*
X128098571Y-116592380D01*
X128098571Y-116554285D01*
X128060476Y-116478095D01*
X128022380Y-116440000D01*
X127946190Y-116401904D01*
X127793809Y-116401904D01*
X127717619Y-116440000D01*
X127679523Y-116478095D01*
X127641428Y-116554285D01*
X127641428Y-116592380D01*
X127679523Y-116668571D01*
X127717619Y-116706666D01*
X127793809Y-116744761D01*
X127946190Y-116744761D01*
X128022380Y-116782857D01*
X128060476Y-116820952D01*
X128098571Y-116897142D01*
X128098571Y-117049523D01*
X128060476Y-117125714D01*
X128022380Y-117163809D01*
X127946190Y-117201904D01*
X127793809Y-117201904D01*
X127717619Y-117163809D01*
X127679523Y-117125714D01*
X127641428Y-117049523D01*
X127641428Y-116897142D01*
X127679523Y-116820952D01*
X127717619Y-116782857D01*
X127793809Y-116744761D01*
G04 #@! TO.C,D9*
D11*
X128912857Y-121392380D02*
X129389047Y-121392380D01*
X129389047Y-120392380D01*
X128579523Y-120868571D02*
X128246190Y-120868571D01*
X128103333Y-121392380D02*
X128579523Y-121392380D01*
X128579523Y-120392380D01*
X128103333Y-120392380D01*
X127674761Y-121392380D02*
X127674761Y-120392380D01*
X127436666Y-120392380D01*
X127293809Y-120440000D01*
X127198571Y-120535238D01*
X127150952Y-120630476D01*
X127103333Y-120820952D01*
X127103333Y-120963809D01*
X127150952Y-121154285D01*
X127198571Y-121249523D01*
X127293809Y-121344761D01*
X127436666Y-121392380D01*
X127674761Y-121392380D01*
D14*
X128860476Y-123551904D02*
X128860476Y-122751904D01*
X128670000Y-122751904D01*
X128555714Y-122790000D01*
X128479523Y-122866190D01*
X128441428Y-122942380D01*
X128403333Y-123094761D01*
X128403333Y-123209047D01*
X128441428Y-123361428D01*
X128479523Y-123437619D01*
X128555714Y-123513809D01*
X128670000Y-123551904D01*
X128860476Y-123551904D01*
X128022380Y-123551904D02*
X127870000Y-123551904D01*
X127793809Y-123513809D01*
X127755714Y-123475714D01*
X127679523Y-123361428D01*
X127641428Y-123209047D01*
X127641428Y-122904285D01*
X127679523Y-122828095D01*
X127717619Y-122790000D01*
X127793809Y-122751904D01*
X127946190Y-122751904D01*
X128022380Y-122790000D01*
X128060476Y-122828095D01*
X128098571Y-122904285D01*
X128098571Y-123094761D01*
X128060476Y-123170952D01*
X128022380Y-123209047D01*
X127946190Y-123247142D01*
X127793809Y-123247142D01*
X127717619Y-123209047D01*
X127679523Y-123170952D01*
X127641428Y-123094761D01*
G04 #@! TO.C,D10*
D11*
X155582857Y-104882380D02*
X156059047Y-104882380D01*
X156059047Y-103882380D01*
X155249523Y-104358571D02*
X154916190Y-104358571D01*
X154773333Y-104882380D02*
X155249523Y-104882380D01*
X155249523Y-103882380D01*
X154773333Y-103882380D01*
X154344761Y-104882380D02*
X154344761Y-103882380D01*
X154106666Y-103882380D01*
X153963809Y-103930000D01*
X153868571Y-104025238D01*
X153820952Y-104120476D01*
X153773333Y-104310952D01*
X153773333Y-104453809D01*
X153820952Y-104644285D01*
X153868571Y-104739523D01*
X153963809Y-104834761D01*
X154106666Y-104882380D01*
X154344761Y-104882380D01*
D14*
X155911428Y-107041904D02*
X155911428Y-106241904D01*
X155720952Y-106241904D01*
X155606666Y-106280000D01*
X155530476Y-106356190D01*
X155492380Y-106432380D01*
X155454285Y-106584761D01*
X155454285Y-106699047D01*
X155492380Y-106851428D01*
X155530476Y-106927619D01*
X155606666Y-107003809D01*
X155720952Y-107041904D01*
X155911428Y-107041904D01*
X154692380Y-107041904D02*
X155149523Y-107041904D01*
X154920952Y-107041904D02*
X154920952Y-106241904D01*
X154997142Y-106356190D01*
X155073333Y-106432380D01*
X155149523Y-106470476D01*
X154197142Y-106241904D02*
X154120952Y-106241904D01*
X154044761Y-106280000D01*
X154006666Y-106318095D01*
X153968571Y-106394285D01*
X153930476Y-106546666D01*
X153930476Y-106737142D01*
X153968571Y-106889523D01*
X154006666Y-106965714D01*
X154044761Y-107003809D01*
X154120952Y-107041904D01*
X154197142Y-107041904D01*
X154273333Y-107003809D01*
X154311428Y-106965714D01*
X154349523Y-106889523D01*
X154387619Y-106737142D01*
X154387619Y-106546666D01*
X154349523Y-106394285D01*
X154311428Y-106318095D01*
X154273333Y-106280000D01*
X154197142Y-106241904D01*
G04 #@! TO.C,D11*
D11*
X155582857Y-111232380D02*
X156059047Y-111232380D01*
X156059047Y-110232380D01*
X155249523Y-110708571D02*
X154916190Y-110708571D01*
X154773333Y-111232380D02*
X155249523Y-111232380D01*
X155249523Y-110232380D01*
X154773333Y-110232380D01*
X154344761Y-111232380D02*
X154344761Y-110232380D01*
X154106666Y-110232380D01*
X153963809Y-110280000D01*
X153868571Y-110375238D01*
X153820952Y-110470476D01*
X153773333Y-110660952D01*
X153773333Y-110803809D01*
X153820952Y-110994285D01*
X153868571Y-111089523D01*
X153963809Y-111184761D01*
X154106666Y-111232380D01*
X154344761Y-111232380D01*
D14*
X155911428Y-113391904D02*
X155911428Y-112591904D01*
X155720952Y-112591904D01*
X155606666Y-112630000D01*
X155530476Y-112706190D01*
X155492380Y-112782380D01*
X155454285Y-112934761D01*
X155454285Y-113049047D01*
X155492380Y-113201428D01*
X155530476Y-113277619D01*
X155606666Y-113353809D01*
X155720952Y-113391904D01*
X155911428Y-113391904D01*
X154692380Y-113391904D02*
X155149523Y-113391904D01*
X154920952Y-113391904D02*
X154920952Y-112591904D01*
X154997142Y-112706190D01*
X155073333Y-112782380D01*
X155149523Y-112820476D01*
X153930476Y-113391904D02*
X154387619Y-113391904D01*
X154159047Y-113391904D02*
X154159047Y-112591904D01*
X154235238Y-112706190D01*
X154311428Y-112782380D01*
X154387619Y-112820476D01*
G04 #@! TO.C,D12*
D11*
X155582857Y-118852380D02*
X156059047Y-118852380D01*
X156059047Y-117852380D01*
X155249523Y-118328571D02*
X154916190Y-118328571D01*
X154773333Y-118852380D02*
X155249523Y-118852380D01*
X155249523Y-117852380D01*
X154773333Y-117852380D01*
X154344761Y-118852380D02*
X154344761Y-117852380D01*
X154106666Y-117852380D01*
X153963809Y-117900000D01*
X153868571Y-117995238D01*
X153820952Y-118090476D01*
X153773333Y-118280952D01*
X153773333Y-118423809D01*
X153820952Y-118614285D01*
X153868571Y-118709523D01*
X153963809Y-118804761D01*
X154106666Y-118852380D01*
X154344761Y-118852380D01*
D14*
X155911428Y-121011904D02*
X155911428Y-120211904D01*
X155720952Y-120211904D01*
X155606666Y-120250000D01*
X155530476Y-120326190D01*
X155492380Y-120402380D01*
X155454285Y-120554761D01*
X155454285Y-120669047D01*
X155492380Y-120821428D01*
X155530476Y-120897619D01*
X155606666Y-120973809D01*
X155720952Y-121011904D01*
X155911428Y-121011904D01*
X154692380Y-121011904D02*
X155149523Y-121011904D01*
X154920952Y-121011904D02*
X154920952Y-120211904D01*
X154997142Y-120326190D01*
X155073333Y-120402380D01*
X155149523Y-120440476D01*
X154387619Y-120288095D02*
X154349523Y-120250000D01*
X154273333Y-120211904D01*
X154082857Y-120211904D01*
X154006666Y-120250000D01*
X153968571Y-120288095D01*
X153930476Y-120364285D01*
X153930476Y-120440476D01*
X153968571Y-120554761D01*
X154425714Y-121011904D01*
X153930476Y-121011904D01*
G04 #@! TO.C,D13*
D11*
X155582857Y-125202380D02*
X156059047Y-125202380D01*
X156059047Y-124202380D01*
X155249523Y-124678571D02*
X154916190Y-124678571D01*
X154773333Y-125202380D02*
X155249523Y-125202380D01*
X155249523Y-124202380D01*
X154773333Y-124202380D01*
X154344761Y-125202380D02*
X154344761Y-124202380D01*
X154106666Y-124202380D01*
X153963809Y-124250000D01*
X153868571Y-124345238D01*
X153820952Y-124440476D01*
X153773333Y-124630952D01*
X153773333Y-124773809D01*
X153820952Y-124964285D01*
X153868571Y-125059523D01*
X153963809Y-125154761D01*
X154106666Y-125202380D01*
X154344761Y-125202380D01*
D14*
X155911428Y-127361904D02*
X155911428Y-126561904D01*
X155720952Y-126561904D01*
X155606666Y-126600000D01*
X155530476Y-126676190D01*
X155492380Y-126752380D01*
X155454285Y-126904761D01*
X155454285Y-127019047D01*
X155492380Y-127171428D01*
X155530476Y-127247619D01*
X155606666Y-127323809D01*
X155720952Y-127361904D01*
X155911428Y-127361904D01*
X154692380Y-127361904D02*
X155149523Y-127361904D01*
X154920952Y-127361904D02*
X154920952Y-126561904D01*
X154997142Y-126676190D01*
X155073333Y-126752380D01*
X155149523Y-126790476D01*
X154425714Y-126561904D02*
X153930476Y-126561904D01*
X154197142Y-126866666D01*
X154082857Y-126866666D01*
X154006666Y-126904761D01*
X153968571Y-126942857D01*
X153930476Y-127019047D01*
X153930476Y-127209523D01*
X153968571Y-127285714D01*
X154006666Y-127323809D01*
X154082857Y-127361904D01*
X154311428Y-127361904D01*
X154387619Y-127323809D01*
X154425714Y-127285714D01*
G04 #@! TO.C,D14*
D11*
X74910380Y-53967142D02*
X74910380Y-53490952D01*
X73910380Y-53490952D01*
X74386571Y-54300476D02*
X74386571Y-54633809D01*
X74910380Y-54776666D02*
X74910380Y-54300476D01*
X73910380Y-54300476D01*
X73910380Y-54776666D01*
X74910380Y-55205238D02*
X73910380Y-55205238D01*
X73910380Y-55443333D01*
X73958000Y-55586190D01*
X74053238Y-55681428D01*
X74148476Y-55729047D01*
X74338952Y-55776666D01*
X74481809Y-55776666D01*
X74672285Y-55729047D01*
X74767523Y-55681428D01*
X74862761Y-55586190D01*
X74910380Y-55443333D01*
X74910380Y-55205238D01*
D14*
X77069904Y-53638571D02*
X76269904Y-53638571D01*
X76269904Y-53829047D01*
X76308000Y-53943333D01*
X76384190Y-54019523D01*
X76460380Y-54057619D01*
X76612761Y-54095714D01*
X76727047Y-54095714D01*
X76879428Y-54057619D01*
X76955619Y-54019523D01*
X77031809Y-53943333D01*
X77069904Y-53829047D01*
X77069904Y-53638571D01*
X77069904Y-54857619D02*
X77069904Y-54400476D01*
X77069904Y-54629047D02*
X76269904Y-54629047D01*
X76384190Y-54552857D01*
X76460380Y-54476666D01*
X76498476Y-54400476D01*
X76536571Y-55543333D02*
X77069904Y-55543333D01*
X76231809Y-55352857D02*
X76803238Y-55162380D01*
X76803238Y-55657619D01*
G04 #@! TO.C,D15*
D11*
X71762857Y-84236380D02*
X72239047Y-84236380D01*
X72239047Y-83236380D01*
X71429523Y-83712571D02*
X71096190Y-83712571D01*
X70953333Y-84236380D02*
X71429523Y-84236380D01*
X71429523Y-83236380D01*
X70953333Y-83236380D01*
X70524761Y-84236380D02*
X70524761Y-83236380D01*
X70286666Y-83236380D01*
X70143809Y-83284000D01*
X70048571Y-83379238D01*
X70000952Y-83474476D01*
X69953333Y-83664952D01*
X69953333Y-83807809D01*
X70000952Y-83998285D01*
X70048571Y-84093523D01*
X70143809Y-84188761D01*
X70286666Y-84236380D01*
X70524761Y-84236380D01*
D14*
X72091428Y-81895904D02*
X72091428Y-81095904D01*
X71900952Y-81095904D01*
X71786666Y-81134000D01*
X71710476Y-81210190D01*
X71672380Y-81286380D01*
X71634285Y-81438761D01*
X71634285Y-81553047D01*
X71672380Y-81705428D01*
X71710476Y-81781619D01*
X71786666Y-81857809D01*
X71900952Y-81895904D01*
X72091428Y-81895904D01*
X70872380Y-81895904D02*
X71329523Y-81895904D01*
X71100952Y-81895904D02*
X71100952Y-81095904D01*
X71177142Y-81210190D01*
X71253333Y-81286380D01*
X71329523Y-81324476D01*
X70148571Y-81095904D02*
X70529523Y-81095904D01*
X70567619Y-81476857D01*
X70529523Y-81438761D01*
X70453333Y-81400666D01*
X70262857Y-81400666D01*
X70186666Y-81438761D01*
X70148571Y-81476857D01*
X70110476Y-81553047D01*
X70110476Y-81743523D01*
X70148571Y-81819714D01*
X70186666Y-81857809D01*
X70262857Y-81895904D01*
X70453333Y-81895904D01*
X70529523Y-81857809D01*
X70567619Y-81819714D01*
G04 #@! TO.C,D16*
D11*
X71762857Y-105572380D02*
X72239047Y-105572380D01*
X72239047Y-104572380D01*
X71429523Y-105048571D02*
X71096190Y-105048571D01*
X70953333Y-105572380D02*
X71429523Y-105572380D01*
X71429523Y-104572380D01*
X70953333Y-104572380D01*
X70524761Y-105572380D02*
X70524761Y-104572380D01*
X70286666Y-104572380D01*
X70143809Y-104620000D01*
X70048571Y-104715238D01*
X70000952Y-104810476D01*
X69953333Y-105000952D01*
X69953333Y-105143809D01*
X70000952Y-105334285D01*
X70048571Y-105429523D01*
X70143809Y-105524761D01*
X70286666Y-105572380D01*
X70524761Y-105572380D01*
D14*
X72091428Y-103231904D02*
X72091428Y-102431904D01*
X71900952Y-102431904D01*
X71786666Y-102470000D01*
X71710476Y-102546190D01*
X71672380Y-102622380D01*
X71634285Y-102774761D01*
X71634285Y-102889047D01*
X71672380Y-103041428D01*
X71710476Y-103117619D01*
X71786666Y-103193809D01*
X71900952Y-103231904D01*
X72091428Y-103231904D01*
X70872380Y-103231904D02*
X71329523Y-103231904D01*
X71100952Y-103231904D02*
X71100952Y-102431904D01*
X71177142Y-102546190D01*
X71253333Y-102622380D01*
X71329523Y-102660476D01*
X70186666Y-102431904D02*
X70339047Y-102431904D01*
X70415238Y-102470000D01*
X70453333Y-102508095D01*
X70529523Y-102622380D01*
X70567619Y-102774761D01*
X70567619Y-103079523D01*
X70529523Y-103155714D01*
X70491428Y-103193809D01*
X70415238Y-103231904D01*
X70262857Y-103231904D01*
X70186666Y-103193809D01*
X70148571Y-103155714D01*
X70110476Y-103079523D01*
X70110476Y-102889047D01*
X70148571Y-102812857D01*
X70186666Y-102774761D01*
X70262857Y-102736666D01*
X70415238Y-102736666D01*
X70491428Y-102774761D01*
X70529523Y-102812857D01*
X70567619Y-102889047D01*
G04 #@! TO.C,D17*
D11*
X82022380Y-102227142D02*
X82022380Y-101750952D01*
X81022380Y-101750952D01*
X81498571Y-102560476D02*
X81498571Y-102893809D01*
X82022380Y-103036666D02*
X82022380Y-102560476D01*
X81022380Y-102560476D01*
X81022380Y-103036666D01*
X82022380Y-103465238D02*
X81022380Y-103465238D01*
X81022380Y-103703333D01*
X81070000Y-103846190D01*
X81165238Y-103941428D01*
X81260476Y-103989047D01*
X81450952Y-104036666D01*
X81593809Y-104036666D01*
X81784285Y-103989047D01*
X81879523Y-103941428D01*
X81974761Y-103846190D01*
X82022380Y-103703333D01*
X82022380Y-103465238D01*
D14*
X84181904Y-101898571D02*
X83381904Y-101898571D01*
X83381904Y-102089047D01*
X83420000Y-102203333D01*
X83496190Y-102279523D01*
X83572380Y-102317619D01*
X83724761Y-102355714D01*
X83839047Y-102355714D01*
X83991428Y-102317619D01*
X84067619Y-102279523D01*
X84143809Y-102203333D01*
X84181904Y-102089047D01*
X84181904Y-101898571D01*
X84181904Y-103117619D02*
X84181904Y-102660476D01*
X84181904Y-102889047D02*
X83381904Y-102889047D01*
X83496190Y-102812857D01*
X83572380Y-102736666D01*
X83610476Y-102660476D01*
X83381904Y-103384285D02*
X83381904Y-103917619D01*
X84181904Y-103574761D01*
G04 #@! TO.C,D18*
D11*
X102242857Y-106406380D02*
X102719047Y-106406380D01*
X102719047Y-105406380D01*
X101909523Y-105882571D02*
X101576190Y-105882571D01*
X101433333Y-106406380D02*
X101909523Y-106406380D01*
X101909523Y-105406380D01*
X101433333Y-105406380D01*
X101004761Y-106406380D02*
X101004761Y-105406380D01*
X100766666Y-105406380D01*
X100623809Y-105454000D01*
X100528571Y-105549238D01*
X100480952Y-105644476D01*
X100433333Y-105834952D01*
X100433333Y-105977809D01*
X100480952Y-106168285D01*
X100528571Y-106263523D01*
X100623809Y-106358761D01*
X100766666Y-106406380D01*
X101004761Y-106406380D01*
D14*
X102571428Y-108565904D02*
X102571428Y-107765904D01*
X102380952Y-107765904D01*
X102266666Y-107804000D01*
X102190476Y-107880190D01*
X102152380Y-107956380D01*
X102114285Y-108108761D01*
X102114285Y-108223047D01*
X102152380Y-108375428D01*
X102190476Y-108451619D01*
X102266666Y-108527809D01*
X102380952Y-108565904D01*
X102571428Y-108565904D01*
X101352380Y-108565904D02*
X101809523Y-108565904D01*
X101580952Y-108565904D02*
X101580952Y-107765904D01*
X101657142Y-107880190D01*
X101733333Y-107956380D01*
X101809523Y-107994476D01*
X100895238Y-108108761D02*
X100971428Y-108070666D01*
X101009523Y-108032571D01*
X101047619Y-107956380D01*
X101047619Y-107918285D01*
X101009523Y-107842095D01*
X100971428Y-107804000D01*
X100895238Y-107765904D01*
X100742857Y-107765904D01*
X100666666Y-107804000D01*
X100628571Y-107842095D01*
X100590476Y-107918285D01*
X100590476Y-107956380D01*
X100628571Y-108032571D01*
X100666666Y-108070666D01*
X100742857Y-108108761D01*
X100895238Y-108108761D01*
X100971428Y-108146857D01*
X101009523Y-108184952D01*
X101047619Y-108261142D01*
X101047619Y-108413523D01*
X101009523Y-108489714D01*
X100971428Y-108527809D01*
X100895238Y-108565904D01*
X100742857Y-108565904D01*
X100666666Y-108527809D01*
X100628571Y-108489714D01*
X100590476Y-108413523D01*
X100590476Y-108261142D01*
X100628571Y-108184952D01*
X100666666Y-108146857D01*
X100742857Y-108108761D01*
G04 #@! TO.C,D19*
D11*
X115042380Y-102227142D02*
X115042380Y-101750952D01*
X114042380Y-101750952D01*
X114518571Y-102560476D02*
X114518571Y-102893809D01*
X115042380Y-103036666D02*
X115042380Y-102560476D01*
X114042380Y-102560476D01*
X114042380Y-103036666D01*
X115042380Y-103465238D02*
X114042380Y-103465238D01*
X114042380Y-103703333D01*
X114090000Y-103846190D01*
X114185238Y-103941428D01*
X114280476Y-103989047D01*
X114470952Y-104036666D01*
X114613809Y-104036666D01*
X114804285Y-103989047D01*
X114899523Y-103941428D01*
X114994761Y-103846190D01*
X115042380Y-103703333D01*
X115042380Y-103465238D01*
D14*
X117201904Y-101898571D02*
X116401904Y-101898571D01*
X116401904Y-102089047D01*
X116440000Y-102203333D01*
X116516190Y-102279523D01*
X116592380Y-102317619D01*
X116744761Y-102355714D01*
X116859047Y-102355714D01*
X117011428Y-102317619D01*
X117087619Y-102279523D01*
X117163809Y-102203333D01*
X117201904Y-102089047D01*
X117201904Y-101898571D01*
X117201904Y-103117619D02*
X117201904Y-102660476D01*
X117201904Y-102889047D02*
X116401904Y-102889047D01*
X116516190Y-102812857D01*
X116592380Y-102736666D01*
X116630476Y-102660476D01*
X117201904Y-103498571D02*
X117201904Y-103650952D01*
X117163809Y-103727142D01*
X117125714Y-103765238D01*
X117011428Y-103841428D01*
X116859047Y-103879523D01*
X116554285Y-103879523D01*
X116478095Y-103841428D01*
X116440000Y-103803333D01*
X116401904Y-103727142D01*
X116401904Y-103574761D01*
X116440000Y-103498571D01*
X116478095Y-103460476D01*
X116554285Y-103422380D01*
X116744761Y-103422380D01*
X116820952Y-103460476D01*
X116859047Y-103498571D01*
X116897142Y-103574761D01*
X116897142Y-103727142D01*
X116859047Y-103803333D01*
X116820952Y-103841428D01*
X116744761Y-103879523D01*
G04 #@! TO.C,D20*
D11*
X81260380Y-69207142D02*
X81260380Y-68730952D01*
X80260380Y-68730952D01*
X80736571Y-69540476D02*
X80736571Y-69873809D01*
X81260380Y-70016666D02*
X81260380Y-69540476D01*
X80260380Y-69540476D01*
X80260380Y-70016666D01*
X81260380Y-70445238D02*
X80260380Y-70445238D01*
X80260380Y-70683333D01*
X80308000Y-70826190D01*
X80403238Y-70921428D01*
X80498476Y-70969047D01*
X80688952Y-71016666D01*
X80831809Y-71016666D01*
X81022285Y-70969047D01*
X81117523Y-70921428D01*
X81212761Y-70826190D01*
X81260380Y-70683333D01*
X81260380Y-70445238D01*
D14*
X83419904Y-68878571D02*
X82619904Y-68878571D01*
X82619904Y-69069047D01*
X82658000Y-69183333D01*
X82734190Y-69259523D01*
X82810380Y-69297619D01*
X82962761Y-69335714D01*
X83077047Y-69335714D01*
X83229428Y-69297619D01*
X83305619Y-69259523D01*
X83381809Y-69183333D01*
X83419904Y-69069047D01*
X83419904Y-68878571D01*
X82696095Y-69640476D02*
X82658000Y-69678571D01*
X82619904Y-69754761D01*
X82619904Y-69945238D01*
X82658000Y-70021428D01*
X82696095Y-70059523D01*
X82772285Y-70097619D01*
X82848476Y-70097619D01*
X82962761Y-70059523D01*
X83419904Y-69602380D01*
X83419904Y-70097619D01*
X82619904Y-70592857D02*
X82619904Y-70669047D01*
X82658000Y-70745238D01*
X82696095Y-70783333D01*
X82772285Y-70821428D01*
X82924666Y-70859523D01*
X83115142Y-70859523D01*
X83267523Y-70821428D01*
X83343714Y-70783333D01*
X83381809Y-70745238D01*
X83419904Y-70669047D01*
X83419904Y-70592857D01*
X83381809Y-70516666D01*
X83343714Y-70478571D01*
X83267523Y-70440476D01*
X83115142Y-70402380D01*
X82924666Y-70402380D01*
X82772285Y-70440476D01*
X82696095Y-70478571D01*
X82658000Y-70516666D01*
X82619904Y-70592857D01*
G04 #@! TO.C,D21*
D11*
X78112857Y-89062380D02*
X78589047Y-89062380D01*
X78589047Y-88062380D01*
X77779523Y-88538571D02*
X77446190Y-88538571D01*
X77303333Y-89062380D02*
X77779523Y-89062380D01*
X77779523Y-88062380D01*
X77303333Y-88062380D01*
X76874761Y-89062380D02*
X76874761Y-88062380D01*
X76636666Y-88062380D01*
X76493809Y-88110000D01*
X76398571Y-88205238D01*
X76350952Y-88300476D01*
X76303333Y-88490952D01*
X76303333Y-88633809D01*
X76350952Y-88824285D01*
X76398571Y-88919523D01*
X76493809Y-89014761D01*
X76636666Y-89062380D01*
X76874761Y-89062380D01*
D14*
X78441428Y-86721904D02*
X78441428Y-85921904D01*
X78250952Y-85921904D01*
X78136666Y-85960000D01*
X78060476Y-86036190D01*
X78022380Y-86112380D01*
X77984285Y-86264761D01*
X77984285Y-86379047D01*
X78022380Y-86531428D01*
X78060476Y-86607619D01*
X78136666Y-86683809D01*
X78250952Y-86721904D01*
X78441428Y-86721904D01*
X77679523Y-85998095D02*
X77641428Y-85960000D01*
X77565238Y-85921904D01*
X77374761Y-85921904D01*
X77298571Y-85960000D01*
X77260476Y-85998095D01*
X77222380Y-86074285D01*
X77222380Y-86150476D01*
X77260476Y-86264761D01*
X77717619Y-86721904D01*
X77222380Y-86721904D01*
X76460476Y-86721904D02*
X76917619Y-86721904D01*
X76689047Y-86721904D02*
X76689047Y-85921904D01*
X76765238Y-86036190D01*
X76841428Y-86112380D01*
X76917619Y-86150476D01*
G04 #@! TO.C,D22*
D11*
X78112857Y-117764380D02*
X78589047Y-117764380D01*
X78589047Y-116764380D01*
X77779523Y-117240571D02*
X77446190Y-117240571D01*
X77303333Y-117764380D02*
X77779523Y-117764380D01*
X77779523Y-116764380D01*
X77303333Y-116764380D01*
X76874761Y-117764380D02*
X76874761Y-116764380D01*
X76636666Y-116764380D01*
X76493809Y-116812000D01*
X76398571Y-116907238D01*
X76350952Y-117002476D01*
X76303333Y-117192952D01*
X76303333Y-117335809D01*
X76350952Y-117526285D01*
X76398571Y-117621523D01*
X76493809Y-117716761D01*
X76636666Y-117764380D01*
X76874761Y-117764380D01*
D14*
X78441428Y-115423904D02*
X78441428Y-114623904D01*
X78250952Y-114623904D01*
X78136666Y-114662000D01*
X78060476Y-114738190D01*
X78022380Y-114814380D01*
X77984285Y-114966761D01*
X77984285Y-115081047D01*
X78022380Y-115233428D01*
X78060476Y-115309619D01*
X78136666Y-115385809D01*
X78250952Y-115423904D01*
X78441428Y-115423904D01*
X77679523Y-114700095D02*
X77641428Y-114662000D01*
X77565238Y-114623904D01*
X77374761Y-114623904D01*
X77298571Y-114662000D01*
X77260476Y-114700095D01*
X77222380Y-114776285D01*
X77222380Y-114852476D01*
X77260476Y-114966761D01*
X77717619Y-115423904D01*
X77222380Y-115423904D01*
X76917619Y-114700095D02*
X76879523Y-114662000D01*
X76803333Y-114623904D01*
X76612857Y-114623904D01*
X76536666Y-114662000D01*
X76498571Y-114700095D01*
X76460476Y-114776285D01*
X76460476Y-114852476D01*
X76498571Y-114966761D01*
X76955714Y-115423904D01*
X76460476Y-115423904D01*
G04 #@! TO.C,D23*
D11*
X86522380Y-130167142D02*
X86522380Y-129690952D01*
X85522380Y-129690952D01*
X85998571Y-130500476D02*
X85998571Y-130833809D01*
X86522380Y-130976666D02*
X86522380Y-130500476D01*
X85522380Y-130500476D01*
X85522380Y-130976666D01*
X86522380Y-131405238D02*
X85522380Y-131405238D01*
X85522380Y-131643333D01*
X85570000Y-131786190D01*
X85665238Y-131881428D01*
X85760476Y-131929047D01*
X85950952Y-131976666D01*
X86093809Y-131976666D01*
X86284285Y-131929047D01*
X86379523Y-131881428D01*
X86474761Y-131786190D01*
X86522380Y-131643333D01*
X86522380Y-131405238D01*
D14*
X84181904Y-129838571D02*
X83381904Y-129838571D01*
X83381904Y-130029047D01*
X83420000Y-130143333D01*
X83496190Y-130219523D01*
X83572380Y-130257619D01*
X83724761Y-130295714D01*
X83839047Y-130295714D01*
X83991428Y-130257619D01*
X84067619Y-130219523D01*
X84143809Y-130143333D01*
X84181904Y-130029047D01*
X84181904Y-129838571D01*
X83458095Y-130600476D02*
X83420000Y-130638571D01*
X83381904Y-130714761D01*
X83381904Y-130905238D01*
X83420000Y-130981428D01*
X83458095Y-131019523D01*
X83534285Y-131057619D01*
X83610476Y-131057619D01*
X83724761Y-131019523D01*
X84181904Y-130562380D01*
X84181904Y-131057619D01*
X83381904Y-131324285D02*
X83381904Y-131819523D01*
X83686666Y-131552857D01*
X83686666Y-131667142D01*
X83724761Y-131743333D01*
X83762857Y-131781428D01*
X83839047Y-131819523D01*
X84029523Y-131819523D01*
X84105714Y-131781428D01*
X84143809Y-131743333D01*
X84181904Y-131667142D01*
X84181904Y-131438571D01*
X84143809Y-131362380D01*
X84105714Y-131324285D01*
G04 #@! TO.C,D24*
D11*
X102242857Y-123678380D02*
X102719047Y-123678380D01*
X102719047Y-122678380D01*
X101909523Y-123154571D02*
X101576190Y-123154571D01*
X101433333Y-123678380D02*
X101909523Y-123678380D01*
X101909523Y-122678380D01*
X101433333Y-122678380D01*
X101004761Y-123678380D02*
X101004761Y-122678380D01*
X100766666Y-122678380D01*
X100623809Y-122726000D01*
X100528571Y-122821238D01*
X100480952Y-122916476D01*
X100433333Y-123106952D01*
X100433333Y-123249809D01*
X100480952Y-123440285D01*
X100528571Y-123535523D01*
X100623809Y-123630761D01*
X100766666Y-123678380D01*
X101004761Y-123678380D01*
D14*
X102571428Y-125837904D02*
X102571428Y-125037904D01*
X102380952Y-125037904D01*
X102266666Y-125076000D01*
X102190476Y-125152190D01*
X102152380Y-125228380D01*
X102114285Y-125380761D01*
X102114285Y-125495047D01*
X102152380Y-125647428D01*
X102190476Y-125723619D01*
X102266666Y-125799809D01*
X102380952Y-125837904D01*
X102571428Y-125837904D01*
X101809523Y-125114095D02*
X101771428Y-125076000D01*
X101695238Y-125037904D01*
X101504761Y-125037904D01*
X101428571Y-125076000D01*
X101390476Y-125114095D01*
X101352380Y-125190285D01*
X101352380Y-125266476D01*
X101390476Y-125380761D01*
X101847619Y-125837904D01*
X101352380Y-125837904D01*
X100666666Y-125304571D02*
X100666666Y-125837904D01*
X100857142Y-124999809D02*
X101047619Y-125571238D01*
X100552380Y-125571238D01*
G04 #@! TO.C,D25*
D11*
X119288380Y-130167142D02*
X119288380Y-129690952D01*
X118288380Y-129690952D01*
X118764571Y-130500476D02*
X118764571Y-130833809D01*
X119288380Y-130976666D02*
X119288380Y-130500476D01*
X118288380Y-130500476D01*
X118288380Y-130976666D01*
X119288380Y-131405238D02*
X118288380Y-131405238D01*
X118288380Y-131643333D01*
X118336000Y-131786190D01*
X118431238Y-131881428D01*
X118526476Y-131929047D01*
X118716952Y-131976666D01*
X118859809Y-131976666D01*
X119050285Y-131929047D01*
X119145523Y-131881428D01*
X119240761Y-131786190D01*
X119288380Y-131643333D01*
X119288380Y-131405238D01*
D14*
X116947904Y-129838571D02*
X116147904Y-129838571D01*
X116147904Y-130029047D01*
X116186000Y-130143333D01*
X116262190Y-130219523D01*
X116338380Y-130257619D01*
X116490761Y-130295714D01*
X116605047Y-130295714D01*
X116757428Y-130257619D01*
X116833619Y-130219523D01*
X116909809Y-130143333D01*
X116947904Y-130029047D01*
X116947904Y-129838571D01*
X116224095Y-130600476D02*
X116186000Y-130638571D01*
X116147904Y-130714761D01*
X116147904Y-130905238D01*
X116186000Y-130981428D01*
X116224095Y-131019523D01*
X116300285Y-131057619D01*
X116376476Y-131057619D01*
X116490761Y-131019523D01*
X116947904Y-130562380D01*
X116947904Y-131057619D01*
X116147904Y-131781428D02*
X116147904Y-131400476D01*
X116528857Y-131362380D01*
X116490761Y-131400476D01*
X116452666Y-131476666D01*
X116452666Y-131667142D01*
X116490761Y-131743333D01*
X116528857Y-131781428D01*
X116605047Y-131819523D01*
X116795523Y-131819523D01*
X116871714Y-131781428D01*
X116909809Y-131743333D01*
X116947904Y-131667142D01*
X116947904Y-131476666D01*
X116909809Y-131400476D01*
X116871714Y-131362380D01*
G04 #@! TO.C,D26*
D11*
X187432380Y-61587142D02*
X187432380Y-61110952D01*
X186432380Y-61110952D01*
X186908571Y-61920476D02*
X186908571Y-62253809D01*
X187432380Y-62396666D02*
X187432380Y-61920476D01*
X186432380Y-61920476D01*
X186432380Y-62396666D01*
X187432380Y-62825238D02*
X186432380Y-62825238D01*
X186432380Y-63063333D01*
X186480000Y-63206190D01*
X186575238Y-63301428D01*
X186670476Y-63349047D01*
X186860952Y-63396666D01*
X187003809Y-63396666D01*
X187194285Y-63349047D01*
X187289523Y-63301428D01*
X187384761Y-63206190D01*
X187432380Y-63063333D01*
X187432380Y-62825238D01*
D14*
X189591904Y-61258571D02*
X188791904Y-61258571D01*
X188791904Y-61449047D01*
X188830000Y-61563333D01*
X188906190Y-61639523D01*
X188982380Y-61677619D01*
X189134761Y-61715714D01*
X189249047Y-61715714D01*
X189401428Y-61677619D01*
X189477619Y-61639523D01*
X189553809Y-61563333D01*
X189591904Y-61449047D01*
X189591904Y-61258571D01*
X188868095Y-62020476D02*
X188830000Y-62058571D01*
X188791904Y-62134761D01*
X188791904Y-62325238D01*
X188830000Y-62401428D01*
X188868095Y-62439523D01*
X188944285Y-62477619D01*
X189020476Y-62477619D01*
X189134761Y-62439523D01*
X189591904Y-61982380D01*
X189591904Y-62477619D01*
X188791904Y-63163333D02*
X188791904Y-63010952D01*
X188830000Y-62934761D01*
X188868095Y-62896666D01*
X188982380Y-62820476D01*
X189134761Y-62782380D01*
X189439523Y-62782380D01*
X189515714Y-62820476D01*
X189553809Y-62858571D01*
X189591904Y-62934761D01*
X189591904Y-63087142D01*
X189553809Y-63163333D01*
X189515714Y-63201428D01*
X189439523Y-63239523D01*
X189249047Y-63239523D01*
X189172857Y-63201428D01*
X189134761Y-63163333D01*
X189096666Y-63087142D01*
X189096666Y-62934761D01*
X189134761Y-62858571D01*
X189172857Y-62820476D01*
X189249047Y-62782380D01*
G04 #@! TO.C,D27*
D11*
X191932380Y-116197142D02*
X191932380Y-115720952D01*
X190932380Y-115720952D01*
X191408571Y-116530476D02*
X191408571Y-116863809D01*
X191932380Y-117006666D02*
X191932380Y-116530476D01*
X190932380Y-116530476D01*
X190932380Y-117006666D01*
X191932380Y-117435238D02*
X190932380Y-117435238D01*
X190932380Y-117673333D01*
X190980000Y-117816190D01*
X191075238Y-117911428D01*
X191170476Y-117959047D01*
X191360952Y-118006666D01*
X191503809Y-118006666D01*
X191694285Y-117959047D01*
X191789523Y-117911428D01*
X191884761Y-117816190D01*
X191932380Y-117673333D01*
X191932380Y-117435238D01*
D14*
X189591904Y-115868571D02*
X188791904Y-115868571D01*
X188791904Y-116059047D01*
X188830000Y-116173333D01*
X188906190Y-116249523D01*
X188982380Y-116287619D01*
X189134761Y-116325714D01*
X189249047Y-116325714D01*
X189401428Y-116287619D01*
X189477619Y-116249523D01*
X189553809Y-116173333D01*
X189591904Y-116059047D01*
X189591904Y-115868571D01*
X188868095Y-116630476D02*
X188830000Y-116668571D01*
X188791904Y-116744761D01*
X188791904Y-116935238D01*
X188830000Y-117011428D01*
X188868095Y-117049523D01*
X188944285Y-117087619D01*
X189020476Y-117087619D01*
X189134761Y-117049523D01*
X189591904Y-116592380D01*
X189591904Y-117087619D01*
X188791904Y-117354285D02*
X188791904Y-117887619D01*
X189591904Y-117544761D01*
G04 #@! TD*
M02*
