G04 #@! TF.GenerationSoftware,KiCad,Pcbnew,5.0.2-bee76a0~70~ubuntu16.04.1*
G04 #@! TF.CreationDate,2019-07-30T20:51:49-07:00*
G04 #@! TF.ProjectId,rtl-half-adder,72746c2d-6861-46c6-962d-61646465722e,v1*
G04 #@! TF.SameCoordinates,Original*
G04 #@! TF.FileFunction,Legend,Top*
G04 #@! TF.FilePolarity,Positive*
%FSLAX46Y46*%
G04 Gerber Fmt 4.6, Leading zero omitted, Abs format (unit mm)*
G04 Created by KiCad (PCBNEW 5.0.2-bee76a0~70~ubuntu16.04.1) date Tue 30 Jul 2019 08:51:49 PM PDT*
%MOMM*%
%LPD*%
G01*
G04 APERTURE LIST*
%ADD10C,0.381000*%
%ADD11C,0.762000*%
%ADD12C,1.270000*%
%ADD13C,0.508000*%
%ADD14C,0.254000*%
%ADD15C,1.016000*%
%ADD16C,0.120000*%
G04 APERTURE END LIST*
D10*
X188220047Y-74125666D02*
X189550523Y-73533000D01*
X188220047Y-73109666D02*
X191014047Y-73109666D01*
X191014047Y-73787000D01*
X190881000Y-73956333D01*
X190747952Y-74041000D01*
X190481857Y-74125666D01*
X190082714Y-74125666D01*
X189816619Y-74041000D01*
X189683571Y-73956333D01*
X189550523Y-73787000D01*
X189550523Y-73109666D01*
X188353095Y-75565000D02*
X188220047Y-75395666D01*
X188220047Y-75057000D01*
X188353095Y-74887666D01*
X188619190Y-74803000D01*
X189683571Y-74803000D01*
X189949666Y-74887666D01*
X190082714Y-75057000D01*
X190082714Y-75395666D01*
X189949666Y-75565000D01*
X189683571Y-75649666D01*
X189417476Y-75649666D01*
X189151380Y-74803000D01*
X188353095Y-76327000D02*
X188220047Y-76496333D01*
X188220047Y-76835000D01*
X188353095Y-77004333D01*
X188619190Y-77089000D01*
X188752238Y-77089000D01*
X189018333Y-77004333D01*
X189151380Y-76835000D01*
X189151380Y-76581000D01*
X189284428Y-76411666D01*
X189550523Y-76327000D01*
X189683571Y-76327000D01*
X189949666Y-76411666D01*
X190082714Y-76581000D01*
X190082714Y-76835000D01*
X189949666Y-77004333D01*
X188220047Y-77851000D02*
X190082714Y-77851000D01*
X191014047Y-77851000D02*
X190881000Y-77766333D01*
X190747952Y-77851000D01*
X190881000Y-77935666D01*
X191014047Y-77851000D01*
X190747952Y-77851000D01*
X188353095Y-78613000D02*
X188220047Y-78782333D01*
X188220047Y-79121000D01*
X188353095Y-79290333D01*
X188619190Y-79375000D01*
X188752238Y-79375000D01*
X189018333Y-79290333D01*
X189151380Y-79121000D01*
X189151380Y-78867000D01*
X189284428Y-78697666D01*
X189550523Y-78613000D01*
X189683571Y-78613000D01*
X189949666Y-78697666D01*
X190082714Y-78867000D01*
X190082714Y-79121000D01*
X189949666Y-79290333D01*
X190082714Y-79883000D02*
X190082714Y-80560333D01*
X191014047Y-80137000D02*
X188619190Y-80137000D01*
X188353095Y-80221666D01*
X188220047Y-80391000D01*
X188220047Y-80560333D01*
X188220047Y-81407000D02*
X188353095Y-81237666D01*
X188486142Y-81153000D01*
X188752238Y-81068333D01*
X189550523Y-81068333D01*
X189816619Y-81153000D01*
X189949666Y-81237666D01*
X190082714Y-81407000D01*
X190082714Y-81661000D01*
X189949666Y-81830333D01*
X189816619Y-81915000D01*
X189550523Y-81999666D01*
X188752238Y-81999666D01*
X188486142Y-81915000D01*
X188353095Y-81830333D01*
X188220047Y-81661000D01*
X188220047Y-81407000D01*
X188220047Y-82761666D02*
X190082714Y-82761666D01*
X189550523Y-82761666D02*
X189816619Y-82846333D01*
X189949666Y-82931000D01*
X190082714Y-83100333D01*
X190082714Y-83269666D01*
X189284428Y-83862333D02*
X189284428Y-85217000D01*
X191014047Y-85809666D02*
X191014047Y-86825666D01*
X188220047Y-86317666D02*
X191014047Y-86317666D01*
X188220047Y-87418333D02*
X190082714Y-87418333D01*
X189550523Y-87418333D02*
X189816619Y-87503000D01*
X189949666Y-87587666D01*
X190082714Y-87757000D01*
X190082714Y-87926333D01*
X188220047Y-89281000D02*
X189683571Y-89281000D01*
X189949666Y-89196333D01*
X190082714Y-89027000D01*
X190082714Y-88688333D01*
X189949666Y-88519000D01*
X188353095Y-89281000D02*
X188220047Y-89111666D01*
X188220047Y-88688333D01*
X188353095Y-88519000D01*
X188619190Y-88434333D01*
X188885285Y-88434333D01*
X189151380Y-88519000D01*
X189284428Y-88688333D01*
X189284428Y-89111666D01*
X189417476Y-89281000D01*
X190082714Y-90127666D02*
X188220047Y-90127666D01*
X189816619Y-90127666D02*
X189949666Y-90212333D01*
X190082714Y-90381666D01*
X190082714Y-90635666D01*
X189949666Y-90805000D01*
X189683571Y-90889666D01*
X188220047Y-90889666D01*
X188353095Y-91651666D02*
X188220047Y-91821000D01*
X188220047Y-92159666D01*
X188353095Y-92329000D01*
X188619190Y-92413666D01*
X188752238Y-92413666D01*
X189018333Y-92329000D01*
X189151380Y-92159666D01*
X189151380Y-91905666D01*
X189284428Y-91736333D01*
X189550523Y-91651666D01*
X189683571Y-91651666D01*
X189949666Y-91736333D01*
X190082714Y-91905666D01*
X190082714Y-92159666D01*
X189949666Y-92329000D01*
X188220047Y-93175666D02*
X190082714Y-93175666D01*
X191014047Y-93175666D02*
X190881000Y-93091000D01*
X190747952Y-93175666D01*
X190881000Y-93260333D01*
X191014047Y-93175666D01*
X190747952Y-93175666D01*
X188353095Y-93937666D02*
X188220047Y-94107000D01*
X188220047Y-94445666D01*
X188353095Y-94615000D01*
X188619190Y-94699666D01*
X188752238Y-94699666D01*
X189018333Y-94615000D01*
X189151380Y-94445666D01*
X189151380Y-94191666D01*
X189284428Y-94022333D01*
X189550523Y-93937666D01*
X189683571Y-93937666D01*
X189949666Y-94022333D01*
X190082714Y-94191666D01*
X190082714Y-94445666D01*
X189949666Y-94615000D01*
X190082714Y-95207666D02*
X190082714Y-95885000D01*
X191014047Y-95461666D02*
X188619190Y-95461666D01*
X188353095Y-95546333D01*
X188220047Y-95715666D01*
X188220047Y-95885000D01*
X188220047Y-96731666D02*
X188353095Y-96562333D01*
X188486142Y-96477666D01*
X188752238Y-96393000D01*
X189550523Y-96393000D01*
X189816619Y-96477666D01*
X189949666Y-96562333D01*
X190082714Y-96731666D01*
X190082714Y-96985666D01*
X189949666Y-97155000D01*
X189816619Y-97239666D01*
X189550523Y-97324333D01*
X188752238Y-97324333D01*
X188486142Y-97239666D01*
X188353095Y-97155000D01*
X188220047Y-96985666D01*
X188220047Y-96731666D01*
X188220047Y-98086333D02*
X190082714Y-98086333D01*
X189550523Y-98086333D02*
X189816619Y-98171000D01*
X189949666Y-98255666D01*
X190082714Y-98425000D01*
X190082714Y-98594333D01*
X188220047Y-101388333D02*
X188220047Y-100541666D01*
X191014047Y-100541666D01*
X188220047Y-102235000D02*
X188353095Y-102065666D01*
X188486142Y-101981000D01*
X188752238Y-101896333D01*
X189550523Y-101896333D01*
X189816619Y-101981000D01*
X189949666Y-102065666D01*
X190082714Y-102235000D01*
X190082714Y-102489000D01*
X189949666Y-102658333D01*
X189816619Y-102743000D01*
X189550523Y-102827666D01*
X188752238Y-102827666D01*
X188486142Y-102743000D01*
X188353095Y-102658333D01*
X188220047Y-102489000D01*
X188220047Y-102235000D01*
X190082714Y-104351666D02*
X187820904Y-104351666D01*
X187554809Y-104267000D01*
X187421761Y-104182333D01*
X187288714Y-104013000D01*
X187288714Y-103759000D01*
X187421761Y-103589666D01*
X188353095Y-104351666D02*
X188220047Y-104182333D01*
X188220047Y-103843666D01*
X188353095Y-103674333D01*
X188486142Y-103589666D01*
X188752238Y-103505000D01*
X189550523Y-103505000D01*
X189816619Y-103589666D01*
X189949666Y-103674333D01*
X190082714Y-103843666D01*
X190082714Y-104182333D01*
X189949666Y-104351666D01*
X188220047Y-105198333D02*
X190082714Y-105198333D01*
X191014047Y-105198333D02*
X190881000Y-105113666D01*
X190747952Y-105198333D01*
X190881000Y-105283000D01*
X191014047Y-105198333D01*
X190747952Y-105198333D01*
X188353095Y-106807000D02*
X188220047Y-106637666D01*
X188220047Y-106299000D01*
X188353095Y-106129666D01*
X188486142Y-106045000D01*
X188752238Y-105960333D01*
X189550523Y-105960333D01*
X189816619Y-106045000D01*
X189949666Y-106129666D01*
X190082714Y-106299000D01*
X190082714Y-106637666D01*
X189949666Y-106807000D01*
D11*
X193493571Y-71053476D02*
X200351571Y-71053476D01*
X197085857Y-71053476D02*
X197085857Y-73520904D01*
X193493571Y-73520904D02*
X200351571Y-73520904D01*
X195453000Y-75371476D02*
X195453000Y-77427666D01*
X193493571Y-74960238D02*
X200351571Y-76399571D01*
X193493571Y-77838904D01*
X193493571Y-81334428D02*
X193493571Y-79278238D01*
X200351571Y-79278238D01*
X197085857Y-84213095D02*
X197085857Y-82773761D01*
X193493571Y-82773761D02*
X200351571Y-82773761D01*
X200351571Y-84829952D01*
X195453000Y-89559190D02*
X195453000Y-91615380D01*
X193493571Y-89147952D02*
X200351571Y-90587285D01*
X193493571Y-92026619D01*
X193493571Y-93465952D02*
X200351571Y-93465952D01*
X200351571Y-94494047D01*
X200025000Y-95110904D01*
X199371857Y-95522142D01*
X198718714Y-95727761D01*
X197412428Y-95933380D01*
X196432714Y-95933380D01*
X195126428Y-95727761D01*
X194473285Y-95522142D01*
X193820142Y-95110904D01*
X193493571Y-94494047D01*
X193493571Y-93465952D01*
X193493571Y-97783952D02*
X200351571Y-97783952D01*
X200351571Y-98812047D01*
X200025000Y-99428904D01*
X199371857Y-99840142D01*
X198718714Y-100045761D01*
X197412428Y-100251380D01*
X196432714Y-100251380D01*
X195126428Y-100045761D01*
X194473285Y-99840142D01*
X193820142Y-99428904D01*
X193493571Y-98812047D01*
X193493571Y-97783952D01*
X197085857Y-102101952D02*
X197085857Y-103541285D01*
X193493571Y-104158142D02*
X193493571Y-102101952D01*
X200351571Y-102101952D01*
X200351571Y-104158142D01*
X193493571Y-108476142D02*
X196759285Y-107036809D01*
X193493571Y-106008714D02*
X200351571Y-106008714D01*
X200351571Y-107653666D01*
X200025000Y-108064904D01*
X199698428Y-108270523D01*
X199045285Y-108476142D01*
X198065571Y-108476142D01*
X197412428Y-108270523D01*
X197085857Y-108064904D01*
X196759285Y-107653666D01*
X196759285Y-106008714D01*
D12*
X78740000Y-95250000D02*
G75*
G03X78740000Y-95250000I-1270000J0D01*
G01*
X72390000Y-69850000D02*
G75*
G03X72390000Y-69850000I-1270000J0D01*
G01*
X62230000Y-95250000D02*
X77470000Y-95250000D01*
X62230000Y-69850000D02*
X71120000Y-69850000D01*
X71120000Y-102870000D02*
X71120000Y-54610000D01*
X77470000Y-69850000D02*
X77470000Y-130810000D01*
D13*
X168148000Y-62230000D02*
X166624000Y-60706000D01*
X180340000Y-62230000D02*
X168148000Y-62230000D01*
X143510000Y-66040000D02*
X142748000Y-65278000D01*
X142748000Y-65278000D02*
X142748000Y-62992000D01*
X141986000Y-62230000D02*
X142748000Y-62992000D01*
X141986000Y-62230000D02*
X140970000Y-62230000D01*
X157480000Y-45720000D02*
X156464000Y-47752000D01*
X158496000Y-47752000D02*
X157480000Y-45720000D01*
X158750000Y-77470000D02*
X156210000Y-77470000D01*
X158242000Y-78232000D02*
X156718000Y-78232000D01*
X157734000Y-78994000D02*
X157226000Y-78994000D01*
X157480000Y-53086000D02*
X157480000Y-45720000D01*
D11*
X154940000Y-63754000D02*
X154940000Y-68326000D01*
D13*
X157480000Y-60706000D02*
X157480000Y-62738000D01*
X154940000Y-66040000D02*
X150876000Y-66040000D01*
X157480000Y-77470000D02*
X157480000Y-69342000D01*
X157480000Y-69342000D02*
X154940000Y-66802000D01*
X157480000Y-62738000D02*
X154940000Y-65278000D01*
D14*
G36*
X157480000Y-69342000D02*
X156972000Y-68072000D01*
X156210000Y-68834000D01*
X157480000Y-69342000D01*
G37*
X157480000Y-69342000D02*
X156972000Y-68072000D01*
X156210000Y-68834000D01*
X157480000Y-69342000D01*
D13*
X159592727Y-66040000D02*
G75*
G03X159592727Y-66040000I-3636727J0D01*
G01*
D15*
X157734000Y-60706000D02*
G75*
G03X157734000Y-60706000I-254000J0D01*
G01*
D13*
X166624000Y-60706000D02*
X157480000Y-60706000D01*
X156210000Y-53594000D02*
X157480000Y-53086000D01*
X157480000Y-60706000D02*
X157480000Y-59182000D01*
X158750000Y-56642000D02*
X156210000Y-55626000D01*
X156210000Y-57658000D02*
X158750000Y-56642000D01*
X157480000Y-59182000D02*
X158750000Y-58674000D01*
X158750000Y-58674000D02*
X156210000Y-57658000D01*
X158750000Y-54610000D02*
X156210000Y-53594000D01*
X148336000Y-64770000D02*
X147320000Y-67310000D01*
X149352000Y-67310000D02*
X148336000Y-64770000D01*
X150876000Y-66040000D02*
X150368000Y-64770000D01*
X150368000Y-64770000D02*
X149352000Y-67310000D01*
X156210000Y-55626000D02*
X158750000Y-54610000D01*
X144780000Y-66040000D02*
X143510000Y-66040000D01*
X146304000Y-64770000D02*
X145288000Y-67310000D01*
X147320000Y-67310000D02*
X146304000Y-64770000D01*
X145288000Y-67310000D02*
X144780000Y-66040000D01*
D12*
X185420000Y-62230000D02*
X195834000Y-62230000D01*
X185420000Y-62230000D02*
G75*
G03X185420000Y-62230000I-2540000J0D01*
G01*
D13*
X91948000Y-61468000D02*
X91948000Y-55372000D01*
X91186000Y-54610000D02*
X91948000Y-55372000D01*
X90170000Y-54610000D02*
X91186000Y-54610000D01*
X91440000Y-69850000D02*
X90170000Y-69850000D01*
X92710000Y-71120000D02*
X91440000Y-69850000D01*
D12*
X77470000Y-69850000D02*
X90170000Y-69850000D01*
X71120000Y-54610000D02*
X90170000Y-54610000D01*
D13*
X92710000Y-62230000D02*
X91948000Y-61468000D01*
D11*
X104140000Y-68834000D02*
X104140000Y-73406000D01*
D13*
X104140000Y-71120000D02*
X100076000Y-71120000D01*
X106680000Y-78486000D02*
X106680000Y-74422000D01*
X106680000Y-74422000D02*
X104140000Y-71882000D01*
X106680000Y-67818000D02*
X104140000Y-70358000D01*
D14*
G36*
X106680000Y-74422000D02*
X106172000Y-73152000D01*
X105410000Y-73914000D01*
X106680000Y-74422000D01*
G37*
X106680000Y-74422000D02*
X106172000Y-73152000D01*
X105410000Y-73914000D01*
X106680000Y-74422000D01*
D13*
X108792727Y-71120000D02*
G75*
G03X108792727Y-71120000I-3636727J0D01*
G01*
X97536000Y-69850000D02*
X96520000Y-72390000D01*
X98552000Y-72390000D02*
X97536000Y-69850000D01*
X100076000Y-71120000D02*
X99568000Y-69850000D01*
X99568000Y-69850000D02*
X98552000Y-72390000D01*
X93980000Y-71120000D02*
X92710000Y-71120000D01*
X95504000Y-69850000D02*
X94488000Y-72390000D01*
X96520000Y-72390000D02*
X95504000Y-69850000D01*
X94488000Y-72390000D02*
X93980000Y-71120000D01*
D11*
X104140000Y-59944000D02*
X104140000Y-64516000D01*
D12*
X180340000Y-62230000D02*
X140970000Y-43180000D01*
X140970000Y-81280000D02*
X180340000Y-62230000D01*
X140970000Y-43180000D02*
X140970000Y-81280000D01*
D13*
X118110000Y-62230000D02*
X112776000Y-56896000D01*
X120650000Y-62230000D02*
X118110000Y-62230000D01*
D15*
X106934000Y-56896000D02*
G75*
G03X106934000Y-56896000I-254000J0D01*
G01*
D12*
X125730000Y-62230000D02*
X140970000Y-62230000D01*
X125730000Y-62230000D02*
G75*
G03X125730000Y-62230000I-2540000J0D01*
G01*
X90170000Y-46990000D02*
X90170000Y-77470000D01*
X105410000Y-46990000D02*
G75*
G02X105410000Y-77470000I0J-15240000D01*
G01*
X90170000Y-46990000D02*
X105410000Y-46990000D01*
X105410000Y-77470000D02*
X90170000Y-77470000D01*
D13*
X112776000Y-56896000D02*
X106680000Y-56896000D01*
X107696000Y-44450000D02*
X106680000Y-42418000D01*
X106680000Y-42418000D02*
X105664000Y-44450000D01*
X106680000Y-42418000D02*
X106680000Y-44958000D01*
X106680000Y-78486000D02*
X106680000Y-80010000D01*
X107950000Y-80010000D02*
X105410000Y-80010000D01*
X107442000Y-80772000D02*
X105918000Y-80772000D01*
X106934000Y-81534000D02*
X106426000Y-81534000D01*
X105410000Y-49784000D02*
X106680000Y-49276000D01*
X106680000Y-56896000D02*
X106680000Y-55372000D01*
X107950000Y-52832000D02*
X105410000Y-51816000D01*
X105410000Y-53848000D02*
X107950000Y-52832000D01*
X106680000Y-55372000D02*
X107950000Y-54864000D01*
X107950000Y-54864000D02*
X105410000Y-53848000D01*
X106680000Y-49276000D02*
X106680000Y-44958000D01*
X107950000Y-50800000D02*
X105410000Y-49784000D01*
X105410000Y-51816000D02*
X107950000Y-50800000D01*
X94488000Y-63500000D02*
X93980000Y-62230000D01*
X97536000Y-60960000D02*
X96520000Y-63500000D01*
X98552000Y-63500000D02*
X97536000Y-60960000D01*
X100076000Y-62230000D02*
X99568000Y-60960000D01*
X99568000Y-60960000D02*
X98552000Y-63500000D01*
X93980000Y-62230000D02*
X92710000Y-62230000D01*
X95504000Y-60960000D02*
X94488000Y-63500000D01*
X96520000Y-63500000D02*
X95504000Y-60960000D01*
X106680000Y-56896000D02*
X106680000Y-58928000D01*
X104140000Y-62230000D02*
X100076000Y-62230000D01*
X106680000Y-67818000D02*
X106680000Y-65532000D01*
X106680000Y-65532000D02*
X104140000Y-62992000D01*
X106680000Y-58928000D02*
X104140000Y-61468000D01*
D14*
G36*
X106680000Y-65532000D02*
X106172000Y-64262000D01*
X105410000Y-65024000D01*
X106680000Y-65532000D01*
G37*
X106680000Y-65532000D02*
X106172000Y-64262000D01*
X105410000Y-65024000D01*
X106680000Y-65532000D01*
D13*
X108792727Y-62230000D02*
G75*
G03X108792727Y-62230000I-3636727J0D01*
G01*
D12*
X77470000Y-130810000D02*
X90170000Y-130810000D01*
X71120000Y-102870000D02*
X90170000Y-102870000D01*
X81179329Y-147194706D02*
G75*
G03X92710000Y-116840000I-34189329J30354706D01*
G01*
X81179329Y-86485294D02*
G75*
G02X92710000Y-116840000I-34189329J-30354706D01*
G01*
X87613981Y-147341347D02*
G75*
G03X97790000Y-116840000I-40623981J30501347D01*
G01*
X87630000Y-86360000D02*
G75*
G02X97790000Y-116840000I-40640000J-30480000D01*
G01*
D15*
X101854000Y-130810000D02*
G75*
G03X101854000Y-130810000I-254000J0D01*
G01*
X101854000Y-102870000D02*
G75*
G03X101854000Y-102870000I-254000J0D01*
G01*
D13*
X101600000Y-102870000D02*
X101600000Y-113030000D01*
X101600000Y-120650000D02*
X101600000Y-130810000D01*
D12*
X120707045Y-147359657D02*
G75*
G03X184150000Y-116840000I-57044J81319656D01*
G01*
X120707044Y-86320344D02*
G75*
G02X184149999Y-116840001I-57044J-81319656D01*
G01*
X87630000Y-147320000D02*
X121920000Y-147320000D01*
X87630000Y-86360000D02*
X121920000Y-86360000D01*
X184150000Y-116840000D02*
X195834000Y-116840000D01*
D13*
X154940000Y-120650000D02*
X154940000Y-127000000D01*
X154940000Y-106680000D02*
X154940000Y-113030000D01*
D15*
X128524000Y-116840000D02*
G75*
G03X128524000Y-116840000I-254000J0D01*
G01*
D13*
X128270000Y-110490000D02*
X128270000Y-123190000D01*
X157226000Y-113030000D02*
X154940000Y-113030000D01*
X157480000Y-109220000D02*
X157480000Y-124460000D01*
X179070000Y-116840000D02*
G75*
G03X179070000Y-116840000I-1270000J0D01*
G01*
X157226000Y-120650000D02*
X154940000Y-120650000D01*
X168910000Y-109220000D02*
X157480000Y-109220000D01*
X157480000Y-124460000D02*
X168910000Y-124460000D01*
X168910000Y-109220000D02*
G75*
G02X168910000Y-124460000I0J-7620000D01*
G01*
X184150000Y-116840000D02*
X179070000Y-116840000D01*
X130556000Y-102870000D02*
X96520000Y-102870000D01*
X130810000Y-99060000D02*
X130810000Y-114300000D01*
X152400000Y-106680000D02*
G75*
G03X152400000Y-106680000I-1270000J0D01*
G01*
X130556000Y-110490000D02*
X128270000Y-110490000D01*
X142240000Y-99060000D02*
X130810000Y-99060000D01*
X130810000Y-114300000D02*
X142240000Y-114300000D01*
X142240000Y-99060000D02*
G75*
G02X142240000Y-114300000I0J-7620000D01*
G01*
X154940000Y-106680000D02*
X152400000Y-106680000D01*
X103886000Y-113030000D02*
X101600000Y-113030000D01*
X104140000Y-109220000D02*
X104140000Y-124460000D01*
X125730000Y-116840000D02*
G75*
G03X125730000Y-116840000I-1270000J0D01*
G01*
X103886000Y-120650000D02*
X101600000Y-120650000D01*
X115570000Y-109220000D02*
X104140000Y-109220000D01*
X104140000Y-124460000D02*
X115570000Y-124460000D01*
X115570000Y-109220000D02*
G75*
G02X115570000Y-124460000I0J-7620000D01*
G01*
X128270000Y-116840000D02*
X125730000Y-116840000D01*
X130556000Y-130810000D02*
X96520000Y-130810000D01*
X130556000Y-123190000D02*
X128270000Y-123190000D01*
X154940000Y-127000000D02*
X152400000Y-127000000D01*
X130810000Y-119380000D02*
X130810000Y-134620000D01*
X152400000Y-127000000D02*
G75*
G03X152400000Y-127000000I-1270000J0D01*
G01*
X130810000Y-134620000D02*
X142240000Y-134620000D01*
X142240000Y-119380000D02*
X130810000Y-119380000D01*
X142240000Y-119380000D02*
G75*
G02X142240000Y-134620000I0J-7620000D01*
G01*
D16*
G04 #@! TO.C,D1*
X64790000Y-71395000D02*
X64790000Y-68305000D01*
X64730000Y-69850000D02*
G75*
G03X64730000Y-69850000I-2500000J0D01*
G01*
X59240000Y-69850462D02*
G75*
G02X64790000Y-68305170I2990000J462D01*
G01*
X59240000Y-69849538D02*
G75*
G03X64790000Y-71394830I2990000J-462D01*
G01*
G04 #@! TO.C,D2*
X64790000Y-96795000D02*
X64790000Y-93705000D01*
X64730000Y-95250000D02*
G75*
G03X64730000Y-95250000I-2500000J0D01*
G01*
X59240000Y-95250462D02*
G75*
G02X64790000Y-93705170I2990000J462D01*
G01*
X59240000Y-95249538D02*
G75*
G03X64790000Y-96794830I2990000J-462D01*
G01*
G04 #@! TO.C,Q1*
X60167555Y-119076316D02*
G75*
G03X61196000Y-123354000I1808445J-1827684D01*
G01*
X63787875Y-119062259D02*
G75*
G02X62796000Y-123354000I-1811875J-1841741D01*
G01*
X63776000Y-119054000D02*
X60176000Y-119054000D01*
G04 #@! TO.C,Q2*
X66263555Y-119076316D02*
G75*
G03X67292000Y-123354000I1808445J-1827684D01*
G01*
X69883875Y-119062259D02*
G75*
G02X68892000Y-123354000I-1811875J-1841741D01*
G01*
X69872000Y-119054000D02*
X66272000Y-119054000D01*
G04 #@! TO.C,Q3*
X120191684Y-111983555D02*
G75*
G03X115914000Y-113012000I-1827684J-1808445D01*
G01*
X120205741Y-115603875D02*
G75*
G02X115914000Y-114612000I-1841741J1811875D01*
G01*
X120214000Y-115592000D02*
X120214000Y-111992000D01*
G04 #@! TO.C,Q4*
X120191684Y-117825555D02*
G75*
G03X115914000Y-118854000I-1827684J-1808445D01*
G01*
X120205741Y-121445875D02*
G75*
G02X115914000Y-120454000I-1841741J1811875D01*
G01*
X120214000Y-121434000D02*
X120214000Y-117834000D01*
G04 #@! TO.C,Q5*
X114095684Y-60167555D02*
G75*
G03X109818000Y-61196000I-1827684J-1808445D01*
G01*
X114109741Y-63787875D02*
G75*
G02X109818000Y-62796000I-1841741J1811875D01*
G01*
X114118000Y-63776000D02*
X114118000Y-60176000D01*
G04 #@! TO.C,Q6*
X114095684Y-69311555D02*
G75*
G03X109818000Y-70340000I-1827684J-1808445D01*
G01*
X114109741Y-72931875D02*
G75*
G02X109818000Y-71940000I-1841741J1811875D01*
G01*
X114118000Y-72920000D02*
X114118000Y-69320000D01*
G04 #@! TO.C,Q7*
X146861684Y-101823555D02*
G75*
G03X142584000Y-102852000I-1827684J-1808445D01*
G01*
X146875741Y-105443875D02*
G75*
G02X142584000Y-104452000I-1841741J1811875D01*
G01*
X146884000Y-105432000D02*
X146884000Y-101832000D01*
G04 #@! TO.C,Q8*
X146861684Y-107665555D02*
G75*
G03X142584000Y-108694000I-1827684J-1808445D01*
G01*
X146875741Y-111285875D02*
G75*
G02X142584000Y-110294000I-1841741J1811875D01*
G01*
X146884000Y-111274000D02*
X146884000Y-107674000D01*
G04 #@! TO.C,Q9*
X146861684Y-122143555D02*
G75*
G03X142584000Y-123172000I-1827684J-1808445D01*
G01*
X146875741Y-125763875D02*
G75*
G02X142584000Y-124772000I-1841741J1811875D01*
G01*
X146884000Y-125752000D02*
X146884000Y-122152000D01*
G04 #@! TO.C,Q10*
X146861684Y-127985555D02*
G75*
G03X142584000Y-129014000I-1827684J-1808445D01*
G01*
X146875741Y-131605875D02*
G75*
G02X142584000Y-130614000I-1841741J1811875D01*
G01*
X146884000Y-131594000D02*
X146884000Y-127994000D01*
G04 #@! TO.C,Q11*
X164641684Y-62453555D02*
G75*
G03X160364000Y-63482000I-1827684J-1808445D01*
G01*
X164655741Y-66073875D02*
G75*
G02X160364000Y-65082000I-1841741J1811875D01*
G01*
X164664000Y-66062000D02*
X164664000Y-62462000D01*
G04 #@! TO.C,Q12*
X173531684Y-111983555D02*
G75*
G03X169254000Y-113012000I-1827684J-1808445D01*
G01*
X173545741Y-115603875D02*
G75*
G02X169254000Y-114612000I-1841741J1811875D01*
G01*
X173554000Y-115592000D02*
X173554000Y-111992000D01*
G04 #@! TO.C,Q13*
X173531684Y-117825555D02*
G75*
G03X169254000Y-118854000I-1827684J-1808445D01*
G01*
X173545741Y-121445875D02*
G75*
G02X169254000Y-120454000I-1841741J1811875D01*
G01*
X173554000Y-121434000D02*
X173554000Y-117834000D01*
G04 #@! TO.C,R1*
X64616000Y-110268000D02*
X64286000Y-110268000D01*
X64616000Y-116808000D02*
X64616000Y-110268000D01*
X64286000Y-116808000D02*
X64616000Y-116808000D01*
X61876000Y-110268000D02*
X62206000Y-110268000D01*
X61876000Y-116808000D02*
X61876000Y-110268000D01*
X62206000Y-116808000D02*
X61876000Y-116808000D01*
G04 #@! TO.C,R2*
X58320000Y-116808000D02*
X58650000Y-116808000D01*
X58320000Y-110268000D02*
X58320000Y-116808000D01*
X58650000Y-110268000D02*
X58320000Y-110268000D01*
X61060000Y-116808000D02*
X60730000Y-116808000D01*
X61060000Y-110268000D02*
X61060000Y-116808000D01*
X60730000Y-110268000D02*
X61060000Y-110268000D01*
G04 #@! TO.C,R3*
X71728000Y-110268000D02*
X71398000Y-110268000D01*
X71728000Y-116808000D02*
X71728000Y-110268000D01*
X71398000Y-116808000D02*
X71728000Y-116808000D01*
X68988000Y-110268000D02*
X69318000Y-110268000D01*
X68988000Y-116808000D02*
X68988000Y-110268000D01*
X69318000Y-116808000D02*
X68988000Y-116808000D01*
G04 #@! TO.C,R4*
X65432000Y-116808000D02*
X65762000Y-116808000D01*
X65432000Y-110268000D02*
X65432000Y-116808000D01*
X65762000Y-110268000D02*
X65432000Y-110268000D01*
X68172000Y-116808000D02*
X67842000Y-116808000D01*
X68172000Y-110268000D02*
X68172000Y-116808000D01*
X67842000Y-110268000D02*
X68172000Y-110268000D01*
G04 #@! TO.C,R5*
X65686000Y-141700000D02*
X66016000Y-141700000D01*
X65686000Y-135160000D02*
X65686000Y-141700000D01*
X66016000Y-135160000D02*
X65686000Y-135160000D01*
X68426000Y-141700000D02*
X68096000Y-141700000D01*
X68426000Y-135160000D02*
X68426000Y-141700000D01*
X68096000Y-135160000D02*
X68426000Y-135160000D01*
G04 #@! TO.C,R6*
X62130000Y-141700000D02*
X62460000Y-141700000D01*
X62130000Y-135160000D02*
X62130000Y-141700000D01*
X62460000Y-135160000D02*
X62130000Y-135160000D01*
X64870000Y-141700000D02*
X64540000Y-141700000D01*
X64870000Y-135160000D02*
X64870000Y-141700000D01*
X64540000Y-135160000D02*
X64870000Y-135160000D01*
G04 #@! TO.C,R7*
X106712000Y-115978000D02*
X106712000Y-116308000D01*
X113252000Y-115978000D02*
X106712000Y-115978000D01*
X113252000Y-116308000D02*
X113252000Y-115978000D01*
X106712000Y-118718000D02*
X106712000Y-118388000D01*
X113252000Y-118718000D02*
X106712000Y-118718000D01*
X113252000Y-118388000D02*
X113252000Y-118718000D01*
G04 #@! TO.C,R8*
X106712000Y-119534000D02*
X106712000Y-119864000D01*
X113252000Y-119534000D02*
X106712000Y-119534000D01*
X113252000Y-119864000D02*
X113252000Y-119534000D01*
X106712000Y-122274000D02*
X106712000Y-121944000D01*
X113252000Y-122274000D02*
X106712000Y-122274000D01*
X113252000Y-121944000D02*
X113252000Y-122274000D01*
G04 #@! TO.C,R9*
X113252000Y-113892000D02*
X113252000Y-113562000D01*
X106712000Y-113892000D02*
X113252000Y-113892000D01*
X106712000Y-113562000D02*
X106712000Y-113892000D01*
X113252000Y-111152000D02*
X113252000Y-111482000D01*
X106712000Y-111152000D02*
X113252000Y-111152000D01*
X106712000Y-111482000D02*
X106712000Y-111152000D01*
G04 #@! TO.C,R10*
X93250000Y-64162000D02*
X93250000Y-64492000D01*
X99790000Y-64162000D02*
X93250000Y-64162000D01*
X99790000Y-64492000D02*
X99790000Y-64162000D01*
X93250000Y-66902000D02*
X93250000Y-66572000D01*
X99790000Y-66902000D02*
X93250000Y-66902000D01*
X99790000Y-66572000D02*
X99790000Y-66902000D01*
G04 #@! TO.C,R11*
X93250000Y-73052000D02*
X93250000Y-73382000D01*
X99790000Y-73052000D02*
X93250000Y-73052000D01*
X99790000Y-73382000D02*
X99790000Y-73052000D01*
X93250000Y-75792000D02*
X93250000Y-75462000D01*
X99790000Y-75792000D02*
X93250000Y-75792000D01*
X99790000Y-75462000D02*
X99790000Y-75792000D01*
G04 #@! TO.C,R12*
X102008000Y-56356000D02*
X102338000Y-56356000D01*
X102008000Y-49816000D02*
X102008000Y-56356000D01*
X102338000Y-49816000D02*
X102008000Y-49816000D01*
X104748000Y-56356000D02*
X104418000Y-56356000D01*
X104748000Y-49816000D02*
X104748000Y-56356000D01*
X104418000Y-49816000D02*
X104748000Y-49816000D01*
G04 #@! TO.C,R13*
X133382000Y-105818000D02*
X133382000Y-106148000D01*
X139922000Y-105818000D02*
X133382000Y-105818000D01*
X139922000Y-106148000D02*
X139922000Y-105818000D01*
X133382000Y-108558000D02*
X133382000Y-108228000D01*
X139922000Y-108558000D02*
X133382000Y-108558000D01*
X139922000Y-108228000D02*
X139922000Y-108558000D01*
G04 #@! TO.C,R14*
X133382000Y-109374000D02*
X133382000Y-109704000D01*
X139922000Y-109374000D02*
X133382000Y-109374000D01*
X139922000Y-109704000D02*
X139922000Y-109374000D01*
X133382000Y-112114000D02*
X133382000Y-111784000D01*
X139922000Y-112114000D02*
X133382000Y-112114000D01*
X139922000Y-111784000D02*
X139922000Y-112114000D01*
G04 #@! TO.C,R15*
X133382000Y-126138000D02*
X133382000Y-126468000D01*
X139922000Y-126138000D02*
X133382000Y-126138000D01*
X139922000Y-126468000D02*
X139922000Y-126138000D01*
X133382000Y-128878000D02*
X133382000Y-128548000D01*
X139922000Y-128878000D02*
X133382000Y-128878000D01*
X139922000Y-128548000D02*
X139922000Y-128878000D01*
G04 #@! TO.C,R16*
X133382000Y-129694000D02*
X133382000Y-130024000D01*
X139922000Y-129694000D02*
X133382000Y-129694000D01*
X139922000Y-130024000D02*
X139922000Y-129694000D01*
X133382000Y-132434000D02*
X133382000Y-132104000D01*
X139922000Y-132434000D02*
X133382000Y-132434000D01*
X139922000Y-132104000D02*
X139922000Y-132434000D01*
G04 #@! TO.C,R17*
X139922000Y-103732000D02*
X139922000Y-103402000D01*
X133382000Y-103732000D02*
X139922000Y-103732000D01*
X133382000Y-103402000D02*
X133382000Y-103732000D01*
X139922000Y-100992000D02*
X139922000Y-101322000D01*
X133382000Y-100992000D02*
X139922000Y-100992000D01*
X133382000Y-101322000D02*
X133382000Y-100992000D01*
G04 #@! TO.C,R18*
X139922000Y-124052000D02*
X139922000Y-123722000D01*
X133382000Y-124052000D02*
X139922000Y-124052000D01*
X133382000Y-123722000D02*
X133382000Y-124052000D01*
X139922000Y-121312000D02*
X139922000Y-121642000D01*
X133382000Y-121312000D02*
X139922000Y-121312000D01*
X133382000Y-121642000D02*
X133382000Y-121312000D01*
G04 #@! TO.C,R19*
X144050000Y-67972000D02*
X144050000Y-68302000D01*
X150590000Y-67972000D02*
X144050000Y-67972000D01*
X150590000Y-68302000D02*
X150590000Y-67972000D01*
X144050000Y-70712000D02*
X144050000Y-70382000D01*
X150590000Y-70712000D02*
X144050000Y-70712000D01*
X150590000Y-70382000D02*
X150590000Y-70712000D01*
G04 #@! TO.C,R20*
X152808000Y-60166000D02*
X153138000Y-60166000D01*
X152808000Y-53626000D02*
X152808000Y-60166000D01*
X153138000Y-53626000D02*
X152808000Y-53626000D01*
X155548000Y-60166000D02*
X155218000Y-60166000D01*
X155548000Y-53626000D02*
X155548000Y-60166000D01*
X155218000Y-53626000D02*
X155548000Y-53626000D01*
G04 #@! TO.C,R21*
X160052000Y-115978000D02*
X160052000Y-116308000D01*
X166592000Y-115978000D02*
X160052000Y-115978000D01*
X166592000Y-116308000D02*
X166592000Y-115978000D01*
X160052000Y-118718000D02*
X160052000Y-118388000D01*
X166592000Y-118718000D02*
X160052000Y-118718000D01*
X166592000Y-118388000D02*
X166592000Y-118718000D01*
G04 #@! TO.C,R22*
X160052000Y-119534000D02*
X160052000Y-119864000D01*
X166592000Y-119534000D02*
X160052000Y-119534000D01*
X166592000Y-119864000D02*
X166592000Y-119534000D01*
X160052000Y-122274000D02*
X160052000Y-121944000D01*
X166592000Y-122274000D02*
X160052000Y-122274000D01*
X166592000Y-121944000D02*
X166592000Y-122274000D01*
G04 #@! TO.C,R23*
X166592000Y-113892000D02*
X166592000Y-113562000D01*
X160052000Y-113892000D02*
X166592000Y-113892000D01*
X160052000Y-113562000D02*
X160052000Y-113892000D01*
X166592000Y-111152000D02*
X166592000Y-111482000D01*
X160052000Y-111152000D02*
X166592000Y-111152000D01*
X160052000Y-111482000D02*
X160052000Y-111152000D01*
G04 #@! TO.C,D3*
X198394000Y-63775000D02*
X198394000Y-60685000D01*
X198334000Y-62230000D02*
G75*
G03X198334000Y-62230000I-2500000J0D01*
G01*
X192844000Y-62230462D02*
G75*
G02X198394000Y-60685170I2990000J462D01*
G01*
X192844000Y-62229538D02*
G75*
G03X198394000Y-63774830I2990000J-462D01*
G01*
G04 #@! TO.C,D4*
X198394000Y-118385000D02*
X198394000Y-115295000D01*
X198334000Y-116840000D02*
G75*
G03X198334000Y-116840000I-2500000J0D01*
G01*
X192844000Y-116840462D02*
G75*
G02X198394000Y-115295170I2990000J462D01*
G01*
X192844000Y-116839538D02*
G75*
G03X198394000Y-118384830I2990000J-462D01*
G01*
G04 #@! TO.C,Q14*
X170737684Y-82011555D02*
G75*
G03X166460000Y-83040000I-1827684J-1808445D01*
G01*
X170751741Y-85631875D02*
G75*
G02X166460000Y-84640000I-1841741J1811875D01*
G01*
X170760000Y-85620000D02*
X170760000Y-82020000D01*
G04 #@! TO.C,Q15*
X170737684Y-88107555D02*
G75*
G03X166460000Y-89136000I-1827684J-1808445D01*
G01*
X170751741Y-91727875D02*
G75*
G02X166460000Y-90736000I-1841741J1811875D01*
G01*
X170760000Y-91716000D02*
X170760000Y-88116000D01*
G04 #@! TO.C,R24*
X179546000Y-86460000D02*
X179546000Y-86130000D01*
X173006000Y-86460000D02*
X179546000Y-86460000D01*
X173006000Y-86130000D02*
X173006000Y-86460000D01*
X179546000Y-83720000D02*
X179546000Y-84050000D01*
X173006000Y-83720000D02*
X179546000Y-83720000D01*
X173006000Y-84050000D02*
X173006000Y-83720000D01*
G04 #@! TO.C,R25*
X179546000Y-93572000D02*
X179546000Y-93242000D01*
X173006000Y-93572000D02*
X179546000Y-93572000D01*
X173006000Y-93242000D02*
X173006000Y-93572000D01*
X179546000Y-90832000D02*
X179546000Y-91162000D01*
X173006000Y-90832000D02*
X179546000Y-90832000D01*
X173006000Y-91162000D02*
X173006000Y-90832000D01*
G04 #@! TO.C,R26*
X173006000Y-80164000D02*
X173006000Y-80494000D01*
X179546000Y-80164000D02*
X173006000Y-80164000D01*
X179546000Y-80494000D02*
X179546000Y-80164000D01*
X173006000Y-82904000D02*
X173006000Y-82574000D01*
X179546000Y-82904000D02*
X173006000Y-82904000D01*
X179546000Y-82574000D02*
X179546000Y-82904000D01*
G04 #@! TO.C,R27*
X173006000Y-87276000D02*
X173006000Y-87606000D01*
X179546000Y-87276000D02*
X173006000Y-87276000D01*
X179546000Y-87606000D02*
X179546000Y-87276000D01*
X173006000Y-90016000D02*
X173006000Y-89686000D01*
X179546000Y-90016000D02*
X173006000Y-90016000D01*
X179546000Y-89686000D02*
X179546000Y-90016000D01*
G04 #@! TO.C,SW1*
X170630000Y-149166000D02*
X170630000Y-144966000D01*
X181230000Y-149166000D02*
X182430000Y-149166000D01*
X182430000Y-144966000D02*
X181230000Y-144966000D01*
X182430000Y-149166000D02*
X182430000Y-144966000D01*
X182730000Y-149466000D02*
X182730000Y-148216000D01*
X171830000Y-149166000D02*
X170630000Y-149166000D01*
X181530000Y-149466000D02*
X182730000Y-149466000D01*
X170630000Y-144966000D02*
X171830000Y-144966000D01*
G04 #@! TO.C,SW2*
X55060000Y-81348000D02*
X55060000Y-77148000D01*
X65660000Y-81348000D02*
X66860000Y-81348000D01*
X66860000Y-77148000D02*
X65660000Y-77148000D01*
X66860000Y-81348000D02*
X66860000Y-77148000D01*
X67160000Y-81648000D02*
X67160000Y-80398000D01*
X56260000Y-81348000D02*
X55060000Y-81348000D01*
X65960000Y-81648000D02*
X67160000Y-81648000D01*
X55060000Y-77148000D02*
X56260000Y-77148000D01*
G04 #@! TO.C,SW3*
X55060000Y-87952000D02*
X55060000Y-83752000D01*
X65660000Y-87952000D02*
X66860000Y-87952000D01*
X66860000Y-83752000D02*
X65660000Y-83752000D01*
X66860000Y-87952000D02*
X66860000Y-83752000D01*
X67160000Y-88252000D02*
X67160000Y-87002000D01*
X56260000Y-87952000D02*
X55060000Y-87952000D01*
X65960000Y-88252000D02*
X67160000Y-88252000D01*
X55060000Y-83752000D02*
X56260000Y-83752000D01*
G04 #@! TD*
M02*
