G04 #@! TF.GenerationSoftware,KiCad,Pcbnew,5.0.2-bee76a0~70~ubuntu16.04.1*
G04 #@! TF.CreationDate,2019-06-13T09:44:47-07:00*
G04 #@! TF.ProjectId,rtl-half-adder,72746c2d-6861-46c6-962d-61646465722e,rev?*
G04 #@! TF.SameCoordinates,Original*
G04 #@! TF.FileFunction,Soldermask,Bot*
G04 #@! TF.FilePolarity,Negative*
%FSLAX46Y46*%
G04 Gerber Fmt 4.6, Leading zero omitted, Abs format (unit mm)*
G04 Created by KiCad (PCBNEW 5.0.2-bee76a0~70~ubuntu16.04.1) date Thu 13 Jun 2019 09:44:47 AM PDT*
%MOMM*%
%LPD*%
G01*
G04 APERTURE LIST*
%ADD10C,0.100000*%
G04 APERTURE END LIST*
D10*
G36*
X179870800Y-147866800D02*
X178269200Y-147866800D01*
X178269200Y-146265200D01*
X179870800Y-146265200D01*
X179870800Y-147866800D01*
X179870800Y-147866800D01*
G37*
G36*
X176763585Y-146295974D02*
X176909321Y-146356340D01*
X177040480Y-146443978D01*
X177152022Y-146555520D01*
X177239660Y-146686679D01*
X177300026Y-146832415D01*
X177330800Y-146987128D01*
X177330800Y-147144872D01*
X177300026Y-147299585D01*
X177239660Y-147445321D01*
X177152022Y-147576480D01*
X177040480Y-147688022D01*
X176909321Y-147775660D01*
X176763585Y-147836026D01*
X176608872Y-147866800D01*
X176451128Y-147866800D01*
X176296415Y-147836026D01*
X176150679Y-147775660D01*
X176019520Y-147688022D01*
X175907978Y-147576480D01*
X175820340Y-147445321D01*
X175759974Y-147299585D01*
X175729200Y-147144872D01*
X175729200Y-146987128D01*
X175759974Y-146832415D01*
X175820340Y-146686679D01*
X175907978Y-146555520D01*
X176019520Y-146443978D01*
X176150679Y-146356340D01*
X176296415Y-146295974D01*
X176451128Y-146265200D01*
X176608872Y-146265200D01*
X176763585Y-146295974D01*
X176763585Y-146295974D01*
G37*
G36*
X174223585Y-146295974D02*
X174369321Y-146356340D01*
X174500480Y-146443978D01*
X174612022Y-146555520D01*
X174699660Y-146686679D01*
X174760026Y-146832415D01*
X174790800Y-146987128D01*
X174790800Y-147144872D01*
X174760026Y-147299585D01*
X174699660Y-147445321D01*
X174612022Y-147576480D01*
X174500480Y-147688022D01*
X174369321Y-147775660D01*
X174223585Y-147836026D01*
X174068872Y-147866800D01*
X173911128Y-147866800D01*
X173756415Y-147836026D01*
X173610679Y-147775660D01*
X173479520Y-147688022D01*
X173367978Y-147576480D01*
X173280340Y-147445321D01*
X173219974Y-147299585D01*
X173189200Y-147144872D01*
X173189200Y-146987128D01*
X173219974Y-146832415D01*
X173280340Y-146686679D01*
X173367978Y-146555520D01*
X173479520Y-146443978D01*
X173610679Y-146356340D01*
X173756415Y-146295974D01*
X173911128Y-146265200D01*
X174068872Y-146265200D01*
X174223585Y-146295974D01*
X174223585Y-146295974D01*
G37*
G36*
X186784219Y-145156077D02*
X187001476Y-145246068D01*
X187001478Y-145246069D01*
X187197001Y-145376713D01*
X187363287Y-145542999D01*
X187493931Y-145738522D01*
X187493932Y-145738524D01*
X187583923Y-145955781D01*
X187629800Y-146186421D01*
X187629800Y-146421579D01*
X187583923Y-146652219D01*
X187569649Y-146686679D01*
X187493931Y-146869478D01*
X187363287Y-147065001D01*
X187197001Y-147231287D01*
X187001478Y-147361931D01*
X187001477Y-147361932D01*
X187001476Y-147361932D01*
X186784219Y-147451923D01*
X186553579Y-147497800D01*
X186318421Y-147497800D01*
X186087781Y-147451923D01*
X185870524Y-147361932D01*
X185870523Y-147361932D01*
X185870522Y-147361931D01*
X185674999Y-147231287D01*
X185508713Y-147065001D01*
X185378069Y-146869478D01*
X185302351Y-146686679D01*
X185288077Y-146652219D01*
X185242200Y-146421579D01*
X185242200Y-146186421D01*
X185288077Y-145955781D01*
X185378068Y-145738524D01*
X185378069Y-145738522D01*
X185508713Y-145542999D01*
X185674999Y-145376713D01*
X185870522Y-145246069D01*
X185870524Y-145246068D01*
X186087781Y-145156077D01*
X186318421Y-145110200D01*
X186553579Y-145110200D01*
X186784219Y-145156077D01*
X186784219Y-145156077D01*
G37*
G36*
X199992219Y-145156077D02*
X200209476Y-145246068D01*
X200209478Y-145246069D01*
X200405001Y-145376713D01*
X200571287Y-145542999D01*
X200701931Y-145738522D01*
X200701932Y-145738524D01*
X200791923Y-145955781D01*
X200837800Y-146186421D01*
X200837800Y-146421579D01*
X200791923Y-146652219D01*
X200777649Y-146686679D01*
X200701931Y-146869478D01*
X200571287Y-147065001D01*
X200405001Y-147231287D01*
X200209478Y-147361931D01*
X200209477Y-147361932D01*
X200209476Y-147361932D01*
X199992219Y-147451923D01*
X199761579Y-147497800D01*
X199526421Y-147497800D01*
X199295781Y-147451923D01*
X199078524Y-147361932D01*
X199078523Y-147361932D01*
X199078522Y-147361931D01*
X198882999Y-147231287D01*
X198716713Y-147065001D01*
X198586069Y-146869478D01*
X198510351Y-146686679D01*
X198496077Y-146652219D01*
X198450200Y-146421579D01*
X198450200Y-146186421D01*
X198496077Y-145955781D01*
X198586068Y-145738524D01*
X198586069Y-145738522D01*
X198716713Y-145542999D01*
X198882999Y-145376713D01*
X199078522Y-145246069D01*
X199078524Y-145246068D01*
X199295781Y-145156077D01*
X199526421Y-145110200D01*
X199761579Y-145110200D01*
X199992219Y-145156077D01*
X199992219Y-145156077D01*
G37*
G36*
X186784219Y-142108077D02*
X187001476Y-142198068D01*
X187001478Y-142198069D01*
X187197001Y-142328713D01*
X187363287Y-142494999D01*
X187493931Y-142690522D01*
X187493932Y-142690524D01*
X187583923Y-142907781D01*
X187629800Y-143138421D01*
X187629800Y-143373578D01*
X187583923Y-143604218D01*
X187493931Y-143821478D01*
X187363287Y-144017001D01*
X187197001Y-144183287D01*
X187001478Y-144313931D01*
X187001477Y-144313932D01*
X187001476Y-144313932D01*
X186784219Y-144403923D01*
X186553579Y-144449800D01*
X186318421Y-144449800D01*
X186087781Y-144403923D01*
X185870524Y-144313932D01*
X185870523Y-144313932D01*
X185870522Y-144313931D01*
X185674999Y-144183287D01*
X185508713Y-144017001D01*
X185378069Y-143821478D01*
X185288077Y-143604218D01*
X185242200Y-143373578D01*
X185242200Y-143138421D01*
X185288077Y-142907781D01*
X185378068Y-142690524D01*
X185378069Y-142690522D01*
X185508713Y-142494999D01*
X185674999Y-142328713D01*
X185870522Y-142198069D01*
X185870524Y-142198068D01*
X186087781Y-142108077D01*
X186318421Y-142062200D01*
X186553579Y-142062200D01*
X186784219Y-142108077D01*
X186784219Y-142108077D01*
G37*
G36*
X199992219Y-142108077D02*
X200209476Y-142198068D01*
X200209478Y-142198069D01*
X200405001Y-142328713D01*
X200571287Y-142494999D01*
X200701931Y-142690522D01*
X200701932Y-142690524D01*
X200791923Y-142907781D01*
X200837800Y-143138421D01*
X200837800Y-143373578D01*
X200791923Y-143604218D01*
X200701931Y-143821478D01*
X200571287Y-144017001D01*
X200405001Y-144183287D01*
X200209478Y-144313931D01*
X200209477Y-144313932D01*
X200209476Y-144313932D01*
X199992219Y-144403923D01*
X199761579Y-144449800D01*
X199526421Y-144449800D01*
X199295781Y-144403923D01*
X199078524Y-144313932D01*
X199078523Y-144313932D01*
X199078522Y-144313931D01*
X198882999Y-144183287D01*
X198716713Y-144017001D01*
X198586069Y-143821478D01*
X198496077Y-143604218D01*
X198450200Y-143373578D01*
X198450200Y-143138421D01*
X198496077Y-142907781D01*
X198586068Y-142690524D01*
X198586069Y-142690522D01*
X198716713Y-142494999D01*
X198882999Y-142328713D01*
X199078522Y-142198069D01*
X199078524Y-142198068D01*
X199295781Y-142108077D01*
X199526421Y-142062200D01*
X199761579Y-142062200D01*
X199992219Y-142108077D01*
X199992219Y-142108077D01*
G37*
G36*
X63666785Y-141401510D02*
X63827161Y-141450160D01*
X63974966Y-141529163D01*
X64104517Y-141635483D01*
X64210837Y-141765034D01*
X64289840Y-141912839D01*
X64338490Y-142073214D01*
X64354917Y-142240000D01*
X64338490Y-142406786D01*
X64289840Y-142567161D01*
X64210837Y-142714966D01*
X64104517Y-142844517D01*
X63974966Y-142950837D01*
X63827161Y-143029840D01*
X63666785Y-143078490D01*
X63541801Y-143090800D01*
X63458199Y-143090800D01*
X63333215Y-143078490D01*
X63172839Y-143029840D01*
X63025034Y-142950837D01*
X62895483Y-142844517D01*
X62789163Y-142714966D01*
X62710160Y-142567161D01*
X62661510Y-142406786D01*
X62645083Y-142240000D01*
X62661510Y-142073214D01*
X62710160Y-141912839D01*
X62789163Y-141765034D01*
X62895483Y-141635483D01*
X63025034Y-141529163D01*
X63172839Y-141450160D01*
X63333215Y-141401510D01*
X63458199Y-141389200D01*
X63541801Y-141389200D01*
X63666785Y-141401510D01*
X63666785Y-141401510D01*
G37*
G36*
X67222785Y-141401510D02*
X67383161Y-141450160D01*
X67530966Y-141529163D01*
X67660517Y-141635483D01*
X67766837Y-141765034D01*
X67845840Y-141912839D01*
X67894490Y-142073214D01*
X67910917Y-142240000D01*
X67894490Y-142406786D01*
X67845840Y-142567161D01*
X67766837Y-142714966D01*
X67660517Y-142844517D01*
X67530966Y-142950837D01*
X67383161Y-143029840D01*
X67222785Y-143078490D01*
X67097801Y-143090800D01*
X67014199Y-143090800D01*
X66889215Y-143078490D01*
X66728839Y-143029840D01*
X66581034Y-142950837D01*
X66451483Y-142844517D01*
X66345163Y-142714966D01*
X66266160Y-142567161D01*
X66217510Y-142406786D01*
X66201083Y-142240000D01*
X66217510Y-142073214D01*
X66266160Y-141912839D01*
X66345163Y-141765034D01*
X66451483Y-141635483D01*
X66581034Y-141529163D01*
X66728839Y-141450160D01*
X66889215Y-141401510D01*
X67014199Y-141389200D01*
X67097801Y-141389200D01*
X67222785Y-141401510D01*
X67222785Y-141401510D01*
G37*
G36*
X150703450Y-134515650D02*
X150740919Y-134527016D01*
X150775436Y-134545467D01*
X150805698Y-134570302D01*
X150830533Y-134600564D01*
X150848984Y-134635081D01*
X150860350Y-134672550D01*
X150864800Y-134717737D01*
X150864800Y-135556263D01*
X150860350Y-135601450D01*
X150848984Y-135638919D01*
X150830533Y-135673436D01*
X150805698Y-135703698D01*
X150775436Y-135728533D01*
X150740919Y-135746984D01*
X150703450Y-135758350D01*
X150658263Y-135762800D01*
X149569737Y-135762800D01*
X149524550Y-135758350D01*
X149487081Y-135746984D01*
X149452564Y-135728533D01*
X149422302Y-135703698D01*
X149397467Y-135673436D01*
X149379016Y-135638919D01*
X149367650Y-135601450D01*
X149363200Y-135556263D01*
X149363200Y-134717737D01*
X149367650Y-134672550D01*
X149379016Y-134635081D01*
X149397467Y-134600564D01*
X149422302Y-134570302D01*
X149452564Y-134545467D01*
X149487081Y-134527016D01*
X149524550Y-134515650D01*
X149569737Y-134511200D01*
X150658263Y-134511200D01*
X150703450Y-134515650D01*
X150703450Y-134515650D01*
G37*
G36*
X155456800Y-135512800D02*
X153455200Y-135512800D01*
X153455200Y-134611200D01*
X155456800Y-134611200D01*
X155456800Y-135512800D01*
X155456800Y-135512800D01*
G37*
G36*
X63748169Y-133801895D02*
X63903005Y-133866031D01*
X64042354Y-133959140D01*
X64160860Y-134077646D01*
X64253969Y-134216995D01*
X64318105Y-134371831D01*
X64350800Y-134536203D01*
X64350800Y-134703797D01*
X64318105Y-134868169D01*
X64253969Y-135023005D01*
X64160860Y-135162354D01*
X64042354Y-135280860D01*
X63903005Y-135373969D01*
X63748169Y-135438105D01*
X63583797Y-135470800D01*
X63416203Y-135470800D01*
X63251831Y-135438105D01*
X63096995Y-135373969D01*
X62957646Y-135280860D01*
X62839140Y-135162354D01*
X62746031Y-135023005D01*
X62681895Y-134868169D01*
X62649200Y-134703797D01*
X62649200Y-134536203D01*
X62681895Y-134371831D01*
X62746031Y-134216995D01*
X62839140Y-134077646D01*
X62957646Y-133959140D01*
X63096995Y-133866031D01*
X63251831Y-133801895D01*
X63416203Y-133769200D01*
X63583797Y-133769200D01*
X63748169Y-133801895D01*
X63748169Y-133801895D01*
G37*
G36*
X67304169Y-133801895D02*
X67459005Y-133866031D01*
X67598354Y-133959140D01*
X67716860Y-134077646D01*
X67809969Y-134216995D01*
X67874105Y-134371831D01*
X67906800Y-134536203D01*
X67906800Y-134703797D01*
X67874105Y-134868169D01*
X67809969Y-135023005D01*
X67716860Y-135162354D01*
X67598354Y-135280860D01*
X67459005Y-135373969D01*
X67304169Y-135438105D01*
X67139797Y-135470800D01*
X66972203Y-135470800D01*
X66807831Y-135438105D01*
X66652995Y-135373969D01*
X66513646Y-135280860D01*
X66395140Y-135162354D01*
X66302031Y-135023005D01*
X66237895Y-134868169D01*
X66205200Y-134703797D01*
X66205200Y-134536203D01*
X66237895Y-134371831D01*
X66302031Y-134216995D01*
X66395140Y-134077646D01*
X66513646Y-133959140D01*
X66652995Y-133866031D01*
X66807831Y-133801895D01*
X66972203Y-133769200D01*
X67139797Y-133769200D01*
X67304169Y-133801895D01*
X67304169Y-133801895D01*
G37*
G36*
X158456800Y-134562800D02*
X156455200Y-134562800D01*
X156455200Y-133661200D01*
X158456800Y-133661200D01*
X158456800Y-134562800D01*
X158456800Y-134562800D01*
G37*
G36*
X150703450Y-132465650D02*
X150740919Y-132477016D01*
X150775436Y-132495467D01*
X150805698Y-132520302D01*
X150830533Y-132550564D01*
X150848984Y-132585081D01*
X150860350Y-132622550D01*
X150864800Y-132667737D01*
X150864800Y-133506263D01*
X150860350Y-133551450D01*
X150848984Y-133588919D01*
X150830533Y-133623436D01*
X150805698Y-133653698D01*
X150775436Y-133678533D01*
X150740919Y-133696984D01*
X150703450Y-133708350D01*
X150658263Y-133712800D01*
X149569737Y-133712800D01*
X149524550Y-133708350D01*
X149487081Y-133696984D01*
X149452564Y-133678533D01*
X149422302Y-133653698D01*
X149397467Y-133623436D01*
X149379016Y-133588919D01*
X149367650Y-133551450D01*
X149363200Y-133506263D01*
X149363200Y-132667737D01*
X149367650Y-132622550D01*
X149379016Y-132585081D01*
X149397467Y-132550564D01*
X149422302Y-132520302D01*
X149452564Y-132495467D01*
X149487081Y-132477016D01*
X149524550Y-132465650D01*
X149569737Y-132461200D01*
X150658263Y-132461200D01*
X150703450Y-132465650D01*
X150703450Y-132465650D01*
G37*
G36*
X155456800Y-133612800D02*
X153455200Y-133612800D01*
X153455200Y-132711200D01*
X155456800Y-132711200D01*
X155456800Y-133612800D01*
X155456800Y-133612800D01*
G37*
G36*
X117408868Y-131762257D02*
X117432716Y-131769491D01*
X117454692Y-131781237D01*
X117473955Y-131797045D01*
X117489763Y-131816308D01*
X117501509Y-131838284D01*
X117508743Y-131862132D01*
X117511800Y-131893165D01*
X117511800Y-132826835D01*
X117508743Y-132857868D01*
X117501509Y-132881716D01*
X117489763Y-132903692D01*
X117473955Y-132922955D01*
X117454692Y-132938763D01*
X117432716Y-132950509D01*
X117408868Y-132957743D01*
X117377835Y-132960800D01*
X115794165Y-132960800D01*
X115763132Y-132957743D01*
X115739284Y-132950509D01*
X115717308Y-132938763D01*
X115698045Y-132922955D01*
X115682237Y-132903692D01*
X115670491Y-132881716D01*
X115663257Y-132857868D01*
X115660200Y-132826835D01*
X115660200Y-131893165D01*
X115663257Y-131862132D01*
X115670491Y-131838284D01*
X115682237Y-131816308D01*
X115698045Y-131797045D01*
X115717308Y-131781237D01*
X115739284Y-131769491D01*
X115763132Y-131762257D01*
X115794165Y-131759200D01*
X117377835Y-131759200D01*
X117408868Y-131762257D01*
X117408868Y-131762257D01*
G37*
G36*
X84642868Y-131762257D02*
X84666716Y-131769491D01*
X84688692Y-131781237D01*
X84707955Y-131797045D01*
X84723763Y-131816308D01*
X84735509Y-131838284D01*
X84742743Y-131862132D01*
X84745800Y-131893165D01*
X84745800Y-132826835D01*
X84742743Y-132857868D01*
X84735509Y-132881716D01*
X84723763Y-132903692D01*
X84707955Y-132922955D01*
X84688692Y-132938763D01*
X84666716Y-132950509D01*
X84642868Y-132957743D01*
X84611835Y-132960800D01*
X83028165Y-132960800D01*
X82997132Y-132957743D01*
X82973284Y-132950509D01*
X82951308Y-132938763D01*
X82932045Y-132922955D01*
X82916237Y-132903692D01*
X82904491Y-132881716D01*
X82897257Y-132857868D01*
X82894200Y-132826835D01*
X82894200Y-131893165D01*
X82897257Y-131862132D01*
X82904491Y-131838284D01*
X82916237Y-131816308D01*
X82932045Y-131797045D01*
X82951308Y-131781237D01*
X82973284Y-131769491D01*
X82997132Y-131762257D01*
X83028165Y-131759200D01*
X84611835Y-131759200D01*
X84642868Y-131762257D01*
X84642868Y-131762257D01*
G37*
G36*
X133008785Y-130225510D02*
X133169161Y-130274160D01*
X133316966Y-130353163D01*
X133446517Y-130459483D01*
X133552837Y-130589034D01*
X133631840Y-130736839D01*
X133680490Y-130897214D01*
X133696917Y-131064000D01*
X133680490Y-131230786D01*
X133631840Y-131391161D01*
X133552837Y-131538966D01*
X133446517Y-131668517D01*
X133316966Y-131774837D01*
X133169161Y-131853840D01*
X133008785Y-131902490D01*
X132883801Y-131914800D01*
X132800199Y-131914800D01*
X132675215Y-131902490D01*
X132514839Y-131853840D01*
X132367034Y-131774837D01*
X132237483Y-131668517D01*
X132131163Y-131538966D01*
X132052160Y-131391161D01*
X132003510Y-131230786D01*
X131987083Y-131064000D01*
X132003510Y-130897214D01*
X132052160Y-130736839D01*
X132131163Y-130589034D01*
X132237483Y-130459483D01*
X132367034Y-130353163D01*
X132514839Y-130274160D01*
X132675215Y-130225510D01*
X132800199Y-130213200D01*
X132883801Y-130213200D01*
X133008785Y-130225510D01*
X133008785Y-130225510D01*
G37*
G36*
X140710169Y-130245895D02*
X140865005Y-130310031D01*
X141004354Y-130403140D01*
X141122860Y-130521646D01*
X141215969Y-130660995D01*
X141280105Y-130815831D01*
X141312800Y-130980203D01*
X141312800Y-131147797D01*
X141280105Y-131312169D01*
X141215969Y-131467005D01*
X141122860Y-131606354D01*
X141004354Y-131724860D01*
X140865005Y-131817969D01*
X140710169Y-131882105D01*
X140545797Y-131914800D01*
X140378203Y-131914800D01*
X140213831Y-131882105D01*
X140058995Y-131817969D01*
X139919646Y-131724860D01*
X139801140Y-131606354D01*
X139708031Y-131467005D01*
X139643895Y-131312169D01*
X139611200Y-131147797D01*
X139611200Y-130980203D01*
X139643895Y-130815831D01*
X139708031Y-130660995D01*
X139801140Y-130521646D01*
X139919646Y-130403140D01*
X140058995Y-130310031D01*
X140213831Y-130245895D01*
X140378203Y-130213200D01*
X140545797Y-130213200D01*
X140710169Y-130245895D01*
X140710169Y-130245895D01*
G37*
G36*
X146384800Y-131664800D02*
X144483200Y-131664800D01*
X144483200Y-130463200D01*
X146384800Y-130463200D01*
X146384800Y-131664800D01*
X146384800Y-131664800D01*
G37*
G36*
X144123992Y-129198354D02*
X144168324Y-129211801D01*
X144209175Y-129233637D01*
X144244979Y-129263021D01*
X144274363Y-129298825D01*
X144296199Y-129339676D01*
X144309646Y-129384008D01*
X144314800Y-129436334D01*
X144314800Y-130151666D01*
X144309646Y-130203992D01*
X144296199Y-130248324D01*
X144281228Y-130276332D01*
X144273456Y-130295096D01*
X144258028Y-130309079D01*
X144244979Y-130324979D01*
X144209175Y-130354363D01*
X144168324Y-130376199D01*
X144123992Y-130389646D01*
X144071666Y-130394800D01*
X142656334Y-130394800D01*
X142604008Y-130389646D01*
X142559676Y-130376199D01*
X142518825Y-130354363D01*
X142483021Y-130324979D01*
X142453637Y-130289175D01*
X142431801Y-130248324D01*
X142418354Y-130203992D01*
X142413200Y-130151666D01*
X142413200Y-129436334D01*
X142418354Y-129384008D01*
X142431801Y-129339676D01*
X142453637Y-129298825D01*
X142483021Y-129263021D01*
X142518825Y-129233637D01*
X142559676Y-129211801D01*
X142604008Y-129198354D01*
X142656334Y-129193200D01*
X144071666Y-129193200D01*
X144123992Y-129198354D01*
X144123992Y-129198354D01*
G37*
G36*
X84642868Y-128662257D02*
X84666716Y-128669491D01*
X84688692Y-128681237D01*
X84707955Y-128697045D01*
X84723763Y-128716308D01*
X84735509Y-128738284D01*
X84742743Y-128762132D01*
X84745800Y-128793165D01*
X84745800Y-129726835D01*
X84742743Y-129757868D01*
X84735509Y-129781716D01*
X84723763Y-129803692D01*
X84707955Y-129822955D01*
X84688692Y-129838763D01*
X84666716Y-129850509D01*
X84642868Y-129857743D01*
X84611835Y-129860800D01*
X83028165Y-129860800D01*
X82997132Y-129857743D01*
X82973284Y-129850509D01*
X82951308Y-129838763D01*
X82932045Y-129822955D01*
X82916237Y-129803692D01*
X82904491Y-129781716D01*
X82897257Y-129757868D01*
X82894200Y-129726835D01*
X82894200Y-128793165D01*
X82897257Y-128762132D01*
X82904491Y-128738284D01*
X82916237Y-128716308D01*
X82932045Y-128697045D01*
X82951308Y-128681237D01*
X82973284Y-128669491D01*
X82997132Y-128662257D01*
X83028165Y-128659200D01*
X84611835Y-128659200D01*
X84642868Y-128662257D01*
X84642868Y-128662257D01*
G37*
G36*
X117408868Y-128662257D02*
X117432716Y-128669491D01*
X117454692Y-128681237D01*
X117473955Y-128697045D01*
X117489763Y-128716308D01*
X117501509Y-128738284D01*
X117508743Y-128762132D01*
X117511800Y-128793165D01*
X117511800Y-129726835D01*
X117508743Y-129757868D01*
X117501509Y-129781716D01*
X117489763Y-129803692D01*
X117473955Y-129822955D01*
X117454692Y-129838763D01*
X117432716Y-129850509D01*
X117408868Y-129857743D01*
X117377835Y-129860800D01*
X115794165Y-129860800D01*
X115763132Y-129857743D01*
X115739284Y-129850509D01*
X115717308Y-129838763D01*
X115698045Y-129822955D01*
X115682237Y-129803692D01*
X115670491Y-129781716D01*
X115663257Y-129757868D01*
X115660200Y-129726835D01*
X115660200Y-128793165D01*
X115663257Y-128762132D01*
X115670491Y-128738284D01*
X115682237Y-128716308D01*
X115698045Y-128697045D01*
X115717308Y-128681237D01*
X115739284Y-128669491D01*
X115763132Y-128662257D01*
X115794165Y-128659200D01*
X117377835Y-128659200D01*
X117408868Y-128662257D01*
X117408868Y-128662257D01*
G37*
G36*
X150703450Y-128419650D02*
X150740919Y-128431016D01*
X150775436Y-128449467D01*
X150805698Y-128474302D01*
X150830533Y-128504564D01*
X150848984Y-128539081D01*
X150860350Y-128576550D01*
X150864800Y-128621737D01*
X150864800Y-129460263D01*
X150860350Y-129505450D01*
X150848984Y-129542919D01*
X150830533Y-129577436D01*
X150805698Y-129607698D01*
X150775436Y-129632533D01*
X150740919Y-129650984D01*
X150703450Y-129662350D01*
X150658263Y-129666800D01*
X149569737Y-129666800D01*
X149524550Y-129662350D01*
X149487081Y-129650984D01*
X149452564Y-129632533D01*
X149422302Y-129607698D01*
X149397467Y-129577436D01*
X149379016Y-129542919D01*
X149367650Y-129505450D01*
X149363200Y-129460263D01*
X149363200Y-128621737D01*
X149367650Y-128576550D01*
X149379016Y-128539081D01*
X149397467Y-128504564D01*
X149422302Y-128474302D01*
X149452564Y-128449467D01*
X149487081Y-128431016D01*
X149524550Y-128419650D01*
X149569737Y-128415200D01*
X150658263Y-128415200D01*
X150703450Y-128419650D01*
X150703450Y-128419650D01*
G37*
G36*
X146193992Y-127928354D02*
X146238324Y-127941801D01*
X146279175Y-127963637D01*
X146314979Y-127993021D01*
X146344363Y-128028825D01*
X146366199Y-128069676D01*
X146379646Y-128114008D01*
X146384800Y-128166334D01*
X146384800Y-128881666D01*
X146379646Y-128933992D01*
X146366199Y-128978324D01*
X146344363Y-129019175D01*
X146314979Y-129054979D01*
X146279175Y-129084363D01*
X146238324Y-129106199D01*
X146193992Y-129119646D01*
X146141666Y-129124800D01*
X144726334Y-129124800D01*
X144674008Y-129119646D01*
X144629676Y-129106199D01*
X144588825Y-129084363D01*
X144553021Y-129054979D01*
X144523637Y-129019175D01*
X144501801Y-128978324D01*
X144488354Y-128933992D01*
X144483200Y-128881666D01*
X144483200Y-128166334D01*
X144488354Y-128114008D01*
X144501801Y-128069676D01*
X144523637Y-128028825D01*
X144553021Y-127993021D01*
X144588825Y-127963637D01*
X144629676Y-127941801D01*
X144674008Y-127928354D01*
X144726334Y-127923200D01*
X146141666Y-127923200D01*
X146193992Y-127928354D01*
X146193992Y-127928354D01*
G37*
G36*
X140710169Y-126689895D02*
X140865005Y-126754031D01*
X141004354Y-126847140D01*
X141122860Y-126965646D01*
X141215969Y-127104995D01*
X141280105Y-127259831D01*
X141312800Y-127424203D01*
X141312800Y-127591797D01*
X141280105Y-127756169D01*
X141215969Y-127911005D01*
X141122860Y-128050354D01*
X141004354Y-128168860D01*
X140865005Y-128261969D01*
X140710169Y-128326105D01*
X140545797Y-128358800D01*
X140378203Y-128358800D01*
X140213831Y-128326105D01*
X140058995Y-128261969D01*
X139919646Y-128168860D01*
X139801140Y-128050354D01*
X139708031Y-127911005D01*
X139643895Y-127756169D01*
X139611200Y-127591797D01*
X139611200Y-127424203D01*
X139643895Y-127259831D01*
X139708031Y-127104995D01*
X139801140Y-126965646D01*
X139919646Y-126847140D01*
X140058995Y-126754031D01*
X140213831Y-126689895D01*
X140378203Y-126657200D01*
X140545797Y-126657200D01*
X140710169Y-126689895D01*
X140710169Y-126689895D01*
G37*
G36*
X133008785Y-126669510D02*
X133169161Y-126718160D01*
X133316966Y-126797163D01*
X133446517Y-126903483D01*
X133552837Y-127033034D01*
X133631840Y-127180839D01*
X133680490Y-127341214D01*
X133696917Y-127508000D01*
X133680490Y-127674786D01*
X133631840Y-127835161D01*
X133552837Y-127982966D01*
X133446517Y-128112517D01*
X133316966Y-128218837D01*
X133169161Y-128297840D01*
X133008785Y-128346490D01*
X132883801Y-128358800D01*
X132800199Y-128358800D01*
X132675215Y-128346490D01*
X132514839Y-128297840D01*
X132367034Y-128218837D01*
X132237483Y-128112517D01*
X132131163Y-127982966D01*
X132052160Y-127835161D01*
X132003510Y-127674786D01*
X131987083Y-127508000D01*
X132003510Y-127341214D01*
X132052160Y-127180839D01*
X132131163Y-127033034D01*
X132237483Y-126903483D01*
X132367034Y-126797163D01*
X132514839Y-126718160D01*
X132675215Y-126669510D01*
X132800199Y-126657200D01*
X132883801Y-126657200D01*
X133008785Y-126669510D01*
X133008785Y-126669510D01*
G37*
G36*
X153887868Y-126077257D02*
X153911716Y-126084491D01*
X153933692Y-126096237D01*
X153952955Y-126112045D01*
X153968763Y-126131308D01*
X153980509Y-126153284D01*
X153987743Y-126177132D01*
X153990800Y-126208165D01*
X153990800Y-127791835D01*
X153987743Y-127822868D01*
X153980509Y-127846716D01*
X153968763Y-127868692D01*
X153952955Y-127887955D01*
X153933692Y-127903763D01*
X153911716Y-127915509D01*
X153887868Y-127922743D01*
X153856835Y-127925800D01*
X152923165Y-127925800D01*
X152892132Y-127922743D01*
X152868284Y-127915509D01*
X152846308Y-127903763D01*
X152827045Y-127887955D01*
X152811237Y-127868692D01*
X152799491Y-127846716D01*
X152792257Y-127822868D01*
X152789200Y-127791835D01*
X152789200Y-126208165D01*
X152792257Y-126177132D01*
X152799491Y-126153284D01*
X152811237Y-126131308D01*
X152827045Y-126112045D01*
X152846308Y-126096237D01*
X152868284Y-126084491D01*
X152892132Y-126077257D01*
X152923165Y-126074200D01*
X153856835Y-126074200D01*
X153887868Y-126077257D01*
X153887868Y-126077257D01*
G37*
G36*
X156987868Y-126077257D02*
X157011716Y-126084491D01*
X157033692Y-126096237D01*
X157052955Y-126112045D01*
X157068763Y-126131308D01*
X157080509Y-126153284D01*
X157087743Y-126177132D01*
X157090800Y-126208165D01*
X157090800Y-127791835D01*
X157087743Y-127822868D01*
X157080509Y-127846716D01*
X157068763Y-127868692D01*
X157052955Y-127887955D01*
X157033692Y-127903763D01*
X157011716Y-127915509D01*
X156987868Y-127922743D01*
X156956835Y-127925800D01*
X156023165Y-127925800D01*
X155992132Y-127922743D01*
X155968284Y-127915509D01*
X155946308Y-127903763D01*
X155927045Y-127887955D01*
X155911237Y-127868692D01*
X155899491Y-127846716D01*
X155892257Y-127822868D01*
X155889200Y-127791835D01*
X155889200Y-126208165D01*
X155892257Y-126177132D01*
X155899491Y-126153284D01*
X155911237Y-126131308D01*
X155927045Y-126112045D01*
X155946308Y-126096237D01*
X155968284Y-126084491D01*
X155992132Y-126077257D01*
X156023165Y-126074200D01*
X156956835Y-126074200D01*
X156987868Y-126077257D01*
X156987868Y-126077257D01*
G37*
G36*
X150703450Y-126369650D02*
X150740919Y-126381016D01*
X150775436Y-126399467D01*
X150805698Y-126424302D01*
X150830533Y-126454564D01*
X150848984Y-126489081D01*
X150860350Y-126526550D01*
X150864800Y-126571737D01*
X150864800Y-127410263D01*
X150860350Y-127455450D01*
X150848984Y-127492919D01*
X150830533Y-127527436D01*
X150805698Y-127557698D01*
X150775436Y-127582533D01*
X150740919Y-127600984D01*
X150703450Y-127612350D01*
X150658263Y-127616800D01*
X149569737Y-127616800D01*
X149524550Y-127612350D01*
X149487081Y-127600984D01*
X149452564Y-127582533D01*
X149422302Y-127557698D01*
X149397467Y-127527436D01*
X149379016Y-127492919D01*
X149367650Y-127455450D01*
X149363200Y-127410263D01*
X149363200Y-126571737D01*
X149367650Y-126526550D01*
X149379016Y-126489081D01*
X149397467Y-126454564D01*
X149422302Y-126424302D01*
X149452564Y-126399467D01*
X149487081Y-126381016D01*
X149524550Y-126369650D01*
X149569737Y-126365200D01*
X150658263Y-126365200D01*
X150703450Y-126369650D01*
X150703450Y-126369650D01*
G37*
G36*
X115009450Y-125491650D02*
X115046919Y-125503016D01*
X115081436Y-125521467D01*
X115111698Y-125546302D01*
X115136533Y-125576564D01*
X115154984Y-125611081D01*
X115166350Y-125648550D01*
X115170800Y-125693737D01*
X115170800Y-126782263D01*
X115166350Y-126827450D01*
X115154984Y-126864919D01*
X115136533Y-126899436D01*
X115111698Y-126929698D01*
X115081436Y-126954533D01*
X115046919Y-126972984D01*
X115009450Y-126984350D01*
X114964263Y-126988800D01*
X114125737Y-126988800D01*
X114080550Y-126984350D01*
X114043081Y-126972984D01*
X114008564Y-126954533D01*
X113978302Y-126929698D01*
X113953467Y-126899436D01*
X113935016Y-126864919D01*
X113923650Y-126827450D01*
X113919200Y-126782263D01*
X113919200Y-125693737D01*
X113923650Y-125648550D01*
X113935016Y-125611081D01*
X113953467Y-125576564D01*
X113978302Y-125546302D01*
X114008564Y-125521467D01*
X114043081Y-125503016D01*
X114080550Y-125491650D01*
X114125737Y-125487200D01*
X114964263Y-125487200D01*
X115009450Y-125491650D01*
X115009450Y-125491650D01*
G37*
G36*
X86325450Y-125491650D02*
X86362919Y-125503016D01*
X86397436Y-125521467D01*
X86427698Y-125546302D01*
X86452533Y-125576564D01*
X86470984Y-125611081D01*
X86482350Y-125648550D01*
X86486800Y-125693737D01*
X86486800Y-126782263D01*
X86482350Y-126827450D01*
X86470984Y-126864919D01*
X86452533Y-126899436D01*
X86427698Y-126929698D01*
X86397436Y-126954533D01*
X86362919Y-126972984D01*
X86325450Y-126984350D01*
X86280263Y-126988800D01*
X85441737Y-126988800D01*
X85396550Y-126984350D01*
X85359081Y-126972984D01*
X85324564Y-126954533D01*
X85294302Y-126929698D01*
X85269467Y-126899436D01*
X85251016Y-126864919D01*
X85239650Y-126827450D01*
X85235200Y-126782263D01*
X85235200Y-125693737D01*
X85239650Y-125648550D01*
X85251016Y-125611081D01*
X85269467Y-125576564D01*
X85294302Y-125546302D01*
X85324564Y-125521467D01*
X85359081Y-125503016D01*
X85396550Y-125491650D01*
X85441737Y-125487200D01*
X86280263Y-125487200D01*
X86325450Y-125491650D01*
X86325450Y-125491650D01*
G37*
G36*
X117059450Y-125491650D02*
X117096919Y-125503016D01*
X117131436Y-125521467D01*
X117161698Y-125546302D01*
X117186533Y-125576564D01*
X117204984Y-125611081D01*
X117216350Y-125648550D01*
X117220800Y-125693737D01*
X117220800Y-126782263D01*
X117216350Y-126827450D01*
X117204984Y-126864919D01*
X117186533Y-126899436D01*
X117161698Y-126929698D01*
X117131436Y-126954533D01*
X117096919Y-126972984D01*
X117059450Y-126984350D01*
X117014263Y-126988800D01*
X116175737Y-126988800D01*
X116130550Y-126984350D01*
X116093081Y-126972984D01*
X116058564Y-126954533D01*
X116028302Y-126929698D01*
X116003467Y-126899436D01*
X115985016Y-126864919D01*
X115973650Y-126827450D01*
X115969200Y-126782263D01*
X115969200Y-125693737D01*
X115973650Y-125648550D01*
X115985016Y-125611081D01*
X116003467Y-125576564D01*
X116028302Y-125546302D01*
X116058564Y-125521467D01*
X116093081Y-125503016D01*
X116130550Y-125491650D01*
X116175737Y-125487200D01*
X117014263Y-125487200D01*
X117059450Y-125491650D01*
X117059450Y-125491650D01*
G37*
G36*
X84275450Y-125491650D02*
X84312919Y-125503016D01*
X84347436Y-125521467D01*
X84377698Y-125546302D01*
X84402533Y-125576564D01*
X84420984Y-125611081D01*
X84432350Y-125648550D01*
X84436800Y-125693737D01*
X84436800Y-126782263D01*
X84432350Y-126827450D01*
X84420984Y-126864919D01*
X84402533Y-126899436D01*
X84377698Y-126929698D01*
X84347436Y-126954533D01*
X84312919Y-126972984D01*
X84275450Y-126984350D01*
X84230263Y-126988800D01*
X83391737Y-126988800D01*
X83346550Y-126984350D01*
X83309081Y-126972984D01*
X83274564Y-126954533D01*
X83244302Y-126929698D01*
X83219467Y-126899436D01*
X83201016Y-126864919D01*
X83189650Y-126827450D01*
X83185200Y-126782263D01*
X83185200Y-125693737D01*
X83189650Y-125648550D01*
X83201016Y-125611081D01*
X83219467Y-125576564D01*
X83244302Y-125546302D01*
X83274564Y-125521467D01*
X83309081Y-125503016D01*
X83346550Y-125491650D01*
X83391737Y-125487200D01*
X84230263Y-125487200D01*
X84275450Y-125491650D01*
X84275450Y-125491650D01*
G37*
G36*
X103647868Y-124553257D02*
X103671716Y-124560491D01*
X103693692Y-124572237D01*
X103712955Y-124588045D01*
X103728763Y-124607308D01*
X103740509Y-124629284D01*
X103747743Y-124653132D01*
X103750800Y-124684165D01*
X103750800Y-126267835D01*
X103747743Y-126298868D01*
X103740509Y-126322716D01*
X103728763Y-126344692D01*
X103712955Y-126363955D01*
X103693692Y-126379763D01*
X103671716Y-126391509D01*
X103647868Y-126398743D01*
X103616835Y-126401800D01*
X102683165Y-126401800D01*
X102652132Y-126398743D01*
X102628284Y-126391509D01*
X102606308Y-126379763D01*
X102587045Y-126363955D01*
X102571237Y-126344692D01*
X102559491Y-126322716D01*
X102552257Y-126298868D01*
X102549200Y-126267835D01*
X102549200Y-124684165D01*
X102552257Y-124653132D01*
X102559491Y-124629284D01*
X102571237Y-124607308D01*
X102587045Y-124588045D01*
X102606308Y-124572237D01*
X102628284Y-124560491D01*
X102652132Y-124553257D01*
X102683165Y-124550200D01*
X103616835Y-124550200D01*
X103647868Y-124553257D01*
X103647868Y-124553257D01*
G37*
G36*
X100547868Y-124553257D02*
X100571716Y-124560491D01*
X100593692Y-124572237D01*
X100612955Y-124588045D01*
X100628763Y-124607308D01*
X100640509Y-124629284D01*
X100647743Y-124653132D01*
X100650800Y-124684165D01*
X100650800Y-126267835D01*
X100647743Y-126298868D01*
X100640509Y-126322716D01*
X100628763Y-126344692D01*
X100612955Y-126363955D01*
X100593692Y-126379763D01*
X100571716Y-126391509D01*
X100547868Y-126398743D01*
X100516835Y-126401800D01*
X99583165Y-126401800D01*
X99552132Y-126398743D01*
X99528284Y-126391509D01*
X99506308Y-126379763D01*
X99487045Y-126363955D01*
X99471237Y-126344692D01*
X99459491Y-126322716D01*
X99452257Y-126298868D01*
X99449200Y-126267835D01*
X99449200Y-124684165D01*
X99452257Y-124653132D01*
X99459491Y-124629284D01*
X99471237Y-124607308D01*
X99487045Y-124588045D01*
X99506308Y-124572237D01*
X99528284Y-124560491D01*
X99552132Y-124553257D01*
X99583165Y-124550200D01*
X100516835Y-124550200D01*
X100547868Y-124553257D01*
X100547868Y-124553257D01*
G37*
G36*
X95451450Y-124729650D02*
X95488919Y-124741016D01*
X95523436Y-124759467D01*
X95553698Y-124784302D01*
X95578533Y-124814564D01*
X95596984Y-124849081D01*
X95608350Y-124886550D01*
X95612800Y-124931737D01*
X95612800Y-126020263D01*
X95608350Y-126065450D01*
X95596984Y-126102919D01*
X95578533Y-126137436D01*
X95553698Y-126167698D01*
X95523436Y-126192533D01*
X95488919Y-126210984D01*
X95451450Y-126222350D01*
X95406263Y-126226800D01*
X94567737Y-126226800D01*
X94522550Y-126222350D01*
X94485081Y-126210984D01*
X94450564Y-126192533D01*
X94420302Y-126167698D01*
X94395467Y-126137436D01*
X94377016Y-126102919D01*
X94365650Y-126065450D01*
X94361200Y-126020263D01*
X94361200Y-124931737D01*
X94365650Y-124886550D01*
X94377016Y-124849081D01*
X94395467Y-124814564D01*
X94420302Y-124784302D01*
X94450564Y-124759467D01*
X94485081Y-124741016D01*
X94522550Y-124729650D01*
X94567737Y-124725200D01*
X95406263Y-124725200D01*
X95451450Y-124729650D01*
X95451450Y-124729650D01*
G37*
G36*
X97501450Y-124729650D02*
X97538919Y-124741016D01*
X97573436Y-124759467D01*
X97603698Y-124784302D01*
X97628533Y-124814564D01*
X97646984Y-124849081D01*
X97658350Y-124886550D01*
X97662800Y-124931737D01*
X97662800Y-126020263D01*
X97658350Y-126065450D01*
X97646984Y-126102919D01*
X97628533Y-126137436D01*
X97603698Y-126167698D01*
X97573436Y-126192533D01*
X97538919Y-126210984D01*
X97501450Y-126222350D01*
X97456263Y-126226800D01*
X96617737Y-126226800D01*
X96572550Y-126222350D01*
X96535081Y-126210984D01*
X96500564Y-126192533D01*
X96470302Y-126167698D01*
X96445467Y-126137436D01*
X96427016Y-126102919D01*
X96415650Y-126065450D01*
X96411200Y-126020263D01*
X96411200Y-124931737D01*
X96415650Y-124886550D01*
X96427016Y-124849081D01*
X96445467Y-124814564D01*
X96470302Y-124784302D01*
X96500564Y-124759467D01*
X96535081Y-124741016D01*
X96572550Y-124729650D01*
X96617737Y-124725200D01*
X97456263Y-124725200D01*
X97501450Y-124729650D01*
X97501450Y-124729650D01*
G37*
G36*
X124033450Y-124609650D02*
X124070919Y-124621016D01*
X124105436Y-124639467D01*
X124135698Y-124664302D01*
X124160533Y-124694564D01*
X124178984Y-124729081D01*
X124190350Y-124766550D01*
X124194800Y-124811737D01*
X124194800Y-125650263D01*
X124190350Y-125695450D01*
X124178984Y-125732919D01*
X124160533Y-125767436D01*
X124135698Y-125797698D01*
X124105436Y-125822533D01*
X124070919Y-125840984D01*
X124033450Y-125852350D01*
X123988263Y-125856800D01*
X122899737Y-125856800D01*
X122854550Y-125852350D01*
X122817081Y-125840984D01*
X122782564Y-125822533D01*
X122752302Y-125797698D01*
X122727467Y-125767436D01*
X122709016Y-125732919D01*
X122697650Y-125695450D01*
X122693200Y-125650263D01*
X122693200Y-124811737D01*
X122697650Y-124766550D01*
X122709016Y-124729081D01*
X122727467Y-124694564D01*
X122752302Y-124664302D01*
X122782564Y-124639467D01*
X122817081Y-124621016D01*
X122854550Y-124609650D01*
X122899737Y-124605200D01*
X123988263Y-124605200D01*
X124033450Y-124609650D01*
X124033450Y-124609650D01*
G37*
G36*
X146384800Y-125822800D02*
X144483200Y-125822800D01*
X144483200Y-124621200D01*
X146384800Y-124621200D01*
X146384800Y-125822800D01*
X146384800Y-125822800D01*
G37*
G36*
X144123992Y-123356354D02*
X144168324Y-123369801D01*
X144209175Y-123391637D01*
X144244979Y-123421021D01*
X144274363Y-123456825D01*
X144296199Y-123497676D01*
X144309646Y-123542008D01*
X144314800Y-123594334D01*
X144314800Y-124309666D01*
X144309646Y-124361992D01*
X144296199Y-124406324D01*
X144281228Y-124434332D01*
X144273456Y-124453096D01*
X144258028Y-124467079D01*
X144244979Y-124482979D01*
X144209175Y-124512363D01*
X144168324Y-124534199D01*
X144123992Y-124547646D01*
X144071666Y-124552800D01*
X142656334Y-124552800D01*
X142604008Y-124547646D01*
X142559676Y-124534199D01*
X142518825Y-124512363D01*
X142483021Y-124482979D01*
X142453637Y-124447175D01*
X142431801Y-124406324D01*
X142418354Y-124361992D01*
X142413200Y-124309666D01*
X142413200Y-123594334D01*
X142418354Y-123542008D01*
X142431801Y-123497676D01*
X142453637Y-123456825D01*
X142483021Y-123421021D01*
X142518825Y-123391637D01*
X142559676Y-123369801D01*
X142604008Y-123356354D01*
X142656334Y-123351200D01*
X144071666Y-123351200D01*
X144123992Y-123356354D01*
X144123992Y-123356354D01*
G37*
G36*
X127217868Y-122267257D02*
X127241716Y-122274491D01*
X127263692Y-122286237D01*
X127282955Y-122302045D01*
X127298763Y-122321308D01*
X127310509Y-122343284D01*
X127317743Y-122367132D01*
X127320800Y-122398165D01*
X127320800Y-123981835D01*
X127317743Y-124012868D01*
X127310509Y-124036716D01*
X127298763Y-124058692D01*
X127282955Y-124077955D01*
X127263692Y-124093763D01*
X127241716Y-124105509D01*
X127217868Y-124112743D01*
X127186835Y-124115800D01*
X126253165Y-124115800D01*
X126222132Y-124112743D01*
X126198284Y-124105509D01*
X126176308Y-124093763D01*
X126157045Y-124077955D01*
X126141237Y-124058692D01*
X126129491Y-124036716D01*
X126122257Y-124012868D01*
X126119200Y-123981835D01*
X126119200Y-122398165D01*
X126122257Y-122367132D01*
X126129491Y-122343284D01*
X126141237Y-122321308D01*
X126157045Y-122302045D01*
X126176308Y-122286237D01*
X126198284Y-122274491D01*
X126222132Y-122267257D01*
X126253165Y-122264200D01*
X127186835Y-122264200D01*
X127217868Y-122267257D01*
X127217868Y-122267257D01*
G37*
G36*
X130317868Y-122267257D02*
X130341716Y-122274491D01*
X130363692Y-122286237D01*
X130382955Y-122302045D01*
X130398763Y-122321308D01*
X130410509Y-122343284D01*
X130417743Y-122367132D01*
X130420800Y-122398165D01*
X130420800Y-123981835D01*
X130417743Y-124012868D01*
X130410509Y-124036716D01*
X130398763Y-124058692D01*
X130382955Y-124077955D01*
X130363692Y-124093763D01*
X130341716Y-124105509D01*
X130317868Y-124112743D01*
X130286835Y-124115800D01*
X129353165Y-124115800D01*
X129322132Y-124112743D01*
X129298284Y-124105509D01*
X129276308Y-124093763D01*
X129257045Y-124077955D01*
X129241237Y-124058692D01*
X129229491Y-124036716D01*
X129222257Y-124012868D01*
X129219200Y-123981835D01*
X129219200Y-122398165D01*
X129222257Y-122367132D01*
X129229491Y-122343284D01*
X129241237Y-122321308D01*
X129257045Y-122302045D01*
X129276308Y-122286237D01*
X129298284Y-122274491D01*
X129322132Y-122267257D01*
X129353165Y-122264200D01*
X130286835Y-122264200D01*
X130317868Y-122267257D01*
X130317868Y-122267257D01*
G37*
G36*
X124033450Y-122559650D02*
X124070919Y-122571016D01*
X124105436Y-122589467D01*
X124135698Y-122614302D01*
X124160533Y-122644564D01*
X124178984Y-122679081D01*
X124190350Y-122716550D01*
X124194800Y-122761737D01*
X124194800Y-123600263D01*
X124190350Y-123645450D01*
X124178984Y-123682919D01*
X124160533Y-123717436D01*
X124135698Y-123747698D01*
X124105436Y-123772533D01*
X124070919Y-123790984D01*
X124033450Y-123802350D01*
X123988263Y-123806800D01*
X122899737Y-123806800D01*
X122854550Y-123802350D01*
X122817081Y-123790984D01*
X122782564Y-123772533D01*
X122752302Y-123747698D01*
X122727467Y-123717436D01*
X122709016Y-123682919D01*
X122697650Y-123645450D01*
X122693200Y-123600263D01*
X122693200Y-122761737D01*
X122697650Y-122716550D01*
X122709016Y-122679081D01*
X122727467Y-122644564D01*
X122752302Y-122614302D01*
X122782564Y-122589467D01*
X122817081Y-122571016D01*
X122854550Y-122559650D01*
X122899737Y-122555200D01*
X123988263Y-122555200D01*
X124033450Y-122559650D01*
X124033450Y-122559650D01*
G37*
G36*
X133090169Y-121863895D02*
X133245005Y-121928031D01*
X133384354Y-122021140D01*
X133502860Y-122139646D01*
X133595969Y-122278995D01*
X133660105Y-122433831D01*
X133692800Y-122598203D01*
X133692800Y-122765797D01*
X133660105Y-122930169D01*
X133595969Y-123085005D01*
X133502860Y-123224354D01*
X133384354Y-123342860D01*
X133245005Y-123435969D01*
X133090169Y-123500105D01*
X132925797Y-123532800D01*
X132758203Y-123532800D01*
X132593831Y-123500105D01*
X132438995Y-123435969D01*
X132299646Y-123342860D01*
X132181140Y-123224354D01*
X132088031Y-123085005D01*
X132023895Y-122930169D01*
X131991200Y-122765797D01*
X131991200Y-122598203D01*
X132023895Y-122433831D01*
X132088031Y-122278995D01*
X132181140Y-122139646D01*
X132299646Y-122021140D01*
X132438995Y-121928031D01*
X132593831Y-121863895D01*
X132758203Y-121831200D01*
X132925797Y-121831200D01*
X133090169Y-121863895D01*
X133090169Y-121863895D01*
G37*
G36*
X140628785Y-121843510D02*
X140789161Y-121892160D01*
X140936966Y-121971163D01*
X141066517Y-122077483D01*
X141172837Y-122207034D01*
X141251840Y-122354839D01*
X141300490Y-122515214D01*
X141316917Y-122682000D01*
X141300490Y-122848786D01*
X141251840Y-123009161D01*
X141172837Y-123156966D01*
X141066517Y-123286517D01*
X140936966Y-123392837D01*
X140789161Y-123471840D01*
X140628785Y-123520490D01*
X140503801Y-123532800D01*
X140420199Y-123532800D01*
X140295215Y-123520490D01*
X140134839Y-123471840D01*
X139987034Y-123392837D01*
X139857483Y-123286517D01*
X139751163Y-123156966D01*
X139672160Y-123009161D01*
X139623510Y-122848786D01*
X139607083Y-122682000D01*
X139623510Y-122515214D01*
X139672160Y-122354839D01*
X139751163Y-122207034D01*
X139857483Y-122077483D01*
X139987034Y-121971163D01*
X140134839Y-121892160D01*
X140295215Y-121843510D01*
X140420199Y-121831200D01*
X140503801Y-121831200D01*
X140628785Y-121843510D01*
X140628785Y-121843510D01*
G37*
G36*
X68481992Y-121628354D02*
X68526324Y-121641801D01*
X68554332Y-121656772D01*
X68573096Y-121664544D01*
X68587079Y-121679972D01*
X68602979Y-121693021D01*
X68632363Y-121728825D01*
X68654199Y-121769676D01*
X68667646Y-121814008D01*
X68672800Y-121866334D01*
X68672800Y-123281666D01*
X68667646Y-123333992D01*
X68654199Y-123378324D01*
X68632363Y-123419175D01*
X68602979Y-123454979D01*
X68567175Y-123484363D01*
X68526324Y-123506199D01*
X68481992Y-123519646D01*
X68429666Y-123524800D01*
X67714334Y-123524800D01*
X67662008Y-123519646D01*
X67617676Y-123506199D01*
X67576825Y-123484363D01*
X67541021Y-123454979D01*
X67511637Y-123419175D01*
X67489801Y-123378324D01*
X67476354Y-123333992D01*
X67471200Y-123281666D01*
X67471200Y-121866334D01*
X67476354Y-121814008D01*
X67489801Y-121769676D01*
X67511637Y-121728825D01*
X67541021Y-121693021D01*
X67576825Y-121663637D01*
X67617676Y-121641801D01*
X67662008Y-121628354D01*
X67714334Y-121623200D01*
X68429666Y-121623200D01*
X68481992Y-121628354D01*
X68481992Y-121628354D01*
G37*
G36*
X62385992Y-121628354D02*
X62430324Y-121641801D01*
X62458332Y-121656772D01*
X62477096Y-121664544D01*
X62491079Y-121679972D01*
X62506979Y-121693021D01*
X62536363Y-121728825D01*
X62558199Y-121769676D01*
X62571646Y-121814008D01*
X62576800Y-121866334D01*
X62576800Y-123281666D01*
X62571646Y-123333992D01*
X62558199Y-123378324D01*
X62536363Y-123419175D01*
X62506979Y-123454979D01*
X62471175Y-123484363D01*
X62430324Y-123506199D01*
X62385992Y-123519646D01*
X62333666Y-123524800D01*
X61618334Y-123524800D01*
X61566008Y-123519646D01*
X61521676Y-123506199D01*
X61480825Y-123484363D01*
X61445021Y-123454979D01*
X61415637Y-123419175D01*
X61393801Y-123378324D01*
X61380354Y-123333992D01*
X61375200Y-123281666D01*
X61375200Y-121866334D01*
X61380354Y-121814008D01*
X61393801Y-121769676D01*
X61415637Y-121728825D01*
X61445021Y-121693021D01*
X61480825Y-121663637D01*
X61521676Y-121641801D01*
X61566008Y-121628354D01*
X61618334Y-121623200D01*
X62333666Y-121623200D01*
X62385992Y-121628354D01*
X62385992Y-121628354D01*
G37*
G36*
X150703450Y-122069650D02*
X150740919Y-122081016D01*
X150775436Y-122099467D01*
X150805698Y-122124302D01*
X150830533Y-122154564D01*
X150848984Y-122189081D01*
X150860350Y-122226550D01*
X150864800Y-122271737D01*
X150864800Y-123110263D01*
X150860350Y-123155450D01*
X150848984Y-123192919D01*
X150830533Y-123227436D01*
X150805698Y-123257698D01*
X150775436Y-123282533D01*
X150740919Y-123300984D01*
X150703450Y-123312350D01*
X150658263Y-123316800D01*
X149569737Y-123316800D01*
X149524550Y-123312350D01*
X149487081Y-123300984D01*
X149452564Y-123282533D01*
X149422302Y-123257698D01*
X149397467Y-123227436D01*
X149379016Y-123192919D01*
X149367650Y-123155450D01*
X149363200Y-123110263D01*
X149363200Y-122271737D01*
X149367650Y-122226550D01*
X149379016Y-122189081D01*
X149397467Y-122154564D01*
X149422302Y-122124302D01*
X149452564Y-122099467D01*
X149487081Y-122081016D01*
X149524550Y-122069650D01*
X149569737Y-122065200D01*
X150658263Y-122065200D01*
X150703450Y-122069650D01*
X150703450Y-122069650D01*
G37*
G36*
X146193992Y-122086354D02*
X146238324Y-122099801D01*
X146279175Y-122121637D01*
X146314979Y-122151021D01*
X146344363Y-122186825D01*
X146366199Y-122227676D01*
X146379646Y-122272008D01*
X146384800Y-122324334D01*
X146384800Y-123039666D01*
X146379646Y-123091992D01*
X146366199Y-123136324D01*
X146344363Y-123177175D01*
X146314979Y-123212979D01*
X146279175Y-123242363D01*
X146238324Y-123264199D01*
X146193992Y-123277646D01*
X146141666Y-123282800D01*
X144726334Y-123282800D01*
X144674008Y-123277646D01*
X144629676Y-123264199D01*
X144588825Y-123242363D01*
X144553021Y-123212979D01*
X144523637Y-123177175D01*
X144501801Y-123136324D01*
X144488354Y-123091992D01*
X144483200Y-123039666D01*
X144483200Y-122324334D01*
X144488354Y-122272008D01*
X144501801Y-122227676D01*
X144523637Y-122186825D01*
X144553021Y-122151021D01*
X144588825Y-122121637D01*
X144629676Y-122099801D01*
X144674008Y-122086354D01*
X144726334Y-122081200D01*
X146141666Y-122081200D01*
X146193992Y-122086354D01*
X146193992Y-122086354D01*
G37*
G36*
X159678785Y-120065510D02*
X159839161Y-120114160D01*
X159986966Y-120193163D01*
X160116517Y-120299483D01*
X160222837Y-120429034D01*
X160301840Y-120576839D01*
X160350490Y-120737214D01*
X160366917Y-120904000D01*
X160350490Y-121070786D01*
X160301840Y-121231161D01*
X160222837Y-121378966D01*
X160116517Y-121508517D01*
X159986966Y-121614837D01*
X159839161Y-121693840D01*
X159678785Y-121742490D01*
X159553801Y-121754800D01*
X159470199Y-121754800D01*
X159345215Y-121742490D01*
X159184839Y-121693840D01*
X159037034Y-121614837D01*
X158907483Y-121508517D01*
X158801163Y-121378966D01*
X158722160Y-121231161D01*
X158673510Y-121070786D01*
X158657083Y-120904000D01*
X158673510Y-120737214D01*
X158722160Y-120576839D01*
X158801163Y-120429034D01*
X158907483Y-120299483D01*
X159037034Y-120193163D01*
X159184839Y-120114160D01*
X159345215Y-120065510D01*
X159470199Y-120053200D01*
X159553801Y-120053200D01*
X159678785Y-120065510D01*
X159678785Y-120065510D01*
G37*
G36*
X114040169Y-120085895D02*
X114195005Y-120150031D01*
X114334354Y-120243140D01*
X114452860Y-120361646D01*
X114545969Y-120500995D01*
X114610105Y-120655831D01*
X114642800Y-120820203D01*
X114642800Y-120987797D01*
X114610105Y-121152169D01*
X114545969Y-121307005D01*
X114452860Y-121446354D01*
X114334354Y-121564860D01*
X114195005Y-121657969D01*
X114040169Y-121722105D01*
X113875797Y-121754800D01*
X113708203Y-121754800D01*
X113543831Y-121722105D01*
X113388995Y-121657969D01*
X113249646Y-121564860D01*
X113131140Y-121446354D01*
X113038031Y-121307005D01*
X112973895Y-121152169D01*
X112941200Y-120987797D01*
X112941200Y-120820203D01*
X112973895Y-120655831D01*
X113038031Y-120500995D01*
X113131140Y-120361646D01*
X113249646Y-120243140D01*
X113388995Y-120150031D01*
X113543831Y-120085895D01*
X113708203Y-120053200D01*
X113875797Y-120053200D01*
X114040169Y-120085895D01*
X114040169Y-120085895D01*
G37*
G36*
X106338785Y-120065510D02*
X106499161Y-120114160D01*
X106646966Y-120193163D01*
X106776517Y-120299483D01*
X106882837Y-120429034D01*
X106961840Y-120576839D01*
X107010490Y-120737214D01*
X107026917Y-120904000D01*
X107010490Y-121070786D01*
X106961840Y-121231161D01*
X106882837Y-121378966D01*
X106776517Y-121508517D01*
X106646966Y-121614837D01*
X106499161Y-121693840D01*
X106338785Y-121742490D01*
X106213801Y-121754800D01*
X106130199Y-121754800D01*
X106005215Y-121742490D01*
X105844839Y-121693840D01*
X105697034Y-121614837D01*
X105567483Y-121508517D01*
X105461163Y-121378966D01*
X105382160Y-121231161D01*
X105333510Y-121070786D01*
X105317083Y-120904000D01*
X105333510Y-120737214D01*
X105382160Y-120576839D01*
X105461163Y-120429034D01*
X105567483Y-120299483D01*
X105697034Y-120193163D01*
X105844839Y-120114160D01*
X106005215Y-120065510D01*
X106130199Y-120053200D01*
X106213801Y-120053200D01*
X106338785Y-120065510D01*
X106338785Y-120065510D01*
G37*
G36*
X167380169Y-120085895D02*
X167535005Y-120150031D01*
X167674354Y-120243140D01*
X167792860Y-120361646D01*
X167885969Y-120500995D01*
X167950105Y-120655831D01*
X167982800Y-120820203D01*
X167982800Y-120987797D01*
X167950105Y-121152169D01*
X167885969Y-121307005D01*
X167792860Y-121446354D01*
X167674354Y-121564860D01*
X167535005Y-121657969D01*
X167380169Y-121722105D01*
X167215797Y-121754800D01*
X167048203Y-121754800D01*
X166883831Y-121722105D01*
X166728995Y-121657969D01*
X166589646Y-121564860D01*
X166471140Y-121446354D01*
X166378031Y-121307005D01*
X166313895Y-121152169D01*
X166281200Y-120987797D01*
X166281200Y-120820203D01*
X166313895Y-120655831D01*
X166378031Y-120500995D01*
X166471140Y-120361646D01*
X166589646Y-120243140D01*
X166728995Y-120150031D01*
X166883831Y-120085895D01*
X167048203Y-120053200D01*
X167215797Y-120053200D01*
X167380169Y-120085895D01*
X167380169Y-120085895D01*
G37*
G36*
X156987868Y-119727257D02*
X157011716Y-119734491D01*
X157033692Y-119746237D01*
X157052955Y-119762045D01*
X157068763Y-119781308D01*
X157080509Y-119803284D01*
X157087743Y-119827132D01*
X157090800Y-119858165D01*
X157090800Y-121441835D01*
X157087743Y-121472868D01*
X157080509Y-121496716D01*
X157068763Y-121518692D01*
X157052955Y-121537955D01*
X157033692Y-121553763D01*
X157011716Y-121565509D01*
X156987868Y-121572743D01*
X156956835Y-121575800D01*
X156023165Y-121575800D01*
X155992132Y-121572743D01*
X155968284Y-121565509D01*
X155946308Y-121553763D01*
X155927045Y-121537955D01*
X155911237Y-121518692D01*
X155899491Y-121496716D01*
X155892257Y-121472868D01*
X155889200Y-121441835D01*
X155889200Y-119858165D01*
X155892257Y-119827132D01*
X155899491Y-119803284D01*
X155911237Y-119781308D01*
X155927045Y-119762045D01*
X155946308Y-119746237D01*
X155968284Y-119734491D01*
X155992132Y-119727257D01*
X156023165Y-119724200D01*
X156956835Y-119724200D01*
X156987868Y-119727257D01*
X156987868Y-119727257D01*
G37*
G36*
X153887868Y-119727257D02*
X153911716Y-119734491D01*
X153933692Y-119746237D01*
X153952955Y-119762045D01*
X153968763Y-119781308D01*
X153980509Y-119803284D01*
X153987743Y-119827132D01*
X153990800Y-119858165D01*
X153990800Y-121441835D01*
X153987743Y-121472868D01*
X153980509Y-121496716D01*
X153968763Y-121518692D01*
X153952955Y-121537955D01*
X153933692Y-121553763D01*
X153911716Y-121565509D01*
X153887868Y-121572743D01*
X153856835Y-121575800D01*
X152923165Y-121575800D01*
X152892132Y-121572743D01*
X152868284Y-121565509D01*
X152846308Y-121553763D01*
X152827045Y-121537955D01*
X152811237Y-121518692D01*
X152799491Y-121496716D01*
X152792257Y-121472868D01*
X152789200Y-121441835D01*
X152789200Y-119858165D01*
X152792257Y-119827132D01*
X152799491Y-119803284D01*
X152811237Y-119781308D01*
X152827045Y-119762045D01*
X152846308Y-119746237D01*
X152868284Y-119734491D01*
X152892132Y-119727257D01*
X152923165Y-119724200D01*
X153856835Y-119724200D01*
X153887868Y-119727257D01*
X153887868Y-119727257D01*
G37*
G36*
X119714800Y-121504800D02*
X117813200Y-121504800D01*
X117813200Y-120303200D01*
X119714800Y-120303200D01*
X119714800Y-121504800D01*
X119714800Y-121504800D01*
G37*
G36*
X173054800Y-121504800D02*
X171153200Y-121504800D01*
X171153200Y-120303200D01*
X173054800Y-120303200D01*
X173054800Y-121504800D01*
X173054800Y-121504800D01*
G37*
G36*
X67211992Y-119558354D02*
X67256324Y-119571801D01*
X67297175Y-119593637D01*
X67332979Y-119623021D01*
X67362363Y-119658825D01*
X67384199Y-119699676D01*
X67397646Y-119744008D01*
X67402800Y-119796334D01*
X67402800Y-121211666D01*
X67397646Y-121263992D01*
X67384199Y-121308324D01*
X67362363Y-121349175D01*
X67332979Y-121384979D01*
X67297175Y-121414363D01*
X67256324Y-121436199D01*
X67211992Y-121449646D01*
X67159666Y-121454800D01*
X66444334Y-121454800D01*
X66392008Y-121449646D01*
X66347676Y-121436199D01*
X66306825Y-121414363D01*
X66271021Y-121384979D01*
X66241637Y-121349175D01*
X66219801Y-121308324D01*
X66206354Y-121263992D01*
X66201200Y-121211666D01*
X66201200Y-119796334D01*
X66206354Y-119744008D01*
X66219801Y-119699676D01*
X66241637Y-119658825D01*
X66271021Y-119623021D01*
X66306825Y-119593637D01*
X66347676Y-119571801D01*
X66392008Y-119558354D01*
X66444334Y-119553200D01*
X67159666Y-119553200D01*
X67211992Y-119558354D01*
X67211992Y-119558354D01*
G37*
G36*
X63846800Y-121454800D02*
X62645200Y-121454800D01*
X62645200Y-119553200D01*
X63846800Y-119553200D01*
X63846800Y-121454800D01*
X63846800Y-121454800D01*
G37*
G36*
X69942800Y-121454800D02*
X68741200Y-121454800D01*
X68741200Y-119553200D01*
X69942800Y-119553200D01*
X69942800Y-121454800D01*
X69942800Y-121454800D01*
G37*
G36*
X61115992Y-119558354D02*
X61160324Y-119571801D01*
X61201175Y-119593637D01*
X61236979Y-119623021D01*
X61266363Y-119658825D01*
X61288199Y-119699676D01*
X61301646Y-119744008D01*
X61306800Y-119796334D01*
X61306800Y-121211666D01*
X61301646Y-121263992D01*
X61288199Y-121308324D01*
X61266363Y-121349175D01*
X61236979Y-121384979D01*
X61201175Y-121414363D01*
X61160324Y-121436199D01*
X61115992Y-121449646D01*
X61063666Y-121454800D01*
X60348334Y-121454800D01*
X60296008Y-121449646D01*
X60251676Y-121436199D01*
X60210825Y-121414363D01*
X60175021Y-121384979D01*
X60145637Y-121349175D01*
X60123801Y-121308324D01*
X60110354Y-121263992D01*
X60105200Y-121211666D01*
X60105200Y-119796334D01*
X60110354Y-119744008D01*
X60123801Y-119699676D01*
X60145637Y-119658825D01*
X60175021Y-119623021D01*
X60210825Y-119593637D01*
X60251676Y-119571801D01*
X60296008Y-119558354D01*
X60348334Y-119553200D01*
X61063666Y-119553200D01*
X61115992Y-119558354D01*
X61115992Y-119558354D01*
G37*
G36*
X150703450Y-120019650D02*
X150740919Y-120031016D01*
X150775436Y-120049467D01*
X150805698Y-120074302D01*
X150830533Y-120104564D01*
X150848984Y-120139081D01*
X150860350Y-120176550D01*
X150864800Y-120221737D01*
X150864800Y-121060263D01*
X150860350Y-121105450D01*
X150848984Y-121142919D01*
X150830533Y-121177436D01*
X150805698Y-121207698D01*
X150775436Y-121232533D01*
X150740919Y-121250984D01*
X150703450Y-121262350D01*
X150658263Y-121266800D01*
X149569737Y-121266800D01*
X149524550Y-121262350D01*
X149487081Y-121250984D01*
X149452564Y-121232533D01*
X149422302Y-121207698D01*
X149397467Y-121177436D01*
X149379016Y-121142919D01*
X149367650Y-121105450D01*
X149363200Y-121060263D01*
X149363200Y-120221737D01*
X149367650Y-120176550D01*
X149379016Y-120139081D01*
X149397467Y-120104564D01*
X149422302Y-120074302D01*
X149452564Y-120049467D01*
X149487081Y-120031016D01*
X149524550Y-120019650D01*
X149569737Y-120015200D01*
X150658263Y-120015200D01*
X150703450Y-120019650D01*
X150703450Y-120019650D01*
G37*
G36*
X170793992Y-119038354D02*
X170838324Y-119051801D01*
X170879175Y-119073637D01*
X170914979Y-119103021D01*
X170944363Y-119138825D01*
X170966199Y-119179676D01*
X170979646Y-119224008D01*
X170984800Y-119276334D01*
X170984800Y-119991666D01*
X170979646Y-120043992D01*
X170966199Y-120088324D01*
X170951228Y-120116332D01*
X170943456Y-120135096D01*
X170928028Y-120149079D01*
X170914979Y-120164979D01*
X170879175Y-120194363D01*
X170838324Y-120216199D01*
X170793992Y-120229646D01*
X170741666Y-120234800D01*
X169326334Y-120234800D01*
X169274008Y-120229646D01*
X169229676Y-120216199D01*
X169188825Y-120194363D01*
X169153021Y-120164979D01*
X169123637Y-120129175D01*
X169101801Y-120088324D01*
X169088354Y-120043992D01*
X169083200Y-119991666D01*
X169083200Y-119276334D01*
X169088354Y-119224008D01*
X169101801Y-119179676D01*
X169123637Y-119138825D01*
X169153021Y-119103021D01*
X169188825Y-119073637D01*
X169229676Y-119051801D01*
X169274008Y-119038354D01*
X169326334Y-119033200D01*
X170741666Y-119033200D01*
X170793992Y-119038354D01*
X170793992Y-119038354D01*
G37*
G36*
X117453992Y-119038354D02*
X117498324Y-119051801D01*
X117539175Y-119073637D01*
X117574979Y-119103021D01*
X117604363Y-119138825D01*
X117626199Y-119179676D01*
X117639646Y-119224008D01*
X117644800Y-119276334D01*
X117644800Y-119991666D01*
X117639646Y-120043992D01*
X117626199Y-120088324D01*
X117611228Y-120116332D01*
X117603456Y-120135096D01*
X117588028Y-120149079D01*
X117574979Y-120164979D01*
X117539175Y-120194363D01*
X117498324Y-120216199D01*
X117453992Y-120229646D01*
X117401666Y-120234800D01*
X115986334Y-120234800D01*
X115934008Y-120229646D01*
X115889676Y-120216199D01*
X115848825Y-120194363D01*
X115813021Y-120164979D01*
X115783637Y-120129175D01*
X115761801Y-120088324D01*
X115748354Y-120043992D01*
X115743200Y-119991666D01*
X115743200Y-119276334D01*
X115748354Y-119224008D01*
X115761801Y-119179676D01*
X115783637Y-119138825D01*
X115813021Y-119103021D01*
X115848825Y-119073637D01*
X115889676Y-119051801D01*
X115934008Y-119038354D01*
X115986334Y-119033200D01*
X117401666Y-119033200D01*
X117453992Y-119038354D01*
X117453992Y-119038354D01*
G37*
G36*
X124033450Y-118259650D02*
X124070919Y-118271016D01*
X124105436Y-118289467D01*
X124135698Y-118314302D01*
X124160533Y-118344564D01*
X124178984Y-118379081D01*
X124190350Y-118416550D01*
X124194800Y-118461737D01*
X124194800Y-119300263D01*
X124190350Y-119345450D01*
X124178984Y-119382919D01*
X124160533Y-119417436D01*
X124135698Y-119447698D01*
X124105436Y-119472533D01*
X124070919Y-119490984D01*
X124033450Y-119502350D01*
X123988263Y-119506800D01*
X122899737Y-119506800D01*
X122854550Y-119502350D01*
X122817081Y-119490984D01*
X122782564Y-119472533D01*
X122752302Y-119447698D01*
X122727467Y-119417436D01*
X122709016Y-119382919D01*
X122697650Y-119345450D01*
X122693200Y-119300263D01*
X122693200Y-118461737D01*
X122697650Y-118416550D01*
X122709016Y-118379081D01*
X122727467Y-118344564D01*
X122752302Y-118314302D01*
X122782564Y-118289467D01*
X122817081Y-118271016D01*
X122854550Y-118259650D01*
X122899737Y-118255200D01*
X123988263Y-118255200D01*
X124033450Y-118259650D01*
X124033450Y-118259650D01*
G37*
G36*
X190052868Y-117792257D02*
X190076716Y-117799491D01*
X190098692Y-117811237D01*
X190117955Y-117827045D01*
X190133763Y-117846308D01*
X190145509Y-117868284D01*
X190152743Y-117892132D01*
X190155800Y-117923165D01*
X190155800Y-118856835D01*
X190152743Y-118887868D01*
X190145509Y-118911716D01*
X190133763Y-118933692D01*
X190117955Y-118952955D01*
X190098692Y-118968763D01*
X190076716Y-118980509D01*
X190052868Y-118987743D01*
X190021835Y-118990800D01*
X188438165Y-118990800D01*
X188407132Y-118987743D01*
X188383284Y-118980509D01*
X188361308Y-118968763D01*
X188342045Y-118952955D01*
X188326237Y-118933692D01*
X188314491Y-118911716D01*
X188307257Y-118887868D01*
X188304200Y-118856835D01*
X188304200Y-117923165D01*
X188307257Y-117892132D01*
X188314491Y-117868284D01*
X188326237Y-117846308D01*
X188342045Y-117827045D01*
X188361308Y-117811237D01*
X188383284Y-117799491D01*
X188407132Y-117792257D01*
X188438165Y-117789200D01*
X190021835Y-117789200D01*
X190052868Y-117792257D01*
X190052868Y-117792257D01*
G37*
G36*
X172863992Y-117768354D02*
X172908324Y-117781801D01*
X172949175Y-117803637D01*
X172984979Y-117833021D01*
X173014363Y-117868825D01*
X173036199Y-117909676D01*
X173049646Y-117954008D01*
X173054800Y-118006334D01*
X173054800Y-118721666D01*
X173049646Y-118773992D01*
X173036199Y-118818324D01*
X173014363Y-118859175D01*
X172984979Y-118894979D01*
X172949175Y-118924363D01*
X172908324Y-118946199D01*
X172863992Y-118959646D01*
X172811666Y-118964800D01*
X171396334Y-118964800D01*
X171344008Y-118959646D01*
X171299676Y-118946199D01*
X171258825Y-118924363D01*
X171223021Y-118894979D01*
X171193637Y-118859175D01*
X171171801Y-118818324D01*
X171158354Y-118773992D01*
X171153200Y-118721666D01*
X171153200Y-118006334D01*
X171158354Y-117954008D01*
X171171801Y-117909676D01*
X171193637Y-117868825D01*
X171223021Y-117833021D01*
X171258825Y-117803637D01*
X171299676Y-117781801D01*
X171344008Y-117768354D01*
X171396334Y-117763200D01*
X172811666Y-117763200D01*
X172863992Y-117768354D01*
X172863992Y-117768354D01*
G37*
G36*
X119523992Y-117768354D02*
X119568324Y-117781801D01*
X119609175Y-117803637D01*
X119644979Y-117833021D01*
X119674363Y-117868825D01*
X119696199Y-117909676D01*
X119709646Y-117954008D01*
X119714800Y-118006334D01*
X119714800Y-118721666D01*
X119709646Y-118773992D01*
X119696199Y-118818324D01*
X119674363Y-118859175D01*
X119644979Y-118894979D01*
X119609175Y-118924363D01*
X119568324Y-118946199D01*
X119523992Y-118959646D01*
X119471666Y-118964800D01*
X118056334Y-118964800D01*
X118004008Y-118959646D01*
X117959676Y-118946199D01*
X117918825Y-118924363D01*
X117883021Y-118894979D01*
X117853637Y-118859175D01*
X117831801Y-118818324D01*
X117818354Y-118773992D01*
X117813200Y-118721666D01*
X117813200Y-118006334D01*
X117818354Y-117954008D01*
X117831801Y-117909676D01*
X117853637Y-117868825D01*
X117883021Y-117833021D01*
X117918825Y-117803637D01*
X117959676Y-117781801D01*
X118004008Y-117768354D01*
X118056334Y-117763200D01*
X119471666Y-117763200D01*
X119523992Y-117768354D01*
X119523992Y-117768354D01*
G37*
G36*
X159678785Y-116509510D02*
X159839161Y-116558160D01*
X159986966Y-116637163D01*
X160116517Y-116743483D01*
X160222837Y-116873034D01*
X160301840Y-117020839D01*
X160350490Y-117181214D01*
X160366917Y-117348000D01*
X160350490Y-117514786D01*
X160301840Y-117675161D01*
X160222837Y-117822966D01*
X160116517Y-117952517D01*
X159986966Y-118058837D01*
X159839161Y-118137840D01*
X159678785Y-118186490D01*
X159553801Y-118198800D01*
X159470199Y-118198800D01*
X159345215Y-118186490D01*
X159184839Y-118137840D01*
X159037034Y-118058837D01*
X158907483Y-117952517D01*
X158801163Y-117822966D01*
X158722160Y-117675161D01*
X158673510Y-117514786D01*
X158657083Y-117348000D01*
X158673510Y-117181214D01*
X158722160Y-117020839D01*
X158801163Y-116873034D01*
X158907483Y-116743483D01*
X159037034Y-116637163D01*
X159184839Y-116558160D01*
X159345215Y-116509510D01*
X159470199Y-116497200D01*
X159553801Y-116497200D01*
X159678785Y-116509510D01*
X159678785Y-116509510D01*
G37*
G36*
X167380169Y-116529895D02*
X167535005Y-116594031D01*
X167674354Y-116687140D01*
X167792860Y-116805646D01*
X167885969Y-116944995D01*
X167950105Y-117099831D01*
X167982800Y-117264203D01*
X167982800Y-117431797D01*
X167950105Y-117596169D01*
X167885969Y-117751005D01*
X167792860Y-117890354D01*
X167674354Y-118008860D01*
X167535005Y-118101969D01*
X167380169Y-118166105D01*
X167215797Y-118198800D01*
X167048203Y-118198800D01*
X166883831Y-118166105D01*
X166728995Y-118101969D01*
X166589646Y-118008860D01*
X166471140Y-117890354D01*
X166378031Y-117751005D01*
X166313895Y-117596169D01*
X166281200Y-117431797D01*
X166281200Y-117264203D01*
X166313895Y-117099831D01*
X166378031Y-116944995D01*
X166471140Y-116805646D01*
X166589646Y-116687140D01*
X166728995Y-116594031D01*
X166883831Y-116529895D01*
X167048203Y-116497200D01*
X167215797Y-116497200D01*
X167380169Y-116529895D01*
X167380169Y-116529895D01*
G37*
G36*
X106338785Y-116509510D02*
X106499161Y-116558160D01*
X106646966Y-116637163D01*
X106776517Y-116743483D01*
X106882837Y-116873034D01*
X106961840Y-117020839D01*
X107010490Y-117181214D01*
X107026917Y-117348000D01*
X107010490Y-117514786D01*
X106961840Y-117675161D01*
X106882837Y-117822966D01*
X106776517Y-117952517D01*
X106646966Y-118058837D01*
X106499161Y-118137840D01*
X106338785Y-118186490D01*
X106213801Y-118198800D01*
X106130199Y-118198800D01*
X106005215Y-118186490D01*
X105844839Y-118137840D01*
X105697034Y-118058837D01*
X105567483Y-117952517D01*
X105461163Y-117822966D01*
X105382160Y-117675161D01*
X105333510Y-117514786D01*
X105317083Y-117348000D01*
X105333510Y-117181214D01*
X105382160Y-117020839D01*
X105461163Y-116873034D01*
X105567483Y-116743483D01*
X105697034Y-116637163D01*
X105844839Y-116558160D01*
X106005215Y-116509510D01*
X106130199Y-116497200D01*
X106213801Y-116497200D01*
X106338785Y-116509510D01*
X106338785Y-116509510D01*
G37*
G36*
X66968785Y-116509510D02*
X67129161Y-116558160D01*
X67276966Y-116637163D01*
X67406517Y-116743483D01*
X67512837Y-116873034D01*
X67591840Y-117020839D01*
X67640490Y-117181214D01*
X67656917Y-117348000D01*
X67640490Y-117514786D01*
X67591840Y-117675161D01*
X67512837Y-117822966D01*
X67406517Y-117952517D01*
X67276966Y-118058837D01*
X67129161Y-118137840D01*
X66968785Y-118186490D01*
X66843801Y-118198800D01*
X66760199Y-118198800D01*
X66635215Y-118186490D01*
X66474839Y-118137840D01*
X66327034Y-118058837D01*
X66197483Y-117952517D01*
X66091163Y-117822966D01*
X66012160Y-117675161D01*
X65963510Y-117514786D01*
X65947083Y-117348000D01*
X65963510Y-117181214D01*
X66012160Y-117020839D01*
X66091163Y-116873034D01*
X66197483Y-116743483D01*
X66327034Y-116637163D01*
X66474839Y-116558160D01*
X66635215Y-116509510D01*
X66760199Y-116497200D01*
X66843801Y-116497200D01*
X66968785Y-116509510D01*
X66968785Y-116509510D01*
G37*
G36*
X70606169Y-116529895D02*
X70761005Y-116594031D01*
X70900354Y-116687140D01*
X71018860Y-116805646D01*
X71111969Y-116944995D01*
X71176105Y-117099831D01*
X71208800Y-117264203D01*
X71208800Y-117431797D01*
X71176105Y-117596169D01*
X71111969Y-117751005D01*
X71018860Y-117890354D01*
X70900354Y-118008860D01*
X70761005Y-118101969D01*
X70606169Y-118166105D01*
X70441797Y-118198800D01*
X70274203Y-118198800D01*
X70109831Y-118166105D01*
X69954995Y-118101969D01*
X69815646Y-118008860D01*
X69697140Y-117890354D01*
X69604031Y-117751005D01*
X69539895Y-117596169D01*
X69507200Y-117431797D01*
X69507200Y-117264203D01*
X69539895Y-117099831D01*
X69604031Y-116944995D01*
X69697140Y-116805646D01*
X69815646Y-116687140D01*
X69954995Y-116594031D01*
X70109831Y-116529895D01*
X70274203Y-116497200D01*
X70441797Y-116497200D01*
X70606169Y-116529895D01*
X70606169Y-116529895D01*
G37*
G36*
X63494169Y-116529895D02*
X63649005Y-116594031D01*
X63788354Y-116687140D01*
X63906860Y-116805646D01*
X63999969Y-116944995D01*
X64064105Y-117099831D01*
X64096800Y-117264203D01*
X64096800Y-117431797D01*
X64064105Y-117596169D01*
X63999969Y-117751005D01*
X63906860Y-117890354D01*
X63788354Y-118008860D01*
X63649005Y-118101969D01*
X63494169Y-118166105D01*
X63329797Y-118198800D01*
X63162203Y-118198800D01*
X62997831Y-118166105D01*
X62842995Y-118101969D01*
X62703646Y-118008860D01*
X62585140Y-117890354D01*
X62492031Y-117751005D01*
X62427895Y-117596169D01*
X62395200Y-117431797D01*
X62395200Y-117264203D01*
X62427895Y-117099831D01*
X62492031Y-116944995D01*
X62585140Y-116805646D01*
X62703646Y-116687140D01*
X62842995Y-116594031D01*
X62997831Y-116529895D01*
X63162203Y-116497200D01*
X63329797Y-116497200D01*
X63494169Y-116529895D01*
X63494169Y-116529895D01*
G37*
G36*
X59856785Y-116509510D02*
X60017161Y-116558160D01*
X60164966Y-116637163D01*
X60294517Y-116743483D01*
X60400837Y-116873034D01*
X60479840Y-117020839D01*
X60528490Y-117181214D01*
X60544917Y-117348000D01*
X60528490Y-117514786D01*
X60479840Y-117675161D01*
X60400837Y-117822966D01*
X60294517Y-117952517D01*
X60164966Y-118058837D01*
X60017161Y-118137840D01*
X59856785Y-118186490D01*
X59731801Y-118198800D01*
X59648199Y-118198800D01*
X59523215Y-118186490D01*
X59362839Y-118137840D01*
X59215034Y-118058837D01*
X59085483Y-117952517D01*
X58979163Y-117822966D01*
X58900160Y-117675161D01*
X58851510Y-117514786D01*
X58835083Y-117348000D01*
X58851510Y-117181214D01*
X58900160Y-117020839D01*
X58979163Y-116873034D01*
X59085483Y-116743483D01*
X59215034Y-116637163D01*
X59362839Y-116558160D01*
X59523215Y-116509510D01*
X59648199Y-116497200D01*
X59731801Y-116497200D01*
X59856785Y-116509510D01*
X59856785Y-116509510D01*
G37*
G36*
X114040169Y-116529895D02*
X114195005Y-116594031D01*
X114334354Y-116687140D01*
X114452860Y-116805646D01*
X114545969Y-116944995D01*
X114610105Y-117099831D01*
X114642800Y-117264203D01*
X114642800Y-117431797D01*
X114610105Y-117596169D01*
X114545969Y-117751005D01*
X114452860Y-117890354D01*
X114334354Y-118008860D01*
X114195005Y-118101969D01*
X114040169Y-118166105D01*
X113875797Y-118198800D01*
X113708203Y-118198800D01*
X113543831Y-118166105D01*
X113388995Y-118101969D01*
X113249646Y-118008860D01*
X113131140Y-117890354D01*
X113038031Y-117751005D01*
X112973895Y-117596169D01*
X112941200Y-117431797D01*
X112941200Y-117264203D01*
X112973895Y-117099831D01*
X113038031Y-116944995D01*
X113131140Y-116805646D01*
X113249646Y-116687140D01*
X113388995Y-116594031D01*
X113543831Y-116529895D01*
X113708203Y-116497200D01*
X113875797Y-116497200D01*
X114040169Y-116529895D01*
X114040169Y-116529895D01*
G37*
G36*
X198054800Y-117790800D02*
X196153200Y-117790800D01*
X196153200Y-115889200D01*
X198054800Y-115889200D01*
X198054800Y-117790800D01*
X198054800Y-117790800D01*
G37*
G36*
X194841338Y-115925738D02*
X195014373Y-115997412D01*
X195170100Y-116101465D01*
X195302535Y-116233900D01*
X195406588Y-116389627D01*
X195478262Y-116562662D01*
X195514800Y-116746354D01*
X195514800Y-116933646D01*
X195478262Y-117117338D01*
X195406588Y-117290373D01*
X195302535Y-117446100D01*
X195170100Y-117578535D01*
X195014373Y-117682588D01*
X194841338Y-117754262D01*
X194657646Y-117790800D01*
X194470354Y-117790800D01*
X194286662Y-117754262D01*
X194113627Y-117682588D01*
X193957900Y-117578535D01*
X193825465Y-117446100D01*
X193721412Y-117290373D01*
X193649738Y-117117338D01*
X193613200Y-116933646D01*
X193613200Y-116746354D01*
X193649738Y-116562662D01*
X193721412Y-116389627D01*
X193825465Y-116233900D01*
X193957900Y-116101465D01*
X194113627Y-115997412D01*
X194286662Y-115925738D01*
X194470354Y-115889200D01*
X194657646Y-115889200D01*
X194841338Y-115925738D01*
X194841338Y-115925738D01*
G37*
G36*
X127217868Y-115917257D02*
X127241716Y-115924491D01*
X127263692Y-115936237D01*
X127282955Y-115952045D01*
X127298763Y-115971308D01*
X127310509Y-115993284D01*
X127317743Y-116017132D01*
X127320800Y-116048165D01*
X127320800Y-117631835D01*
X127317743Y-117662868D01*
X127310509Y-117686716D01*
X127298763Y-117708692D01*
X127282955Y-117727955D01*
X127263692Y-117743763D01*
X127241716Y-117755509D01*
X127217868Y-117762743D01*
X127186835Y-117765800D01*
X126253165Y-117765800D01*
X126222132Y-117762743D01*
X126198284Y-117755509D01*
X126176308Y-117743763D01*
X126157045Y-117727955D01*
X126141237Y-117708692D01*
X126129491Y-117686716D01*
X126122257Y-117662868D01*
X126119200Y-117631835D01*
X126119200Y-116048165D01*
X126122257Y-116017132D01*
X126129491Y-115993284D01*
X126141237Y-115971308D01*
X126157045Y-115952045D01*
X126176308Y-115936237D01*
X126198284Y-115924491D01*
X126222132Y-115917257D01*
X126253165Y-115914200D01*
X127186835Y-115914200D01*
X127217868Y-115917257D01*
X127217868Y-115917257D01*
G37*
G36*
X130317868Y-115917257D02*
X130341716Y-115924491D01*
X130363692Y-115936237D01*
X130382955Y-115952045D01*
X130398763Y-115971308D01*
X130410509Y-115993284D01*
X130417743Y-116017132D01*
X130420800Y-116048165D01*
X130420800Y-117631835D01*
X130417743Y-117662868D01*
X130410509Y-117686716D01*
X130398763Y-117708692D01*
X130382955Y-117727955D01*
X130363692Y-117743763D01*
X130341716Y-117755509D01*
X130317868Y-117762743D01*
X130286835Y-117765800D01*
X129353165Y-117765800D01*
X129322132Y-117762743D01*
X129298284Y-117755509D01*
X129276308Y-117743763D01*
X129257045Y-117727955D01*
X129241237Y-117708692D01*
X129229491Y-117686716D01*
X129222257Y-117662868D01*
X129219200Y-117631835D01*
X129219200Y-116048165D01*
X129222257Y-116017132D01*
X129229491Y-115993284D01*
X129241237Y-115971308D01*
X129257045Y-115952045D01*
X129276308Y-115936237D01*
X129298284Y-115924491D01*
X129322132Y-115917257D01*
X129353165Y-115914200D01*
X130286835Y-115914200D01*
X130317868Y-115917257D01*
X130317868Y-115917257D01*
G37*
G36*
X124033450Y-116209650D02*
X124070919Y-116221016D01*
X124105436Y-116239467D01*
X124135698Y-116264302D01*
X124160533Y-116294564D01*
X124178984Y-116329081D01*
X124190350Y-116366550D01*
X124194800Y-116411737D01*
X124194800Y-117250263D01*
X124190350Y-117295450D01*
X124178984Y-117332919D01*
X124160533Y-117367436D01*
X124135698Y-117397698D01*
X124105436Y-117422533D01*
X124070919Y-117440984D01*
X124033450Y-117452350D01*
X123988263Y-117456800D01*
X122899737Y-117456800D01*
X122854550Y-117452350D01*
X122817081Y-117440984D01*
X122782564Y-117422533D01*
X122752302Y-117397698D01*
X122727467Y-117367436D01*
X122709016Y-117332919D01*
X122697650Y-117295450D01*
X122693200Y-117250263D01*
X122693200Y-116411737D01*
X122697650Y-116366550D01*
X122709016Y-116329081D01*
X122727467Y-116294564D01*
X122752302Y-116264302D01*
X122782564Y-116239467D01*
X122817081Y-116221016D01*
X122854550Y-116209650D01*
X122899737Y-116205200D01*
X123988263Y-116205200D01*
X124033450Y-116209650D01*
X124033450Y-116209650D01*
G37*
G36*
X76417868Y-114139257D02*
X76441716Y-114146491D01*
X76463692Y-114158237D01*
X76482955Y-114174045D01*
X76498763Y-114193308D01*
X76510509Y-114215284D01*
X76517743Y-114239132D01*
X76520800Y-114270165D01*
X76520800Y-115853835D01*
X76517743Y-115884868D01*
X76510509Y-115908716D01*
X76498763Y-115930692D01*
X76482955Y-115949955D01*
X76463692Y-115965763D01*
X76441716Y-115977509D01*
X76417868Y-115984743D01*
X76386835Y-115987800D01*
X75453165Y-115987800D01*
X75422132Y-115984743D01*
X75398284Y-115977509D01*
X75376308Y-115965763D01*
X75357045Y-115949955D01*
X75341237Y-115930692D01*
X75329491Y-115908716D01*
X75322257Y-115884868D01*
X75319200Y-115853835D01*
X75319200Y-114270165D01*
X75322257Y-114239132D01*
X75329491Y-114215284D01*
X75341237Y-114193308D01*
X75357045Y-114174045D01*
X75376308Y-114158237D01*
X75398284Y-114146491D01*
X75422132Y-114139257D01*
X75453165Y-114136200D01*
X76386835Y-114136200D01*
X76417868Y-114139257D01*
X76417868Y-114139257D01*
G37*
G36*
X79517868Y-114139257D02*
X79541716Y-114146491D01*
X79563692Y-114158237D01*
X79582955Y-114174045D01*
X79598763Y-114193308D01*
X79610509Y-114215284D01*
X79617743Y-114239132D01*
X79620800Y-114270165D01*
X79620800Y-115853835D01*
X79617743Y-115884868D01*
X79610509Y-115908716D01*
X79598763Y-115930692D01*
X79582955Y-115949955D01*
X79563692Y-115965763D01*
X79541716Y-115977509D01*
X79517868Y-115984743D01*
X79486835Y-115987800D01*
X78553165Y-115987800D01*
X78522132Y-115984743D01*
X78498284Y-115977509D01*
X78476308Y-115965763D01*
X78457045Y-115949955D01*
X78441237Y-115930692D01*
X78429491Y-115908716D01*
X78422257Y-115884868D01*
X78419200Y-115853835D01*
X78419200Y-114270165D01*
X78422257Y-114239132D01*
X78429491Y-114215284D01*
X78441237Y-114193308D01*
X78457045Y-114174045D01*
X78476308Y-114158237D01*
X78498284Y-114146491D01*
X78522132Y-114139257D01*
X78553165Y-114136200D01*
X79486835Y-114136200D01*
X79517868Y-114139257D01*
X79517868Y-114139257D01*
G37*
G36*
X190052868Y-114692257D02*
X190076716Y-114699491D01*
X190098692Y-114711237D01*
X190117955Y-114727045D01*
X190133763Y-114746308D01*
X190145509Y-114768284D01*
X190152743Y-114792132D01*
X190155800Y-114823165D01*
X190155800Y-115756835D01*
X190152743Y-115787868D01*
X190145509Y-115811716D01*
X190133763Y-115833692D01*
X190117955Y-115852955D01*
X190098692Y-115868763D01*
X190076716Y-115880509D01*
X190052868Y-115887743D01*
X190021835Y-115890800D01*
X188438165Y-115890800D01*
X188407132Y-115887743D01*
X188383284Y-115880509D01*
X188361308Y-115868763D01*
X188342045Y-115852955D01*
X188326237Y-115833692D01*
X188314491Y-115811716D01*
X188307257Y-115787868D01*
X188304200Y-115756835D01*
X188304200Y-114823165D01*
X188307257Y-114792132D01*
X188314491Y-114768284D01*
X188326237Y-114746308D01*
X188342045Y-114727045D01*
X188361308Y-114711237D01*
X188383284Y-114699491D01*
X188407132Y-114692257D01*
X188438165Y-114689200D01*
X190021835Y-114689200D01*
X190052868Y-114692257D01*
X190052868Y-114692257D01*
G37*
G36*
X84547450Y-114315650D02*
X84584919Y-114327016D01*
X84619436Y-114345467D01*
X84649698Y-114370302D01*
X84674533Y-114400564D01*
X84692984Y-114435081D01*
X84704350Y-114472550D01*
X84708800Y-114517737D01*
X84708800Y-115606263D01*
X84704350Y-115651450D01*
X84692984Y-115688919D01*
X84674533Y-115723436D01*
X84649698Y-115753698D01*
X84619436Y-115778533D01*
X84584919Y-115796984D01*
X84547450Y-115808350D01*
X84502263Y-115812800D01*
X83663737Y-115812800D01*
X83618550Y-115808350D01*
X83581081Y-115796984D01*
X83546564Y-115778533D01*
X83516302Y-115753698D01*
X83491467Y-115723436D01*
X83473016Y-115688919D01*
X83461650Y-115651450D01*
X83457200Y-115606263D01*
X83457200Y-114517737D01*
X83461650Y-114472550D01*
X83473016Y-114435081D01*
X83491467Y-114400564D01*
X83516302Y-114370302D01*
X83546564Y-114345467D01*
X83581081Y-114327016D01*
X83618550Y-114315650D01*
X83663737Y-114311200D01*
X84502263Y-114311200D01*
X84547450Y-114315650D01*
X84547450Y-114315650D01*
G37*
G36*
X82497450Y-114315650D02*
X82534919Y-114327016D01*
X82569436Y-114345467D01*
X82599698Y-114370302D01*
X82624533Y-114400564D01*
X82642984Y-114435081D01*
X82654350Y-114472550D01*
X82658800Y-114517737D01*
X82658800Y-115606263D01*
X82654350Y-115651450D01*
X82642984Y-115688919D01*
X82624533Y-115723436D01*
X82599698Y-115753698D01*
X82569436Y-115778533D01*
X82534919Y-115796984D01*
X82497450Y-115808350D01*
X82452263Y-115812800D01*
X81613737Y-115812800D01*
X81568550Y-115808350D01*
X81531081Y-115796984D01*
X81496564Y-115778533D01*
X81466302Y-115753698D01*
X81441467Y-115723436D01*
X81423016Y-115688919D01*
X81411650Y-115651450D01*
X81407200Y-115606263D01*
X81407200Y-114517737D01*
X81411650Y-114472550D01*
X81423016Y-114435081D01*
X81441467Y-114400564D01*
X81466302Y-114370302D01*
X81496564Y-114345467D01*
X81531081Y-114327016D01*
X81568550Y-114315650D01*
X81613737Y-114311200D01*
X82452263Y-114311200D01*
X82497450Y-114315650D01*
X82497450Y-114315650D01*
G37*
G36*
X173054800Y-115662800D02*
X171153200Y-115662800D01*
X171153200Y-114461200D01*
X173054800Y-114461200D01*
X173054800Y-115662800D01*
X173054800Y-115662800D01*
G37*
G36*
X119714800Y-115662800D02*
X117813200Y-115662800D01*
X117813200Y-114461200D01*
X119714800Y-114461200D01*
X119714800Y-115662800D01*
X119714800Y-115662800D01*
G37*
G36*
X117453992Y-113196354D02*
X117498324Y-113209801D01*
X117539175Y-113231637D01*
X117574979Y-113261021D01*
X117604363Y-113296825D01*
X117626199Y-113337676D01*
X117639646Y-113382008D01*
X117644800Y-113434334D01*
X117644800Y-114149666D01*
X117639646Y-114201992D01*
X117626199Y-114246324D01*
X117611228Y-114274332D01*
X117603456Y-114293096D01*
X117588028Y-114307079D01*
X117574979Y-114322979D01*
X117539175Y-114352363D01*
X117498324Y-114374199D01*
X117453992Y-114387646D01*
X117401666Y-114392800D01*
X115986334Y-114392800D01*
X115934008Y-114387646D01*
X115889676Y-114374199D01*
X115848825Y-114352363D01*
X115813021Y-114322979D01*
X115783637Y-114287175D01*
X115761801Y-114246324D01*
X115748354Y-114201992D01*
X115743200Y-114149666D01*
X115743200Y-113434334D01*
X115748354Y-113382008D01*
X115761801Y-113337676D01*
X115783637Y-113296825D01*
X115813021Y-113261021D01*
X115848825Y-113231637D01*
X115889676Y-113209801D01*
X115934008Y-113196354D01*
X115986334Y-113191200D01*
X117401666Y-113191200D01*
X117453992Y-113196354D01*
X117453992Y-113196354D01*
G37*
G36*
X170793992Y-113196354D02*
X170838324Y-113209801D01*
X170879175Y-113231637D01*
X170914979Y-113261021D01*
X170944363Y-113296825D01*
X170966199Y-113337676D01*
X170979646Y-113382008D01*
X170984800Y-113434334D01*
X170984800Y-114149666D01*
X170979646Y-114201992D01*
X170966199Y-114246324D01*
X170951228Y-114274332D01*
X170943456Y-114293096D01*
X170928028Y-114307079D01*
X170914979Y-114322979D01*
X170879175Y-114352363D01*
X170838324Y-114374199D01*
X170793992Y-114387646D01*
X170741666Y-114392800D01*
X169326334Y-114392800D01*
X169274008Y-114387646D01*
X169229676Y-114374199D01*
X169188825Y-114352363D01*
X169153021Y-114322979D01*
X169123637Y-114287175D01*
X169101801Y-114246324D01*
X169088354Y-114201992D01*
X169083200Y-114149666D01*
X169083200Y-113434334D01*
X169088354Y-113382008D01*
X169101801Y-113337676D01*
X169123637Y-113296825D01*
X169153021Y-113261021D01*
X169188825Y-113231637D01*
X169229676Y-113209801D01*
X169274008Y-113196354D01*
X169326334Y-113191200D01*
X170741666Y-113191200D01*
X170793992Y-113196354D01*
X170793992Y-113196354D01*
G37*
G36*
X156987868Y-112107257D02*
X157011716Y-112114491D01*
X157033692Y-112126237D01*
X157052955Y-112142045D01*
X157068763Y-112161308D01*
X157080509Y-112183284D01*
X157087743Y-112207132D01*
X157090800Y-112238165D01*
X157090800Y-113821835D01*
X157087743Y-113852868D01*
X157080509Y-113876716D01*
X157068763Y-113898692D01*
X157052955Y-113917955D01*
X157033692Y-113933763D01*
X157011716Y-113945509D01*
X156987868Y-113952743D01*
X156956835Y-113955800D01*
X156023165Y-113955800D01*
X155992132Y-113952743D01*
X155968284Y-113945509D01*
X155946308Y-113933763D01*
X155927045Y-113917955D01*
X155911237Y-113898692D01*
X155899491Y-113876716D01*
X155892257Y-113852868D01*
X155889200Y-113821835D01*
X155889200Y-112238165D01*
X155892257Y-112207132D01*
X155899491Y-112183284D01*
X155911237Y-112161308D01*
X155927045Y-112142045D01*
X155946308Y-112126237D01*
X155968284Y-112114491D01*
X155992132Y-112107257D01*
X156023165Y-112104200D01*
X156956835Y-112104200D01*
X156987868Y-112107257D01*
X156987868Y-112107257D01*
G37*
G36*
X153887868Y-112107257D02*
X153911716Y-112114491D01*
X153933692Y-112126237D01*
X153952955Y-112142045D01*
X153968763Y-112161308D01*
X153980509Y-112183284D01*
X153987743Y-112207132D01*
X153990800Y-112238165D01*
X153990800Y-113821835D01*
X153987743Y-113852868D01*
X153980509Y-113876716D01*
X153968763Y-113898692D01*
X153952955Y-113917955D01*
X153933692Y-113933763D01*
X153911716Y-113945509D01*
X153887868Y-113952743D01*
X153856835Y-113955800D01*
X152923165Y-113955800D01*
X152892132Y-113952743D01*
X152868284Y-113945509D01*
X152846308Y-113933763D01*
X152827045Y-113917955D01*
X152811237Y-113898692D01*
X152799491Y-113876716D01*
X152792257Y-113852868D01*
X152789200Y-113821835D01*
X152789200Y-112238165D01*
X152792257Y-112207132D01*
X152799491Y-112183284D01*
X152811237Y-112161308D01*
X152827045Y-112142045D01*
X152846308Y-112126237D01*
X152868284Y-112114491D01*
X152892132Y-112107257D01*
X152923165Y-112104200D01*
X153856835Y-112104200D01*
X153887868Y-112107257D01*
X153887868Y-112107257D01*
G37*
G36*
X150703450Y-112417650D02*
X150740919Y-112429016D01*
X150775436Y-112447467D01*
X150805698Y-112472302D01*
X150830533Y-112502564D01*
X150848984Y-112537081D01*
X150860350Y-112574550D01*
X150864800Y-112619737D01*
X150864800Y-113458263D01*
X150860350Y-113503450D01*
X150848984Y-113540919D01*
X150830533Y-113575436D01*
X150805698Y-113605698D01*
X150775436Y-113630533D01*
X150740919Y-113648984D01*
X150703450Y-113660350D01*
X150658263Y-113664800D01*
X149569737Y-113664800D01*
X149524550Y-113660350D01*
X149487081Y-113648984D01*
X149452564Y-113630533D01*
X149422302Y-113605698D01*
X149397467Y-113575436D01*
X149379016Y-113540919D01*
X149367650Y-113503450D01*
X149363200Y-113458263D01*
X149363200Y-112619737D01*
X149367650Y-112574550D01*
X149379016Y-112537081D01*
X149397467Y-112502564D01*
X149422302Y-112472302D01*
X149452564Y-112447467D01*
X149487081Y-112429016D01*
X149524550Y-112417650D01*
X149569737Y-112413200D01*
X150658263Y-112413200D01*
X150703450Y-112417650D01*
X150703450Y-112417650D01*
G37*
G36*
X113958785Y-111683510D02*
X114119161Y-111732160D01*
X114266966Y-111811163D01*
X114396517Y-111917483D01*
X114502837Y-112047034D01*
X114581840Y-112194839D01*
X114630490Y-112355214D01*
X114646917Y-112522000D01*
X114630490Y-112688786D01*
X114581840Y-112849161D01*
X114502837Y-112996966D01*
X114396517Y-113126517D01*
X114266966Y-113232837D01*
X114119161Y-113311840D01*
X113958785Y-113360490D01*
X113833801Y-113372800D01*
X113750199Y-113372800D01*
X113625215Y-113360490D01*
X113464839Y-113311840D01*
X113317034Y-113232837D01*
X113187483Y-113126517D01*
X113081163Y-112996966D01*
X113002160Y-112849161D01*
X112953510Y-112688786D01*
X112937083Y-112522000D01*
X112953510Y-112355214D01*
X113002160Y-112194839D01*
X113081163Y-112047034D01*
X113187483Y-111917483D01*
X113317034Y-111811163D01*
X113464839Y-111732160D01*
X113625215Y-111683510D01*
X113750199Y-111671200D01*
X113833801Y-111671200D01*
X113958785Y-111683510D01*
X113958785Y-111683510D01*
G37*
G36*
X159760169Y-111703895D02*
X159915005Y-111768031D01*
X160054354Y-111861140D01*
X160172860Y-111979646D01*
X160265969Y-112118995D01*
X160330105Y-112273831D01*
X160362800Y-112438203D01*
X160362800Y-112605797D01*
X160330105Y-112770169D01*
X160265969Y-112925005D01*
X160172860Y-113064354D01*
X160054354Y-113182860D01*
X159915005Y-113275969D01*
X159760169Y-113340105D01*
X159595797Y-113372800D01*
X159428203Y-113372800D01*
X159263831Y-113340105D01*
X159108995Y-113275969D01*
X158969646Y-113182860D01*
X158851140Y-113064354D01*
X158758031Y-112925005D01*
X158693895Y-112770169D01*
X158661200Y-112605797D01*
X158661200Y-112438203D01*
X158693895Y-112273831D01*
X158758031Y-112118995D01*
X158851140Y-111979646D01*
X158969646Y-111861140D01*
X159108995Y-111768031D01*
X159263831Y-111703895D01*
X159428203Y-111671200D01*
X159595797Y-111671200D01*
X159760169Y-111703895D01*
X159760169Y-111703895D01*
G37*
G36*
X167298785Y-111683510D02*
X167459161Y-111732160D01*
X167606966Y-111811163D01*
X167736517Y-111917483D01*
X167842837Y-112047034D01*
X167921840Y-112194839D01*
X167970490Y-112355214D01*
X167986917Y-112522000D01*
X167970490Y-112688786D01*
X167921840Y-112849161D01*
X167842837Y-112996966D01*
X167736517Y-113126517D01*
X167606966Y-113232837D01*
X167459161Y-113311840D01*
X167298785Y-113360490D01*
X167173801Y-113372800D01*
X167090199Y-113372800D01*
X166965215Y-113360490D01*
X166804839Y-113311840D01*
X166657034Y-113232837D01*
X166527483Y-113126517D01*
X166421163Y-112996966D01*
X166342160Y-112849161D01*
X166293510Y-112688786D01*
X166277083Y-112522000D01*
X166293510Y-112355214D01*
X166342160Y-112194839D01*
X166421163Y-112047034D01*
X166527483Y-111917483D01*
X166657034Y-111811163D01*
X166804839Y-111732160D01*
X166965215Y-111683510D01*
X167090199Y-111671200D01*
X167173801Y-111671200D01*
X167298785Y-111683510D01*
X167298785Y-111683510D01*
G37*
G36*
X106420169Y-111703895D02*
X106575005Y-111768031D01*
X106714354Y-111861140D01*
X106832860Y-111979646D01*
X106925969Y-112118995D01*
X106990105Y-112273831D01*
X107022800Y-112438203D01*
X107022800Y-112605797D01*
X106990105Y-112770169D01*
X106925969Y-112925005D01*
X106832860Y-113064354D01*
X106714354Y-113182860D01*
X106575005Y-113275969D01*
X106420169Y-113340105D01*
X106255797Y-113372800D01*
X106088203Y-113372800D01*
X105923831Y-113340105D01*
X105768995Y-113275969D01*
X105629646Y-113182860D01*
X105511140Y-113064354D01*
X105418031Y-112925005D01*
X105353895Y-112770169D01*
X105321200Y-112605797D01*
X105321200Y-112438203D01*
X105353895Y-112273831D01*
X105418031Y-112118995D01*
X105511140Y-111979646D01*
X105629646Y-111861140D01*
X105768995Y-111768031D01*
X105923831Y-111703895D01*
X106088203Y-111671200D01*
X106255797Y-111671200D01*
X106420169Y-111703895D01*
X106420169Y-111703895D01*
G37*
G36*
X124033450Y-111909650D02*
X124070919Y-111921016D01*
X124105436Y-111939467D01*
X124135698Y-111964302D01*
X124160533Y-111994564D01*
X124178984Y-112029081D01*
X124190350Y-112066550D01*
X124194800Y-112111737D01*
X124194800Y-112950263D01*
X124190350Y-112995450D01*
X124178984Y-113032919D01*
X124160533Y-113067436D01*
X124135698Y-113097698D01*
X124105436Y-113122533D01*
X124070919Y-113140984D01*
X124033450Y-113152350D01*
X123988263Y-113156800D01*
X122899737Y-113156800D01*
X122854550Y-113152350D01*
X122817081Y-113140984D01*
X122782564Y-113122533D01*
X122752302Y-113097698D01*
X122727467Y-113067436D01*
X122709016Y-113032919D01*
X122697650Y-112995450D01*
X122693200Y-112950263D01*
X122693200Y-112111737D01*
X122697650Y-112066550D01*
X122709016Y-112029081D01*
X122727467Y-111994564D01*
X122752302Y-111964302D01*
X122782564Y-111939467D01*
X122817081Y-111921016D01*
X122854550Y-111909650D01*
X122899737Y-111905200D01*
X123988263Y-111905200D01*
X124033450Y-111909650D01*
X124033450Y-111909650D01*
G37*
G36*
X172863992Y-111926354D02*
X172908324Y-111939801D01*
X172949175Y-111961637D01*
X172984979Y-111991021D01*
X173014363Y-112026825D01*
X173036199Y-112067676D01*
X173049646Y-112112008D01*
X173054800Y-112164334D01*
X173054800Y-112879666D01*
X173049646Y-112931992D01*
X173036199Y-112976324D01*
X173014363Y-113017175D01*
X172984979Y-113052979D01*
X172949175Y-113082363D01*
X172908324Y-113104199D01*
X172863992Y-113117646D01*
X172811666Y-113122800D01*
X171396334Y-113122800D01*
X171344008Y-113117646D01*
X171299676Y-113104199D01*
X171258825Y-113082363D01*
X171223021Y-113052979D01*
X171193637Y-113017175D01*
X171171801Y-112976324D01*
X171158354Y-112931992D01*
X171153200Y-112879666D01*
X171153200Y-112164334D01*
X171158354Y-112112008D01*
X171171801Y-112067676D01*
X171193637Y-112026825D01*
X171223021Y-111991021D01*
X171258825Y-111961637D01*
X171299676Y-111939801D01*
X171344008Y-111926354D01*
X171396334Y-111921200D01*
X172811666Y-111921200D01*
X172863992Y-111926354D01*
X172863992Y-111926354D01*
G37*
G36*
X119523992Y-111926354D02*
X119568324Y-111939801D01*
X119609175Y-111961637D01*
X119644979Y-111991021D01*
X119674363Y-112026825D01*
X119696199Y-112067676D01*
X119709646Y-112112008D01*
X119714800Y-112164334D01*
X119714800Y-112879666D01*
X119709646Y-112931992D01*
X119696199Y-112976324D01*
X119674363Y-113017175D01*
X119644979Y-113052979D01*
X119609175Y-113082363D01*
X119568324Y-113104199D01*
X119523992Y-113117646D01*
X119471666Y-113122800D01*
X118056334Y-113122800D01*
X118004008Y-113117646D01*
X117959676Y-113104199D01*
X117918825Y-113082363D01*
X117883021Y-113052979D01*
X117853637Y-113017175D01*
X117831801Y-112976324D01*
X117818354Y-112931992D01*
X117813200Y-112879666D01*
X117813200Y-112164334D01*
X117818354Y-112112008D01*
X117831801Y-112067676D01*
X117853637Y-112026825D01*
X117883021Y-111991021D01*
X117918825Y-111961637D01*
X117959676Y-111939801D01*
X118004008Y-111926354D01*
X118056334Y-111921200D01*
X119471666Y-111921200D01*
X119523992Y-111926354D01*
X119523992Y-111926354D01*
G37*
G36*
X189819450Y-111655650D02*
X189856919Y-111667016D01*
X189891436Y-111685467D01*
X189921698Y-111710302D01*
X189946533Y-111740564D01*
X189964984Y-111775081D01*
X189976350Y-111812550D01*
X189980800Y-111857737D01*
X189980800Y-112696263D01*
X189976350Y-112741450D01*
X189964984Y-112778919D01*
X189946533Y-112813436D01*
X189921698Y-112843698D01*
X189891436Y-112868533D01*
X189856919Y-112886984D01*
X189819450Y-112898350D01*
X189774263Y-112902800D01*
X188685737Y-112902800D01*
X188640550Y-112898350D01*
X188603081Y-112886984D01*
X188568564Y-112868533D01*
X188538302Y-112843698D01*
X188513467Y-112813436D01*
X188495016Y-112778919D01*
X188483650Y-112741450D01*
X188479200Y-112696263D01*
X188479200Y-111857737D01*
X188483650Y-111812550D01*
X188495016Y-111775081D01*
X188513467Y-111740564D01*
X188538302Y-111710302D01*
X188568564Y-111685467D01*
X188603081Y-111667016D01*
X188640550Y-111655650D01*
X188685737Y-111651200D01*
X189774263Y-111651200D01*
X189819450Y-111655650D01*
X189819450Y-111655650D01*
G37*
G36*
X150703450Y-110367650D02*
X150740919Y-110379016D01*
X150775436Y-110397467D01*
X150805698Y-110422302D01*
X150830533Y-110452564D01*
X150848984Y-110487081D01*
X150860350Y-110524550D01*
X150864800Y-110569737D01*
X150864800Y-111408263D01*
X150860350Y-111453450D01*
X150848984Y-111490919D01*
X150830533Y-111525436D01*
X150805698Y-111555698D01*
X150775436Y-111580533D01*
X150740919Y-111598984D01*
X150703450Y-111610350D01*
X150658263Y-111614800D01*
X149569737Y-111614800D01*
X149524550Y-111610350D01*
X149487081Y-111598984D01*
X149452564Y-111580533D01*
X149422302Y-111555698D01*
X149397467Y-111525436D01*
X149379016Y-111490919D01*
X149367650Y-111453450D01*
X149363200Y-111408263D01*
X149363200Y-110569737D01*
X149367650Y-110524550D01*
X149379016Y-110487081D01*
X149397467Y-110452564D01*
X149422302Y-110422302D01*
X149452564Y-110397467D01*
X149487081Y-110379016D01*
X149524550Y-110367650D01*
X149569737Y-110363200D01*
X150658263Y-110363200D01*
X150703450Y-110367650D01*
X150703450Y-110367650D01*
G37*
G36*
X140710169Y-109925895D02*
X140865005Y-109990031D01*
X141004354Y-110083140D01*
X141122860Y-110201646D01*
X141215969Y-110340995D01*
X141280105Y-110495831D01*
X141312800Y-110660203D01*
X141312800Y-110827797D01*
X141280105Y-110992169D01*
X141215969Y-111147005D01*
X141122860Y-111286354D01*
X141004354Y-111404860D01*
X140865005Y-111497969D01*
X140710169Y-111562105D01*
X140545797Y-111594800D01*
X140378203Y-111594800D01*
X140213831Y-111562105D01*
X140058995Y-111497969D01*
X139919646Y-111404860D01*
X139801140Y-111286354D01*
X139708031Y-111147005D01*
X139643895Y-110992169D01*
X139611200Y-110827797D01*
X139611200Y-110660203D01*
X139643895Y-110495831D01*
X139708031Y-110340995D01*
X139801140Y-110201646D01*
X139919646Y-110083140D01*
X140058995Y-109990031D01*
X140213831Y-109925895D01*
X140378203Y-109893200D01*
X140545797Y-109893200D01*
X140710169Y-109925895D01*
X140710169Y-109925895D01*
G37*
G36*
X133008785Y-109905510D02*
X133169161Y-109954160D01*
X133316966Y-110033163D01*
X133446517Y-110139483D01*
X133552837Y-110269034D01*
X133631840Y-110416839D01*
X133680490Y-110577214D01*
X133696917Y-110744000D01*
X133680490Y-110910786D01*
X133631840Y-111071161D01*
X133552837Y-111218966D01*
X133446517Y-111348517D01*
X133316966Y-111454837D01*
X133169161Y-111533840D01*
X133008785Y-111582490D01*
X132883801Y-111594800D01*
X132800199Y-111594800D01*
X132675215Y-111582490D01*
X132514839Y-111533840D01*
X132367034Y-111454837D01*
X132237483Y-111348517D01*
X132131163Y-111218966D01*
X132052160Y-111071161D01*
X132003510Y-110910786D01*
X131987083Y-110744000D01*
X132003510Y-110577214D01*
X132052160Y-110416839D01*
X132131163Y-110269034D01*
X132237483Y-110139483D01*
X132367034Y-110033163D01*
X132514839Y-109954160D01*
X132675215Y-109905510D01*
X132800199Y-109893200D01*
X132883801Y-109893200D01*
X133008785Y-109905510D01*
X133008785Y-109905510D01*
G37*
G36*
X130317868Y-109567257D02*
X130341716Y-109574491D01*
X130363692Y-109586237D01*
X130382955Y-109602045D01*
X130398763Y-109621308D01*
X130410509Y-109643284D01*
X130417743Y-109667132D01*
X130420800Y-109698165D01*
X130420800Y-111281835D01*
X130417743Y-111312868D01*
X130410509Y-111336716D01*
X130398763Y-111358692D01*
X130382955Y-111377955D01*
X130363692Y-111393763D01*
X130341716Y-111405509D01*
X130317868Y-111412743D01*
X130286835Y-111415800D01*
X129353165Y-111415800D01*
X129322132Y-111412743D01*
X129298284Y-111405509D01*
X129276308Y-111393763D01*
X129257045Y-111377955D01*
X129241237Y-111358692D01*
X129229491Y-111336716D01*
X129222257Y-111312868D01*
X129219200Y-111281835D01*
X129219200Y-109698165D01*
X129222257Y-109667132D01*
X129229491Y-109643284D01*
X129241237Y-109621308D01*
X129257045Y-109602045D01*
X129276308Y-109586237D01*
X129298284Y-109574491D01*
X129322132Y-109567257D01*
X129353165Y-109564200D01*
X130286835Y-109564200D01*
X130317868Y-109567257D01*
X130317868Y-109567257D01*
G37*
G36*
X127217868Y-109567257D02*
X127241716Y-109574491D01*
X127263692Y-109586237D01*
X127282955Y-109602045D01*
X127298763Y-109621308D01*
X127310509Y-109643284D01*
X127317743Y-109667132D01*
X127320800Y-109698165D01*
X127320800Y-111281835D01*
X127317743Y-111312868D01*
X127310509Y-111336716D01*
X127298763Y-111358692D01*
X127282955Y-111377955D01*
X127263692Y-111393763D01*
X127241716Y-111405509D01*
X127217868Y-111412743D01*
X127186835Y-111415800D01*
X126253165Y-111415800D01*
X126222132Y-111412743D01*
X126198284Y-111405509D01*
X126176308Y-111393763D01*
X126157045Y-111377955D01*
X126141237Y-111358692D01*
X126129491Y-111336716D01*
X126122257Y-111312868D01*
X126119200Y-111281835D01*
X126119200Y-109698165D01*
X126122257Y-109667132D01*
X126129491Y-109643284D01*
X126141237Y-109621308D01*
X126157045Y-109602045D01*
X126176308Y-109586237D01*
X126198284Y-109574491D01*
X126222132Y-109567257D01*
X126253165Y-109564200D01*
X127186835Y-109564200D01*
X127217868Y-109567257D01*
X127217868Y-109567257D01*
G37*
G36*
X146384800Y-111344800D02*
X144483200Y-111344800D01*
X144483200Y-110143200D01*
X146384800Y-110143200D01*
X146384800Y-111344800D01*
X146384800Y-111344800D01*
G37*
G36*
X124033450Y-109859650D02*
X124070919Y-109871016D01*
X124105436Y-109889467D01*
X124135698Y-109914302D01*
X124160533Y-109944564D01*
X124178984Y-109979081D01*
X124190350Y-110016550D01*
X124194800Y-110061737D01*
X124194800Y-110900263D01*
X124190350Y-110945450D01*
X124178984Y-110982919D01*
X124160533Y-111017436D01*
X124135698Y-111047698D01*
X124105436Y-111072533D01*
X124070919Y-111090984D01*
X124033450Y-111102350D01*
X123988263Y-111106800D01*
X122899737Y-111106800D01*
X122854550Y-111102350D01*
X122817081Y-111090984D01*
X122782564Y-111072533D01*
X122752302Y-111047698D01*
X122727467Y-111017436D01*
X122709016Y-110982919D01*
X122697650Y-110945450D01*
X122693200Y-110900263D01*
X122693200Y-110061737D01*
X122697650Y-110016550D01*
X122709016Y-109979081D01*
X122727467Y-109944564D01*
X122752302Y-109914302D01*
X122782564Y-109889467D01*
X122817081Y-109871016D01*
X122854550Y-109859650D01*
X122899737Y-109855200D01*
X123988263Y-109855200D01*
X124033450Y-109859650D01*
X124033450Y-109859650D01*
G37*
G36*
X189819450Y-109605650D02*
X189856919Y-109617016D01*
X189891436Y-109635467D01*
X189921698Y-109660302D01*
X189946533Y-109690564D01*
X189964984Y-109725081D01*
X189976350Y-109762550D01*
X189980800Y-109807737D01*
X189980800Y-110646263D01*
X189976350Y-110691450D01*
X189964984Y-110728919D01*
X189946533Y-110763436D01*
X189921698Y-110793698D01*
X189891436Y-110818533D01*
X189856919Y-110836984D01*
X189819450Y-110848350D01*
X189774263Y-110852800D01*
X188685737Y-110852800D01*
X188640550Y-110848350D01*
X188603081Y-110836984D01*
X188568564Y-110818533D01*
X188538302Y-110793698D01*
X188513467Y-110763436D01*
X188495016Y-110728919D01*
X188483650Y-110691450D01*
X188479200Y-110646263D01*
X188479200Y-109807737D01*
X188483650Y-109762550D01*
X188495016Y-109725081D01*
X188513467Y-109690564D01*
X188538302Y-109660302D01*
X188568564Y-109635467D01*
X188603081Y-109617016D01*
X188640550Y-109605650D01*
X188685737Y-109601200D01*
X189774263Y-109601200D01*
X189819450Y-109605650D01*
X189819450Y-109605650D01*
G37*
G36*
X63412785Y-108889510D02*
X63573161Y-108938160D01*
X63720966Y-109017163D01*
X63850517Y-109123483D01*
X63956837Y-109253034D01*
X64035840Y-109400839D01*
X64084490Y-109561214D01*
X64100917Y-109728000D01*
X64084490Y-109894786D01*
X64035840Y-110055161D01*
X63956837Y-110202966D01*
X63850517Y-110332517D01*
X63720966Y-110438837D01*
X63573161Y-110517840D01*
X63412785Y-110566490D01*
X63287801Y-110578800D01*
X63204199Y-110578800D01*
X63079215Y-110566490D01*
X62918839Y-110517840D01*
X62771034Y-110438837D01*
X62641483Y-110332517D01*
X62535163Y-110202966D01*
X62456160Y-110055161D01*
X62407510Y-109894786D01*
X62391083Y-109728000D01*
X62407510Y-109561214D01*
X62456160Y-109400839D01*
X62535163Y-109253034D01*
X62641483Y-109123483D01*
X62771034Y-109017163D01*
X62918839Y-108938160D01*
X63079215Y-108889510D01*
X63204199Y-108877200D01*
X63287801Y-108877200D01*
X63412785Y-108889510D01*
X63412785Y-108889510D01*
G37*
G36*
X59938169Y-108909895D02*
X60093005Y-108974031D01*
X60232354Y-109067140D01*
X60350860Y-109185646D01*
X60443969Y-109324995D01*
X60508105Y-109479831D01*
X60540800Y-109644203D01*
X60540800Y-109811797D01*
X60508105Y-109976169D01*
X60443969Y-110131005D01*
X60350860Y-110270354D01*
X60232354Y-110388860D01*
X60093005Y-110481969D01*
X59938169Y-110546105D01*
X59773797Y-110578800D01*
X59606203Y-110578800D01*
X59441831Y-110546105D01*
X59286995Y-110481969D01*
X59147646Y-110388860D01*
X59029140Y-110270354D01*
X58936031Y-110131005D01*
X58871895Y-109976169D01*
X58839200Y-109811797D01*
X58839200Y-109644203D01*
X58871895Y-109479831D01*
X58936031Y-109324995D01*
X59029140Y-109185646D01*
X59147646Y-109067140D01*
X59286995Y-108974031D01*
X59441831Y-108909895D01*
X59606203Y-108877200D01*
X59773797Y-108877200D01*
X59938169Y-108909895D01*
X59938169Y-108909895D01*
G37*
G36*
X70524785Y-108889510D02*
X70685161Y-108938160D01*
X70832966Y-109017163D01*
X70962517Y-109123483D01*
X71068837Y-109253034D01*
X71147840Y-109400839D01*
X71196490Y-109561214D01*
X71212917Y-109728000D01*
X71196490Y-109894786D01*
X71147840Y-110055161D01*
X71068837Y-110202966D01*
X70962517Y-110332517D01*
X70832966Y-110438837D01*
X70685161Y-110517840D01*
X70524785Y-110566490D01*
X70399801Y-110578800D01*
X70316199Y-110578800D01*
X70191215Y-110566490D01*
X70030839Y-110517840D01*
X69883034Y-110438837D01*
X69753483Y-110332517D01*
X69647163Y-110202966D01*
X69568160Y-110055161D01*
X69519510Y-109894786D01*
X69503083Y-109728000D01*
X69519510Y-109561214D01*
X69568160Y-109400839D01*
X69647163Y-109253034D01*
X69753483Y-109123483D01*
X69883034Y-109017163D01*
X70030839Y-108938160D01*
X70191215Y-108889510D01*
X70316199Y-108877200D01*
X70399801Y-108877200D01*
X70524785Y-108889510D01*
X70524785Y-108889510D01*
G37*
G36*
X67050169Y-108909895D02*
X67205005Y-108974031D01*
X67344354Y-109067140D01*
X67462860Y-109185646D01*
X67555969Y-109324995D01*
X67620105Y-109479831D01*
X67652800Y-109644203D01*
X67652800Y-109811797D01*
X67620105Y-109976169D01*
X67555969Y-110131005D01*
X67462860Y-110270354D01*
X67344354Y-110388860D01*
X67205005Y-110481969D01*
X67050169Y-110546105D01*
X66885797Y-110578800D01*
X66718203Y-110578800D01*
X66553831Y-110546105D01*
X66398995Y-110481969D01*
X66259646Y-110388860D01*
X66141140Y-110270354D01*
X66048031Y-110131005D01*
X65983895Y-109976169D01*
X65951200Y-109811797D01*
X65951200Y-109644203D01*
X65983895Y-109479831D01*
X66048031Y-109324995D01*
X66141140Y-109185646D01*
X66259646Y-109067140D01*
X66398995Y-108974031D01*
X66553831Y-108909895D01*
X66718203Y-108877200D01*
X66885797Y-108877200D01*
X67050169Y-108909895D01*
X67050169Y-108909895D01*
G37*
G36*
X144123992Y-108878354D02*
X144168324Y-108891801D01*
X144209175Y-108913637D01*
X144244979Y-108943021D01*
X144274363Y-108978825D01*
X144296199Y-109019676D01*
X144309646Y-109064008D01*
X144314800Y-109116334D01*
X144314800Y-109831666D01*
X144309646Y-109883992D01*
X144296199Y-109928324D01*
X144281228Y-109956332D01*
X144273456Y-109975096D01*
X144258028Y-109989079D01*
X144244979Y-110004979D01*
X144209175Y-110034363D01*
X144168324Y-110056199D01*
X144123992Y-110069646D01*
X144071666Y-110074800D01*
X142656334Y-110074800D01*
X142604008Y-110069646D01*
X142559676Y-110056199D01*
X142518825Y-110034363D01*
X142483021Y-110004979D01*
X142453637Y-109969175D01*
X142431801Y-109928324D01*
X142418354Y-109883992D01*
X142413200Y-109831666D01*
X142413200Y-109116334D01*
X142418354Y-109064008D01*
X142431801Y-109019676D01*
X142453637Y-108978825D01*
X142483021Y-108943021D01*
X142518825Y-108913637D01*
X142559676Y-108891801D01*
X142604008Y-108878354D01*
X142656334Y-108873200D01*
X144071666Y-108873200D01*
X144123992Y-108878354D01*
X144123992Y-108878354D01*
G37*
G36*
X100547868Y-107281257D02*
X100571716Y-107288491D01*
X100593692Y-107300237D01*
X100612955Y-107316045D01*
X100628763Y-107335308D01*
X100640509Y-107357284D01*
X100647743Y-107381132D01*
X100650800Y-107412165D01*
X100650800Y-108995835D01*
X100647743Y-109026868D01*
X100640509Y-109050716D01*
X100628763Y-109072692D01*
X100612955Y-109091955D01*
X100593692Y-109107763D01*
X100571716Y-109119509D01*
X100547868Y-109126743D01*
X100516835Y-109129800D01*
X99583165Y-109129800D01*
X99552132Y-109126743D01*
X99528284Y-109119509D01*
X99506308Y-109107763D01*
X99487045Y-109091955D01*
X99471237Y-109072692D01*
X99459491Y-109050716D01*
X99452257Y-109026868D01*
X99449200Y-108995835D01*
X99449200Y-107412165D01*
X99452257Y-107381132D01*
X99459491Y-107357284D01*
X99471237Y-107335308D01*
X99487045Y-107316045D01*
X99506308Y-107300237D01*
X99528284Y-107288491D01*
X99552132Y-107281257D01*
X99583165Y-107278200D01*
X100516835Y-107278200D01*
X100547868Y-107281257D01*
X100547868Y-107281257D01*
G37*
G36*
X103647868Y-107281257D02*
X103671716Y-107288491D01*
X103693692Y-107300237D01*
X103712955Y-107316045D01*
X103728763Y-107335308D01*
X103740509Y-107357284D01*
X103747743Y-107381132D01*
X103750800Y-107412165D01*
X103750800Y-108995835D01*
X103747743Y-109026868D01*
X103740509Y-109050716D01*
X103728763Y-109072692D01*
X103712955Y-109091955D01*
X103693692Y-109107763D01*
X103671716Y-109119509D01*
X103647868Y-109126743D01*
X103616835Y-109129800D01*
X102683165Y-109129800D01*
X102652132Y-109126743D01*
X102628284Y-109119509D01*
X102606308Y-109107763D01*
X102587045Y-109091955D01*
X102571237Y-109072692D01*
X102559491Y-109050716D01*
X102552257Y-109026868D01*
X102549200Y-108995835D01*
X102549200Y-107412165D01*
X102552257Y-107381132D01*
X102559491Y-107357284D01*
X102571237Y-107335308D01*
X102587045Y-107316045D01*
X102606308Y-107300237D01*
X102628284Y-107288491D01*
X102652132Y-107281257D01*
X102683165Y-107278200D01*
X103616835Y-107278200D01*
X103647868Y-107281257D01*
X103647868Y-107281257D01*
G37*
G36*
X97492450Y-107457650D02*
X97529919Y-107469016D01*
X97564436Y-107487467D01*
X97594698Y-107512302D01*
X97619533Y-107542564D01*
X97637984Y-107577081D01*
X97649350Y-107614550D01*
X97653800Y-107659737D01*
X97653800Y-108748263D01*
X97649350Y-108793450D01*
X97637984Y-108830919D01*
X97619533Y-108865436D01*
X97594698Y-108895698D01*
X97564436Y-108920533D01*
X97529919Y-108938984D01*
X97492450Y-108950350D01*
X97447263Y-108954800D01*
X96608737Y-108954800D01*
X96563550Y-108950350D01*
X96526081Y-108938984D01*
X96491564Y-108920533D01*
X96461302Y-108895698D01*
X96436467Y-108865436D01*
X96418016Y-108830919D01*
X96406650Y-108793450D01*
X96402200Y-108748263D01*
X96402200Y-107659737D01*
X96406650Y-107614550D01*
X96418016Y-107577081D01*
X96436467Y-107542564D01*
X96461302Y-107512302D01*
X96491564Y-107487467D01*
X96526081Y-107469016D01*
X96563550Y-107457650D01*
X96608737Y-107453200D01*
X97447263Y-107453200D01*
X97492450Y-107457650D01*
X97492450Y-107457650D01*
G37*
G36*
X95442450Y-107457650D02*
X95479919Y-107469016D01*
X95514436Y-107487467D01*
X95544698Y-107512302D01*
X95569533Y-107542564D01*
X95587984Y-107577081D01*
X95599350Y-107614550D01*
X95603800Y-107659737D01*
X95603800Y-108748263D01*
X95599350Y-108793450D01*
X95587984Y-108830919D01*
X95569533Y-108865436D01*
X95544698Y-108895698D01*
X95514436Y-108920533D01*
X95479919Y-108938984D01*
X95442450Y-108950350D01*
X95397263Y-108954800D01*
X94558737Y-108954800D01*
X94513550Y-108950350D01*
X94476081Y-108938984D01*
X94441564Y-108920533D01*
X94411302Y-108895698D01*
X94386467Y-108865436D01*
X94368016Y-108830919D01*
X94356650Y-108793450D01*
X94352200Y-108748263D01*
X94352200Y-107659737D01*
X94356650Y-107614550D01*
X94368016Y-107577081D01*
X94386467Y-107542564D01*
X94411302Y-107512302D01*
X94441564Y-107487467D01*
X94476081Y-107469016D01*
X94513550Y-107457650D01*
X94558737Y-107453200D01*
X95397263Y-107453200D01*
X95442450Y-107457650D01*
X95442450Y-107457650D01*
G37*
G36*
X146193992Y-107608354D02*
X146238324Y-107621801D01*
X146279175Y-107643637D01*
X146314979Y-107673021D01*
X146344363Y-107708825D01*
X146366199Y-107749676D01*
X146379646Y-107794008D01*
X146384800Y-107846334D01*
X146384800Y-108561666D01*
X146379646Y-108613992D01*
X146366199Y-108658324D01*
X146344363Y-108699175D01*
X146314979Y-108734979D01*
X146279175Y-108764363D01*
X146238324Y-108786199D01*
X146193992Y-108799646D01*
X146141666Y-108804800D01*
X144726334Y-108804800D01*
X144674008Y-108799646D01*
X144629676Y-108786199D01*
X144588825Y-108764363D01*
X144553021Y-108734979D01*
X144523637Y-108699175D01*
X144501801Y-108658324D01*
X144488354Y-108613992D01*
X144483200Y-108561666D01*
X144483200Y-107846334D01*
X144488354Y-107794008D01*
X144501801Y-107749676D01*
X144523637Y-107708825D01*
X144553021Y-107673021D01*
X144588825Y-107643637D01*
X144629676Y-107621801D01*
X144674008Y-107608354D01*
X144726334Y-107603200D01*
X146141666Y-107603200D01*
X146193992Y-107608354D01*
X146193992Y-107608354D01*
G37*
G36*
X84275450Y-106695650D02*
X84312919Y-106707016D01*
X84347436Y-106725467D01*
X84377698Y-106750302D01*
X84402533Y-106780564D01*
X84420984Y-106815081D01*
X84432350Y-106852550D01*
X84436800Y-106897737D01*
X84436800Y-107986263D01*
X84432350Y-108031450D01*
X84420984Y-108068919D01*
X84402533Y-108103436D01*
X84377698Y-108133698D01*
X84347436Y-108158533D01*
X84312919Y-108176984D01*
X84275450Y-108188350D01*
X84230263Y-108192800D01*
X83391737Y-108192800D01*
X83346550Y-108188350D01*
X83309081Y-108176984D01*
X83274564Y-108158533D01*
X83244302Y-108133698D01*
X83219467Y-108103436D01*
X83201016Y-108068919D01*
X83189650Y-108031450D01*
X83185200Y-107986263D01*
X83185200Y-106897737D01*
X83189650Y-106852550D01*
X83201016Y-106815081D01*
X83219467Y-106780564D01*
X83244302Y-106750302D01*
X83274564Y-106725467D01*
X83309081Y-106707016D01*
X83346550Y-106695650D01*
X83391737Y-106691200D01*
X84230263Y-106691200D01*
X84275450Y-106695650D01*
X84275450Y-106695650D01*
G37*
G36*
X115263450Y-106695650D02*
X115300919Y-106707016D01*
X115335436Y-106725467D01*
X115365698Y-106750302D01*
X115390533Y-106780564D01*
X115408984Y-106815081D01*
X115420350Y-106852550D01*
X115424800Y-106897737D01*
X115424800Y-107986263D01*
X115420350Y-108031450D01*
X115408984Y-108068919D01*
X115390533Y-108103436D01*
X115365698Y-108133698D01*
X115335436Y-108158533D01*
X115300919Y-108176984D01*
X115263450Y-108188350D01*
X115218263Y-108192800D01*
X114379737Y-108192800D01*
X114334550Y-108188350D01*
X114297081Y-108176984D01*
X114262564Y-108158533D01*
X114232302Y-108133698D01*
X114207467Y-108103436D01*
X114189016Y-108068919D01*
X114177650Y-108031450D01*
X114173200Y-107986263D01*
X114173200Y-106897737D01*
X114177650Y-106852550D01*
X114189016Y-106815081D01*
X114207467Y-106780564D01*
X114232302Y-106750302D01*
X114262564Y-106725467D01*
X114297081Y-106707016D01*
X114334550Y-106695650D01*
X114379737Y-106691200D01*
X115218263Y-106691200D01*
X115263450Y-106695650D01*
X115263450Y-106695650D01*
G37*
G36*
X117313450Y-106695650D02*
X117350919Y-106707016D01*
X117385436Y-106725467D01*
X117415698Y-106750302D01*
X117440533Y-106780564D01*
X117458984Y-106815081D01*
X117470350Y-106852550D01*
X117474800Y-106897737D01*
X117474800Y-107986263D01*
X117470350Y-108031450D01*
X117458984Y-108068919D01*
X117440533Y-108103436D01*
X117415698Y-108133698D01*
X117385436Y-108158533D01*
X117350919Y-108176984D01*
X117313450Y-108188350D01*
X117268263Y-108192800D01*
X116429737Y-108192800D01*
X116384550Y-108188350D01*
X116347081Y-108176984D01*
X116312564Y-108158533D01*
X116282302Y-108133698D01*
X116257467Y-108103436D01*
X116239016Y-108068919D01*
X116227650Y-108031450D01*
X116223200Y-107986263D01*
X116223200Y-106897737D01*
X116227650Y-106852550D01*
X116239016Y-106815081D01*
X116257467Y-106780564D01*
X116282302Y-106750302D01*
X116312564Y-106725467D01*
X116347081Y-106707016D01*
X116384550Y-106695650D01*
X116429737Y-106691200D01*
X117268263Y-106691200D01*
X117313450Y-106695650D01*
X117313450Y-106695650D01*
G37*
G36*
X86325450Y-106695650D02*
X86362919Y-106707016D01*
X86397436Y-106725467D01*
X86427698Y-106750302D01*
X86452533Y-106780564D01*
X86470984Y-106815081D01*
X86482350Y-106852550D01*
X86486800Y-106897737D01*
X86486800Y-107986263D01*
X86482350Y-108031450D01*
X86470984Y-108068919D01*
X86452533Y-108103436D01*
X86427698Y-108133698D01*
X86397436Y-108158533D01*
X86362919Y-108176984D01*
X86325450Y-108188350D01*
X86280263Y-108192800D01*
X85441737Y-108192800D01*
X85396550Y-108188350D01*
X85359081Y-108176984D01*
X85324564Y-108158533D01*
X85294302Y-108133698D01*
X85269467Y-108103436D01*
X85251016Y-108068919D01*
X85239650Y-108031450D01*
X85235200Y-107986263D01*
X85235200Y-106897737D01*
X85239650Y-106852550D01*
X85251016Y-106815081D01*
X85269467Y-106780564D01*
X85294302Y-106750302D01*
X85324564Y-106725467D01*
X85359081Y-106707016D01*
X85396550Y-106695650D01*
X85441737Y-106691200D01*
X86280263Y-106691200D01*
X86325450Y-106695650D01*
X86325450Y-106695650D01*
G37*
G36*
X140710169Y-106369895D02*
X140865005Y-106434031D01*
X141004354Y-106527140D01*
X141122860Y-106645646D01*
X141215969Y-106784995D01*
X141280105Y-106939831D01*
X141312800Y-107104203D01*
X141312800Y-107271797D01*
X141280105Y-107436169D01*
X141215969Y-107591005D01*
X141122860Y-107730354D01*
X141004354Y-107848860D01*
X140865005Y-107941969D01*
X140710169Y-108006105D01*
X140545797Y-108038800D01*
X140378203Y-108038800D01*
X140213831Y-108006105D01*
X140058995Y-107941969D01*
X139919646Y-107848860D01*
X139801140Y-107730354D01*
X139708031Y-107591005D01*
X139643895Y-107436169D01*
X139611200Y-107271797D01*
X139611200Y-107104203D01*
X139643895Y-106939831D01*
X139708031Y-106784995D01*
X139801140Y-106645646D01*
X139919646Y-106527140D01*
X140058995Y-106434031D01*
X140213831Y-106369895D01*
X140378203Y-106337200D01*
X140545797Y-106337200D01*
X140710169Y-106369895D01*
X140710169Y-106369895D01*
G37*
G36*
X133008785Y-106349510D02*
X133169161Y-106398160D01*
X133316966Y-106477163D01*
X133446517Y-106583483D01*
X133552837Y-106713034D01*
X133631840Y-106860839D01*
X133680490Y-107021214D01*
X133696917Y-107188000D01*
X133680490Y-107354786D01*
X133631840Y-107515161D01*
X133552837Y-107662966D01*
X133446517Y-107792517D01*
X133316966Y-107898837D01*
X133169161Y-107977840D01*
X133008785Y-108026490D01*
X132883801Y-108038800D01*
X132800199Y-108038800D01*
X132675215Y-108026490D01*
X132514839Y-107977840D01*
X132367034Y-107898837D01*
X132237483Y-107792517D01*
X132131163Y-107662966D01*
X132052160Y-107515161D01*
X132003510Y-107354786D01*
X131987083Y-107188000D01*
X132003510Y-107021214D01*
X132052160Y-106860839D01*
X132131163Y-106713034D01*
X132237483Y-106583483D01*
X132367034Y-106477163D01*
X132514839Y-106398160D01*
X132675215Y-106349510D01*
X132800199Y-106337200D01*
X132883801Y-106337200D01*
X133008785Y-106349510D01*
X133008785Y-106349510D01*
G37*
G36*
X156987868Y-105757257D02*
X157011716Y-105764491D01*
X157033692Y-105776237D01*
X157052955Y-105792045D01*
X157068763Y-105811308D01*
X157080509Y-105833284D01*
X157087743Y-105857132D01*
X157090800Y-105888165D01*
X157090800Y-107471835D01*
X157087743Y-107502868D01*
X157080509Y-107526716D01*
X157068763Y-107548692D01*
X157052955Y-107567955D01*
X157033692Y-107583763D01*
X157011716Y-107595509D01*
X156987868Y-107602743D01*
X156956835Y-107605800D01*
X156023165Y-107605800D01*
X155992132Y-107602743D01*
X155968284Y-107595509D01*
X155946308Y-107583763D01*
X155927045Y-107567955D01*
X155911237Y-107548692D01*
X155899491Y-107526716D01*
X155892257Y-107502868D01*
X155889200Y-107471835D01*
X155889200Y-105888165D01*
X155892257Y-105857132D01*
X155899491Y-105833284D01*
X155911237Y-105811308D01*
X155927045Y-105792045D01*
X155946308Y-105776237D01*
X155968284Y-105764491D01*
X155992132Y-105757257D01*
X156023165Y-105754200D01*
X156956835Y-105754200D01*
X156987868Y-105757257D01*
X156987868Y-105757257D01*
G37*
G36*
X153887868Y-105757257D02*
X153911716Y-105764491D01*
X153933692Y-105776237D01*
X153952955Y-105792045D01*
X153968763Y-105811308D01*
X153980509Y-105833284D01*
X153987743Y-105857132D01*
X153990800Y-105888165D01*
X153990800Y-107471835D01*
X153987743Y-107502868D01*
X153980509Y-107526716D01*
X153968763Y-107548692D01*
X153952955Y-107567955D01*
X153933692Y-107583763D01*
X153911716Y-107595509D01*
X153887868Y-107602743D01*
X153856835Y-107605800D01*
X152923165Y-107605800D01*
X152892132Y-107602743D01*
X152868284Y-107595509D01*
X152846308Y-107583763D01*
X152827045Y-107567955D01*
X152811237Y-107548692D01*
X152799491Y-107526716D01*
X152792257Y-107502868D01*
X152789200Y-107471835D01*
X152789200Y-105888165D01*
X152792257Y-105857132D01*
X152799491Y-105833284D01*
X152811237Y-105811308D01*
X152827045Y-105792045D01*
X152846308Y-105776237D01*
X152868284Y-105764491D01*
X152892132Y-105757257D01*
X152923165Y-105754200D01*
X153856835Y-105754200D01*
X153887868Y-105757257D01*
X153887868Y-105757257D01*
G37*
G36*
X150703450Y-106067650D02*
X150740919Y-106079016D01*
X150775436Y-106097467D01*
X150805698Y-106122302D01*
X150830533Y-106152564D01*
X150848984Y-106187081D01*
X150860350Y-106224550D01*
X150864800Y-106269737D01*
X150864800Y-107108263D01*
X150860350Y-107153450D01*
X150848984Y-107190919D01*
X150830533Y-107225436D01*
X150805698Y-107255698D01*
X150775436Y-107280533D01*
X150740919Y-107298984D01*
X150703450Y-107310350D01*
X150658263Y-107314800D01*
X149569737Y-107314800D01*
X149524550Y-107310350D01*
X149487081Y-107298984D01*
X149452564Y-107280533D01*
X149422302Y-107255698D01*
X149397467Y-107225436D01*
X149379016Y-107190919D01*
X149367650Y-107153450D01*
X149363200Y-107108263D01*
X149363200Y-106269737D01*
X149367650Y-106224550D01*
X149379016Y-106187081D01*
X149397467Y-106152564D01*
X149422302Y-106122302D01*
X149452564Y-106097467D01*
X149487081Y-106079016D01*
X149524550Y-106067650D01*
X149569737Y-106063200D01*
X150658263Y-106063200D01*
X150703450Y-106067650D01*
X150703450Y-106067650D01*
G37*
G36*
X121239450Y-105051650D02*
X121276919Y-105063016D01*
X121311436Y-105081467D01*
X121341698Y-105106302D01*
X121366533Y-105136564D01*
X121384984Y-105171081D01*
X121396350Y-105208550D01*
X121400800Y-105253737D01*
X121400800Y-106092263D01*
X121396350Y-106137450D01*
X121384984Y-106174919D01*
X121366533Y-106209436D01*
X121341698Y-106239698D01*
X121311436Y-106264533D01*
X121276919Y-106282984D01*
X121239450Y-106294350D01*
X121194263Y-106298800D01*
X120105737Y-106298800D01*
X120060550Y-106294350D01*
X120023081Y-106282984D01*
X119988564Y-106264533D01*
X119958302Y-106239698D01*
X119933467Y-106209436D01*
X119915016Y-106174919D01*
X119903650Y-106137450D01*
X119899200Y-106092263D01*
X119899200Y-105253737D01*
X119903650Y-105208550D01*
X119915016Y-105171081D01*
X119933467Y-105136564D01*
X119958302Y-105106302D01*
X119988564Y-105081467D01*
X120023081Y-105063016D01*
X120060550Y-105051650D01*
X120105737Y-105047200D01*
X121194263Y-105047200D01*
X121239450Y-105051650D01*
X121239450Y-105051650D01*
G37*
G36*
X125992800Y-106048800D02*
X123991200Y-106048800D01*
X123991200Y-105147200D01*
X125992800Y-105147200D01*
X125992800Y-106048800D01*
X125992800Y-106048800D01*
G37*
G36*
X146384800Y-105502800D02*
X144483200Y-105502800D01*
X144483200Y-104301200D01*
X146384800Y-104301200D01*
X146384800Y-105502800D01*
X146384800Y-105502800D01*
G37*
G36*
X150703450Y-104017650D02*
X150740919Y-104029016D01*
X150775436Y-104047467D01*
X150805698Y-104072302D01*
X150830533Y-104102564D01*
X150848984Y-104137081D01*
X150860350Y-104174550D01*
X150864800Y-104219737D01*
X150864800Y-105058263D01*
X150860350Y-105103450D01*
X150848984Y-105140919D01*
X150830533Y-105175436D01*
X150805698Y-105205698D01*
X150775436Y-105230533D01*
X150740919Y-105248984D01*
X150703450Y-105260350D01*
X150658263Y-105264800D01*
X149569737Y-105264800D01*
X149524550Y-105260350D01*
X149487081Y-105248984D01*
X149452564Y-105230533D01*
X149422302Y-105205698D01*
X149397467Y-105175436D01*
X149379016Y-105140919D01*
X149367650Y-105103450D01*
X149363200Y-105058263D01*
X149363200Y-104219737D01*
X149367650Y-104174550D01*
X149379016Y-104137081D01*
X149397467Y-104102564D01*
X149422302Y-104072302D01*
X149452564Y-104047467D01*
X149487081Y-104029016D01*
X149524550Y-104017650D01*
X149569737Y-104013200D01*
X150658263Y-104013200D01*
X150703450Y-104017650D01*
X150703450Y-104017650D01*
G37*
G36*
X128992800Y-105098800D02*
X126991200Y-105098800D01*
X126991200Y-104197200D01*
X128992800Y-104197200D01*
X128992800Y-105098800D01*
X128992800Y-105098800D01*
G37*
G36*
X117662868Y-103822257D02*
X117686716Y-103829491D01*
X117708692Y-103841237D01*
X117727955Y-103857045D01*
X117743763Y-103876308D01*
X117755509Y-103898284D01*
X117762743Y-103922132D01*
X117765800Y-103953165D01*
X117765800Y-104886835D01*
X117762743Y-104917868D01*
X117755509Y-104941716D01*
X117743763Y-104963692D01*
X117727955Y-104982955D01*
X117708692Y-104998763D01*
X117686716Y-105010509D01*
X117662868Y-105017743D01*
X117631835Y-105020800D01*
X116048165Y-105020800D01*
X116017132Y-105017743D01*
X115993284Y-105010509D01*
X115971308Y-104998763D01*
X115952045Y-104982955D01*
X115936237Y-104963692D01*
X115924491Y-104941716D01*
X115917257Y-104917868D01*
X115914200Y-104886835D01*
X115914200Y-103953165D01*
X115917257Y-103922132D01*
X115924491Y-103898284D01*
X115936237Y-103876308D01*
X115952045Y-103857045D01*
X115971308Y-103841237D01*
X115993284Y-103829491D01*
X116017132Y-103822257D01*
X116048165Y-103819200D01*
X117631835Y-103819200D01*
X117662868Y-103822257D01*
X117662868Y-103822257D01*
G37*
G36*
X84642868Y-103822257D02*
X84666716Y-103829491D01*
X84688692Y-103841237D01*
X84707955Y-103857045D01*
X84723763Y-103876308D01*
X84735509Y-103898284D01*
X84742743Y-103922132D01*
X84745800Y-103953165D01*
X84745800Y-104886835D01*
X84742743Y-104917868D01*
X84735509Y-104941716D01*
X84723763Y-104963692D01*
X84707955Y-104982955D01*
X84688692Y-104998763D01*
X84666716Y-105010509D01*
X84642868Y-105017743D01*
X84611835Y-105020800D01*
X83028165Y-105020800D01*
X82997132Y-105017743D01*
X82973284Y-105010509D01*
X82951308Y-104998763D01*
X82932045Y-104982955D01*
X82916237Y-104963692D01*
X82904491Y-104941716D01*
X82897257Y-104917868D01*
X82894200Y-104886835D01*
X82894200Y-103953165D01*
X82897257Y-103922132D01*
X82904491Y-103898284D01*
X82916237Y-103876308D01*
X82932045Y-103857045D01*
X82951308Y-103841237D01*
X82973284Y-103829491D01*
X82997132Y-103822257D01*
X83028165Y-103819200D01*
X84611835Y-103819200D01*
X84642868Y-103822257D01*
X84642868Y-103822257D01*
G37*
G36*
X121239450Y-103001650D02*
X121276919Y-103013016D01*
X121311436Y-103031467D01*
X121341698Y-103056302D01*
X121366533Y-103086564D01*
X121384984Y-103121081D01*
X121396350Y-103158550D01*
X121400800Y-103203737D01*
X121400800Y-104042263D01*
X121396350Y-104087450D01*
X121384984Y-104124919D01*
X121366533Y-104159436D01*
X121341698Y-104189698D01*
X121311436Y-104214533D01*
X121276919Y-104232984D01*
X121239450Y-104244350D01*
X121194263Y-104248800D01*
X120105737Y-104248800D01*
X120060550Y-104244350D01*
X120023081Y-104232984D01*
X119988564Y-104214533D01*
X119958302Y-104189698D01*
X119933467Y-104159436D01*
X119915016Y-104124919D01*
X119903650Y-104087450D01*
X119899200Y-104042263D01*
X119899200Y-103203737D01*
X119903650Y-103158550D01*
X119915016Y-103121081D01*
X119933467Y-103086564D01*
X119958302Y-103056302D01*
X119988564Y-103031467D01*
X120023081Y-103013016D01*
X120060550Y-103001650D01*
X120105737Y-102997200D01*
X121194263Y-102997200D01*
X121239450Y-103001650D01*
X121239450Y-103001650D01*
G37*
G36*
X144123992Y-103036354D02*
X144168324Y-103049801D01*
X144209175Y-103071637D01*
X144244979Y-103101021D01*
X144274363Y-103136825D01*
X144296199Y-103177676D01*
X144309646Y-103222008D01*
X144314800Y-103274334D01*
X144314800Y-103989666D01*
X144309646Y-104041992D01*
X144296199Y-104086324D01*
X144281228Y-104114332D01*
X144273456Y-104133096D01*
X144258028Y-104147079D01*
X144244979Y-104162979D01*
X144209175Y-104192363D01*
X144168324Y-104214199D01*
X144123992Y-104227646D01*
X144071666Y-104232800D01*
X142656334Y-104232800D01*
X142604008Y-104227646D01*
X142559676Y-104214199D01*
X142518825Y-104192363D01*
X142483021Y-104162979D01*
X142453637Y-104127175D01*
X142431801Y-104086324D01*
X142418354Y-104041992D01*
X142413200Y-103989666D01*
X142413200Y-103274334D01*
X142418354Y-103222008D01*
X142431801Y-103177676D01*
X142453637Y-103136825D01*
X142483021Y-103101021D01*
X142518825Y-103071637D01*
X142559676Y-103049801D01*
X142604008Y-103036354D01*
X142656334Y-103031200D01*
X144071666Y-103031200D01*
X144123992Y-103036354D01*
X144123992Y-103036354D01*
G37*
G36*
X125992800Y-104148800D02*
X123991200Y-104148800D01*
X123991200Y-103247200D01*
X125992800Y-103247200D01*
X125992800Y-104148800D01*
X125992800Y-104148800D01*
G37*
G36*
X70067868Y-101947257D02*
X70091716Y-101954491D01*
X70113692Y-101966237D01*
X70132955Y-101982045D01*
X70148763Y-102001308D01*
X70160509Y-102023284D01*
X70167743Y-102047132D01*
X70170800Y-102078165D01*
X70170800Y-103661835D01*
X70167743Y-103692868D01*
X70160509Y-103716716D01*
X70148763Y-103738692D01*
X70132955Y-103757955D01*
X70113692Y-103773763D01*
X70091716Y-103785509D01*
X70067868Y-103792743D01*
X70036835Y-103795800D01*
X69103165Y-103795800D01*
X69072132Y-103792743D01*
X69048284Y-103785509D01*
X69026308Y-103773763D01*
X69007045Y-103757955D01*
X68991237Y-103738692D01*
X68979491Y-103716716D01*
X68972257Y-103692868D01*
X68969200Y-103661835D01*
X68969200Y-102078165D01*
X68972257Y-102047132D01*
X68979491Y-102023284D01*
X68991237Y-102001308D01*
X69007045Y-101982045D01*
X69026308Y-101966237D01*
X69048284Y-101954491D01*
X69072132Y-101947257D01*
X69103165Y-101944200D01*
X70036835Y-101944200D01*
X70067868Y-101947257D01*
X70067868Y-101947257D01*
G37*
G36*
X73167868Y-101947257D02*
X73191716Y-101954491D01*
X73213692Y-101966237D01*
X73232955Y-101982045D01*
X73248763Y-102001308D01*
X73260509Y-102023284D01*
X73267743Y-102047132D01*
X73270800Y-102078165D01*
X73270800Y-103661835D01*
X73267743Y-103692868D01*
X73260509Y-103716716D01*
X73248763Y-103738692D01*
X73232955Y-103757955D01*
X73213692Y-103773763D01*
X73191716Y-103785509D01*
X73167868Y-103792743D01*
X73136835Y-103795800D01*
X72203165Y-103795800D01*
X72172132Y-103792743D01*
X72148284Y-103785509D01*
X72126308Y-103773763D01*
X72107045Y-103757955D01*
X72091237Y-103738692D01*
X72079491Y-103716716D01*
X72072257Y-103692868D01*
X72069200Y-103661835D01*
X72069200Y-102078165D01*
X72072257Y-102047132D01*
X72079491Y-102023284D01*
X72091237Y-102001308D01*
X72107045Y-101982045D01*
X72126308Y-101966237D01*
X72148284Y-101954491D01*
X72172132Y-101947257D01*
X72203165Y-101944200D01*
X73136835Y-101944200D01*
X73167868Y-101947257D01*
X73167868Y-101947257D01*
G37*
G36*
X78197450Y-102123650D02*
X78234919Y-102135016D01*
X78269436Y-102153467D01*
X78299698Y-102178302D01*
X78324533Y-102208564D01*
X78342984Y-102243081D01*
X78354350Y-102280550D01*
X78358800Y-102325737D01*
X78358800Y-103414263D01*
X78354350Y-103459450D01*
X78342984Y-103496919D01*
X78324533Y-103531436D01*
X78299698Y-103561698D01*
X78269436Y-103586533D01*
X78234919Y-103604984D01*
X78197450Y-103616350D01*
X78152263Y-103620800D01*
X77313737Y-103620800D01*
X77268550Y-103616350D01*
X77231081Y-103604984D01*
X77196564Y-103586533D01*
X77166302Y-103561698D01*
X77141467Y-103531436D01*
X77123016Y-103496919D01*
X77111650Y-103459450D01*
X77107200Y-103414263D01*
X77107200Y-102325737D01*
X77111650Y-102280550D01*
X77123016Y-102243081D01*
X77141467Y-102208564D01*
X77166302Y-102178302D01*
X77196564Y-102153467D01*
X77231081Y-102135016D01*
X77268550Y-102123650D01*
X77313737Y-102119200D01*
X78152263Y-102119200D01*
X78197450Y-102123650D01*
X78197450Y-102123650D01*
G37*
G36*
X76147450Y-102123650D02*
X76184919Y-102135016D01*
X76219436Y-102153467D01*
X76249698Y-102178302D01*
X76274533Y-102208564D01*
X76292984Y-102243081D01*
X76304350Y-102280550D01*
X76308800Y-102325737D01*
X76308800Y-103414263D01*
X76304350Y-103459450D01*
X76292984Y-103496919D01*
X76274533Y-103531436D01*
X76249698Y-103561698D01*
X76219436Y-103586533D01*
X76184919Y-103604984D01*
X76147450Y-103616350D01*
X76102263Y-103620800D01*
X75263737Y-103620800D01*
X75218550Y-103616350D01*
X75181081Y-103604984D01*
X75146564Y-103586533D01*
X75116302Y-103561698D01*
X75091467Y-103531436D01*
X75073016Y-103496919D01*
X75061650Y-103459450D01*
X75057200Y-103414263D01*
X75057200Y-102325737D01*
X75061650Y-102280550D01*
X75073016Y-102243081D01*
X75091467Y-102208564D01*
X75116302Y-102178302D01*
X75146564Y-102153467D01*
X75181081Y-102135016D01*
X75218550Y-102123650D01*
X75263737Y-102119200D01*
X76102263Y-102119200D01*
X76147450Y-102123650D01*
X76147450Y-102123650D01*
G37*
G36*
X133090169Y-101543895D02*
X133245005Y-101608031D01*
X133384354Y-101701140D01*
X133502860Y-101819646D01*
X133595969Y-101958995D01*
X133660105Y-102113831D01*
X133692800Y-102278203D01*
X133692800Y-102445797D01*
X133660105Y-102610169D01*
X133595969Y-102765005D01*
X133502860Y-102904354D01*
X133384354Y-103022860D01*
X133245005Y-103115969D01*
X133090169Y-103180105D01*
X132925797Y-103212800D01*
X132758203Y-103212800D01*
X132593831Y-103180105D01*
X132438995Y-103115969D01*
X132299646Y-103022860D01*
X132181140Y-102904354D01*
X132088031Y-102765005D01*
X132023895Y-102610169D01*
X131991200Y-102445797D01*
X131991200Y-102278203D01*
X132023895Y-102113831D01*
X132088031Y-101958995D01*
X132181140Y-101819646D01*
X132299646Y-101701140D01*
X132438995Y-101608031D01*
X132593831Y-101543895D01*
X132758203Y-101511200D01*
X132925797Y-101511200D01*
X133090169Y-101543895D01*
X133090169Y-101543895D01*
G37*
G36*
X140628785Y-101523510D02*
X140789161Y-101572160D01*
X140936966Y-101651163D01*
X141066517Y-101757483D01*
X141172837Y-101887034D01*
X141251840Y-102034839D01*
X141300490Y-102195214D01*
X141316917Y-102362000D01*
X141300490Y-102528786D01*
X141251840Y-102689161D01*
X141172837Y-102836966D01*
X141066517Y-102966517D01*
X140936966Y-103072837D01*
X140789161Y-103151840D01*
X140628785Y-103200490D01*
X140503801Y-103212800D01*
X140420199Y-103212800D01*
X140295215Y-103200490D01*
X140134839Y-103151840D01*
X139987034Y-103072837D01*
X139857483Y-102966517D01*
X139751163Y-102836966D01*
X139672160Y-102689161D01*
X139623510Y-102528786D01*
X139607083Y-102362000D01*
X139623510Y-102195214D01*
X139672160Y-102034839D01*
X139751163Y-101887034D01*
X139857483Y-101757483D01*
X139987034Y-101651163D01*
X140134839Y-101572160D01*
X140295215Y-101523510D01*
X140420199Y-101511200D01*
X140503801Y-101511200D01*
X140628785Y-101523510D01*
X140628785Y-101523510D01*
G37*
G36*
X146193992Y-101766354D02*
X146238324Y-101779801D01*
X146279175Y-101801637D01*
X146314979Y-101831021D01*
X146344363Y-101866825D01*
X146366199Y-101907676D01*
X146379646Y-101952008D01*
X146384800Y-102004334D01*
X146384800Y-102719666D01*
X146379646Y-102771992D01*
X146366199Y-102816324D01*
X146344363Y-102857175D01*
X146314979Y-102892979D01*
X146279175Y-102922363D01*
X146238324Y-102944199D01*
X146193992Y-102957646D01*
X146141666Y-102962800D01*
X144726334Y-102962800D01*
X144674008Y-102957646D01*
X144629676Y-102944199D01*
X144588825Y-102922363D01*
X144553021Y-102892979D01*
X144523637Y-102857175D01*
X144501801Y-102816324D01*
X144488354Y-102771992D01*
X144483200Y-102719666D01*
X144483200Y-102004334D01*
X144488354Y-101952008D01*
X144501801Y-101907676D01*
X144523637Y-101866825D01*
X144553021Y-101831021D01*
X144588825Y-101801637D01*
X144629676Y-101779801D01*
X144674008Y-101766354D01*
X144726334Y-101761200D01*
X146141666Y-101761200D01*
X146193992Y-101766354D01*
X146193992Y-101766354D01*
G37*
G36*
X117662868Y-100722257D02*
X117686716Y-100729491D01*
X117708692Y-100741237D01*
X117727955Y-100757045D01*
X117743763Y-100776308D01*
X117755509Y-100798284D01*
X117762743Y-100822132D01*
X117765800Y-100853165D01*
X117765800Y-101786835D01*
X117762743Y-101817868D01*
X117755509Y-101841716D01*
X117743763Y-101863692D01*
X117727955Y-101882955D01*
X117708692Y-101898763D01*
X117686716Y-101910509D01*
X117662868Y-101917743D01*
X117631835Y-101920800D01*
X116048165Y-101920800D01*
X116017132Y-101917743D01*
X115993284Y-101910509D01*
X115971308Y-101898763D01*
X115952045Y-101882955D01*
X115936237Y-101863692D01*
X115924491Y-101841716D01*
X115917257Y-101817868D01*
X115914200Y-101786835D01*
X115914200Y-100853165D01*
X115917257Y-100822132D01*
X115924491Y-100798284D01*
X115936237Y-100776308D01*
X115952045Y-100757045D01*
X115971308Y-100741237D01*
X115993284Y-100729491D01*
X116017132Y-100722257D01*
X116048165Y-100719200D01*
X117631835Y-100719200D01*
X117662868Y-100722257D01*
X117662868Y-100722257D01*
G37*
G36*
X84642868Y-100722257D02*
X84666716Y-100729491D01*
X84688692Y-100741237D01*
X84707955Y-100757045D01*
X84723763Y-100776308D01*
X84735509Y-100798284D01*
X84742743Y-100822132D01*
X84745800Y-100853165D01*
X84745800Y-101786835D01*
X84742743Y-101817868D01*
X84735509Y-101841716D01*
X84723763Y-101863692D01*
X84707955Y-101882955D01*
X84688692Y-101898763D01*
X84666716Y-101910509D01*
X84642868Y-101917743D01*
X84611835Y-101920800D01*
X83028165Y-101920800D01*
X82997132Y-101917743D01*
X82973284Y-101910509D01*
X82951308Y-101898763D01*
X82932045Y-101882955D01*
X82916237Y-101863692D01*
X82904491Y-101841716D01*
X82897257Y-101817868D01*
X82894200Y-101786835D01*
X82894200Y-100853165D01*
X82897257Y-100822132D01*
X82904491Y-100798284D01*
X82916237Y-100776308D01*
X82932045Y-100757045D01*
X82951308Y-100741237D01*
X82973284Y-100729491D01*
X82997132Y-100722257D01*
X83028165Y-100719200D01*
X84611835Y-100719200D01*
X84642868Y-100722257D01*
X84642868Y-100722257D01*
G37*
G36*
X150703450Y-99971650D02*
X150740919Y-99983016D01*
X150775436Y-100001467D01*
X150805698Y-100026302D01*
X150830533Y-100056564D01*
X150848984Y-100091081D01*
X150860350Y-100128550D01*
X150864800Y-100173737D01*
X150864800Y-101012263D01*
X150860350Y-101057450D01*
X150848984Y-101094919D01*
X150830533Y-101129436D01*
X150805698Y-101159698D01*
X150775436Y-101184533D01*
X150740919Y-101202984D01*
X150703450Y-101214350D01*
X150658263Y-101218800D01*
X149569737Y-101218800D01*
X149524550Y-101214350D01*
X149487081Y-101202984D01*
X149452564Y-101184533D01*
X149422302Y-101159698D01*
X149397467Y-101129436D01*
X149379016Y-101094919D01*
X149367650Y-101057450D01*
X149363200Y-101012263D01*
X149363200Y-100173737D01*
X149367650Y-100128550D01*
X149379016Y-100091081D01*
X149397467Y-100056564D01*
X149422302Y-100026302D01*
X149452564Y-100001467D01*
X149487081Y-99983016D01*
X149524550Y-99971650D01*
X149569737Y-99967200D01*
X150658263Y-99967200D01*
X150703450Y-99971650D01*
X150703450Y-99971650D01*
G37*
G36*
X155456800Y-100968800D02*
X153455200Y-100968800D01*
X153455200Y-100067200D01*
X155456800Y-100067200D01*
X155456800Y-100968800D01*
X155456800Y-100968800D01*
G37*
G36*
X158456800Y-100018800D02*
X156455200Y-100018800D01*
X156455200Y-99117200D01*
X158456800Y-99117200D01*
X158456800Y-100018800D01*
X158456800Y-100018800D01*
G37*
G36*
X150703450Y-97921650D02*
X150740919Y-97933016D01*
X150775436Y-97951467D01*
X150805698Y-97976302D01*
X150830533Y-98006564D01*
X150848984Y-98041081D01*
X150860350Y-98078550D01*
X150864800Y-98123737D01*
X150864800Y-98962263D01*
X150860350Y-99007450D01*
X150848984Y-99044919D01*
X150830533Y-99079436D01*
X150805698Y-99109698D01*
X150775436Y-99134533D01*
X150740919Y-99152984D01*
X150703450Y-99164350D01*
X150658263Y-99168800D01*
X149569737Y-99168800D01*
X149524550Y-99164350D01*
X149487081Y-99152984D01*
X149452564Y-99134533D01*
X149422302Y-99109698D01*
X149397467Y-99079436D01*
X149379016Y-99044919D01*
X149367650Y-99007450D01*
X149363200Y-98962263D01*
X149363200Y-98123737D01*
X149367650Y-98078550D01*
X149379016Y-98041081D01*
X149397467Y-98006564D01*
X149422302Y-97976302D01*
X149452564Y-97951467D01*
X149487081Y-97933016D01*
X149524550Y-97921650D01*
X149569737Y-97917200D01*
X150658263Y-97917200D01*
X150703450Y-97921650D01*
X150703450Y-97921650D01*
G37*
G36*
X155456800Y-99068800D02*
X153455200Y-99068800D01*
X153455200Y-98167200D01*
X155456800Y-98167200D01*
X155456800Y-99068800D01*
X155456800Y-99068800D01*
G37*
G36*
X64450800Y-96200800D02*
X62549200Y-96200800D01*
X62549200Y-94299200D01*
X64450800Y-94299200D01*
X64450800Y-96200800D01*
X64450800Y-96200800D01*
G37*
G36*
X61237338Y-94335738D02*
X61410373Y-94407412D01*
X61566100Y-94511465D01*
X61698535Y-94643900D01*
X61802588Y-94799627D01*
X61874262Y-94972662D01*
X61910800Y-95156354D01*
X61910800Y-95343646D01*
X61874262Y-95527338D01*
X61802588Y-95700373D01*
X61698535Y-95856100D01*
X61566100Y-95988535D01*
X61410373Y-96092588D01*
X61237338Y-96164262D01*
X61053646Y-96200800D01*
X60866354Y-96200800D01*
X60682662Y-96164262D01*
X60509627Y-96092588D01*
X60353900Y-95988535D01*
X60221465Y-95856100D01*
X60117412Y-95700373D01*
X60045738Y-95527338D01*
X60009200Y-95343646D01*
X60009200Y-95156354D01*
X60045738Y-94972662D01*
X60117412Y-94799627D01*
X60221465Y-94643900D01*
X60353900Y-94511465D01*
X60509627Y-94407412D01*
X60682662Y-94335738D01*
X60866354Y-94299200D01*
X61053646Y-94299200D01*
X61237338Y-94335738D01*
X61237338Y-94335738D01*
G37*
G36*
X180252785Y-91363510D02*
X180413161Y-91412160D01*
X180560966Y-91491163D01*
X180690517Y-91597483D01*
X180796837Y-91727034D01*
X180875840Y-91874839D01*
X180924490Y-92035214D01*
X180940917Y-92202000D01*
X180924490Y-92368786D01*
X180875840Y-92529161D01*
X180796837Y-92676966D01*
X180690517Y-92806517D01*
X180560966Y-92912837D01*
X180413161Y-92991840D01*
X180252785Y-93040490D01*
X180127801Y-93052800D01*
X180044199Y-93052800D01*
X179919215Y-93040490D01*
X179758839Y-92991840D01*
X179611034Y-92912837D01*
X179481483Y-92806517D01*
X179375163Y-92676966D01*
X179296160Y-92529161D01*
X179247510Y-92368786D01*
X179231083Y-92202000D01*
X179247510Y-92035214D01*
X179296160Y-91874839D01*
X179375163Y-91727034D01*
X179481483Y-91597483D01*
X179611034Y-91491163D01*
X179758839Y-91412160D01*
X179919215Y-91363510D01*
X180044199Y-91351200D01*
X180127801Y-91351200D01*
X180252785Y-91363510D01*
X180252785Y-91363510D01*
G37*
G36*
X172714169Y-91383895D02*
X172869005Y-91448031D01*
X173008354Y-91541140D01*
X173126860Y-91659646D01*
X173219969Y-91798995D01*
X173284105Y-91953831D01*
X173316800Y-92118203D01*
X173316800Y-92285797D01*
X173284105Y-92450169D01*
X173219969Y-92605005D01*
X173126860Y-92744354D01*
X173008354Y-92862860D01*
X172869005Y-92955969D01*
X172714169Y-93020105D01*
X172549797Y-93052800D01*
X172382203Y-93052800D01*
X172217831Y-93020105D01*
X172062995Y-92955969D01*
X171923646Y-92862860D01*
X171805140Y-92744354D01*
X171712031Y-92605005D01*
X171647895Y-92450169D01*
X171615200Y-92285797D01*
X171615200Y-92118203D01*
X171647895Y-91953831D01*
X171712031Y-91798995D01*
X171805140Y-91659646D01*
X171923646Y-91541140D01*
X172062995Y-91448031D01*
X172217831Y-91383895D01*
X172382203Y-91351200D01*
X172549797Y-91351200D01*
X172714169Y-91383895D01*
X172714169Y-91383895D01*
G37*
G36*
X170260800Y-91786800D02*
X168359200Y-91786800D01*
X168359200Y-90585200D01*
X170260800Y-90585200D01*
X170260800Y-91786800D01*
X170260800Y-91786800D01*
G37*
G36*
X167999992Y-89320354D02*
X168044324Y-89333801D01*
X168085175Y-89355637D01*
X168120979Y-89385021D01*
X168150363Y-89420825D01*
X168172199Y-89461676D01*
X168185646Y-89506008D01*
X168190800Y-89558334D01*
X168190800Y-90273666D01*
X168185646Y-90325992D01*
X168172199Y-90370324D01*
X168157228Y-90398332D01*
X168149456Y-90417096D01*
X168134028Y-90431079D01*
X168120979Y-90446979D01*
X168085175Y-90476363D01*
X168044324Y-90498199D01*
X167999992Y-90511646D01*
X167947666Y-90516800D01*
X166532334Y-90516800D01*
X166480008Y-90511646D01*
X166435676Y-90498199D01*
X166394825Y-90476363D01*
X166359021Y-90446979D01*
X166329637Y-90411175D01*
X166307801Y-90370324D01*
X166294354Y-90325992D01*
X166289200Y-90273666D01*
X166289200Y-89558334D01*
X166294354Y-89506008D01*
X166307801Y-89461676D01*
X166329637Y-89420825D01*
X166359021Y-89385021D01*
X166394825Y-89355637D01*
X166435676Y-89333801D01*
X166480008Y-89320354D01*
X166532334Y-89315200D01*
X167947666Y-89315200D01*
X167999992Y-89320354D01*
X167999992Y-89320354D01*
G37*
G36*
X180334169Y-87827895D02*
X180489005Y-87892031D01*
X180628354Y-87985140D01*
X180746860Y-88103646D01*
X180839969Y-88242995D01*
X180904105Y-88397831D01*
X180936800Y-88562203D01*
X180936800Y-88729797D01*
X180904105Y-88894169D01*
X180839969Y-89049005D01*
X180746860Y-89188354D01*
X180628354Y-89306860D01*
X180489005Y-89399969D01*
X180334169Y-89464105D01*
X180169797Y-89496800D01*
X180002203Y-89496800D01*
X179837831Y-89464105D01*
X179682995Y-89399969D01*
X179543646Y-89306860D01*
X179425140Y-89188354D01*
X179332031Y-89049005D01*
X179267895Y-88894169D01*
X179235200Y-88729797D01*
X179235200Y-88562203D01*
X179267895Y-88397831D01*
X179332031Y-88242995D01*
X179425140Y-88103646D01*
X179543646Y-87985140D01*
X179682995Y-87892031D01*
X179837831Y-87827895D01*
X180002203Y-87795200D01*
X180169797Y-87795200D01*
X180334169Y-87827895D01*
X180334169Y-87827895D01*
G37*
G36*
X172632785Y-87807510D02*
X172793161Y-87856160D01*
X172940966Y-87935163D01*
X173070517Y-88041483D01*
X173176837Y-88171034D01*
X173255840Y-88318839D01*
X173304490Y-88479214D01*
X173320917Y-88646000D01*
X173304490Y-88812786D01*
X173255840Y-88973161D01*
X173176837Y-89120966D01*
X173070517Y-89250517D01*
X172940966Y-89356837D01*
X172793161Y-89435840D01*
X172632785Y-89484490D01*
X172507801Y-89496800D01*
X172424199Y-89496800D01*
X172299215Y-89484490D01*
X172138839Y-89435840D01*
X171991034Y-89356837D01*
X171861483Y-89250517D01*
X171755163Y-89120966D01*
X171676160Y-88973161D01*
X171627510Y-88812786D01*
X171611083Y-88646000D01*
X171627510Y-88479214D01*
X171676160Y-88318839D01*
X171755163Y-88171034D01*
X171861483Y-88041483D01*
X171991034Y-87935163D01*
X172138839Y-87856160D01*
X172299215Y-87807510D01*
X172424199Y-87795200D01*
X172507801Y-87795200D01*
X172632785Y-87807510D01*
X172632785Y-87807510D01*
G37*
G36*
X170069992Y-88050354D02*
X170114324Y-88063801D01*
X170155175Y-88085637D01*
X170190979Y-88115021D01*
X170220363Y-88150825D01*
X170242199Y-88191676D01*
X170255646Y-88236008D01*
X170260800Y-88288334D01*
X170260800Y-89003666D01*
X170255646Y-89055992D01*
X170242199Y-89100324D01*
X170220363Y-89141175D01*
X170190979Y-89176979D01*
X170155175Y-89206363D01*
X170114324Y-89228199D01*
X170069992Y-89241646D01*
X170017666Y-89246800D01*
X168602334Y-89246800D01*
X168550008Y-89241646D01*
X168505676Y-89228199D01*
X168464825Y-89206363D01*
X168429021Y-89176979D01*
X168399637Y-89141175D01*
X168377801Y-89100324D01*
X168364354Y-89055992D01*
X168359200Y-89003666D01*
X168359200Y-88288334D01*
X168364354Y-88236008D01*
X168377801Y-88191676D01*
X168399637Y-88150825D01*
X168429021Y-88115021D01*
X168464825Y-88085637D01*
X168505676Y-88063801D01*
X168550008Y-88050354D01*
X168602334Y-88045200D01*
X170017666Y-88045200D01*
X170069992Y-88050354D01*
X170069992Y-88050354D01*
G37*
G36*
X79517868Y-85437257D02*
X79541716Y-85444491D01*
X79563692Y-85456237D01*
X79582955Y-85472045D01*
X79598763Y-85491308D01*
X79610509Y-85513284D01*
X79617743Y-85537132D01*
X79620800Y-85568165D01*
X79620800Y-87151835D01*
X79617743Y-87182868D01*
X79610509Y-87206716D01*
X79598763Y-87228692D01*
X79582955Y-87247955D01*
X79563692Y-87263763D01*
X79541716Y-87275509D01*
X79517868Y-87282743D01*
X79486835Y-87285800D01*
X78553165Y-87285800D01*
X78522132Y-87282743D01*
X78498284Y-87275509D01*
X78476308Y-87263763D01*
X78457045Y-87247955D01*
X78441237Y-87228692D01*
X78429491Y-87206716D01*
X78422257Y-87182868D01*
X78419200Y-87151835D01*
X78419200Y-85568165D01*
X78422257Y-85537132D01*
X78429491Y-85513284D01*
X78441237Y-85491308D01*
X78457045Y-85472045D01*
X78476308Y-85456237D01*
X78498284Y-85444491D01*
X78522132Y-85437257D01*
X78553165Y-85434200D01*
X79486835Y-85434200D01*
X79517868Y-85437257D01*
X79517868Y-85437257D01*
G37*
G36*
X76417868Y-85437257D02*
X76441716Y-85444491D01*
X76463692Y-85456237D01*
X76482955Y-85472045D01*
X76498763Y-85491308D01*
X76510509Y-85513284D01*
X76517743Y-85537132D01*
X76520800Y-85568165D01*
X76520800Y-87151835D01*
X76517743Y-87182868D01*
X76510509Y-87206716D01*
X76498763Y-87228692D01*
X76482955Y-87247955D01*
X76463692Y-87263763D01*
X76441716Y-87275509D01*
X76417868Y-87282743D01*
X76386835Y-87285800D01*
X75453165Y-87285800D01*
X75422132Y-87282743D01*
X75398284Y-87275509D01*
X75376308Y-87263763D01*
X75357045Y-87247955D01*
X75341237Y-87228692D01*
X75329491Y-87206716D01*
X75322257Y-87182868D01*
X75319200Y-87151835D01*
X75319200Y-85568165D01*
X75322257Y-85537132D01*
X75329491Y-85513284D01*
X75341237Y-85491308D01*
X75357045Y-85472045D01*
X75376308Y-85456237D01*
X75398284Y-85444491D01*
X75422132Y-85437257D01*
X75453165Y-85434200D01*
X76386835Y-85434200D01*
X76417868Y-85437257D01*
X76417868Y-85437257D01*
G37*
G36*
X84547450Y-85613650D02*
X84584919Y-85625016D01*
X84619436Y-85643467D01*
X84649698Y-85668302D01*
X84674533Y-85698564D01*
X84692984Y-85733081D01*
X84704350Y-85770550D01*
X84708800Y-85815737D01*
X84708800Y-86904263D01*
X84704350Y-86949450D01*
X84692984Y-86986919D01*
X84674533Y-87021436D01*
X84649698Y-87051698D01*
X84619436Y-87076533D01*
X84584919Y-87094984D01*
X84547450Y-87106350D01*
X84502263Y-87110800D01*
X83663737Y-87110800D01*
X83618550Y-87106350D01*
X83581081Y-87094984D01*
X83546564Y-87076533D01*
X83516302Y-87051698D01*
X83491467Y-87021436D01*
X83473016Y-86986919D01*
X83461650Y-86949450D01*
X83457200Y-86904263D01*
X83457200Y-85815737D01*
X83461650Y-85770550D01*
X83473016Y-85733081D01*
X83491467Y-85698564D01*
X83516302Y-85668302D01*
X83546564Y-85643467D01*
X83581081Y-85625016D01*
X83618550Y-85613650D01*
X83663737Y-85609200D01*
X84502263Y-85609200D01*
X84547450Y-85613650D01*
X84547450Y-85613650D01*
G37*
G36*
X82497450Y-85613650D02*
X82534919Y-85625016D01*
X82569436Y-85643467D01*
X82599698Y-85668302D01*
X82624533Y-85698564D01*
X82642984Y-85733081D01*
X82654350Y-85770550D01*
X82658800Y-85815737D01*
X82658800Y-86904263D01*
X82654350Y-86949450D01*
X82642984Y-86986919D01*
X82624533Y-87021436D01*
X82599698Y-87051698D01*
X82569436Y-87076533D01*
X82534919Y-87094984D01*
X82497450Y-87106350D01*
X82452263Y-87110800D01*
X81613737Y-87110800D01*
X81568550Y-87106350D01*
X81531081Y-87094984D01*
X81496564Y-87076533D01*
X81466302Y-87051698D01*
X81441467Y-87021436D01*
X81423016Y-86986919D01*
X81411650Y-86949450D01*
X81407200Y-86904263D01*
X81407200Y-85815737D01*
X81411650Y-85770550D01*
X81423016Y-85733081D01*
X81441467Y-85698564D01*
X81466302Y-85668302D01*
X81496564Y-85643467D01*
X81531081Y-85625016D01*
X81568550Y-85613650D01*
X81613737Y-85609200D01*
X82452263Y-85609200D01*
X82497450Y-85613650D01*
X82497450Y-85613650D01*
G37*
G36*
X58653585Y-85081974D02*
X58799321Y-85142340D01*
X58930480Y-85229978D01*
X59042022Y-85341520D01*
X59129660Y-85472679D01*
X59190026Y-85618415D01*
X59220800Y-85773128D01*
X59220800Y-85930872D01*
X59190026Y-86085585D01*
X59129660Y-86231321D01*
X59042022Y-86362480D01*
X58930480Y-86474022D01*
X58799321Y-86561660D01*
X58653585Y-86622026D01*
X58498872Y-86652800D01*
X58341128Y-86652800D01*
X58186415Y-86622026D01*
X58040679Y-86561660D01*
X57909520Y-86474022D01*
X57797978Y-86362480D01*
X57710340Y-86231321D01*
X57649974Y-86085585D01*
X57619200Y-85930872D01*
X57619200Y-85773128D01*
X57649974Y-85618415D01*
X57710340Y-85472679D01*
X57797978Y-85341520D01*
X57909520Y-85229978D01*
X58040679Y-85142340D01*
X58186415Y-85081974D01*
X58341128Y-85051200D01*
X58498872Y-85051200D01*
X58653585Y-85081974D01*
X58653585Y-85081974D01*
G37*
G36*
X64300800Y-86652800D02*
X62699200Y-86652800D01*
X62699200Y-85051200D01*
X64300800Y-85051200D01*
X64300800Y-86652800D01*
X64300800Y-86652800D01*
G37*
G36*
X61193585Y-85081974D02*
X61339321Y-85142340D01*
X61470480Y-85229978D01*
X61582022Y-85341520D01*
X61669660Y-85472679D01*
X61730026Y-85618415D01*
X61760800Y-85773128D01*
X61760800Y-85930872D01*
X61730026Y-86085585D01*
X61669660Y-86231321D01*
X61582022Y-86362480D01*
X61470480Y-86474022D01*
X61339321Y-86561660D01*
X61193585Y-86622026D01*
X61038872Y-86652800D01*
X60881128Y-86652800D01*
X60726415Y-86622026D01*
X60580679Y-86561660D01*
X60449520Y-86474022D01*
X60337978Y-86362480D01*
X60250340Y-86231321D01*
X60189974Y-86085585D01*
X60159200Y-85930872D01*
X60159200Y-85773128D01*
X60189974Y-85618415D01*
X60250340Y-85472679D01*
X60337978Y-85341520D01*
X60449520Y-85229978D01*
X60580679Y-85142340D01*
X60726415Y-85081974D01*
X60881128Y-85051200D01*
X61038872Y-85051200D01*
X61193585Y-85081974D01*
X61193585Y-85081974D01*
G37*
G36*
X180252785Y-84251510D02*
X180413161Y-84300160D01*
X180560966Y-84379163D01*
X180690517Y-84485483D01*
X180796837Y-84615034D01*
X180875840Y-84762839D01*
X180924490Y-84923214D01*
X180940917Y-85090000D01*
X180924490Y-85256786D01*
X180875840Y-85417161D01*
X180796837Y-85564966D01*
X180690517Y-85694517D01*
X180560966Y-85800837D01*
X180413161Y-85879840D01*
X180252785Y-85928490D01*
X180127801Y-85940800D01*
X180044199Y-85940800D01*
X179919215Y-85928490D01*
X179758839Y-85879840D01*
X179611034Y-85800837D01*
X179481483Y-85694517D01*
X179375163Y-85564966D01*
X179296160Y-85417161D01*
X179247510Y-85256786D01*
X179231083Y-85090000D01*
X179247510Y-84923214D01*
X179296160Y-84762839D01*
X179375163Y-84615034D01*
X179481483Y-84485483D01*
X179611034Y-84379163D01*
X179758839Y-84300160D01*
X179919215Y-84251510D01*
X180044199Y-84239200D01*
X180127801Y-84239200D01*
X180252785Y-84251510D01*
X180252785Y-84251510D01*
G37*
G36*
X172714169Y-84271895D02*
X172869005Y-84336031D01*
X173008354Y-84429140D01*
X173126860Y-84547646D01*
X173219969Y-84686995D01*
X173284105Y-84841831D01*
X173316800Y-85006203D01*
X173316800Y-85173797D01*
X173284105Y-85338169D01*
X173219969Y-85493005D01*
X173126860Y-85632354D01*
X173008354Y-85750860D01*
X172869005Y-85843969D01*
X172714169Y-85908105D01*
X172549797Y-85940800D01*
X172382203Y-85940800D01*
X172217831Y-85908105D01*
X172062995Y-85843969D01*
X171923646Y-85750860D01*
X171805140Y-85632354D01*
X171712031Y-85493005D01*
X171647895Y-85338169D01*
X171615200Y-85173797D01*
X171615200Y-85006203D01*
X171647895Y-84841831D01*
X171712031Y-84686995D01*
X171805140Y-84547646D01*
X171923646Y-84429140D01*
X172062995Y-84336031D01*
X172217831Y-84271895D01*
X172382203Y-84239200D01*
X172549797Y-84239200D01*
X172714169Y-84271895D01*
X172714169Y-84271895D01*
G37*
G36*
X170260800Y-85690800D02*
X168359200Y-85690800D01*
X168359200Y-84489200D01*
X170260800Y-84489200D01*
X170260800Y-85690800D01*
X170260800Y-85690800D01*
G37*
G36*
X167999992Y-83224354D02*
X168044324Y-83237801D01*
X168085175Y-83259637D01*
X168120979Y-83289021D01*
X168150363Y-83324825D01*
X168172199Y-83365676D01*
X168185646Y-83410008D01*
X168190800Y-83462334D01*
X168190800Y-84177666D01*
X168185646Y-84229992D01*
X168172199Y-84274324D01*
X168157228Y-84302332D01*
X168149456Y-84321096D01*
X168134028Y-84335079D01*
X168120979Y-84350979D01*
X168085175Y-84380363D01*
X168044324Y-84402199D01*
X167999992Y-84415646D01*
X167947666Y-84420800D01*
X166532334Y-84420800D01*
X166480008Y-84415646D01*
X166435676Y-84402199D01*
X166394825Y-84380363D01*
X166359021Y-84350979D01*
X166329637Y-84315175D01*
X166307801Y-84274324D01*
X166294354Y-84229992D01*
X166289200Y-84177666D01*
X166289200Y-83462334D01*
X166294354Y-83410008D01*
X166307801Y-83365676D01*
X166329637Y-83324825D01*
X166359021Y-83289021D01*
X166394825Y-83259637D01*
X166435676Y-83237801D01*
X166480008Y-83224354D01*
X166532334Y-83219200D01*
X167947666Y-83219200D01*
X167999992Y-83224354D01*
X167999992Y-83224354D01*
G37*
G36*
X170069992Y-81954354D02*
X170114324Y-81967801D01*
X170155175Y-81989637D01*
X170190979Y-82019021D01*
X170220363Y-82054825D01*
X170242199Y-82095676D01*
X170255646Y-82140008D01*
X170260800Y-82192334D01*
X170260800Y-82907666D01*
X170255646Y-82959992D01*
X170242199Y-83004324D01*
X170220363Y-83045175D01*
X170190979Y-83080979D01*
X170155175Y-83110363D01*
X170114324Y-83132199D01*
X170069992Y-83145646D01*
X170017666Y-83150800D01*
X168602334Y-83150800D01*
X168550008Y-83145646D01*
X168505676Y-83132199D01*
X168464825Y-83110363D01*
X168429021Y-83080979D01*
X168399637Y-83045175D01*
X168377801Y-83004324D01*
X168364354Y-82959992D01*
X168359200Y-82907666D01*
X168359200Y-82192334D01*
X168364354Y-82140008D01*
X168377801Y-82095676D01*
X168399637Y-82054825D01*
X168429021Y-82019021D01*
X168464825Y-81989637D01*
X168505676Y-81967801D01*
X168550008Y-81954354D01*
X168602334Y-81949200D01*
X170017666Y-81949200D01*
X170069992Y-81954354D01*
X170069992Y-81954354D01*
G37*
G36*
X70067868Y-80611257D02*
X70091716Y-80618491D01*
X70113692Y-80630237D01*
X70132955Y-80646045D01*
X70148763Y-80665308D01*
X70160509Y-80687284D01*
X70167743Y-80711132D01*
X70170800Y-80742165D01*
X70170800Y-82325835D01*
X70167743Y-82356868D01*
X70160509Y-82380716D01*
X70148763Y-82402692D01*
X70132955Y-82421955D01*
X70113692Y-82437763D01*
X70091716Y-82449509D01*
X70067868Y-82456743D01*
X70036835Y-82459800D01*
X69103165Y-82459800D01*
X69072132Y-82456743D01*
X69048284Y-82449509D01*
X69026308Y-82437763D01*
X69007045Y-82421955D01*
X68991237Y-82402692D01*
X68979491Y-82380716D01*
X68972257Y-82356868D01*
X68969200Y-82325835D01*
X68969200Y-80742165D01*
X68972257Y-80711132D01*
X68979491Y-80687284D01*
X68991237Y-80665308D01*
X69007045Y-80646045D01*
X69026308Y-80630237D01*
X69048284Y-80618491D01*
X69072132Y-80611257D01*
X69103165Y-80608200D01*
X70036835Y-80608200D01*
X70067868Y-80611257D01*
X70067868Y-80611257D01*
G37*
G36*
X73167868Y-80611257D02*
X73191716Y-80618491D01*
X73213692Y-80630237D01*
X73232955Y-80646045D01*
X73248763Y-80665308D01*
X73260509Y-80687284D01*
X73267743Y-80711132D01*
X73270800Y-80742165D01*
X73270800Y-82325835D01*
X73267743Y-82356868D01*
X73260509Y-82380716D01*
X73248763Y-82402692D01*
X73232955Y-82421955D01*
X73213692Y-82437763D01*
X73191716Y-82449509D01*
X73167868Y-82456743D01*
X73136835Y-82459800D01*
X72203165Y-82459800D01*
X72172132Y-82456743D01*
X72148284Y-82449509D01*
X72126308Y-82437763D01*
X72107045Y-82421955D01*
X72091237Y-82402692D01*
X72079491Y-82380716D01*
X72072257Y-82356868D01*
X72069200Y-82325835D01*
X72069200Y-80742165D01*
X72072257Y-80711132D01*
X72079491Y-80687284D01*
X72091237Y-80665308D01*
X72107045Y-80646045D01*
X72126308Y-80630237D01*
X72148284Y-80618491D01*
X72172132Y-80611257D01*
X72203165Y-80608200D01*
X73136835Y-80608200D01*
X73167868Y-80611257D01*
X73167868Y-80611257D01*
G37*
G36*
X172632785Y-80695510D02*
X172793161Y-80744160D01*
X172940966Y-80823163D01*
X173070517Y-80929483D01*
X173176837Y-81059034D01*
X173255840Y-81206839D01*
X173304490Y-81367214D01*
X173320917Y-81534000D01*
X173304490Y-81700786D01*
X173255840Y-81861161D01*
X173176837Y-82008966D01*
X173070517Y-82138517D01*
X172940966Y-82244837D01*
X172793161Y-82323840D01*
X172632785Y-82372490D01*
X172507801Y-82384800D01*
X172424199Y-82384800D01*
X172299215Y-82372490D01*
X172138839Y-82323840D01*
X171991034Y-82244837D01*
X171861483Y-82138517D01*
X171755163Y-82008966D01*
X171676160Y-81861161D01*
X171627510Y-81700786D01*
X171611083Y-81534000D01*
X171627510Y-81367214D01*
X171676160Y-81206839D01*
X171755163Y-81059034D01*
X171861483Y-80929483D01*
X171991034Y-80823163D01*
X172138839Y-80744160D01*
X172299215Y-80695510D01*
X172424199Y-80683200D01*
X172507801Y-80683200D01*
X172632785Y-80695510D01*
X172632785Y-80695510D01*
G37*
G36*
X180334169Y-80715895D02*
X180489005Y-80780031D01*
X180628354Y-80873140D01*
X180746860Y-80991646D01*
X180839969Y-81130995D01*
X180904105Y-81285831D01*
X180936800Y-81450203D01*
X180936800Y-81617797D01*
X180904105Y-81782169D01*
X180839969Y-81937005D01*
X180746860Y-82076354D01*
X180628354Y-82194860D01*
X180489005Y-82287969D01*
X180334169Y-82352105D01*
X180169797Y-82384800D01*
X180002203Y-82384800D01*
X179837831Y-82352105D01*
X179682995Y-82287969D01*
X179543646Y-82194860D01*
X179425140Y-82076354D01*
X179332031Y-81937005D01*
X179267895Y-81782169D01*
X179235200Y-81617797D01*
X179235200Y-81450203D01*
X179267895Y-81285831D01*
X179332031Y-81130995D01*
X179425140Y-80991646D01*
X179543646Y-80873140D01*
X179682995Y-80780031D01*
X179837831Y-80715895D01*
X180002203Y-80683200D01*
X180169797Y-80683200D01*
X180334169Y-80715895D01*
X180334169Y-80715895D01*
G37*
G36*
X78197450Y-80787650D02*
X78234919Y-80799016D01*
X78269436Y-80817467D01*
X78299698Y-80842302D01*
X78324533Y-80872564D01*
X78342984Y-80907081D01*
X78354350Y-80944550D01*
X78358800Y-80989737D01*
X78358800Y-82078263D01*
X78354350Y-82123450D01*
X78342984Y-82160919D01*
X78324533Y-82195436D01*
X78299698Y-82225698D01*
X78269436Y-82250533D01*
X78234919Y-82268984D01*
X78197450Y-82280350D01*
X78152263Y-82284800D01*
X77313737Y-82284800D01*
X77268550Y-82280350D01*
X77231081Y-82268984D01*
X77196564Y-82250533D01*
X77166302Y-82225698D01*
X77141467Y-82195436D01*
X77123016Y-82160919D01*
X77111650Y-82123450D01*
X77107200Y-82078263D01*
X77107200Y-80989737D01*
X77111650Y-80944550D01*
X77123016Y-80907081D01*
X77141467Y-80872564D01*
X77166302Y-80842302D01*
X77196564Y-80817467D01*
X77231081Y-80799016D01*
X77268550Y-80787650D01*
X77313737Y-80783200D01*
X78152263Y-80783200D01*
X78197450Y-80787650D01*
X78197450Y-80787650D01*
G37*
G36*
X76147450Y-80787650D02*
X76184919Y-80799016D01*
X76219436Y-80817467D01*
X76249698Y-80842302D01*
X76274533Y-80872564D01*
X76292984Y-80907081D01*
X76304350Y-80944550D01*
X76308800Y-80989737D01*
X76308800Y-82078263D01*
X76304350Y-82123450D01*
X76292984Y-82160919D01*
X76274533Y-82195436D01*
X76249698Y-82225698D01*
X76219436Y-82250533D01*
X76184919Y-82268984D01*
X76147450Y-82280350D01*
X76102263Y-82284800D01*
X75263737Y-82284800D01*
X75218550Y-82280350D01*
X75181081Y-82268984D01*
X75146564Y-82250533D01*
X75116302Y-82225698D01*
X75091467Y-82195436D01*
X75073016Y-82160919D01*
X75061650Y-82123450D01*
X75057200Y-82078263D01*
X75057200Y-80989737D01*
X75061650Y-80944550D01*
X75073016Y-80907081D01*
X75091467Y-80872564D01*
X75116302Y-80842302D01*
X75146564Y-80817467D01*
X75181081Y-80799016D01*
X75218550Y-80787650D01*
X75263737Y-80783200D01*
X76102263Y-80783200D01*
X76147450Y-80787650D01*
X76147450Y-80787650D01*
G37*
G36*
X61193585Y-78477974D02*
X61339321Y-78538340D01*
X61470480Y-78625978D01*
X61582022Y-78737520D01*
X61669660Y-78868679D01*
X61730026Y-79014415D01*
X61760800Y-79169128D01*
X61760800Y-79326872D01*
X61730026Y-79481585D01*
X61669660Y-79627321D01*
X61582022Y-79758480D01*
X61470480Y-79870022D01*
X61339321Y-79957660D01*
X61193585Y-80018026D01*
X61038872Y-80048800D01*
X60881128Y-80048800D01*
X60726415Y-80018026D01*
X60580679Y-79957660D01*
X60449520Y-79870022D01*
X60337978Y-79758480D01*
X60250340Y-79627321D01*
X60189974Y-79481585D01*
X60159200Y-79326872D01*
X60159200Y-79169128D01*
X60189974Y-79014415D01*
X60250340Y-78868679D01*
X60337978Y-78737520D01*
X60449520Y-78625978D01*
X60580679Y-78538340D01*
X60726415Y-78477974D01*
X60881128Y-78447200D01*
X61038872Y-78447200D01*
X61193585Y-78477974D01*
X61193585Y-78477974D01*
G37*
G36*
X64300800Y-80048800D02*
X62699200Y-80048800D01*
X62699200Y-78447200D01*
X64300800Y-78447200D01*
X64300800Y-80048800D01*
X64300800Y-80048800D01*
G37*
G36*
X58653585Y-78477974D02*
X58799321Y-78538340D01*
X58930480Y-78625978D01*
X59042022Y-78737520D01*
X59129660Y-78868679D01*
X59190026Y-79014415D01*
X59220800Y-79169128D01*
X59220800Y-79326872D01*
X59190026Y-79481585D01*
X59129660Y-79627321D01*
X59042022Y-79758480D01*
X58930480Y-79870022D01*
X58799321Y-79957660D01*
X58653585Y-80018026D01*
X58498872Y-80048800D01*
X58341128Y-80048800D01*
X58186415Y-80018026D01*
X58040679Y-79957660D01*
X57909520Y-79870022D01*
X57797978Y-79758480D01*
X57710340Y-79627321D01*
X57649974Y-79481585D01*
X57619200Y-79326872D01*
X57619200Y-79169128D01*
X57649974Y-79014415D01*
X57710340Y-78868679D01*
X57797978Y-78737520D01*
X57909520Y-78625978D01*
X58040679Y-78538340D01*
X58186415Y-78477974D01*
X58341128Y-78447200D01*
X58498872Y-78447200D01*
X58653585Y-78477974D01*
X58653585Y-78477974D01*
G37*
G36*
X83647450Y-75841650D02*
X83684919Y-75853016D01*
X83719436Y-75871467D01*
X83749698Y-75896302D01*
X83774533Y-75926564D01*
X83792984Y-75961081D01*
X83804350Y-75998550D01*
X83808800Y-76043737D01*
X83808800Y-76882263D01*
X83804350Y-76927450D01*
X83792984Y-76964919D01*
X83774533Y-76999436D01*
X83749698Y-77029698D01*
X83719436Y-77054533D01*
X83684919Y-77072984D01*
X83647450Y-77084350D01*
X83602263Y-77088800D01*
X82513737Y-77088800D01*
X82468550Y-77084350D01*
X82431081Y-77072984D01*
X82396564Y-77054533D01*
X82366302Y-77029698D01*
X82341467Y-76999436D01*
X82323016Y-76964919D01*
X82311650Y-76927450D01*
X82307200Y-76882263D01*
X82307200Y-76043737D01*
X82311650Y-75998550D01*
X82323016Y-75961081D01*
X82341467Y-75926564D01*
X82366302Y-75896302D01*
X82396564Y-75871467D01*
X82431081Y-75853016D01*
X82468550Y-75841650D01*
X82513737Y-75837200D01*
X83602263Y-75837200D01*
X83647450Y-75841650D01*
X83647450Y-75841650D01*
G37*
G36*
X100578169Y-73603895D02*
X100733005Y-73668031D01*
X100872354Y-73761140D01*
X100990860Y-73879646D01*
X101083969Y-74018995D01*
X101148105Y-74173831D01*
X101180800Y-74338203D01*
X101180800Y-74505797D01*
X101148105Y-74670169D01*
X101083969Y-74825005D01*
X100990860Y-74964354D01*
X100872354Y-75082860D01*
X100733005Y-75175969D01*
X100578169Y-75240105D01*
X100413797Y-75272800D01*
X100246203Y-75272800D01*
X100081831Y-75240105D01*
X99926995Y-75175969D01*
X99787646Y-75082860D01*
X99669140Y-74964354D01*
X99576031Y-74825005D01*
X99511895Y-74670169D01*
X99479200Y-74505797D01*
X99479200Y-74338203D01*
X99511895Y-74173831D01*
X99576031Y-74018995D01*
X99669140Y-73879646D01*
X99787646Y-73761140D01*
X99926995Y-73668031D01*
X100081831Y-73603895D01*
X100246203Y-73571200D01*
X100413797Y-73571200D01*
X100578169Y-73603895D01*
X100578169Y-73603895D01*
G37*
G36*
X92876785Y-73583510D02*
X93037161Y-73632160D01*
X93184966Y-73711163D01*
X93314517Y-73817483D01*
X93420837Y-73947034D01*
X93499840Y-74094839D01*
X93548490Y-74255214D01*
X93564917Y-74422000D01*
X93548490Y-74588786D01*
X93499840Y-74749161D01*
X93420837Y-74896966D01*
X93314517Y-75026517D01*
X93184966Y-75132837D01*
X93037161Y-75211840D01*
X92876785Y-75260490D01*
X92751801Y-75272800D01*
X92668199Y-75272800D01*
X92543215Y-75260490D01*
X92382839Y-75211840D01*
X92235034Y-75132837D01*
X92105483Y-75026517D01*
X91999163Y-74896966D01*
X91920160Y-74749161D01*
X91871510Y-74588786D01*
X91855083Y-74422000D01*
X91871510Y-74255214D01*
X91920160Y-74094839D01*
X91999163Y-73947034D01*
X92105483Y-73817483D01*
X92235034Y-73711163D01*
X92382839Y-73632160D01*
X92543215Y-73583510D01*
X92668199Y-73571200D01*
X92751801Y-73571200D01*
X92876785Y-73583510D01*
X92876785Y-73583510D01*
G37*
G36*
X83647450Y-73791650D02*
X83684919Y-73803016D01*
X83719436Y-73821467D01*
X83749698Y-73846302D01*
X83774533Y-73876564D01*
X83792984Y-73911081D01*
X83804350Y-73948550D01*
X83808800Y-73993737D01*
X83808800Y-74832263D01*
X83804350Y-74877450D01*
X83792984Y-74914919D01*
X83774533Y-74949436D01*
X83749698Y-74979698D01*
X83719436Y-75004533D01*
X83684919Y-75022984D01*
X83647450Y-75034350D01*
X83602263Y-75038800D01*
X82513737Y-75038800D01*
X82468550Y-75034350D01*
X82431081Y-75022984D01*
X82396564Y-75004533D01*
X82366302Y-74979698D01*
X82341467Y-74949436D01*
X82323016Y-74914919D01*
X82311650Y-74877450D01*
X82307200Y-74832263D01*
X82307200Y-73993737D01*
X82311650Y-73948550D01*
X82323016Y-73911081D01*
X82341467Y-73876564D01*
X82366302Y-73846302D01*
X82396564Y-73821467D01*
X82431081Y-73803016D01*
X82468550Y-73791650D01*
X82513737Y-73787200D01*
X83602263Y-73787200D01*
X83647450Y-73791650D01*
X83647450Y-73791650D01*
G37*
G36*
X130267450Y-73167650D02*
X130304919Y-73179016D01*
X130339436Y-73197467D01*
X130369698Y-73222302D01*
X130394533Y-73252564D01*
X130412984Y-73287081D01*
X130424350Y-73324550D01*
X130428800Y-73369737D01*
X130428800Y-74458263D01*
X130424350Y-74503450D01*
X130412984Y-74540919D01*
X130394533Y-74575436D01*
X130369698Y-74605698D01*
X130339436Y-74630533D01*
X130304919Y-74648984D01*
X130267450Y-74660350D01*
X130222263Y-74664800D01*
X129383737Y-74664800D01*
X129338550Y-74660350D01*
X129301081Y-74648984D01*
X129266564Y-74630533D01*
X129236302Y-74605698D01*
X129211467Y-74575436D01*
X129193016Y-74540919D01*
X129181650Y-74503450D01*
X129177200Y-74458263D01*
X129177200Y-73369737D01*
X129181650Y-73324550D01*
X129193016Y-73287081D01*
X129211467Y-73252564D01*
X129236302Y-73222302D01*
X129266564Y-73197467D01*
X129301081Y-73179016D01*
X129338550Y-73167650D01*
X129383737Y-73163200D01*
X130222263Y-73163200D01*
X130267450Y-73167650D01*
X130267450Y-73167650D01*
G37*
G36*
X128217450Y-73167650D02*
X128254919Y-73179016D01*
X128289436Y-73197467D01*
X128319698Y-73222302D01*
X128344533Y-73252564D01*
X128362984Y-73287081D01*
X128374350Y-73324550D01*
X128378800Y-73369737D01*
X128378800Y-74458263D01*
X128374350Y-74503450D01*
X128362984Y-74540919D01*
X128344533Y-74575436D01*
X128319698Y-74605698D01*
X128289436Y-74630533D01*
X128254919Y-74648984D01*
X128217450Y-74660350D01*
X128172263Y-74664800D01*
X127333737Y-74664800D01*
X127288550Y-74660350D01*
X127251081Y-74648984D01*
X127216564Y-74630533D01*
X127186302Y-74605698D01*
X127161467Y-74575436D01*
X127143016Y-74540919D01*
X127131650Y-74503450D01*
X127127200Y-74458263D01*
X127127200Y-73369737D01*
X127131650Y-73324550D01*
X127143016Y-73287081D01*
X127161467Y-73252564D01*
X127186302Y-73222302D01*
X127216564Y-73197467D01*
X127251081Y-73179016D01*
X127288550Y-73167650D01*
X127333737Y-73163200D01*
X128172263Y-73163200D01*
X128217450Y-73167650D01*
X128217450Y-73167650D01*
G37*
G36*
X134374800Y-74298800D02*
X132373200Y-74298800D01*
X132373200Y-73397200D01*
X134374800Y-73397200D01*
X134374800Y-74298800D01*
X134374800Y-74298800D01*
G37*
G36*
X137374800Y-73348800D02*
X135373200Y-73348800D01*
X135373200Y-72447200D01*
X137374800Y-72447200D01*
X137374800Y-73348800D01*
X137374800Y-73348800D01*
G37*
G36*
X113618800Y-72990800D02*
X111717200Y-72990800D01*
X111717200Y-71789200D01*
X113618800Y-71789200D01*
X113618800Y-72990800D01*
X113618800Y-72990800D01*
G37*
G36*
X134374800Y-72398800D02*
X132373200Y-72398800D01*
X132373200Y-71497200D01*
X134374800Y-71497200D01*
X134374800Y-72398800D01*
X134374800Y-72398800D01*
G37*
G36*
X83880868Y-70802257D02*
X83904716Y-70809491D01*
X83926692Y-70821237D01*
X83945955Y-70837045D01*
X83961763Y-70856308D01*
X83973509Y-70878284D01*
X83980743Y-70902132D01*
X83983800Y-70933165D01*
X83983800Y-71866835D01*
X83980743Y-71897868D01*
X83973509Y-71921716D01*
X83961763Y-71943692D01*
X83945955Y-71962955D01*
X83926692Y-71978763D01*
X83904716Y-71990509D01*
X83880868Y-71997743D01*
X83849835Y-72000800D01*
X82266165Y-72000800D01*
X82235132Y-71997743D01*
X82211284Y-71990509D01*
X82189308Y-71978763D01*
X82170045Y-71962955D01*
X82154237Y-71943692D01*
X82142491Y-71921716D01*
X82135257Y-71897868D01*
X82132200Y-71866835D01*
X82132200Y-70933165D01*
X82135257Y-70902132D01*
X82142491Y-70878284D01*
X82154237Y-70856308D01*
X82170045Y-70837045D01*
X82189308Y-70821237D01*
X82211284Y-70809491D01*
X82235132Y-70802257D01*
X82266165Y-70799200D01*
X83849835Y-70799200D01*
X83880868Y-70802257D01*
X83880868Y-70802257D01*
G37*
G36*
X111357992Y-70524354D02*
X111402324Y-70537801D01*
X111443175Y-70559637D01*
X111478979Y-70589021D01*
X111508363Y-70624825D01*
X111530199Y-70665676D01*
X111543646Y-70710008D01*
X111548800Y-70762334D01*
X111548800Y-71477666D01*
X111543646Y-71529992D01*
X111530199Y-71574324D01*
X111515228Y-71602332D01*
X111507456Y-71621096D01*
X111492028Y-71635079D01*
X111478979Y-71650979D01*
X111443175Y-71680363D01*
X111402324Y-71702199D01*
X111357992Y-71715646D01*
X111305666Y-71720800D01*
X109890334Y-71720800D01*
X109838008Y-71715646D01*
X109793676Y-71702199D01*
X109752825Y-71680363D01*
X109717021Y-71650979D01*
X109687637Y-71615175D01*
X109665801Y-71574324D01*
X109652354Y-71529992D01*
X109647200Y-71477666D01*
X109647200Y-70762334D01*
X109652354Y-70710008D01*
X109665801Y-70665676D01*
X109687637Y-70624825D01*
X109717021Y-70589021D01*
X109752825Y-70559637D01*
X109793676Y-70537801D01*
X109838008Y-70524354D01*
X109890334Y-70519200D01*
X111305666Y-70519200D01*
X111357992Y-70524354D01*
X111357992Y-70524354D01*
G37*
G36*
X64450800Y-70800800D02*
X62549200Y-70800800D01*
X62549200Y-68899200D01*
X64450800Y-68899200D01*
X64450800Y-70800800D01*
X64450800Y-70800800D01*
G37*
G36*
X61237338Y-68935738D02*
X61410373Y-69007412D01*
X61566100Y-69111465D01*
X61698535Y-69243900D01*
X61802588Y-69399627D01*
X61874262Y-69572662D01*
X61910800Y-69756354D01*
X61910800Y-69943646D01*
X61874262Y-70127338D01*
X61802588Y-70300373D01*
X61698535Y-70456100D01*
X61566100Y-70588535D01*
X61410373Y-70692588D01*
X61237338Y-70764262D01*
X61053646Y-70800800D01*
X60866354Y-70800800D01*
X60682662Y-70764262D01*
X60509627Y-70692588D01*
X60353900Y-70588535D01*
X60221465Y-70456100D01*
X60117412Y-70300373D01*
X60045738Y-70127338D01*
X60009200Y-69943646D01*
X60009200Y-69756354D01*
X60045738Y-69572662D01*
X60117412Y-69399627D01*
X60221465Y-69243900D01*
X60353900Y-69111465D01*
X60509627Y-69007412D01*
X60682662Y-68935738D01*
X60866354Y-68899200D01*
X61053646Y-68899200D01*
X61237338Y-68935738D01*
X61237338Y-68935738D01*
G37*
G36*
X113427992Y-69254354D02*
X113472324Y-69267801D01*
X113513175Y-69289637D01*
X113548979Y-69319021D01*
X113578363Y-69354825D01*
X113600199Y-69395676D01*
X113613646Y-69440008D01*
X113618800Y-69492334D01*
X113618800Y-70207666D01*
X113613646Y-70259992D01*
X113600199Y-70304324D01*
X113578363Y-70345175D01*
X113548979Y-70380979D01*
X113513175Y-70410363D01*
X113472324Y-70432199D01*
X113427992Y-70445646D01*
X113375666Y-70450800D01*
X111960334Y-70450800D01*
X111908008Y-70445646D01*
X111863676Y-70432199D01*
X111822825Y-70410363D01*
X111787021Y-70380979D01*
X111757637Y-70345175D01*
X111735801Y-70304324D01*
X111722354Y-70259992D01*
X111717200Y-70207666D01*
X111717200Y-69492334D01*
X111722354Y-69440008D01*
X111735801Y-69395676D01*
X111757637Y-69354825D01*
X111787021Y-69319021D01*
X111822825Y-69289637D01*
X111863676Y-69267801D01*
X111908008Y-69254354D01*
X111960334Y-69249200D01*
X113375666Y-69249200D01*
X113427992Y-69254354D01*
X113427992Y-69254354D01*
G37*
G36*
X143676785Y-68503510D02*
X143837161Y-68552160D01*
X143984966Y-68631163D01*
X144114517Y-68737483D01*
X144220837Y-68867034D01*
X144299840Y-69014839D01*
X144348490Y-69175214D01*
X144364917Y-69342000D01*
X144348490Y-69508786D01*
X144299840Y-69669161D01*
X144220837Y-69816966D01*
X144114517Y-69946517D01*
X143984966Y-70052837D01*
X143837161Y-70131840D01*
X143676785Y-70180490D01*
X143551801Y-70192800D01*
X143468199Y-70192800D01*
X143343215Y-70180490D01*
X143182839Y-70131840D01*
X143035034Y-70052837D01*
X142905483Y-69946517D01*
X142799163Y-69816966D01*
X142720160Y-69669161D01*
X142671510Y-69508786D01*
X142655083Y-69342000D01*
X142671510Y-69175214D01*
X142720160Y-69014839D01*
X142799163Y-68867034D01*
X142905483Y-68737483D01*
X143035034Y-68631163D01*
X143182839Y-68552160D01*
X143343215Y-68503510D01*
X143468199Y-68491200D01*
X143551801Y-68491200D01*
X143676785Y-68503510D01*
X143676785Y-68503510D01*
G37*
G36*
X151378169Y-68523895D02*
X151533005Y-68588031D01*
X151672354Y-68681140D01*
X151790860Y-68799646D01*
X151883969Y-68938995D01*
X151948105Y-69093831D01*
X151980800Y-69258203D01*
X151980800Y-69425797D01*
X151948105Y-69590169D01*
X151883969Y-69745005D01*
X151790860Y-69884354D01*
X151672354Y-70002860D01*
X151533005Y-70095969D01*
X151378169Y-70160105D01*
X151213797Y-70192800D01*
X151046203Y-70192800D01*
X150881831Y-70160105D01*
X150726995Y-70095969D01*
X150587646Y-70002860D01*
X150469140Y-69884354D01*
X150376031Y-69745005D01*
X150311895Y-69590169D01*
X150279200Y-69425797D01*
X150279200Y-69258203D01*
X150311895Y-69093831D01*
X150376031Y-68938995D01*
X150469140Y-68799646D01*
X150587646Y-68681140D01*
X150726995Y-68588031D01*
X150881831Y-68523895D01*
X151046203Y-68491200D01*
X151213797Y-68491200D01*
X151378169Y-68523895D01*
X151378169Y-68523895D01*
G37*
G36*
X189819450Y-68221650D02*
X189856919Y-68233016D01*
X189891436Y-68251467D01*
X189921698Y-68276302D01*
X189946533Y-68306564D01*
X189964984Y-68341081D01*
X189976350Y-68378550D01*
X189980800Y-68423737D01*
X189980800Y-69262263D01*
X189976350Y-69307450D01*
X189964984Y-69344919D01*
X189946533Y-69379436D01*
X189921698Y-69409698D01*
X189891436Y-69434533D01*
X189856919Y-69452984D01*
X189819450Y-69464350D01*
X189774263Y-69468800D01*
X188685737Y-69468800D01*
X188640550Y-69464350D01*
X188603081Y-69452984D01*
X188568564Y-69434533D01*
X188538302Y-69409698D01*
X188513467Y-69379436D01*
X188495016Y-69344919D01*
X188483650Y-69307450D01*
X188479200Y-69262263D01*
X188479200Y-68423737D01*
X188483650Y-68378550D01*
X188495016Y-68341081D01*
X188513467Y-68306564D01*
X188538302Y-68276302D01*
X188568564Y-68251467D01*
X188603081Y-68233016D01*
X188640550Y-68221650D01*
X188685737Y-68217200D01*
X189774263Y-68217200D01*
X189819450Y-68221650D01*
X189819450Y-68221650D01*
G37*
G36*
X130637450Y-68221650D02*
X130674919Y-68233016D01*
X130709436Y-68251467D01*
X130739698Y-68276302D01*
X130764533Y-68306564D01*
X130782984Y-68341081D01*
X130794350Y-68378550D01*
X130798800Y-68423737D01*
X130798800Y-69262263D01*
X130794350Y-69307450D01*
X130782984Y-69344919D01*
X130764533Y-69379436D01*
X130739698Y-69409698D01*
X130709436Y-69434533D01*
X130674919Y-69452984D01*
X130637450Y-69464350D01*
X130592263Y-69468800D01*
X129503737Y-69468800D01*
X129458550Y-69464350D01*
X129421081Y-69452984D01*
X129386564Y-69434533D01*
X129356302Y-69409698D01*
X129331467Y-69379436D01*
X129313016Y-69344919D01*
X129301650Y-69307450D01*
X129297200Y-69262263D01*
X129297200Y-68423737D01*
X129301650Y-68378550D01*
X129313016Y-68341081D01*
X129331467Y-68306564D01*
X129356302Y-68276302D01*
X129386564Y-68251467D01*
X129421081Y-68233016D01*
X129458550Y-68221650D01*
X129503737Y-68217200D01*
X130592263Y-68217200D01*
X130637450Y-68221650D01*
X130637450Y-68221650D01*
G37*
G36*
X136987450Y-68212650D02*
X137024919Y-68224016D01*
X137059436Y-68242467D01*
X137089698Y-68267302D01*
X137114533Y-68297564D01*
X137132984Y-68332081D01*
X137144350Y-68369550D01*
X137148800Y-68414737D01*
X137148800Y-69253263D01*
X137144350Y-69298450D01*
X137132984Y-69335919D01*
X137114533Y-69370436D01*
X137089698Y-69400698D01*
X137059436Y-69425533D01*
X137024919Y-69443984D01*
X136987450Y-69455350D01*
X136942263Y-69459800D01*
X135853737Y-69459800D01*
X135808550Y-69455350D01*
X135771081Y-69443984D01*
X135736564Y-69425533D01*
X135706302Y-69400698D01*
X135681467Y-69370436D01*
X135663016Y-69335919D01*
X135651650Y-69298450D01*
X135647200Y-69253263D01*
X135647200Y-68414737D01*
X135651650Y-68369550D01*
X135663016Y-68332081D01*
X135681467Y-68297564D01*
X135706302Y-68267302D01*
X135736564Y-68242467D01*
X135771081Y-68224016D01*
X135808550Y-68212650D01*
X135853737Y-68208200D01*
X136942263Y-68208200D01*
X136987450Y-68212650D01*
X136987450Y-68212650D01*
G37*
G36*
X83880868Y-67702257D02*
X83904716Y-67709491D01*
X83926692Y-67721237D01*
X83945955Y-67737045D01*
X83961763Y-67756308D01*
X83973509Y-67778284D01*
X83980743Y-67802132D01*
X83983800Y-67833165D01*
X83983800Y-68766835D01*
X83980743Y-68797868D01*
X83973509Y-68821716D01*
X83961763Y-68843692D01*
X83945955Y-68862955D01*
X83926692Y-68878763D01*
X83904716Y-68890509D01*
X83880868Y-68897743D01*
X83849835Y-68900800D01*
X82266165Y-68900800D01*
X82235132Y-68897743D01*
X82211284Y-68890509D01*
X82189308Y-68878763D01*
X82170045Y-68862955D01*
X82154237Y-68843692D01*
X82142491Y-68821716D01*
X82135257Y-68797868D01*
X82132200Y-68766835D01*
X82132200Y-67833165D01*
X82135257Y-67802132D01*
X82142491Y-67778284D01*
X82154237Y-67756308D01*
X82170045Y-67737045D01*
X82189308Y-67721237D01*
X82211284Y-67709491D01*
X82235132Y-67702257D01*
X82266165Y-67699200D01*
X83849835Y-67699200D01*
X83880868Y-67702257D01*
X83880868Y-67702257D01*
G37*
G36*
X189819450Y-66171650D02*
X189856919Y-66183016D01*
X189891436Y-66201467D01*
X189921698Y-66226302D01*
X189946533Y-66256564D01*
X189964984Y-66291081D01*
X189976350Y-66328550D01*
X189980800Y-66373737D01*
X189980800Y-67212263D01*
X189976350Y-67257450D01*
X189964984Y-67294919D01*
X189946533Y-67329436D01*
X189921698Y-67359698D01*
X189891436Y-67384533D01*
X189856919Y-67402984D01*
X189819450Y-67414350D01*
X189774263Y-67418800D01*
X188685737Y-67418800D01*
X188640550Y-67414350D01*
X188603081Y-67402984D01*
X188568564Y-67384533D01*
X188538302Y-67359698D01*
X188513467Y-67329436D01*
X188495016Y-67294919D01*
X188483650Y-67257450D01*
X188479200Y-67212263D01*
X188479200Y-66373737D01*
X188483650Y-66328550D01*
X188495016Y-66291081D01*
X188513467Y-66256564D01*
X188538302Y-66226302D01*
X188568564Y-66201467D01*
X188603081Y-66183016D01*
X188640550Y-66171650D01*
X188685737Y-66167200D01*
X189774263Y-66167200D01*
X189819450Y-66171650D01*
X189819450Y-66171650D01*
G37*
G36*
X130637450Y-66171650D02*
X130674919Y-66183016D01*
X130709436Y-66201467D01*
X130739698Y-66226302D01*
X130764533Y-66256564D01*
X130782984Y-66291081D01*
X130794350Y-66328550D01*
X130798800Y-66373737D01*
X130798800Y-67212263D01*
X130794350Y-67257450D01*
X130782984Y-67294919D01*
X130764533Y-67329436D01*
X130739698Y-67359698D01*
X130709436Y-67384533D01*
X130674919Y-67402984D01*
X130637450Y-67414350D01*
X130592263Y-67418800D01*
X129503737Y-67418800D01*
X129458550Y-67414350D01*
X129421081Y-67402984D01*
X129386564Y-67384533D01*
X129356302Y-67359698D01*
X129331467Y-67329436D01*
X129313016Y-67294919D01*
X129301650Y-67257450D01*
X129297200Y-67212263D01*
X129297200Y-66373737D01*
X129301650Y-66328550D01*
X129313016Y-66291081D01*
X129331467Y-66256564D01*
X129356302Y-66226302D01*
X129386564Y-66201467D01*
X129421081Y-66183016D01*
X129458550Y-66171650D01*
X129503737Y-66167200D01*
X130592263Y-66167200D01*
X130637450Y-66171650D01*
X130637450Y-66171650D01*
G37*
G36*
X136987450Y-66162650D02*
X137024919Y-66174016D01*
X137059436Y-66192467D01*
X137089698Y-66217302D01*
X137114533Y-66247564D01*
X137132984Y-66282081D01*
X137144350Y-66319550D01*
X137148800Y-66364737D01*
X137148800Y-67203263D01*
X137144350Y-67248450D01*
X137132984Y-67285919D01*
X137114533Y-67320436D01*
X137089698Y-67350698D01*
X137059436Y-67375533D01*
X137024919Y-67393984D01*
X136987450Y-67405350D01*
X136942263Y-67409800D01*
X135853737Y-67409800D01*
X135808550Y-67405350D01*
X135771081Y-67393984D01*
X135736564Y-67375533D01*
X135706302Y-67350698D01*
X135681467Y-67320436D01*
X135663016Y-67285919D01*
X135651650Y-67248450D01*
X135647200Y-67203263D01*
X135647200Y-66364737D01*
X135651650Y-66319550D01*
X135663016Y-66282081D01*
X135681467Y-66247564D01*
X135706302Y-66217302D01*
X135736564Y-66192467D01*
X135771081Y-66174016D01*
X135808550Y-66162650D01*
X135853737Y-66158200D01*
X136942263Y-66158200D01*
X136987450Y-66162650D01*
X136987450Y-66162650D01*
G37*
G36*
X92876785Y-64693510D02*
X93037161Y-64742160D01*
X93184966Y-64821163D01*
X93314517Y-64927483D01*
X93420837Y-65057034D01*
X93499840Y-65204839D01*
X93548490Y-65365214D01*
X93564917Y-65532000D01*
X93548490Y-65698786D01*
X93499840Y-65859161D01*
X93420837Y-66006966D01*
X93314517Y-66136517D01*
X93184966Y-66242837D01*
X93037161Y-66321840D01*
X92876785Y-66370490D01*
X92751801Y-66382800D01*
X92668199Y-66382800D01*
X92543215Y-66370490D01*
X92382839Y-66321840D01*
X92235034Y-66242837D01*
X92105483Y-66136517D01*
X91999163Y-66006966D01*
X91920160Y-65859161D01*
X91871510Y-65698786D01*
X91855083Y-65532000D01*
X91871510Y-65365214D01*
X91920160Y-65204839D01*
X91999163Y-65057034D01*
X92105483Y-64927483D01*
X92235034Y-64821163D01*
X92382839Y-64742160D01*
X92543215Y-64693510D01*
X92668199Y-64681200D01*
X92751801Y-64681200D01*
X92876785Y-64693510D01*
X92876785Y-64693510D01*
G37*
G36*
X100578169Y-64713895D02*
X100733005Y-64778031D01*
X100872354Y-64871140D01*
X100990860Y-64989646D01*
X101083969Y-65128995D01*
X101148105Y-65283831D01*
X101180800Y-65448203D01*
X101180800Y-65615797D01*
X101148105Y-65780169D01*
X101083969Y-65935005D01*
X100990860Y-66074354D01*
X100872354Y-66192860D01*
X100733005Y-66285969D01*
X100578169Y-66350105D01*
X100413797Y-66382800D01*
X100246203Y-66382800D01*
X100081831Y-66350105D01*
X99926995Y-66285969D01*
X99787646Y-66192860D01*
X99669140Y-66074354D01*
X99576031Y-65935005D01*
X99511895Y-65780169D01*
X99479200Y-65615797D01*
X99479200Y-65448203D01*
X99511895Y-65283831D01*
X99576031Y-65128995D01*
X99669140Y-64989646D01*
X99787646Y-64871140D01*
X99926995Y-64778031D01*
X100081831Y-64713895D01*
X100246203Y-64681200D01*
X100413797Y-64681200D01*
X100578169Y-64713895D01*
X100578169Y-64713895D01*
G37*
G36*
X164164800Y-66132800D02*
X162263200Y-66132800D01*
X162263200Y-64931200D01*
X164164800Y-64931200D01*
X164164800Y-66132800D01*
X164164800Y-66132800D01*
G37*
G36*
X161903992Y-63666354D02*
X161948324Y-63679801D01*
X161989175Y-63701637D01*
X162024979Y-63731021D01*
X162054363Y-63766825D01*
X162076199Y-63807676D01*
X162089646Y-63852008D01*
X162094800Y-63904334D01*
X162094800Y-64619666D01*
X162089646Y-64671992D01*
X162076199Y-64716324D01*
X162061228Y-64744332D01*
X162053456Y-64763096D01*
X162038028Y-64777079D01*
X162024979Y-64792979D01*
X161989175Y-64822363D01*
X161948324Y-64844199D01*
X161903992Y-64857646D01*
X161851666Y-64862800D01*
X160436334Y-64862800D01*
X160384008Y-64857646D01*
X160339676Y-64844199D01*
X160298825Y-64822363D01*
X160263021Y-64792979D01*
X160233637Y-64757175D01*
X160211801Y-64716324D01*
X160198354Y-64671992D01*
X160193200Y-64619666D01*
X160193200Y-63904334D01*
X160198354Y-63852008D01*
X160211801Y-63807676D01*
X160233637Y-63766825D01*
X160263021Y-63731021D01*
X160298825Y-63701637D01*
X160339676Y-63679801D01*
X160384008Y-63666354D01*
X160436334Y-63661200D01*
X161851666Y-63661200D01*
X161903992Y-63666354D01*
X161903992Y-63666354D01*
G37*
G36*
X137220868Y-63182257D02*
X137244716Y-63189491D01*
X137266692Y-63201237D01*
X137285955Y-63217045D01*
X137301763Y-63236308D01*
X137313509Y-63258284D01*
X137320743Y-63282132D01*
X137323800Y-63313165D01*
X137323800Y-64246835D01*
X137320743Y-64277868D01*
X137313509Y-64301716D01*
X137301763Y-64323692D01*
X137285955Y-64342955D01*
X137266692Y-64358763D01*
X137244716Y-64370509D01*
X137220868Y-64377743D01*
X137189835Y-64380800D01*
X135606165Y-64380800D01*
X135575132Y-64377743D01*
X135551284Y-64370509D01*
X135529308Y-64358763D01*
X135510045Y-64342955D01*
X135494237Y-64323692D01*
X135482491Y-64301716D01*
X135475257Y-64277868D01*
X135472200Y-64246835D01*
X135472200Y-63313165D01*
X135475257Y-63282132D01*
X135482491Y-63258284D01*
X135494237Y-63236308D01*
X135510045Y-63217045D01*
X135529308Y-63201237D01*
X135551284Y-63189491D01*
X135575132Y-63182257D01*
X135606165Y-63179200D01*
X137189835Y-63179200D01*
X137220868Y-63182257D01*
X137220868Y-63182257D01*
G37*
G36*
X130870868Y-63182257D02*
X130894716Y-63189491D01*
X130916692Y-63201237D01*
X130935955Y-63217045D01*
X130951763Y-63236308D01*
X130963509Y-63258284D01*
X130970743Y-63282132D01*
X130973800Y-63313165D01*
X130973800Y-64246835D01*
X130970743Y-64277868D01*
X130963509Y-64301716D01*
X130951763Y-64323692D01*
X130935955Y-64342955D01*
X130916692Y-64358763D01*
X130894716Y-64370509D01*
X130870868Y-64377743D01*
X130839835Y-64380800D01*
X129256165Y-64380800D01*
X129225132Y-64377743D01*
X129201284Y-64370509D01*
X129179308Y-64358763D01*
X129160045Y-64342955D01*
X129144237Y-64323692D01*
X129132491Y-64301716D01*
X129125257Y-64277868D01*
X129122200Y-64246835D01*
X129122200Y-63313165D01*
X129125257Y-63282132D01*
X129132491Y-63258284D01*
X129144237Y-63236308D01*
X129160045Y-63217045D01*
X129179308Y-63201237D01*
X129201284Y-63189491D01*
X129225132Y-63182257D01*
X129256165Y-63179200D01*
X130839835Y-63179200D01*
X130870868Y-63182257D01*
X130870868Y-63182257D01*
G37*
G36*
X190052868Y-63182257D02*
X190076716Y-63189491D01*
X190098692Y-63201237D01*
X190117955Y-63217045D01*
X190133763Y-63236308D01*
X190145509Y-63258284D01*
X190152743Y-63282132D01*
X190155800Y-63313165D01*
X190155800Y-64246835D01*
X190152743Y-64277868D01*
X190145509Y-64301716D01*
X190133763Y-64323692D01*
X190117955Y-64342955D01*
X190098692Y-64358763D01*
X190076716Y-64370509D01*
X190052868Y-64377743D01*
X190021835Y-64380800D01*
X188438165Y-64380800D01*
X188407132Y-64377743D01*
X188383284Y-64370509D01*
X188361308Y-64358763D01*
X188342045Y-64342955D01*
X188326237Y-64323692D01*
X188314491Y-64301716D01*
X188307257Y-64277868D01*
X188304200Y-64246835D01*
X188304200Y-63313165D01*
X188307257Y-63282132D01*
X188314491Y-63258284D01*
X188326237Y-63236308D01*
X188342045Y-63217045D01*
X188361308Y-63201237D01*
X188383284Y-63189491D01*
X188407132Y-63182257D01*
X188438165Y-63179200D01*
X190021835Y-63179200D01*
X190052868Y-63182257D01*
X190052868Y-63182257D01*
G37*
G36*
X113618800Y-63846800D02*
X111717200Y-63846800D01*
X111717200Y-62645200D01*
X113618800Y-62645200D01*
X113618800Y-63846800D01*
X113618800Y-63846800D01*
G37*
G36*
X163973992Y-62396354D02*
X164018324Y-62409801D01*
X164059175Y-62431637D01*
X164094979Y-62461021D01*
X164124363Y-62496825D01*
X164146199Y-62537676D01*
X164159646Y-62582008D01*
X164164800Y-62634334D01*
X164164800Y-63349666D01*
X164159646Y-63401992D01*
X164146199Y-63446324D01*
X164124363Y-63487175D01*
X164094979Y-63522979D01*
X164059175Y-63552363D01*
X164018324Y-63574199D01*
X163973992Y-63587646D01*
X163921666Y-63592800D01*
X162506334Y-63592800D01*
X162454008Y-63587646D01*
X162409676Y-63574199D01*
X162368825Y-63552363D01*
X162333021Y-63522979D01*
X162303637Y-63487175D01*
X162281801Y-63446324D01*
X162268354Y-63401992D01*
X162263200Y-63349666D01*
X162263200Y-62634334D01*
X162268354Y-62582008D01*
X162281801Y-62537676D01*
X162303637Y-62496825D01*
X162333021Y-62461021D01*
X162368825Y-62431637D01*
X162409676Y-62409801D01*
X162454008Y-62396354D01*
X162506334Y-62391200D01*
X163921666Y-62391200D01*
X163973992Y-62396354D01*
X163973992Y-62396354D01*
G37*
G36*
X198054800Y-63180800D02*
X196153200Y-63180800D01*
X196153200Y-61279200D01*
X198054800Y-61279200D01*
X198054800Y-63180800D01*
X198054800Y-63180800D01*
G37*
G36*
X194841338Y-61315738D02*
X195014373Y-61387412D01*
X195170100Y-61491465D01*
X195302535Y-61623900D01*
X195406588Y-61779627D01*
X195478262Y-61952662D01*
X195514800Y-62136354D01*
X195514800Y-62323646D01*
X195478262Y-62507338D01*
X195406588Y-62680373D01*
X195302535Y-62836100D01*
X195170100Y-62968535D01*
X195014373Y-63072588D01*
X194841338Y-63144262D01*
X194657646Y-63180800D01*
X194470354Y-63180800D01*
X194286662Y-63144262D01*
X194113627Y-63072588D01*
X193957900Y-62968535D01*
X193825465Y-62836100D01*
X193721412Y-62680373D01*
X193649738Y-62507338D01*
X193613200Y-62323646D01*
X193613200Y-62136354D01*
X193649738Y-61952662D01*
X193721412Y-61779627D01*
X193825465Y-61623900D01*
X193957900Y-61491465D01*
X194113627Y-61387412D01*
X194286662Y-61315738D01*
X194470354Y-61279200D01*
X194657646Y-61279200D01*
X194841338Y-61315738D01*
X194841338Y-61315738D01*
G37*
G36*
X111357992Y-61380354D02*
X111402324Y-61393801D01*
X111443175Y-61415637D01*
X111478979Y-61445021D01*
X111508363Y-61480825D01*
X111530199Y-61521676D01*
X111543646Y-61566008D01*
X111548800Y-61618334D01*
X111548800Y-62333666D01*
X111543646Y-62385992D01*
X111530199Y-62430324D01*
X111515228Y-62458332D01*
X111507456Y-62477096D01*
X111492028Y-62491079D01*
X111478979Y-62506979D01*
X111443175Y-62536363D01*
X111402324Y-62558199D01*
X111357992Y-62571646D01*
X111305666Y-62576800D01*
X109890334Y-62576800D01*
X109838008Y-62571646D01*
X109793676Y-62558199D01*
X109752825Y-62536363D01*
X109717021Y-62506979D01*
X109687637Y-62471175D01*
X109665801Y-62430324D01*
X109652354Y-62385992D01*
X109647200Y-62333666D01*
X109647200Y-61618334D01*
X109652354Y-61566008D01*
X109665801Y-61521676D01*
X109687637Y-61480825D01*
X109717021Y-61445021D01*
X109752825Y-61415637D01*
X109793676Y-61393801D01*
X109838008Y-61380354D01*
X109890334Y-61375200D01*
X111305666Y-61375200D01*
X111357992Y-61380354D01*
X111357992Y-61380354D01*
G37*
G36*
X77297450Y-60610650D02*
X77334919Y-60622016D01*
X77369436Y-60640467D01*
X77399698Y-60665302D01*
X77424533Y-60695564D01*
X77442984Y-60730081D01*
X77454350Y-60767550D01*
X77458800Y-60812737D01*
X77458800Y-61651263D01*
X77454350Y-61696450D01*
X77442984Y-61733919D01*
X77424533Y-61768436D01*
X77399698Y-61798698D01*
X77369436Y-61823533D01*
X77334919Y-61841984D01*
X77297450Y-61853350D01*
X77252263Y-61857800D01*
X76163737Y-61857800D01*
X76118550Y-61853350D01*
X76081081Y-61841984D01*
X76046564Y-61823533D01*
X76016302Y-61798698D01*
X75991467Y-61768436D01*
X75973016Y-61733919D01*
X75961650Y-61696450D01*
X75957200Y-61651263D01*
X75957200Y-60812737D01*
X75961650Y-60767550D01*
X75973016Y-60730081D01*
X75991467Y-60695564D01*
X76016302Y-60665302D01*
X76046564Y-60640467D01*
X76081081Y-60622016D01*
X76118550Y-60610650D01*
X76163737Y-60606200D01*
X77252263Y-60606200D01*
X77297450Y-60610650D01*
X77297450Y-60610650D01*
G37*
G36*
X154344785Y-59867510D02*
X154505161Y-59916160D01*
X154652966Y-59995163D01*
X154782517Y-60101483D01*
X154888837Y-60231034D01*
X154967840Y-60378839D01*
X155016490Y-60539214D01*
X155032917Y-60706000D01*
X155016490Y-60872786D01*
X154967840Y-61033161D01*
X154888837Y-61180966D01*
X154782517Y-61310517D01*
X154652966Y-61416837D01*
X154505161Y-61495840D01*
X154344785Y-61544490D01*
X154219801Y-61556800D01*
X154136199Y-61556800D01*
X154011215Y-61544490D01*
X153850839Y-61495840D01*
X153703034Y-61416837D01*
X153573483Y-61310517D01*
X153467163Y-61180966D01*
X153388160Y-61033161D01*
X153339510Y-60872786D01*
X153323083Y-60706000D01*
X153339510Y-60539214D01*
X153388160Y-60378839D01*
X153467163Y-60231034D01*
X153573483Y-60101483D01*
X153703034Y-59995163D01*
X153850839Y-59916160D01*
X154011215Y-59867510D01*
X154136199Y-59855200D01*
X154219801Y-59855200D01*
X154344785Y-59867510D01*
X154344785Y-59867510D01*
G37*
G36*
X113427992Y-60110354D02*
X113472324Y-60123801D01*
X113513175Y-60145637D01*
X113548979Y-60175021D01*
X113578363Y-60210825D01*
X113600199Y-60251676D01*
X113613646Y-60296008D01*
X113618800Y-60348334D01*
X113618800Y-61063666D01*
X113613646Y-61115992D01*
X113600199Y-61160324D01*
X113578363Y-61201175D01*
X113548979Y-61236979D01*
X113513175Y-61266363D01*
X113472324Y-61288199D01*
X113427992Y-61301646D01*
X113375666Y-61306800D01*
X111960334Y-61306800D01*
X111908008Y-61301646D01*
X111863676Y-61288199D01*
X111822825Y-61266363D01*
X111787021Y-61236979D01*
X111757637Y-61201175D01*
X111735801Y-61160324D01*
X111722354Y-61115992D01*
X111717200Y-61063666D01*
X111717200Y-60348334D01*
X111722354Y-60296008D01*
X111735801Y-60251676D01*
X111757637Y-60210825D01*
X111787021Y-60175021D01*
X111822825Y-60145637D01*
X111863676Y-60123801D01*
X111908008Y-60110354D01*
X111960334Y-60105200D01*
X113375666Y-60105200D01*
X113427992Y-60110354D01*
X113427992Y-60110354D01*
G37*
G36*
X190052868Y-60082257D02*
X190076716Y-60089491D01*
X190098692Y-60101237D01*
X190117955Y-60117045D01*
X190133763Y-60136308D01*
X190145509Y-60158284D01*
X190152743Y-60182132D01*
X190155800Y-60213165D01*
X190155800Y-61146835D01*
X190152743Y-61177868D01*
X190145509Y-61201716D01*
X190133763Y-61223692D01*
X190117955Y-61242955D01*
X190098692Y-61258763D01*
X190076716Y-61270509D01*
X190052868Y-61277743D01*
X190021835Y-61280800D01*
X188438165Y-61280800D01*
X188407132Y-61277743D01*
X188383284Y-61270509D01*
X188361308Y-61258763D01*
X188342045Y-61242955D01*
X188326237Y-61223692D01*
X188314491Y-61201716D01*
X188307257Y-61177868D01*
X188304200Y-61146835D01*
X188304200Y-60213165D01*
X188307257Y-60182132D01*
X188314491Y-60158284D01*
X188326237Y-60136308D01*
X188342045Y-60117045D01*
X188361308Y-60101237D01*
X188383284Y-60089491D01*
X188407132Y-60082257D01*
X188438165Y-60079200D01*
X190021835Y-60079200D01*
X190052868Y-60082257D01*
X190052868Y-60082257D01*
G37*
G36*
X137220868Y-60082257D02*
X137244716Y-60089491D01*
X137266692Y-60101237D01*
X137285955Y-60117045D01*
X137301763Y-60136308D01*
X137313509Y-60158284D01*
X137320743Y-60182132D01*
X137323800Y-60213165D01*
X137323800Y-61146835D01*
X137320743Y-61177868D01*
X137313509Y-61201716D01*
X137301763Y-61223692D01*
X137285955Y-61242955D01*
X137266692Y-61258763D01*
X137244716Y-61270509D01*
X137220868Y-61277743D01*
X137189835Y-61280800D01*
X135606165Y-61280800D01*
X135575132Y-61277743D01*
X135551284Y-61270509D01*
X135529308Y-61258763D01*
X135510045Y-61242955D01*
X135494237Y-61223692D01*
X135482491Y-61201716D01*
X135475257Y-61177868D01*
X135472200Y-61146835D01*
X135472200Y-60213165D01*
X135475257Y-60182132D01*
X135482491Y-60158284D01*
X135494237Y-60136308D01*
X135510045Y-60117045D01*
X135529308Y-60101237D01*
X135551284Y-60089491D01*
X135575132Y-60082257D01*
X135606165Y-60079200D01*
X137189835Y-60079200D01*
X137220868Y-60082257D01*
X137220868Y-60082257D01*
G37*
G36*
X130870868Y-60082257D02*
X130894716Y-60089491D01*
X130916692Y-60101237D01*
X130935955Y-60117045D01*
X130951763Y-60136308D01*
X130963509Y-60158284D01*
X130970743Y-60182132D01*
X130973800Y-60213165D01*
X130973800Y-61146835D01*
X130970743Y-61177868D01*
X130963509Y-61201716D01*
X130951763Y-61223692D01*
X130935955Y-61242955D01*
X130916692Y-61258763D01*
X130894716Y-61270509D01*
X130870868Y-61277743D01*
X130839835Y-61280800D01*
X129256165Y-61280800D01*
X129225132Y-61277743D01*
X129201284Y-61270509D01*
X129179308Y-61258763D01*
X129160045Y-61242955D01*
X129144237Y-61223692D01*
X129132491Y-61201716D01*
X129125257Y-61177868D01*
X129122200Y-61146835D01*
X129122200Y-60213165D01*
X129125257Y-60182132D01*
X129132491Y-60158284D01*
X129144237Y-60136308D01*
X129160045Y-60117045D01*
X129179308Y-60101237D01*
X129201284Y-60089491D01*
X129225132Y-60082257D01*
X129256165Y-60079200D01*
X130839835Y-60079200D01*
X130870868Y-60082257D01*
X130870868Y-60082257D01*
G37*
G36*
X77297450Y-58560650D02*
X77334919Y-58572016D01*
X77369436Y-58590467D01*
X77399698Y-58615302D01*
X77424533Y-58645564D01*
X77442984Y-58680081D01*
X77454350Y-58717550D01*
X77458800Y-58762737D01*
X77458800Y-59601263D01*
X77454350Y-59646450D01*
X77442984Y-59683919D01*
X77424533Y-59718436D01*
X77399698Y-59748698D01*
X77369436Y-59773533D01*
X77334919Y-59791984D01*
X77297450Y-59803350D01*
X77252263Y-59807800D01*
X76163737Y-59807800D01*
X76118550Y-59803350D01*
X76081081Y-59791984D01*
X76046564Y-59773533D01*
X76016302Y-59748698D01*
X75991467Y-59718436D01*
X75973016Y-59683919D01*
X75961650Y-59646450D01*
X75957200Y-59601263D01*
X75957200Y-58762737D01*
X75961650Y-58717550D01*
X75973016Y-58680081D01*
X75991467Y-58645564D01*
X76016302Y-58615302D01*
X76046564Y-58590467D01*
X76081081Y-58572016D01*
X76118550Y-58560650D01*
X76163737Y-58556200D01*
X77252263Y-58556200D01*
X77297450Y-58560650D01*
X77297450Y-58560650D01*
G37*
G36*
X103544785Y-56057510D02*
X103705161Y-56106160D01*
X103852966Y-56185163D01*
X103982517Y-56291483D01*
X104088837Y-56421034D01*
X104167840Y-56568839D01*
X104216490Y-56729214D01*
X104232917Y-56896000D01*
X104216490Y-57062786D01*
X104167840Y-57223161D01*
X104088837Y-57370966D01*
X103982517Y-57500517D01*
X103852966Y-57606837D01*
X103705161Y-57685840D01*
X103544785Y-57734490D01*
X103419801Y-57746800D01*
X103336199Y-57746800D01*
X103211215Y-57734490D01*
X103050839Y-57685840D01*
X102903034Y-57606837D01*
X102773483Y-57500517D01*
X102667163Y-57370966D01*
X102588160Y-57223161D01*
X102539510Y-57062786D01*
X102523083Y-56896000D01*
X102539510Y-56729214D01*
X102588160Y-56568839D01*
X102667163Y-56421034D01*
X102773483Y-56291483D01*
X102903034Y-56185163D01*
X103050839Y-56106160D01*
X103211215Y-56057510D01*
X103336199Y-56045200D01*
X103419801Y-56045200D01*
X103544785Y-56057510D01*
X103544785Y-56057510D01*
G37*
G36*
X77530868Y-55562257D02*
X77554716Y-55569491D01*
X77576692Y-55581237D01*
X77595955Y-55597045D01*
X77611763Y-55616308D01*
X77623509Y-55638284D01*
X77630743Y-55662132D01*
X77633800Y-55693165D01*
X77633800Y-56626835D01*
X77630743Y-56657868D01*
X77623509Y-56681716D01*
X77611763Y-56703692D01*
X77595955Y-56722955D01*
X77576692Y-56738763D01*
X77554716Y-56750509D01*
X77530868Y-56757743D01*
X77499835Y-56760800D01*
X75916165Y-56760800D01*
X75885132Y-56757743D01*
X75861284Y-56750509D01*
X75839308Y-56738763D01*
X75820045Y-56722955D01*
X75804237Y-56703692D01*
X75792491Y-56681716D01*
X75785257Y-56657868D01*
X75782200Y-56626835D01*
X75782200Y-55693165D01*
X75785257Y-55662132D01*
X75792491Y-55638284D01*
X75804237Y-55616308D01*
X75820045Y-55597045D01*
X75839308Y-55581237D01*
X75861284Y-55569491D01*
X75885132Y-55562257D01*
X75916165Y-55559200D01*
X77499835Y-55559200D01*
X77530868Y-55562257D01*
X77530868Y-55562257D01*
G37*
G36*
X191973264Y-45943299D02*
X192892451Y-46324039D01*
X193719698Y-46876787D01*
X194423213Y-47580302D01*
X194975961Y-48407549D01*
X195356701Y-49326736D01*
X195550800Y-50302540D01*
X195550800Y-51297460D01*
X195356701Y-52273264D01*
X194975961Y-53192451D01*
X194423213Y-54019698D01*
X193719698Y-54723213D01*
X192892451Y-55275961D01*
X191973264Y-55656701D01*
X190997460Y-55850800D01*
X190002540Y-55850800D01*
X189026736Y-55656701D01*
X188107549Y-55275961D01*
X187280302Y-54723213D01*
X186576787Y-54019698D01*
X186024039Y-53192451D01*
X185643299Y-52273264D01*
X185449200Y-51297460D01*
X185449200Y-50302540D01*
X185643299Y-49326736D01*
X186024039Y-48407549D01*
X186576787Y-47580302D01*
X187280302Y-46876787D01*
X188107549Y-46324039D01*
X189026736Y-45943299D01*
X190002540Y-45749200D01*
X190997460Y-45749200D01*
X191973264Y-45943299D01*
X191973264Y-45943299D01*
G37*
G36*
X154426169Y-52267895D02*
X154581005Y-52332031D01*
X154720354Y-52425140D01*
X154838860Y-52543646D01*
X154931969Y-52682995D01*
X154996105Y-52837831D01*
X155028800Y-53002203D01*
X155028800Y-53169797D01*
X154996105Y-53334169D01*
X154931969Y-53489005D01*
X154838860Y-53628354D01*
X154720354Y-53746860D01*
X154581005Y-53839969D01*
X154426169Y-53904105D01*
X154261797Y-53936800D01*
X154094203Y-53936800D01*
X153929831Y-53904105D01*
X153774995Y-53839969D01*
X153635646Y-53746860D01*
X153517140Y-53628354D01*
X153424031Y-53489005D01*
X153359895Y-53334169D01*
X153327200Y-53169797D01*
X153327200Y-53002203D01*
X153359895Y-52837831D01*
X153424031Y-52682995D01*
X153517140Y-52543646D01*
X153635646Y-52425140D01*
X153774995Y-52332031D01*
X153929831Y-52267895D01*
X154094203Y-52235200D01*
X154261797Y-52235200D01*
X154426169Y-52267895D01*
X154426169Y-52267895D01*
G37*
G36*
X77530868Y-52462257D02*
X77554716Y-52469491D01*
X77576692Y-52481237D01*
X77595955Y-52497045D01*
X77611763Y-52516308D01*
X77623509Y-52538284D01*
X77630743Y-52562132D01*
X77633800Y-52593165D01*
X77633800Y-53526835D01*
X77630743Y-53557868D01*
X77623509Y-53581716D01*
X77611763Y-53603692D01*
X77595955Y-53622955D01*
X77576692Y-53638763D01*
X77554716Y-53650509D01*
X77530868Y-53657743D01*
X77499835Y-53660800D01*
X75916165Y-53660800D01*
X75885132Y-53657743D01*
X75861284Y-53650509D01*
X75839308Y-53638763D01*
X75820045Y-53622955D01*
X75804237Y-53603692D01*
X75792491Y-53581716D01*
X75785257Y-53557868D01*
X75782200Y-53526835D01*
X75782200Y-52593165D01*
X75785257Y-52562132D01*
X75792491Y-52538284D01*
X75804237Y-52516308D01*
X75820045Y-52497045D01*
X75839308Y-52481237D01*
X75861284Y-52469491D01*
X75885132Y-52462257D01*
X75916165Y-52459200D01*
X77499835Y-52459200D01*
X77530868Y-52462257D01*
X77530868Y-52462257D01*
G37*
G36*
X103626169Y-48457895D02*
X103781005Y-48522031D01*
X103920354Y-48615140D01*
X104038860Y-48733646D01*
X104131969Y-48872995D01*
X104196105Y-49027831D01*
X104228800Y-49192203D01*
X104228800Y-49359797D01*
X104196105Y-49524169D01*
X104131969Y-49679005D01*
X104038860Y-49818354D01*
X103920354Y-49936860D01*
X103781005Y-50029969D01*
X103626169Y-50094105D01*
X103461797Y-50126800D01*
X103294203Y-50126800D01*
X103129831Y-50094105D01*
X102974995Y-50029969D01*
X102835646Y-49936860D01*
X102717140Y-49818354D01*
X102624031Y-49679005D01*
X102559895Y-49524169D01*
X102527200Y-49359797D01*
X102527200Y-49192203D01*
X102559895Y-49027831D01*
X102624031Y-48872995D01*
X102717140Y-48733646D01*
X102835646Y-48615140D01*
X102974995Y-48522031D01*
X103129831Y-48457895D01*
X103294203Y-48425200D01*
X103461797Y-48425200D01*
X103626169Y-48457895D01*
X103626169Y-48457895D01*
G37*
M02*
