M48
;DRILL file {KiCad 5.0.2-bee76a0~70~ubuntu16.04.1} date Wed 12 Jun 2019 02:38:29 PM PDT
;FORMAT={-:-/ absolute / inch / decimal}
FMAT,2
INCH,TZ
T1C0.0295
T2C0.0315
T3C0.0354
T4C0.0394
T5C0.0400
T6C0.2520
%
G90
G05
T1
X4.61Y-4.48
X4.66Y-4.43
X4.66Y-4.53
X4.61Y-4.71
X4.66Y-4.66
X4.66Y-4.76
X5.66Y-5.11
X5.71Y-5.06
X5.71Y-5.16
X2.63Y-4.76
X2.68Y-4.81
X2.73Y-4.76
X5.66Y-4.08
X5.71Y-4.03
X5.71Y-4.13
X2.39Y-4.76
X2.44Y-4.81
X2.49Y-4.76
X6.6Y-3.3
X6.65Y-3.25
X6.65Y-3.35
X5.66Y-4.31
X5.71Y-4.26
X5.71Y-4.36
X6.36Y-2.53
X6.41Y-2.48
X6.41Y-2.58
X4.37Y-2.44
X4.42Y-2.39
X4.42Y-2.49
X6.71Y-4.71
X6.76Y-4.66
X6.76Y-4.76
X6.6Y-3.54
X6.65Y-3.49
X6.65Y-3.59
X5.66Y-4.88
X5.71Y-4.83
X5.71Y-4.93
X6.71Y-4.48
X6.76Y-4.43
X6.76Y-4.53
X4.37Y-2.8
X4.42Y-2.75
X4.42Y-2.85
T2
X6.28Y-4.62
X6.58Y-4.62
X6.28Y-4.43
X6.58Y-4.43
X5.23Y-4.03
X5.53Y-4.03
X2.77Y-4.32
X2.77Y-4.62
X5.23Y-5.02
X5.53Y-5.02
X4.18Y-4.43
X4.48Y-4.43
X5.65Y-2.73
X5.95Y-2.73
X2.49Y-4.32
X2.49Y-4.62
X2.63Y-4.32
X2.63Y-4.62
X6.79Y-3.49
X7.09Y-3.49
X5.23Y-4.22
X5.53Y-4.22
X6.79Y-3.21
X7.09Y-3.21
X2.64Y-5.3
X2.64Y-5.6
X4.07Y-1.94
X4.07Y-2.24
X5.23Y-4.36
X5.53Y-4.36
X5.23Y-5.16
X5.53Y-5.16
X5.23Y-4.83
X5.53Y-4.83
X6.79Y-3.63
X7.09Y-3.63
X3.65Y-2.58
X3.95Y-2.58
X4.18Y-4.76
X4.48Y-4.76
X4.18Y-4.62
X4.48Y-4.62
X3.65Y-2.93
X3.95Y-2.93
X2.5Y-5.3
X2.5Y-5.6
X6.28Y-4.76
X6.58Y-4.76
X2.35Y-4.32
X2.35Y-4.62
X6.07Y-2.09
X6.07Y-2.39
X6.79Y-3.35
X7.09Y-3.35
T3
X2.4Y-2.75
X2.5Y-2.75
X2.4Y-3.75
X2.5Y-3.75
X7.66Y-4.6
X7.76Y-4.6
X7.66Y-2.45
X7.76Y-2.45
T4
X6.85Y-5.79
X6.95Y-5.79
X7.05Y-5.79
X2.3Y-3.38
X2.4Y-3.38
X2.5Y-3.38
X2.3Y-3.12
X2.4Y-3.12
X2.5Y-3.12
T5
X7.34Y-5.64
X7.34Y-5.76
X7.86Y-5.64
X7.86Y-5.76
T6
X7.5Y-2.
T0
M30
