M48
;DRILL file {KiCad 5.0.2-bee76a0~70~ubuntu16.04.1} date Tue 30 Jul 2019 08:51:55 PM PDT
;FORMAT={-:-/ absolute / inch / decimal}
FMAT,2
INCH,TZ
T1C0.0709
%
G90
G05
T1
X4.Y-4.2482G85X4.Y-4.2718
G05
X4.6018Y-5.15G85X4.5782Y-5.15
G05
X5.3582Y-2.45G85X5.3818Y-2.45
G05
X6.1Y-4.9882G85X6.1Y-5.0118
G05
X6.1Y-4.1882G85X6.1Y-4.2118
G05
X3.2582Y-2.75G85X3.2818Y-2.75
G05
X3.05Y-4.5418G85X3.05Y-4.5182
G05
X4.Y-4.9282G85X4.Y-4.9518
G05
X3.2882Y-4.05G85X3.3118Y-4.05
G05
X2.8Y-3.2218G85X2.8Y-3.1982
G05
X3.05Y-3.4118G85X3.05Y-3.3882
G05
X3.0082Y-2.15G85X3.0318Y-2.15
G05
X3.3118Y-5.15G85X3.2882Y-5.15
G05
X2.8Y-4.0618G85X2.8Y-4.0382
G05
X5.05Y-4.3382G85X5.05Y-4.3618
G05
X5.05Y-4.5882G85X5.05Y-4.6118
G05
X5.05Y-4.8382G85X5.05Y-4.8618
G05
X6.1Y-4.4382G85X6.1Y-4.4618
G05
X5.1082Y-2.45G85X5.1318Y-2.45
G05
X6.1Y-4.7382G85X6.1Y-4.7618
G05
X7.4382Y-2.45G85X7.4618Y-2.45
G05
X4.5882Y-4.05G85X4.6118Y-4.05
G05
X7.4618Y-4.6G85X7.4382Y-4.6
G05
T0
M30
