G04 #@! TF.GenerationSoftware,KiCad,Pcbnew,5.0.2-bee76a0~70~ubuntu16.04.1*
G04 #@! TF.CreationDate,2019-06-13T09:44:47-07:00*
G04 #@! TF.ProjectId,rtl-half-adder,72746c2d-6861-46c6-962d-61646465722e,rev?*
G04 #@! TF.SameCoordinates,Original*
G04 #@! TF.FileFunction,Legend,Bot*
G04 #@! TF.FilePolarity,Positive*
%FSLAX46Y46*%
G04 Gerber Fmt 4.6, Leading zero omitted, Abs format (unit mm)*
G04 Created by KiCad (PCBNEW 5.0.2-bee76a0~70~ubuntu16.04.1) date Thu 13 Jun 2019 09:44:47 AM PDT*
%MOMM*%
%LPD*%
G01*
G04 APERTURE LIST*
%ADD10C,0.203200*%
%ADD11C,0.304800*%
%ADD12C,0.120000*%
%ADD13C,0.010000*%
G04 APERTURE END LIST*
D10*
X101661443Y-145150114D02*
X101709824Y-145246876D01*
X101854967Y-145343638D01*
X101951729Y-145343638D01*
X102096872Y-145246876D01*
X102193634Y-145053352D01*
X102242015Y-144859828D01*
X102290396Y-144472780D01*
X102290396Y-144182495D01*
X102242015Y-143795447D01*
X102193634Y-143601923D01*
X102096872Y-143408400D01*
X101951729Y-143311638D01*
X101854967Y-143311638D01*
X101709824Y-143408400D01*
X101661443Y-143505161D01*
X100645443Y-145150114D02*
X100693824Y-145246876D01*
X100838967Y-145343638D01*
X100935729Y-145343638D01*
X101080872Y-145246876D01*
X101177634Y-145053352D01*
X101226015Y-144859828D01*
X101274396Y-144472780D01*
X101274396Y-144182495D01*
X101226015Y-143795447D01*
X101177634Y-143601923D01*
X101080872Y-143408400D01*
X100935729Y-143311638D01*
X100838967Y-143311638D01*
X100693824Y-143408400D01*
X100645443Y-143505161D01*
X99097253Y-144279257D02*
X98952110Y-144376019D01*
X98903729Y-144472780D01*
X98855348Y-144666304D01*
X98855348Y-144956590D01*
X98903729Y-145150114D01*
X98952110Y-145246876D01*
X99048872Y-145343638D01*
X99435920Y-145343638D01*
X99435920Y-143311638D01*
X99097253Y-143311638D01*
X99000491Y-143408400D01*
X98952110Y-143505161D01*
X98903729Y-143698685D01*
X98903729Y-143892209D01*
X98952110Y-144085733D01*
X99000491Y-144182495D01*
X99097253Y-144279257D01*
X99435920Y-144279257D01*
X98226396Y-144376019D02*
X98226396Y-145343638D01*
X98565062Y-143311638D02*
X98226396Y-144376019D01*
X97887729Y-143311638D01*
X97549062Y-144569542D02*
X96774967Y-144569542D01*
X96291158Y-145343638D02*
X96291158Y-143311638D01*
X95710586Y-145343638D01*
X95710586Y-143311638D01*
X94646205Y-145150114D02*
X94694586Y-145246876D01*
X94839729Y-145343638D01*
X94936491Y-145343638D01*
X95081634Y-145246876D01*
X95178396Y-145053352D01*
X95226777Y-144859828D01*
X95275158Y-144472780D01*
X95275158Y-144182495D01*
X95226777Y-143795447D01*
X95178396Y-143601923D01*
X95081634Y-143408400D01*
X94936491Y-143311638D01*
X94839729Y-143311638D01*
X94694586Y-143408400D01*
X94646205Y-143505161D01*
X94210777Y-144569542D02*
X93436681Y-144569542D01*
X93001253Y-145246876D02*
X92856110Y-145343638D01*
X92614205Y-145343638D01*
X92517443Y-145246876D01*
X92469062Y-145150114D01*
X92420681Y-144956590D01*
X92420681Y-144763066D01*
X92469062Y-144569542D01*
X92517443Y-144472780D01*
X92614205Y-144376019D01*
X92807729Y-144279257D01*
X92904491Y-144182495D01*
X92952872Y-144085733D01*
X93001253Y-143892209D01*
X93001253Y-143698685D01*
X92952872Y-143505161D01*
X92904491Y-143408400D01*
X92807729Y-143311638D01*
X92565824Y-143311638D01*
X92420681Y-143408400D01*
X92033634Y-144763066D02*
X91549824Y-144763066D01*
X92130396Y-145343638D02*
X91791729Y-143311638D01*
X91453062Y-145343638D01*
X101806586Y-147240171D02*
X101806586Y-148885123D01*
X101854967Y-149078647D01*
X101903348Y-149175409D01*
X102000110Y-149272171D01*
X102145253Y-149272171D01*
X102242015Y-149175409D01*
X101806586Y-148498076D02*
X101903348Y-148594838D01*
X102096872Y-148594838D01*
X102193634Y-148498076D01*
X102242015Y-148401314D01*
X102290396Y-148207790D01*
X102290396Y-147627219D01*
X102242015Y-147433695D01*
X102193634Y-147336933D01*
X102096872Y-147240171D01*
X101903348Y-147240171D01*
X101806586Y-147336933D01*
X101322777Y-148594838D02*
X101322777Y-147240171D01*
X101322777Y-146562838D02*
X101371158Y-146659600D01*
X101322777Y-146756361D01*
X101274396Y-146659600D01*
X101322777Y-146562838D01*
X101322777Y-146756361D01*
X100984110Y-147240171D02*
X100597062Y-147240171D01*
X100838967Y-146562838D02*
X100838967Y-148304552D01*
X100790586Y-148498076D01*
X100693824Y-148594838D01*
X100597062Y-148594838D01*
X100258396Y-148594838D02*
X100258396Y-146562838D01*
X99822967Y-148594838D02*
X99822967Y-147530457D01*
X99871348Y-147336933D01*
X99968110Y-147240171D01*
X100113253Y-147240171D01*
X100210015Y-147336933D01*
X100258396Y-147433695D01*
X98903729Y-147240171D02*
X98903729Y-148594838D01*
X99339158Y-147240171D02*
X99339158Y-148304552D01*
X99290777Y-148498076D01*
X99194015Y-148594838D01*
X99048872Y-148594838D01*
X98952110Y-148498076D01*
X98903729Y-148401314D01*
X98419920Y-148594838D02*
X98419920Y-146562838D01*
X98419920Y-147336933D02*
X98323158Y-147240171D01*
X98129634Y-147240171D01*
X98032872Y-147336933D01*
X97984491Y-147433695D01*
X97936110Y-147627219D01*
X97936110Y-148207790D01*
X97984491Y-148401314D01*
X98032872Y-148498076D01*
X98129634Y-148594838D01*
X98323158Y-148594838D01*
X98419920Y-148498076D01*
X97500681Y-148401314D02*
X97452300Y-148498076D01*
X97500681Y-148594838D01*
X97549062Y-148498076D01*
X97500681Y-148401314D01*
X97500681Y-148594838D01*
X96581443Y-148498076D02*
X96678205Y-148594838D01*
X96871729Y-148594838D01*
X96968491Y-148498076D01*
X97016872Y-148401314D01*
X97065253Y-148207790D01*
X97065253Y-147627219D01*
X97016872Y-147433695D01*
X96968491Y-147336933D01*
X96871729Y-147240171D01*
X96678205Y-147240171D01*
X96581443Y-147336933D01*
X96000872Y-148594838D02*
X96097634Y-148498076D01*
X96146015Y-148401314D01*
X96194396Y-148207790D01*
X96194396Y-147627219D01*
X96146015Y-147433695D01*
X96097634Y-147336933D01*
X96000872Y-147240171D01*
X95855729Y-147240171D01*
X95758967Y-147336933D01*
X95710586Y-147433695D01*
X95662205Y-147627219D01*
X95662205Y-148207790D01*
X95710586Y-148401314D01*
X95758967Y-148498076D01*
X95855729Y-148594838D01*
X96000872Y-148594838D01*
X95226777Y-148594838D02*
X95226777Y-147240171D01*
X95226777Y-147433695D02*
X95178396Y-147336933D01*
X95081634Y-147240171D01*
X94936491Y-147240171D01*
X94839729Y-147336933D01*
X94791348Y-147530457D01*
X94791348Y-148594838D01*
X94791348Y-147530457D02*
X94742967Y-147336933D01*
X94646205Y-147240171D01*
X94501062Y-147240171D01*
X94404300Y-147336933D01*
X94355920Y-147530457D01*
X94355920Y-148594838D01*
X93146396Y-146466076D02*
X94017253Y-149078647D01*
X92952872Y-147240171D02*
X92565824Y-147240171D01*
X92807729Y-146562838D02*
X92807729Y-148304552D01*
X92759348Y-148498076D01*
X92662586Y-148594838D01*
X92565824Y-148594838D01*
X92323920Y-147240171D02*
X92082015Y-148594838D01*
X91840110Y-147240171D02*
X92082015Y-148594838D01*
X92178777Y-149078647D01*
X92227158Y-149175409D01*
X92323920Y-149272171D01*
X91066015Y-148498076D02*
X91162777Y-148594838D01*
X91356300Y-148594838D01*
X91453062Y-148498076D01*
X91501443Y-148304552D01*
X91501443Y-147530457D01*
X91453062Y-147336933D01*
X91356300Y-147240171D01*
X91162777Y-147240171D01*
X91066015Y-147336933D01*
X91017634Y-147530457D01*
X91017634Y-147723980D01*
X91501443Y-147917504D01*
X90582205Y-148594838D02*
X90582205Y-146562838D01*
X90146777Y-148594838D02*
X90146777Y-147530457D01*
X90195158Y-147336933D01*
X90291920Y-147240171D01*
X90437062Y-147240171D01*
X90533824Y-147336933D01*
X90582205Y-147433695D01*
X89517824Y-148594838D02*
X89614586Y-148498076D01*
X89662967Y-148304552D01*
X89662967Y-146562838D01*
X88743729Y-148498076D02*
X88840491Y-148594838D01*
X89034015Y-148594838D01*
X89130777Y-148498076D01*
X89179158Y-148304552D01*
X89179158Y-147530457D01*
X89130777Y-147336933D01*
X89034015Y-147240171D01*
X88840491Y-147240171D01*
X88743729Y-147336933D01*
X88695348Y-147530457D01*
X88695348Y-147723980D01*
X89179158Y-147917504D01*
X87534205Y-146466076D02*
X88405062Y-149078647D01*
X87195539Y-148594838D02*
X87195539Y-147240171D01*
X87195539Y-147627219D02*
X87147158Y-147433695D01*
X87098777Y-147336933D01*
X87002015Y-147240171D01*
X86905253Y-147240171D01*
X86711729Y-147240171D02*
X86324681Y-147240171D01*
X86566586Y-146562838D02*
X86566586Y-148304552D01*
X86518205Y-148498076D01*
X86421443Y-148594838D01*
X86324681Y-148594838D01*
X85840872Y-148594838D02*
X85937634Y-148498076D01*
X85986015Y-148304552D01*
X85986015Y-146562838D01*
X85453824Y-147820742D02*
X84679729Y-147820742D01*
X84195920Y-148594838D02*
X84195920Y-146562838D01*
X83760491Y-148594838D02*
X83760491Y-147530457D01*
X83808872Y-147336933D01*
X83905634Y-147240171D01*
X84050777Y-147240171D01*
X84147539Y-147336933D01*
X84195920Y-147433695D01*
X82841253Y-148594838D02*
X82841253Y-147530457D01*
X82889634Y-147336933D01*
X82986396Y-147240171D01*
X83179920Y-147240171D01*
X83276681Y-147336933D01*
X82841253Y-148498076D02*
X82938015Y-148594838D01*
X83179920Y-148594838D01*
X83276681Y-148498076D01*
X83325062Y-148304552D01*
X83325062Y-148111028D01*
X83276681Y-147917504D01*
X83179920Y-147820742D01*
X82938015Y-147820742D01*
X82841253Y-147723980D01*
X82212300Y-148594838D02*
X82309062Y-148498076D01*
X82357443Y-148304552D01*
X82357443Y-146562838D01*
X81970396Y-147240171D02*
X81583348Y-147240171D01*
X81825253Y-148594838D02*
X81825253Y-146853123D01*
X81776872Y-146659600D01*
X81680110Y-146562838D01*
X81583348Y-146562838D01*
X81244681Y-147820742D02*
X80470586Y-147820742D01*
X79551348Y-148594838D02*
X79551348Y-147530457D01*
X79599729Y-147336933D01*
X79696491Y-147240171D01*
X79890015Y-147240171D01*
X79986777Y-147336933D01*
X79551348Y-148498076D02*
X79648110Y-148594838D01*
X79890015Y-148594838D01*
X79986777Y-148498076D01*
X80035158Y-148304552D01*
X80035158Y-148111028D01*
X79986777Y-147917504D01*
X79890015Y-147820742D01*
X79648110Y-147820742D01*
X79551348Y-147723980D01*
X78632110Y-148594838D02*
X78632110Y-146562838D01*
X78632110Y-148498076D02*
X78728872Y-148594838D01*
X78922396Y-148594838D01*
X79019158Y-148498076D01*
X79067539Y-148401314D01*
X79115920Y-148207790D01*
X79115920Y-147627219D01*
X79067539Y-147433695D01*
X79019158Y-147336933D01*
X78922396Y-147240171D01*
X78728872Y-147240171D01*
X78632110Y-147336933D01*
X77712872Y-148594838D02*
X77712872Y-146562838D01*
X77712872Y-148498076D02*
X77809634Y-148594838D01*
X78003158Y-148594838D01*
X78099920Y-148498076D01*
X78148300Y-148401314D01*
X78196681Y-148207790D01*
X78196681Y-147627219D01*
X78148300Y-147433695D01*
X78099920Y-147336933D01*
X78003158Y-147240171D01*
X77809634Y-147240171D01*
X77712872Y-147336933D01*
X76842015Y-148498076D02*
X76938777Y-148594838D01*
X77132300Y-148594838D01*
X77229062Y-148498076D01*
X77277443Y-148304552D01*
X77277443Y-147530457D01*
X77229062Y-147336933D01*
X77132300Y-147240171D01*
X76938777Y-147240171D01*
X76842015Y-147336933D01*
X76793634Y-147530457D01*
X76793634Y-147723980D01*
X77277443Y-147917504D01*
X76358205Y-148594838D02*
X76358205Y-147240171D01*
X76358205Y-147627219D02*
X76309824Y-147433695D01*
X76261443Y-147336933D01*
X76164681Y-147240171D01*
X76067920Y-147240171D01*
D11*
X141134737Y-136456057D02*
X140263880Y-136456057D01*
X140699308Y-139504057D02*
X140699308Y-136456057D01*
X139538165Y-139504057D02*
X139683308Y-139358914D01*
X139755880Y-139213771D01*
X139828451Y-138923485D01*
X139828451Y-138052628D01*
X139755880Y-137762342D01*
X139683308Y-137617200D01*
X139538165Y-137472057D01*
X139320451Y-137472057D01*
X139175308Y-137617200D01*
X139102737Y-137762342D01*
X139030165Y-138052628D01*
X139030165Y-138923485D01*
X139102737Y-139213771D01*
X139175308Y-139358914D01*
X139320451Y-139504057D01*
X139538165Y-139504057D01*
X138377022Y-139504057D02*
X138377022Y-136456057D01*
X138377022Y-137617200D02*
X138231880Y-137472057D01*
X137941594Y-137472057D01*
X137796451Y-137617200D01*
X137723880Y-137762342D01*
X137651308Y-138052628D01*
X137651308Y-138923485D01*
X137723880Y-139213771D01*
X137796451Y-139358914D01*
X137941594Y-139504057D01*
X138231880Y-139504057D01*
X138377022Y-139358914D01*
X136998165Y-139504057D02*
X136998165Y-137472057D01*
X136998165Y-136456057D02*
X137070737Y-136601200D01*
X136998165Y-136746342D01*
X136925594Y-136601200D01*
X136998165Y-136456057D01*
X136998165Y-136746342D01*
X136272451Y-137472057D02*
X136272451Y-139504057D01*
X136272451Y-137762342D02*
X136199880Y-137617200D01*
X136054737Y-137472057D01*
X135837022Y-137472057D01*
X135691880Y-137617200D01*
X135619308Y-137907485D01*
X135619308Y-139504057D01*
X133442165Y-138052628D02*
X133442165Y-139504057D01*
X133950165Y-136456057D02*
X133442165Y-138052628D01*
X132934165Y-136456057D01*
X131845594Y-139358914D02*
X131990737Y-139504057D01*
X132281022Y-139504057D01*
X132426165Y-139358914D01*
X132498737Y-139068628D01*
X132498737Y-137907485D01*
X132426165Y-137617200D01*
X132281022Y-137472057D01*
X131990737Y-137472057D01*
X131845594Y-137617200D01*
X131773022Y-137907485D01*
X131773022Y-138197771D01*
X132498737Y-138488057D01*
X131119880Y-139504057D02*
X131119880Y-136456057D01*
X130466737Y-139504057D02*
X130466737Y-137907485D01*
X130539308Y-137617200D01*
X130684451Y-137472057D01*
X130902165Y-137472057D01*
X131047308Y-137617200D01*
X131119880Y-137762342D01*
X129523308Y-139504057D02*
X129668451Y-139358914D01*
X129741022Y-139068628D01*
X129741022Y-136456057D01*
X128362165Y-139358914D02*
X128507308Y-139504057D01*
X128797594Y-139504057D01*
X128942737Y-139358914D01*
X129015308Y-139068628D01*
X129015308Y-137907485D01*
X128942737Y-137617200D01*
X128797594Y-137472057D01*
X128507308Y-137472057D01*
X128362165Y-137617200D01*
X128289594Y-137907485D01*
X128289594Y-138197771D01*
X129015308Y-138488057D01*
X140989594Y-141623142D02*
X140917022Y-141478000D01*
X140771880Y-141332857D01*
X140409022Y-141332857D01*
X140263880Y-141478000D01*
X140191308Y-141623142D01*
X140118737Y-141913428D01*
X140118737Y-142203714D01*
X140191308Y-142639142D01*
X141062165Y-144380857D01*
X140118737Y-144380857D01*
X139175308Y-141332857D02*
X139030165Y-141332857D01*
X138885022Y-141478000D01*
X138812451Y-141623142D01*
X138739880Y-141913428D01*
X138667308Y-142494000D01*
X138667308Y-143219714D01*
X138739880Y-143800285D01*
X138812451Y-144090571D01*
X138885022Y-144235714D01*
X139030165Y-144380857D01*
X139175308Y-144380857D01*
X139320451Y-144235714D01*
X139393022Y-144090571D01*
X139465594Y-143800285D01*
X139538165Y-143219714D01*
X139538165Y-142494000D01*
X139465594Y-141913428D01*
X139393022Y-141623142D01*
X139320451Y-141478000D01*
X139175308Y-141332857D01*
X137215880Y-144380857D02*
X138086737Y-144380857D01*
X137651308Y-144380857D02*
X137651308Y-141332857D01*
X137796451Y-141768285D01*
X137941594Y-142058571D01*
X138086737Y-142203714D01*
X136490165Y-144380857D02*
X136199880Y-144380857D01*
X136054737Y-144235714D01*
X135982165Y-144090571D01*
X135837022Y-143655142D01*
X135764451Y-143074571D01*
X135764451Y-141913428D01*
X135837022Y-141623142D01*
X135909594Y-141478000D01*
X136054737Y-141332857D01*
X136345022Y-141332857D01*
X136490165Y-141478000D01*
X136562737Y-141623142D01*
X136635308Y-141913428D01*
X136635308Y-142639142D01*
X136562737Y-142929428D01*
X136490165Y-143074571D01*
X136345022Y-143219714D01*
X136054737Y-143219714D01*
X135909594Y-143074571D01*
X135837022Y-142929428D01*
X135764451Y-142639142D01*
X135111308Y-143219714D02*
X133950165Y-143219714D01*
X132934165Y-141332857D02*
X132789022Y-141332857D01*
X132643880Y-141478000D01*
X132571308Y-141623142D01*
X132498737Y-141913428D01*
X132426165Y-142494000D01*
X132426165Y-143219714D01*
X132498737Y-143800285D01*
X132571308Y-144090571D01*
X132643880Y-144235714D01*
X132789022Y-144380857D01*
X132934165Y-144380857D01*
X133079308Y-144235714D01*
X133151880Y-144090571D01*
X133224451Y-143800285D01*
X133297022Y-143219714D01*
X133297022Y-142494000D01*
X133224451Y-141913428D01*
X133151880Y-141623142D01*
X133079308Y-141478000D01*
X132934165Y-141332857D01*
X131119880Y-141332857D02*
X131410165Y-141332857D01*
X131555308Y-141478000D01*
X131627880Y-141623142D01*
X131773022Y-142058571D01*
X131845594Y-142639142D01*
X131845594Y-143800285D01*
X131773022Y-144090571D01*
X131700451Y-144235714D01*
X131555308Y-144380857D01*
X131265022Y-144380857D01*
X131119880Y-144235714D01*
X131047308Y-144090571D01*
X130974737Y-143800285D01*
X130974737Y-143074571D01*
X131047308Y-142784285D01*
X131119880Y-142639142D01*
X131265022Y-142494000D01*
X131555308Y-142494000D01*
X131700451Y-142639142D01*
X131773022Y-142784285D01*
X131845594Y-143074571D01*
X130321594Y-143219714D02*
X129160451Y-143219714D01*
X127636451Y-144380857D02*
X128507308Y-144380857D01*
X128071880Y-144380857D02*
X128071880Y-141332857D01*
X128217022Y-141768285D01*
X128362165Y-142058571D01*
X128507308Y-142203714D01*
X127055880Y-141623142D02*
X126983308Y-141478000D01*
X126838165Y-141332857D01*
X126475308Y-141332857D01*
X126330165Y-141478000D01*
X126257594Y-141623142D01*
X126185022Y-141913428D01*
X126185022Y-142203714D01*
X126257594Y-142639142D01*
X127128451Y-144380857D01*
X126185022Y-144380857D01*
X141062165Y-147225657D02*
X140699308Y-149257657D01*
X140336451Y-147225657D01*
X138957594Y-149257657D02*
X139828451Y-149257657D01*
X139393022Y-149257657D02*
X139393022Y-146209657D01*
X139538165Y-146645085D01*
X139683308Y-146935371D01*
X139828451Y-147080514D01*
D12*
G04 #@! TO.C,Q17*
X127252000Y-103068000D02*
X125792000Y-103068000D01*
X127252000Y-106228000D02*
X124092000Y-106228000D01*
X127252000Y-106228000D02*
X127252000Y-105298000D01*
X127252000Y-103068000D02*
X127252000Y-103998000D01*
G04 #@! TO.C,Q18*
X156716000Y-97988000D02*
X155256000Y-97988000D01*
X156716000Y-101148000D02*
X153556000Y-101148000D01*
X156716000Y-101148000D02*
X156716000Y-100218000D01*
X156716000Y-97988000D02*
X156716000Y-98918000D01*
G04 #@! TO.C,R28*
X129039252Y-74624000D02*
X128516748Y-74624000D01*
X129039252Y-73204000D02*
X128516748Y-73204000D01*
G04 #@! TO.C,R29*
X130758000Y-67556748D02*
X130758000Y-68079252D01*
X129338000Y-67556748D02*
X129338000Y-68079252D01*
G04 #@! TO.C,R34*
X124154000Y-123944748D02*
X124154000Y-124467252D01*
X122734000Y-123944748D02*
X122734000Y-124467252D01*
G04 #@! TO.C,R35*
X150824000Y-99306748D02*
X150824000Y-99829252D01*
X149404000Y-99306748D02*
X149404000Y-99829252D01*
G04 #@! TO.C,R36*
X149404000Y-105925252D02*
X149404000Y-105402748D01*
X150824000Y-105925252D02*
X150824000Y-105402748D01*
G04 #@! TO.C,R37*
X149404000Y-112275252D02*
X149404000Y-111752748D01*
X150824000Y-112275252D02*
X150824000Y-111752748D01*
G04 #@! TO.C,R39*
X150824000Y-121404748D02*
X150824000Y-121927252D01*
X149404000Y-121404748D02*
X149404000Y-121927252D01*
G04 #@! TO.C,D5*
X131508000Y-60630000D02*
X131508000Y-64515000D01*
X128588000Y-64515000D02*
X128588000Y-60630000D01*
X131508000Y-64515000D02*
X128588000Y-64515000D01*
G04 #@! TO.C,D6*
X137858000Y-60630000D02*
X137858000Y-64515000D01*
X134938000Y-64515000D02*
X134938000Y-60630000D01*
X137858000Y-64515000D02*
X134938000Y-64515000D01*
G04 #@! TO.C,D10*
X156540000Y-108140000D02*
X152655000Y-108140000D01*
X152655000Y-105220000D02*
X156540000Y-105220000D01*
X152655000Y-108140000D02*
X152655000Y-105220000D01*
G04 #@! TO.C,D11*
X156540000Y-114490000D02*
X152655000Y-114490000D01*
X152655000Y-111570000D02*
X156540000Y-111570000D01*
X152655000Y-114490000D02*
X152655000Y-111570000D01*
G04 #@! TO.C,D12*
X156540000Y-122110000D02*
X152655000Y-122110000D01*
X152655000Y-119190000D02*
X156540000Y-119190000D01*
X152655000Y-122110000D02*
X152655000Y-119190000D01*
G04 #@! TO.C,D7*
X129870000Y-111950000D02*
X125985000Y-111950000D01*
X125985000Y-109030000D02*
X129870000Y-109030000D01*
X125985000Y-111950000D02*
X125985000Y-109030000D01*
G04 #@! TO.C,D8*
X129870000Y-118300000D02*
X125985000Y-118300000D01*
X125985000Y-115380000D02*
X129870000Y-115380000D01*
X125985000Y-118300000D02*
X125985000Y-115380000D01*
G04 #@! TO.C,R30*
X137108000Y-67547748D02*
X137108000Y-68070252D01*
X135688000Y-67547748D02*
X135688000Y-68070252D01*
G04 #@! TO.C,R31*
X121360000Y-104386748D02*
X121360000Y-104909252D01*
X119940000Y-104386748D02*
X119940000Y-104909252D01*
G04 #@! TO.C,D9*
X129870000Y-124650000D02*
X125985000Y-124650000D01*
X125985000Y-121730000D02*
X129870000Y-121730000D01*
X125985000Y-124650000D02*
X125985000Y-121730000D01*
G04 #@! TO.C,D13*
X156540000Y-128460000D02*
X152655000Y-128460000D01*
X152655000Y-125540000D02*
X156540000Y-125540000D01*
X152655000Y-128460000D02*
X152655000Y-125540000D01*
G04 #@! TO.C,Q16*
X135634000Y-71318000D02*
X134174000Y-71318000D01*
X135634000Y-74478000D02*
X132474000Y-74478000D01*
X135634000Y-74478000D02*
X135634000Y-73548000D01*
X135634000Y-71318000D02*
X135634000Y-72248000D01*
G04 #@! TO.C,Q19*
X156716000Y-132532000D02*
X155256000Y-132532000D01*
X156716000Y-135692000D02*
X153556000Y-135692000D01*
X156716000Y-135692000D02*
X156716000Y-134762000D01*
X156716000Y-132532000D02*
X156716000Y-133462000D01*
G04 #@! TO.C,R32*
X124154000Y-111244748D02*
X124154000Y-111767252D01*
X122734000Y-111244748D02*
X122734000Y-111767252D01*
G04 #@! TO.C,R33*
X124154000Y-117594748D02*
X124154000Y-118117252D01*
X122734000Y-117594748D02*
X122734000Y-118117252D01*
G04 #@! TO.C,R38*
X150824000Y-133850748D02*
X150824000Y-134373252D01*
X149404000Y-133850748D02*
X149404000Y-134373252D01*
G04 #@! TO.C,R40*
X150824000Y-127754748D02*
X150824000Y-128277252D01*
X149404000Y-127754748D02*
X149404000Y-128277252D01*
G04 #@! TO.C,D14*
X78168000Y-53010000D02*
X78168000Y-56895000D01*
X75248000Y-56895000D02*
X75248000Y-53010000D01*
X78168000Y-56895000D02*
X75248000Y-56895000D01*
G04 #@! TO.C,D15*
X69520000Y-80074000D02*
X73405000Y-80074000D01*
X73405000Y-82994000D02*
X69520000Y-82994000D01*
X73405000Y-80074000D02*
X73405000Y-82994000D01*
G04 #@! TO.C,D16*
X73405000Y-101410000D02*
X73405000Y-104330000D01*
X73405000Y-104330000D02*
X69520000Y-104330000D01*
X69520000Y-101410000D02*
X73405000Y-101410000D01*
G04 #@! TO.C,D17*
X85280000Y-101270000D02*
X85280000Y-105155000D01*
X82360000Y-105155000D02*
X82360000Y-101270000D01*
X85280000Y-105155000D02*
X82360000Y-105155000D01*
G04 #@! TO.C,D18*
X99315000Y-109664000D02*
X99315000Y-106744000D01*
X99315000Y-106744000D02*
X103200000Y-106744000D01*
X103200000Y-109664000D02*
X99315000Y-109664000D01*
G04 #@! TO.C,D19*
X118300000Y-101270000D02*
X118300000Y-105155000D01*
X115380000Y-105155000D02*
X115380000Y-101270000D01*
X118300000Y-105155000D02*
X115380000Y-105155000D01*
G04 #@! TO.C,D20*
X84518000Y-72135000D02*
X81598000Y-72135000D01*
X81598000Y-72135000D02*
X81598000Y-68250000D01*
X84518000Y-68250000D02*
X84518000Y-72135000D01*
G04 #@! TO.C,D21*
X79755000Y-84900000D02*
X79755000Y-87820000D01*
X79755000Y-87820000D02*
X75870000Y-87820000D01*
X75870000Y-84900000D02*
X79755000Y-84900000D01*
G04 #@! TO.C,D22*
X79755000Y-113602000D02*
X79755000Y-116522000D01*
X79755000Y-116522000D02*
X75870000Y-116522000D01*
X75870000Y-113602000D02*
X79755000Y-113602000D01*
G04 #@! TO.C,D23*
X82360000Y-132410000D02*
X82360000Y-128525000D01*
X85280000Y-128525000D02*
X85280000Y-132410000D01*
X82360000Y-128525000D02*
X85280000Y-128525000D01*
G04 #@! TO.C,D24*
X103200000Y-126936000D02*
X99315000Y-126936000D01*
X99315000Y-124016000D02*
X103200000Y-124016000D01*
X99315000Y-126936000D02*
X99315000Y-124016000D01*
G04 #@! TO.C,D25*
X115126000Y-132410000D02*
X115126000Y-128525000D01*
X118046000Y-128525000D02*
X118046000Y-132410000D01*
X115126000Y-128525000D02*
X118046000Y-128525000D01*
G04 #@! TO.C,D26*
X190690000Y-60630000D02*
X190690000Y-64515000D01*
X187770000Y-64515000D02*
X187770000Y-60630000D01*
X190690000Y-64515000D02*
X187770000Y-64515000D01*
G04 #@! TO.C,D27*
X187770000Y-114555000D02*
X190690000Y-114555000D01*
X190690000Y-114555000D02*
X190690000Y-118440000D01*
X187770000Y-118440000D02*
X187770000Y-114555000D01*
G04 #@! TO.C,R41*
X75998000Y-59945748D02*
X75998000Y-60468252D01*
X77418000Y-59945748D02*
X77418000Y-60468252D01*
G04 #@! TO.C,R42*
X76446748Y-80824000D02*
X76969252Y-80824000D01*
X76446748Y-82244000D02*
X76969252Y-82244000D01*
G04 #@! TO.C,R43*
X76446748Y-103580000D02*
X76969252Y-103580000D01*
X76446748Y-102160000D02*
X76969252Y-102160000D01*
G04 #@! TO.C,R44*
X84574748Y-108152000D02*
X85097252Y-108152000D01*
X84574748Y-106732000D02*
X85097252Y-106732000D01*
G04 #@! TO.C,R45*
X96264252Y-107494000D02*
X95741748Y-107494000D01*
X96264252Y-108914000D02*
X95741748Y-108914000D01*
G04 #@! TO.C,R46*
X116085252Y-108152000D02*
X115562748Y-108152000D01*
X116085252Y-106732000D02*
X115562748Y-106732000D01*
G04 #@! TO.C,R47*
X83768000Y-75176748D02*
X83768000Y-75699252D01*
X82348000Y-75176748D02*
X82348000Y-75699252D01*
G04 #@! TO.C,R48*
X82796748Y-87070000D02*
X83319252Y-87070000D01*
X82796748Y-85650000D02*
X83319252Y-85650000D01*
G04 #@! TO.C,R49*
X82796748Y-115772000D02*
X83319252Y-115772000D01*
X82796748Y-114352000D02*
X83319252Y-114352000D01*
G04 #@! TO.C,R50*
X84574748Y-125528000D02*
X85097252Y-125528000D01*
X84574748Y-126948000D02*
X85097252Y-126948000D01*
G04 #@! TO.C,R51*
X96273252Y-126186000D02*
X95750748Y-126186000D01*
X96273252Y-124766000D02*
X95750748Y-124766000D01*
G04 #@! TO.C,R52*
X115831252Y-126948000D02*
X115308748Y-126948000D01*
X115831252Y-125528000D02*
X115308748Y-125528000D01*
G04 #@! TO.C,R53*
X188520000Y-67556748D02*
X188520000Y-68079252D01*
X189940000Y-67556748D02*
X189940000Y-68079252D01*
G04 #@! TO.C,R54*
X188520000Y-111513252D02*
X188520000Y-110990748D01*
X189940000Y-111513252D02*
X189940000Y-110990748D01*
D13*
G04 #@! TO.C,REF\002A\002A*
G36*
X110759465Y-137635172D02*
X110646883Y-138232363D01*
X110231469Y-138403610D01*
X109816056Y-138574857D01*
X109317698Y-138235978D01*
X109178132Y-138141622D01*
X109051972Y-138057375D01*
X108945105Y-137987083D01*
X108863418Y-137934592D01*
X108812799Y-137903749D01*
X108799014Y-137897098D01*
X108774180Y-137914203D01*
X108721112Y-137961489D01*
X108645760Y-138032917D01*
X108554071Y-138122445D01*
X108451993Y-138224034D01*
X108345474Y-138331643D01*
X108240464Y-138439232D01*
X108142909Y-138540760D01*
X108058758Y-138630186D01*
X107993960Y-138701471D01*
X107954462Y-138748573D01*
X107945020Y-138764337D01*
X107958609Y-138793398D01*
X107996707Y-138857066D01*
X108055306Y-138949112D01*
X108130403Y-139063309D01*
X108217991Y-139193429D01*
X108268746Y-139267646D01*
X108361255Y-139403167D01*
X108443460Y-139525461D01*
X108511370Y-139628440D01*
X108561000Y-139706018D01*
X108588360Y-139752106D01*
X108592471Y-139761792D01*
X108583151Y-139789319D01*
X108557746Y-139853473D01*
X108520089Y-139945235D01*
X108474014Y-140055584D01*
X108423354Y-140175500D01*
X108371941Y-140295964D01*
X108323611Y-140407954D01*
X108282194Y-140502452D01*
X108251526Y-140570437D01*
X108235438Y-140602888D01*
X108234489Y-140604165D01*
X108209228Y-140610362D01*
X108141954Y-140624185D01*
X108039640Y-140644277D01*
X107909259Y-140669279D01*
X107757784Y-140697831D01*
X107669406Y-140714296D01*
X107507548Y-140745114D01*
X107361351Y-140774439D01*
X107238213Y-140800666D01*
X107145531Y-140822191D01*
X107090699Y-140837410D01*
X107079677Y-140842238D01*
X107068881Y-140874919D01*
X107060171Y-140948730D01*
X107053540Y-141055037D01*
X107048982Y-141185212D01*
X107046491Y-141330621D01*
X107046062Y-141482635D01*
X107047689Y-141632622D01*
X107051365Y-141771951D01*
X107057085Y-141891990D01*
X107064842Y-141984110D01*
X107074632Y-142039677D01*
X107080504Y-142051245D01*
X107115601Y-142065110D01*
X107189972Y-142084933D01*
X107293777Y-142108384D01*
X107417181Y-142133136D01*
X107460259Y-142141143D01*
X107667953Y-142179186D01*
X107832016Y-142209824D01*
X107957870Y-142234274D01*
X108050935Y-142253754D01*
X108116633Y-142269481D01*
X108160383Y-142282673D01*
X108187608Y-142294549D01*
X108203728Y-142306325D01*
X108205983Y-142308653D01*
X108228497Y-142346145D01*
X108262842Y-142419110D01*
X108305589Y-142518612D01*
X108353308Y-142635718D01*
X108402570Y-142761493D01*
X108449945Y-142887002D01*
X108492005Y-143003310D01*
X108525320Y-143101484D01*
X108546459Y-143172588D01*
X108551995Y-143207687D01*
X108551534Y-143208917D01*
X108532777Y-143237606D01*
X108490224Y-143300730D01*
X108428347Y-143391718D01*
X108351618Y-143504000D01*
X108264509Y-143631005D01*
X108239701Y-143667098D01*
X108151247Y-143797948D01*
X108073412Y-143917336D01*
X108010434Y-144018407D01*
X107966555Y-144094304D01*
X107946015Y-144138172D01*
X107945020Y-144143562D01*
X107962278Y-144171889D01*
X108009964Y-144228006D01*
X108081950Y-144305882D01*
X108172103Y-144399485D01*
X108274295Y-144502786D01*
X108382394Y-144609751D01*
X108490272Y-144714351D01*
X108591796Y-144810554D01*
X108680838Y-144892329D01*
X108751267Y-144953645D01*
X108796953Y-144988471D01*
X108809591Y-144994157D01*
X108839009Y-144980765D01*
X108899239Y-144944644D01*
X108980470Y-144891881D01*
X109042970Y-144849412D01*
X109156215Y-144771485D01*
X109290326Y-144679729D01*
X109424845Y-144588120D01*
X109497167Y-144539091D01*
X109741962Y-144373515D01*
X109947449Y-144484620D01*
X110041064Y-144533293D01*
X110120670Y-144571126D01*
X110174533Y-144592703D01*
X110188243Y-144595706D01*
X110204730Y-144573538D01*
X110237255Y-144510894D01*
X110283391Y-144413554D01*
X110340710Y-144287294D01*
X110406784Y-144137895D01*
X110479185Y-143971133D01*
X110555484Y-143792787D01*
X110633254Y-143608636D01*
X110710066Y-143424457D01*
X110783494Y-143246030D01*
X110851108Y-143079132D01*
X110910480Y-142929542D01*
X110959184Y-142803038D01*
X110994790Y-142705399D01*
X111014870Y-142642402D01*
X111018100Y-142620766D01*
X110992504Y-142593169D01*
X110936461Y-142548370D01*
X110861689Y-142495679D01*
X110855413Y-142491510D01*
X110662155Y-142336814D01*
X110506326Y-142156336D01*
X110389276Y-141955847D01*
X110312355Y-141741119D01*
X110276914Y-141517922D01*
X110284303Y-141292026D01*
X110335873Y-141069204D01*
X110432974Y-140855224D01*
X110461542Y-140808409D01*
X110610132Y-140619363D01*
X110785673Y-140467557D01*
X110982090Y-140353779D01*
X111193307Y-140278820D01*
X111413247Y-140243467D01*
X111635837Y-140248512D01*
X111854999Y-140294744D01*
X112064658Y-140382951D01*
X112258739Y-140513924D01*
X112318774Y-140567082D01*
X112471565Y-140733484D01*
X112582903Y-140908657D01*
X112659277Y-141105011D01*
X112701813Y-141299462D01*
X112712314Y-141518087D01*
X112677299Y-141737797D01*
X112600327Y-141951165D01*
X112484953Y-142150767D01*
X112334734Y-142329174D01*
X112153227Y-142478962D01*
X112129373Y-142494751D01*
X112053799Y-142546457D01*
X111996349Y-142591257D01*
X111968883Y-142619862D01*
X111968483Y-142620766D01*
X111974380Y-142651709D01*
X111997755Y-142721936D01*
X112036179Y-142825670D01*
X112087223Y-142957135D01*
X112148458Y-143110552D01*
X112217456Y-143280146D01*
X112291786Y-143460138D01*
X112369022Y-143644753D01*
X112446732Y-143828213D01*
X112522489Y-144004741D01*
X112593863Y-144168559D01*
X112658426Y-144313892D01*
X112713748Y-144434962D01*
X112757400Y-144525992D01*
X112786954Y-144581205D01*
X112798856Y-144595706D01*
X112835223Y-144584414D01*
X112903270Y-144554130D01*
X112991263Y-144510265D01*
X113039649Y-144484620D01*
X113245137Y-144373515D01*
X113489932Y-144539091D01*
X113614894Y-144623915D01*
X113751705Y-144717261D01*
X113879911Y-144805153D01*
X113944129Y-144849412D01*
X114034449Y-144910063D01*
X114110929Y-144958126D01*
X114163593Y-144987515D01*
X114180698Y-144993727D01*
X114205595Y-144976968D01*
X114260695Y-144930181D01*
X114340657Y-144858225D01*
X114440139Y-144765957D01*
X114553800Y-144658235D01*
X114625685Y-144589071D01*
X114751449Y-144465502D01*
X114860137Y-144354979D01*
X114947355Y-144262230D01*
X115008711Y-144191982D01*
X115039809Y-144148965D01*
X115042792Y-144140235D01*
X115028947Y-144107029D01*
X114990688Y-144039887D01*
X114932258Y-143945608D01*
X114857903Y-143830990D01*
X114771865Y-143702828D01*
X114747397Y-143667098D01*
X114658245Y-143537234D01*
X114578262Y-143420314D01*
X114511920Y-143322907D01*
X114463689Y-143251584D01*
X114438043Y-143212915D01*
X114435565Y-143208917D01*
X114439271Y-143178100D01*
X114458939Y-143110344D01*
X114491140Y-143014584D01*
X114532445Y-142899754D01*
X114579425Y-142774789D01*
X114628651Y-142648624D01*
X114676692Y-142530193D01*
X114720119Y-142428430D01*
X114755504Y-142352271D01*
X114779416Y-142310649D01*
X114781116Y-142308653D01*
X114795738Y-142296758D01*
X114820435Y-142284995D01*
X114860628Y-142272146D01*
X114921737Y-142256994D01*
X115009183Y-142238321D01*
X115128388Y-142214910D01*
X115284773Y-142185542D01*
X115483757Y-142149000D01*
X115526840Y-142141143D01*
X115654529Y-142116472D01*
X115765847Y-142092338D01*
X115850955Y-142071069D01*
X115900017Y-142054993D01*
X115906595Y-142051245D01*
X115917436Y-142018018D01*
X115926247Y-141943766D01*
X115933024Y-141837121D01*
X115937760Y-141706712D01*
X115940450Y-141561172D01*
X115941087Y-141409131D01*
X115939666Y-141259221D01*
X115936180Y-141120073D01*
X115930624Y-141000317D01*
X115922992Y-140908586D01*
X115913278Y-140853511D01*
X115907422Y-140842238D01*
X115874820Y-140830868D01*
X115800582Y-140812369D01*
X115692104Y-140788347D01*
X115556783Y-140760407D01*
X115402015Y-140730153D01*
X115317692Y-140714296D01*
X115157704Y-140684389D01*
X115015033Y-140657295D01*
X114896652Y-140634376D01*
X114809535Y-140616988D01*
X114760655Y-140606492D01*
X114752610Y-140604165D01*
X114739013Y-140577931D01*
X114710271Y-140514740D01*
X114670215Y-140423622D01*
X114622676Y-140313602D01*
X114571485Y-140193710D01*
X114520474Y-140072972D01*
X114473474Y-139960416D01*
X114434316Y-139865071D01*
X114406831Y-139795962D01*
X114394851Y-139762119D01*
X114394628Y-139760640D01*
X114408209Y-139733942D01*
X114446285Y-139672505D01*
X114504853Y-139582434D01*
X114579912Y-139469835D01*
X114667460Y-139340815D01*
X114718353Y-139266706D01*
X114811091Y-139130822D01*
X114893459Y-139007454D01*
X114961439Y-138902842D01*
X115011012Y-138823228D01*
X115038158Y-138774852D01*
X115042079Y-138764007D01*
X115025225Y-138738765D01*
X114978632Y-138684869D01*
X114908251Y-138608358D01*
X114820035Y-138515268D01*
X114719935Y-138411640D01*
X114613902Y-138303509D01*
X114507889Y-138196915D01*
X114407848Y-138097895D01*
X114319730Y-138012487D01*
X114249487Y-137946730D01*
X114203072Y-137906661D01*
X114187544Y-137897098D01*
X114162261Y-137910545D01*
X114101789Y-137948320D01*
X114012008Y-138006580D01*
X113898797Y-138081479D01*
X113768036Y-138169170D01*
X113669400Y-138235978D01*
X113171043Y-138574857D01*
X112755629Y-138403610D01*
X112340216Y-138232363D01*
X112227634Y-137635172D01*
X112115051Y-137037980D01*
X110872048Y-137037980D01*
X110759465Y-137635172D01*
X110759465Y-137635172D01*
G37*
X110759465Y-137635172D02*
X110646883Y-138232363D01*
X110231469Y-138403610D01*
X109816056Y-138574857D01*
X109317698Y-138235978D01*
X109178132Y-138141622D01*
X109051972Y-138057375D01*
X108945105Y-137987083D01*
X108863418Y-137934592D01*
X108812799Y-137903749D01*
X108799014Y-137897098D01*
X108774180Y-137914203D01*
X108721112Y-137961489D01*
X108645760Y-138032917D01*
X108554071Y-138122445D01*
X108451993Y-138224034D01*
X108345474Y-138331643D01*
X108240464Y-138439232D01*
X108142909Y-138540760D01*
X108058758Y-138630186D01*
X107993960Y-138701471D01*
X107954462Y-138748573D01*
X107945020Y-138764337D01*
X107958609Y-138793398D01*
X107996707Y-138857066D01*
X108055306Y-138949112D01*
X108130403Y-139063309D01*
X108217991Y-139193429D01*
X108268746Y-139267646D01*
X108361255Y-139403167D01*
X108443460Y-139525461D01*
X108511370Y-139628440D01*
X108561000Y-139706018D01*
X108588360Y-139752106D01*
X108592471Y-139761792D01*
X108583151Y-139789319D01*
X108557746Y-139853473D01*
X108520089Y-139945235D01*
X108474014Y-140055584D01*
X108423354Y-140175500D01*
X108371941Y-140295964D01*
X108323611Y-140407954D01*
X108282194Y-140502452D01*
X108251526Y-140570437D01*
X108235438Y-140602888D01*
X108234489Y-140604165D01*
X108209228Y-140610362D01*
X108141954Y-140624185D01*
X108039640Y-140644277D01*
X107909259Y-140669279D01*
X107757784Y-140697831D01*
X107669406Y-140714296D01*
X107507548Y-140745114D01*
X107361351Y-140774439D01*
X107238213Y-140800666D01*
X107145531Y-140822191D01*
X107090699Y-140837410D01*
X107079677Y-140842238D01*
X107068881Y-140874919D01*
X107060171Y-140948730D01*
X107053540Y-141055037D01*
X107048982Y-141185212D01*
X107046491Y-141330621D01*
X107046062Y-141482635D01*
X107047689Y-141632622D01*
X107051365Y-141771951D01*
X107057085Y-141891990D01*
X107064842Y-141984110D01*
X107074632Y-142039677D01*
X107080504Y-142051245D01*
X107115601Y-142065110D01*
X107189972Y-142084933D01*
X107293777Y-142108384D01*
X107417181Y-142133136D01*
X107460259Y-142141143D01*
X107667953Y-142179186D01*
X107832016Y-142209824D01*
X107957870Y-142234274D01*
X108050935Y-142253754D01*
X108116633Y-142269481D01*
X108160383Y-142282673D01*
X108187608Y-142294549D01*
X108203728Y-142306325D01*
X108205983Y-142308653D01*
X108228497Y-142346145D01*
X108262842Y-142419110D01*
X108305589Y-142518612D01*
X108353308Y-142635718D01*
X108402570Y-142761493D01*
X108449945Y-142887002D01*
X108492005Y-143003310D01*
X108525320Y-143101484D01*
X108546459Y-143172588D01*
X108551995Y-143207687D01*
X108551534Y-143208917D01*
X108532777Y-143237606D01*
X108490224Y-143300730D01*
X108428347Y-143391718D01*
X108351618Y-143504000D01*
X108264509Y-143631005D01*
X108239701Y-143667098D01*
X108151247Y-143797948D01*
X108073412Y-143917336D01*
X108010434Y-144018407D01*
X107966555Y-144094304D01*
X107946015Y-144138172D01*
X107945020Y-144143562D01*
X107962278Y-144171889D01*
X108009964Y-144228006D01*
X108081950Y-144305882D01*
X108172103Y-144399485D01*
X108274295Y-144502786D01*
X108382394Y-144609751D01*
X108490272Y-144714351D01*
X108591796Y-144810554D01*
X108680838Y-144892329D01*
X108751267Y-144953645D01*
X108796953Y-144988471D01*
X108809591Y-144994157D01*
X108839009Y-144980765D01*
X108899239Y-144944644D01*
X108980470Y-144891881D01*
X109042970Y-144849412D01*
X109156215Y-144771485D01*
X109290326Y-144679729D01*
X109424845Y-144588120D01*
X109497167Y-144539091D01*
X109741962Y-144373515D01*
X109947449Y-144484620D01*
X110041064Y-144533293D01*
X110120670Y-144571126D01*
X110174533Y-144592703D01*
X110188243Y-144595706D01*
X110204730Y-144573538D01*
X110237255Y-144510894D01*
X110283391Y-144413554D01*
X110340710Y-144287294D01*
X110406784Y-144137895D01*
X110479185Y-143971133D01*
X110555484Y-143792787D01*
X110633254Y-143608636D01*
X110710066Y-143424457D01*
X110783494Y-143246030D01*
X110851108Y-143079132D01*
X110910480Y-142929542D01*
X110959184Y-142803038D01*
X110994790Y-142705399D01*
X111014870Y-142642402D01*
X111018100Y-142620766D01*
X110992504Y-142593169D01*
X110936461Y-142548370D01*
X110861689Y-142495679D01*
X110855413Y-142491510D01*
X110662155Y-142336814D01*
X110506326Y-142156336D01*
X110389276Y-141955847D01*
X110312355Y-141741119D01*
X110276914Y-141517922D01*
X110284303Y-141292026D01*
X110335873Y-141069204D01*
X110432974Y-140855224D01*
X110461542Y-140808409D01*
X110610132Y-140619363D01*
X110785673Y-140467557D01*
X110982090Y-140353779D01*
X111193307Y-140278820D01*
X111413247Y-140243467D01*
X111635837Y-140248512D01*
X111854999Y-140294744D01*
X112064658Y-140382951D01*
X112258739Y-140513924D01*
X112318774Y-140567082D01*
X112471565Y-140733484D01*
X112582903Y-140908657D01*
X112659277Y-141105011D01*
X112701813Y-141299462D01*
X112712314Y-141518087D01*
X112677299Y-141737797D01*
X112600327Y-141951165D01*
X112484953Y-142150767D01*
X112334734Y-142329174D01*
X112153227Y-142478962D01*
X112129373Y-142494751D01*
X112053799Y-142546457D01*
X111996349Y-142591257D01*
X111968883Y-142619862D01*
X111968483Y-142620766D01*
X111974380Y-142651709D01*
X111997755Y-142721936D01*
X112036179Y-142825670D01*
X112087223Y-142957135D01*
X112148458Y-143110552D01*
X112217456Y-143280146D01*
X112291786Y-143460138D01*
X112369022Y-143644753D01*
X112446732Y-143828213D01*
X112522489Y-144004741D01*
X112593863Y-144168559D01*
X112658426Y-144313892D01*
X112713748Y-144434962D01*
X112757400Y-144525992D01*
X112786954Y-144581205D01*
X112798856Y-144595706D01*
X112835223Y-144584414D01*
X112903270Y-144554130D01*
X112991263Y-144510265D01*
X113039649Y-144484620D01*
X113245137Y-144373515D01*
X113489932Y-144539091D01*
X113614894Y-144623915D01*
X113751705Y-144717261D01*
X113879911Y-144805153D01*
X113944129Y-144849412D01*
X114034449Y-144910063D01*
X114110929Y-144958126D01*
X114163593Y-144987515D01*
X114180698Y-144993727D01*
X114205595Y-144976968D01*
X114260695Y-144930181D01*
X114340657Y-144858225D01*
X114440139Y-144765957D01*
X114553800Y-144658235D01*
X114625685Y-144589071D01*
X114751449Y-144465502D01*
X114860137Y-144354979D01*
X114947355Y-144262230D01*
X115008711Y-144191982D01*
X115039809Y-144148965D01*
X115042792Y-144140235D01*
X115028947Y-144107029D01*
X114990688Y-144039887D01*
X114932258Y-143945608D01*
X114857903Y-143830990D01*
X114771865Y-143702828D01*
X114747397Y-143667098D01*
X114658245Y-143537234D01*
X114578262Y-143420314D01*
X114511920Y-143322907D01*
X114463689Y-143251584D01*
X114438043Y-143212915D01*
X114435565Y-143208917D01*
X114439271Y-143178100D01*
X114458939Y-143110344D01*
X114491140Y-143014584D01*
X114532445Y-142899754D01*
X114579425Y-142774789D01*
X114628651Y-142648624D01*
X114676692Y-142530193D01*
X114720119Y-142428430D01*
X114755504Y-142352271D01*
X114779416Y-142310649D01*
X114781116Y-142308653D01*
X114795738Y-142296758D01*
X114820435Y-142284995D01*
X114860628Y-142272146D01*
X114921737Y-142256994D01*
X115009183Y-142238321D01*
X115128388Y-142214910D01*
X115284773Y-142185542D01*
X115483757Y-142149000D01*
X115526840Y-142141143D01*
X115654529Y-142116472D01*
X115765847Y-142092338D01*
X115850955Y-142071069D01*
X115900017Y-142054993D01*
X115906595Y-142051245D01*
X115917436Y-142018018D01*
X115926247Y-141943766D01*
X115933024Y-141837121D01*
X115937760Y-141706712D01*
X115940450Y-141561172D01*
X115941087Y-141409131D01*
X115939666Y-141259221D01*
X115936180Y-141120073D01*
X115930624Y-141000317D01*
X115922992Y-140908586D01*
X115913278Y-140853511D01*
X115907422Y-140842238D01*
X115874820Y-140830868D01*
X115800582Y-140812369D01*
X115692104Y-140788347D01*
X115556783Y-140760407D01*
X115402015Y-140730153D01*
X115317692Y-140714296D01*
X115157704Y-140684389D01*
X115015033Y-140657295D01*
X114896652Y-140634376D01*
X114809535Y-140616988D01*
X114760655Y-140606492D01*
X114752610Y-140604165D01*
X114739013Y-140577931D01*
X114710271Y-140514740D01*
X114670215Y-140423622D01*
X114622676Y-140313602D01*
X114571485Y-140193710D01*
X114520474Y-140072972D01*
X114473474Y-139960416D01*
X114434316Y-139865071D01*
X114406831Y-139795962D01*
X114394851Y-139762119D01*
X114394628Y-139760640D01*
X114408209Y-139733942D01*
X114446285Y-139672505D01*
X114504853Y-139582434D01*
X114579912Y-139469835D01*
X114667460Y-139340815D01*
X114718353Y-139266706D01*
X114811091Y-139130822D01*
X114893459Y-139007454D01*
X114961439Y-138902842D01*
X115011012Y-138823228D01*
X115038158Y-138774852D01*
X115042079Y-138764007D01*
X115025225Y-138738765D01*
X114978632Y-138684869D01*
X114908251Y-138608358D01*
X114820035Y-138515268D01*
X114719935Y-138411640D01*
X114613902Y-138303509D01*
X114507889Y-138196915D01*
X114407848Y-138097895D01*
X114319730Y-138012487D01*
X114249487Y-137946730D01*
X114203072Y-137906661D01*
X114187544Y-137897098D01*
X114162261Y-137910545D01*
X114101789Y-137948320D01*
X114012008Y-138006580D01*
X113898797Y-138081479D01*
X113768036Y-138169170D01*
X113669400Y-138235978D01*
X113171043Y-138574857D01*
X112755629Y-138403610D01*
X112340216Y-138232363D01*
X112227634Y-137635172D01*
X112115051Y-137037980D01*
X110872048Y-137037980D01*
X110759465Y-137635172D01*
G36*
X107942363Y-145889472D02*
X107856710Y-145915641D01*
X107801563Y-145948707D01*
X107783599Y-145974855D01*
X107788543Y-146005852D01*
X107820628Y-146054547D01*
X107847757Y-146089035D01*
X107903683Y-146151383D01*
X107945701Y-146177615D01*
X107981520Y-146175903D01*
X108087776Y-146148863D01*
X108165811Y-146150091D01*
X108229180Y-146180735D01*
X108250454Y-146198670D01*
X108318549Y-146261779D01*
X108318549Y-147085922D01*
X108592471Y-147085922D01*
X108592471Y-145890628D01*
X108455510Y-145890628D01*
X108373281Y-145893879D01*
X108330856Y-145905426D01*
X108318555Y-145927952D01*
X108318549Y-145928620D01*
X108312740Y-145952215D01*
X108286469Y-145949138D01*
X108250069Y-145932115D01*
X108174889Y-145900439D01*
X108113842Y-145881381D01*
X108035292Y-145876496D01*
X107942363Y-145889472D01*
X107942363Y-145889472D01*
G37*
X107942363Y-145889472D02*
X107856710Y-145915641D01*
X107801563Y-145948707D01*
X107783599Y-145974855D01*
X107788543Y-146005852D01*
X107820628Y-146054547D01*
X107847757Y-146089035D01*
X107903683Y-146151383D01*
X107945701Y-146177615D01*
X107981520Y-146175903D01*
X108087776Y-146148863D01*
X108165811Y-146150091D01*
X108229180Y-146180735D01*
X108250454Y-146198670D01*
X108318549Y-146261779D01*
X108318549Y-147085922D01*
X108592471Y-147085922D01*
X108592471Y-145890628D01*
X108455510Y-145890628D01*
X108373281Y-145893879D01*
X108330856Y-145905426D01*
X108318555Y-145927952D01*
X108318549Y-145928620D01*
X108312740Y-145952215D01*
X108286469Y-145949138D01*
X108250069Y-145932115D01*
X108174889Y-145900439D01*
X108113842Y-145881381D01*
X108035292Y-145876496D01*
X107942363Y-145889472D01*
G36*
X112999240Y-145911199D02*
X112937264Y-145940802D01*
X112877241Y-145983561D01*
X112831514Y-146032775D01*
X112798207Y-146095544D01*
X112775445Y-146178971D01*
X112761353Y-146290159D01*
X112754058Y-146436209D01*
X112751682Y-146624223D01*
X112751645Y-146643912D01*
X112751098Y-147085922D01*
X113025020Y-147085922D01*
X113025020Y-146678435D01*
X113025215Y-146527471D01*
X113026564Y-146418056D01*
X113030212Y-146341933D01*
X113037304Y-146290848D01*
X113048987Y-146256545D01*
X113066406Y-146230768D01*
X113090671Y-146205298D01*
X113175565Y-146150571D01*
X113268239Y-146140416D01*
X113356527Y-146175017D01*
X113387230Y-146200770D01*
X113409771Y-146224982D01*
X113425954Y-146250912D01*
X113436832Y-146286708D01*
X113443458Y-146340519D01*
X113446885Y-146420493D01*
X113448166Y-146534779D01*
X113448353Y-146673907D01*
X113448353Y-147085922D01*
X113722275Y-147085922D01*
X113722275Y-145890628D01*
X113585314Y-145890628D01*
X113503084Y-145893879D01*
X113460660Y-145905426D01*
X113448359Y-145927952D01*
X113448353Y-145928620D01*
X113442646Y-145950681D01*
X113417473Y-145948177D01*
X113367422Y-145923937D01*
X113253906Y-145888271D01*
X113124055Y-145884305D01*
X112999240Y-145911199D01*
X112999240Y-145911199D01*
G37*
X112999240Y-145911199D02*
X112937264Y-145940802D01*
X112877241Y-145983561D01*
X112831514Y-146032775D01*
X112798207Y-146095544D01*
X112775445Y-146178971D01*
X112761353Y-146290159D01*
X112754058Y-146436209D01*
X112751682Y-146624223D01*
X112751645Y-146643912D01*
X112751098Y-147085922D01*
X113025020Y-147085922D01*
X113025020Y-146678435D01*
X113025215Y-146527471D01*
X113026564Y-146418056D01*
X113030212Y-146341933D01*
X113037304Y-146290848D01*
X113048987Y-146256545D01*
X113066406Y-146230768D01*
X113090671Y-146205298D01*
X113175565Y-146150571D01*
X113268239Y-146140416D01*
X113356527Y-146175017D01*
X113387230Y-146200770D01*
X113409771Y-146224982D01*
X113425954Y-146250912D01*
X113436832Y-146286708D01*
X113443458Y-146340519D01*
X113446885Y-146420493D01*
X113448166Y-146534779D01*
X113448353Y-146673907D01*
X113448353Y-147085922D01*
X113722275Y-147085922D01*
X113722275Y-145890628D01*
X113585314Y-145890628D01*
X113503084Y-145893879D01*
X113460660Y-145905426D01*
X113448359Y-145927952D01*
X113448353Y-145928620D01*
X113442646Y-145950681D01*
X113417473Y-145948177D01*
X113367422Y-145923937D01*
X113253906Y-145888271D01*
X113124055Y-145884305D01*
X112999240Y-145911199D01*
G36*
X106202713Y-145886355D02*
X106138949Y-145901845D01*
X106016700Y-145958569D01*
X105912166Y-146045202D01*
X105839820Y-146149074D01*
X105829881Y-146172396D01*
X105816246Y-146233484D01*
X105806702Y-146323853D01*
X105803451Y-146415190D01*
X105803451Y-146587882D01*
X106164530Y-146587882D01*
X106313454Y-146588445D01*
X106418368Y-146591864D01*
X106485063Y-146600731D01*
X106519334Y-146617641D01*
X106526972Y-146645189D01*
X106513771Y-146685968D01*
X106490123Y-146733683D01*
X106424157Y-146813314D01*
X106332488Y-146852987D01*
X106220445Y-146851695D01*
X106093528Y-146808514D01*
X105983842Y-146755224D01*
X105892827Y-146827191D01*
X105801812Y-146899157D01*
X105887437Y-146978269D01*
X106001750Y-147053017D01*
X106142334Y-147098084D01*
X106293551Y-147110696D01*
X106439764Y-147088079D01*
X106463353Y-147080405D01*
X106591859Y-147013296D01*
X106687449Y-146913247D01*
X106752139Y-146777271D01*
X106787943Y-146602380D01*
X106788360Y-146598632D01*
X106791566Y-146408032D01*
X106778607Y-146340035D01*
X106525608Y-146340035D01*
X106502373Y-146350491D01*
X106439290Y-146358500D01*
X106346294Y-146363073D01*
X106287362Y-146363765D01*
X106177463Y-146363332D01*
X106108748Y-146360578D01*
X106072595Y-146353321D01*
X106060385Y-146339376D01*
X106063496Y-146316562D01*
X106066106Y-146307735D01*
X106110656Y-146224800D01*
X106180721Y-146157960D01*
X106242554Y-146128589D01*
X106324699Y-146130362D01*
X106407938Y-146166990D01*
X106477762Y-146227634D01*
X106519663Y-146301456D01*
X106525608Y-146340035D01*
X106778607Y-146340035D01*
X106759615Y-146240395D01*
X106696227Y-146099711D01*
X106605122Y-145989974D01*
X106490022Y-145915174D01*
X106354645Y-145879304D01*
X106202713Y-145886355D01*
X106202713Y-145886355D01*
G37*
X106202713Y-145886355D02*
X106138949Y-145901845D01*
X106016700Y-145958569D01*
X105912166Y-146045202D01*
X105839820Y-146149074D01*
X105829881Y-146172396D01*
X105816246Y-146233484D01*
X105806702Y-146323853D01*
X105803451Y-146415190D01*
X105803451Y-146587882D01*
X106164530Y-146587882D01*
X106313454Y-146588445D01*
X106418368Y-146591864D01*
X106485063Y-146600731D01*
X106519334Y-146617641D01*
X106526972Y-146645189D01*
X106513771Y-146685968D01*
X106490123Y-146733683D01*
X106424157Y-146813314D01*
X106332488Y-146852987D01*
X106220445Y-146851695D01*
X106093528Y-146808514D01*
X105983842Y-146755224D01*
X105892827Y-146827191D01*
X105801812Y-146899157D01*
X105887437Y-146978269D01*
X106001750Y-147053017D01*
X106142334Y-147098084D01*
X106293551Y-147110696D01*
X106439764Y-147088079D01*
X106463353Y-147080405D01*
X106591859Y-147013296D01*
X106687449Y-146913247D01*
X106752139Y-146777271D01*
X106787943Y-146602380D01*
X106788360Y-146598632D01*
X106791566Y-146408032D01*
X106778607Y-146340035D01*
X106525608Y-146340035D01*
X106502373Y-146350491D01*
X106439290Y-146358500D01*
X106346294Y-146363073D01*
X106287362Y-146363765D01*
X106177463Y-146363332D01*
X106108748Y-146360578D01*
X106072595Y-146353321D01*
X106060385Y-146339376D01*
X106063496Y-146316562D01*
X106066106Y-146307735D01*
X106110656Y-146224800D01*
X106180721Y-146157960D01*
X106242554Y-146128589D01*
X106324699Y-146130362D01*
X106407938Y-146166990D01*
X106477762Y-146227634D01*
X106519663Y-146301456D01*
X106525608Y-146340035D01*
X106778607Y-146340035D01*
X106759615Y-146240395D01*
X106696227Y-146099711D01*
X106605122Y-145989974D01*
X106490022Y-145915174D01*
X106354645Y-145879304D01*
X106202713Y-145886355D01*
G36*
X107115024Y-145901056D02*
X106970744Y-145962348D01*
X106925301Y-145992185D01*
X106867221Y-146038036D01*
X106830762Y-146074089D01*
X106824432Y-146085832D01*
X106842307Y-146111889D01*
X106888050Y-146156105D01*
X106924672Y-146186965D01*
X107024912Y-146267520D01*
X107104065Y-146200918D01*
X107165231Y-146157921D01*
X107224871Y-146143079D01*
X107293128Y-146146704D01*
X107401518Y-146173652D01*
X107476128Y-146229587D01*
X107521470Y-146320014D01*
X107542053Y-146450435D01*
X107542058Y-146450517D01*
X107540278Y-146596290D01*
X107512613Y-146703245D01*
X107457429Y-146776064D01*
X107419808Y-146800723D01*
X107319895Y-146831431D01*
X107213178Y-146831449D01*
X107120331Y-146801655D01*
X107098353Y-146787098D01*
X107043235Y-146749914D01*
X107000141Y-146743820D01*
X106953665Y-146771496D01*
X106902284Y-146821205D01*
X106820954Y-146905116D01*
X106911251Y-146979546D01*
X107050764Y-147063549D01*
X107208088Y-147104947D01*
X107372497Y-147101950D01*
X107480469Y-147074500D01*
X107606669Y-147006620D01*
X107707599Y-146899831D01*
X107753452Y-146824451D01*
X107790590Y-146716297D01*
X107809173Y-146579318D01*
X107809316Y-146430864D01*
X107791135Y-146288281D01*
X107754745Y-146168918D01*
X107749013Y-146156680D01*
X107664135Y-146036655D01*
X107549218Y-145949267D01*
X107413341Y-145896329D01*
X107265583Y-145879654D01*
X107115024Y-145901056D01*
X107115024Y-145901056D01*
G37*
X107115024Y-145901056D02*
X106970744Y-145962348D01*
X106925301Y-145992185D01*
X106867221Y-146038036D01*
X106830762Y-146074089D01*
X106824432Y-146085832D01*
X106842307Y-146111889D01*
X106888050Y-146156105D01*
X106924672Y-146186965D01*
X107024912Y-146267520D01*
X107104065Y-146200918D01*
X107165231Y-146157921D01*
X107224871Y-146143079D01*
X107293128Y-146146704D01*
X107401518Y-146173652D01*
X107476128Y-146229587D01*
X107521470Y-146320014D01*
X107542053Y-146450435D01*
X107542058Y-146450517D01*
X107540278Y-146596290D01*
X107512613Y-146703245D01*
X107457429Y-146776064D01*
X107419808Y-146800723D01*
X107319895Y-146831431D01*
X107213178Y-146831449D01*
X107120331Y-146801655D01*
X107098353Y-146787098D01*
X107043235Y-146749914D01*
X107000141Y-146743820D01*
X106953665Y-146771496D01*
X106902284Y-146821205D01*
X106820954Y-146905116D01*
X106911251Y-146979546D01*
X107050764Y-147063549D01*
X107208088Y-147104947D01*
X107372497Y-147101950D01*
X107480469Y-147074500D01*
X107606669Y-147006620D01*
X107707599Y-146899831D01*
X107753452Y-146824451D01*
X107790590Y-146716297D01*
X107809173Y-146579318D01*
X107809316Y-146430864D01*
X107791135Y-146288281D01*
X107754745Y-146168918D01*
X107749013Y-146156680D01*
X107664135Y-146036655D01*
X107549218Y-145949267D01*
X107413341Y-145896329D01*
X107265583Y-145879654D01*
X107115024Y-145901056D01*
G36*
X109538746Y-146278245D02*
X109536392Y-146460879D01*
X109527793Y-146599600D01*
X109510640Y-146700147D01*
X109482626Y-146768254D01*
X109441443Y-146809659D01*
X109384783Y-146830097D01*
X109314628Y-146835318D01*
X109241152Y-146829468D01*
X109185343Y-146808093D01*
X109144891Y-146765458D01*
X109117491Y-146695825D01*
X109100833Y-146593460D01*
X109092611Y-146452624D01*
X109090510Y-146278245D01*
X109090510Y-145890628D01*
X108816589Y-145890628D01*
X108816589Y-147085922D01*
X108953549Y-147085922D01*
X109036116Y-147082576D01*
X109078632Y-147070826D01*
X109090510Y-147048520D01*
X109097664Y-147028654D01*
X109126135Y-147032857D01*
X109183524Y-147060971D01*
X109315055Y-147104342D01*
X109454562Y-147101270D01*
X109588235Y-147054174D01*
X109651892Y-147016971D01*
X109700447Y-146976691D01*
X109735919Y-146926291D01*
X109760326Y-146858729D01*
X109775687Y-146766965D01*
X109784018Y-146643955D01*
X109787338Y-146482659D01*
X109787765Y-146357928D01*
X109787765Y-145890628D01*
X109538746Y-145890628D01*
X109538746Y-146278245D01*
X109538746Y-146278245D01*
G37*
X109538746Y-146278245D02*
X109536392Y-146460879D01*
X109527793Y-146599600D01*
X109510640Y-146700147D01*
X109482626Y-146768254D01*
X109441443Y-146809659D01*
X109384783Y-146830097D01*
X109314628Y-146835318D01*
X109241152Y-146829468D01*
X109185343Y-146808093D01*
X109144891Y-146765458D01*
X109117491Y-146695825D01*
X109100833Y-146593460D01*
X109092611Y-146452624D01*
X109090510Y-146278245D01*
X109090510Y-145890628D01*
X108816589Y-145890628D01*
X108816589Y-147085922D01*
X108953549Y-147085922D01*
X109036116Y-147082576D01*
X109078632Y-147070826D01*
X109090510Y-147048520D01*
X109097664Y-147028654D01*
X109126135Y-147032857D01*
X109183524Y-147060971D01*
X109315055Y-147104342D01*
X109454562Y-147101270D01*
X109588235Y-147054174D01*
X109651892Y-147016971D01*
X109700447Y-146976691D01*
X109735919Y-146926291D01*
X109760326Y-146858729D01*
X109775687Y-146766965D01*
X109784018Y-146643955D01*
X109787338Y-146482659D01*
X109787765Y-146357928D01*
X109787765Y-145890628D01*
X109538746Y-145890628D01*
X109538746Y-146278245D01*
G36*
X110296453Y-145905364D02*
X110170498Y-145973959D01*
X110071953Y-146082245D01*
X110025522Y-146170315D01*
X110005588Y-146248101D01*
X109992672Y-146358993D01*
X109987137Y-146486738D01*
X109989346Y-146615084D01*
X109999663Y-146727779D01*
X110011714Y-146787969D01*
X110052366Y-146870311D01*
X110122770Y-146957770D01*
X110207618Y-147034251D01*
X110291603Y-147083655D01*
X110293651Y-147084439D01*
X110397866Y-147106027D01*
X110521373Y-147106562D01*
X110638739Y-147086908D01*
X110684058Y-147071155D01*
X110800780Y-147004966D01*
X110884376Y-146918246D01*
X110939299Y-146803438D01*
X110970005Y-146652982D01*
X110976953Y-146574173D01*
X110976067Y-146475145D01*
X110709138Y-146475145D01*
X110700146Y-146619645D01*
X110674264Y-146729760D01*
X110633132Y-146800116D01*
X110603828Y-146820235D01*
X110528749Y-146834265D01*
X110439506Y-146830111D01*
X110362350Y-146809922D01*
X110342117Y-146798815D01*
X110288735Y-146734123D01*
X110253500Y-146635119D01*
X110238502Y-146514632D01*
X110245828Y-146385494D01*
X110262201Y-146307775D01*
X110309210Y-146217771D01*
X110383418Y-146161509D01*
X110472791Y-146142057D01*
X110565293Y-146162481D01*
X110636347Y-146212437D01*
X110673688Y-146253655D01*
X110695482Y-146294281D01*
X110705870Y-146349264D01*
X110708994Y-146433549D01*
X110709138Y-146475145D01*
X110976067Y-146475145D01*
X110975070Y-146363874D01*
X110940820Y-146191423D01*
X110874198Y-146056814D01*
X110775201Y-145960040D01*
X110643825Y-145901094D01*
X110615615Y-145894259D01*
X110446074Y-145878213D01*
X110296453Y-145905364D01*
X110296453Y-145905364D01*
G37*
X110296453Y-145905364D02*
X110170498Y-145973959D01*
X110071953Y-146082245D01*
X110025522Y-146170315D01*
X110005588Y-146248101D01*
X109992672Y-146358993D01*
X109987137Y-146486738D01*
X109989346Y-146615084D01*
X109999663Y-146727779D01*
X110011714Y-146787969D01*
X110052366Y-146870311D01*
X110122770Y-146957770D01*
X110207618Y-147034251D01*
X110291603Y-147083655D01*
X110293651Y-147084439D01*
X110397866Y-147106027D01*
X110521373Y-147106562D01*
X110638739Y-147086908D01*
X110684058Y-147071155D01*
X110800780Y-147004966D01*
X110884376Y-146918246D01*
X110939299Y-146803438D01*
X110970005Y-146652982D01*
X110976953Y-146574173D01*
X110976067Y-146475145D01*
X110709138Y-146475145D01*
X110700146Y-146619645D01*
X110674264Y-146729760D01*
X110633132Y-146800116D01*
X110603828Y-146820235D01*
X110528749Y-146834265D01*
X110439506Y-146830111D01*
X110362350Y-146809922D01*
X110342117Y-146798815D01*
X110288735Y-146734123D01*
X110253500Y-146635119D01*
X110238502Y-146514632D01*
X110245828Y-146385494D01*
X110262201Y-146307775D01*
X110309210Y-146217771D01*
X110383418Y-146161509D01*
X110472791Y-146142057D01*
X110565293Y-146162481D01*
X110636347Y-146212437D01*
X110673688Y-146253655D01*
X110695482Y-146294281D01*
X110705870Y-146349264D01*
X110708994Y-146433549D01*
X110709138Y-146475145D01*
X110976067Y-146475145D01*
X110975070Y-146363874D01*
X110940820Y-146191423D01*
X110874198Y-146056814D01*
X110775201Y-145960040D01*
X110643825Y-145901094D01*
X110615615Y-145894259D01*
X110446074Y-145878213D01*
X110296453Y-145905364D01*
G36*
X111478241Y-145886345D02*
X111383941Y-145904229D01*
X111286110Y-145941633D01*
X111275657Y-145946402D01*
X111201469Y-145985412D01*
X111150090Y-146021664D01*
X111133483Y-146044887D01*
X111149298Y-146082761D01*
X111187712Y-146138644D01*
X111204763Y-146159505D01*
X111275031Y-146241618D01*
X111365621Y-146188168D01*
X111451836Y-146152561D01*
X111551451Y-146133529D01*
X111646981Y-146132326D01*
X111720939Y-146150210D01*
X111738688Y-146161373D01*
X111772488Y-146212553D01*
X111776596Y-146271509D01*
X111751304Y-146317567D01*
X111736344Y-146326499D01*
X111691514Y-146337592D01*
X111612714Y-146350630D01*
X111515574Y-146363088D01*
X111497654Y-146365042D01*
X111341635Y-146392030D01*
X111228477Y-146437873D01*
X111153431Y-146506803D01*
X111111747Y-146603054D01*
X111098762Y-146720617D01*
X111116701Y-146854254D01*
X111174950Y-146959195D01*
X111273745Y-147035630D01*
X111413318Y-147083748D01*
X111568255Y-147102732D01*
X111694602Y-147102504D01*
X111797087Y-147085262D01*
X111867079Y-147061457D01*
X111955517Y-147019978D01*
X112037246Y-146971842D01*
X112066295Y-146950655D01*
X112141000Y-146889676D01*
X112050902Y-146798508D01*
X111960804Y-146707339D01*
X111858368Y-146775128D01*
X111755626Y-146826042D01*
X111645913Y-146852673D01*
X111540449Y-146855483D01*
X111450454Y-146834935D01*
X111387146Y-146791493D01*
X111366704Y-146754838D01*
X111369771Y-146696053D01*
X111420566Y-146651099D01*
X111518952Y-146620057D01*
X111626744Y-146605710D01*
X111792635Y-146578337D01*
X111915876Y-146526693D01*
X111998114Y-146449266D01*
X112040999Y-146344544D01*
X112046940Y-146220387D01*
X112017594Y-146090702D01*
X111950691Y-145992677D01*
X111845629Y-145925866D01*
X111701810Y-145889820D01*
X111595262Y-145882754D01*
X111478241Y-145886345D01*
X111478241Y-145886345D01*
G37*
X111478241Y-145886345D02*
X111383941Y-145904229D01*
X111286110Y-145941633D01*
X111275657Y-145946402D01*
X111201469Y-145985412D01*
X111150090Y-146021664D01*
X111133483Y-146044887D01*
X111149298Y-146082761D01*
X111187712Y-146138644D01*
X111204763Y-146159505D01*
X111275031Y-146241618D01*
X111365621Y-146188168D01*
X111451836Y-146152561D01*
X111551451Y-146133529D01*
X111646981Y-146132326D01*
X111720939Y-146150210D01*
X111738688Y-146161373D01*
X111772488Y-146212553D01*
X111776596Y-146271509D01*
X111751304Y-146317567D01*
X111736344Y-146326499D01*
X111691514Y-146337592D01*
X111612714Y-146350630D01*
X111515574Y-146363088D01*
X111497654Y-146365042D01*
X111341635Y-146392030D01*
X111228477Y-146437873D01*
X111153431Y-146506803D01*
X111111747Y-146603054D01*
X111098762Y-146720617D01*
X111116701Y-146854254D01*
X111174950Y-146959195D01*
X111273745Y-147035630D01*
X111413318Y-147083748D01*
X111568255Y-147102732D01*
X111694602Y-147102504D01*
X111797087Y-147085262D01*
X111867079Y-147061457D01*
X111955517Y-147019978D01*
X112037246Y-146971842D01*
X112066295Y-146950655D01*
X112141000Y-146889676D01*
X112050902Y-146798508D01*
X111960804Y-146707339D01*
X111858368Y-146775128D01*
X111755626Y-146826042D01*
X111645913Y-146852673D01*
X111540449Y-146855483D01*
X111450454Y-146834935D01*
X111387146Y-146791493D01*
X111366704Y-146754838D01*
X111369771Y-146696053D01*
X111420566Y-146651099D01*
X111518952Y-146620057D01*
X111626744Y-146605710D01*
X111792635Y-146578337D01*
X111915876Y-146526693D01*
X111998114Y-146449266D01*
X112040999Y-146344544D01*
X112046940Y-146220387D01*
X112017594Y-146090702D01*
X111950691Y-145992677D01*
X111845629Y-145925866D01*
X111701810Y-145889820D01*
X111595262Y-145882754D01*
X111478241Y-145886345D01*
G36*
X114192796Y-145918354D02*
X114167981Y-145930037D01*
X114082094Y-145992951D01*
X114000879Y-146084769D01*
X113940236Y-146185868D01*
X113922988Y-146232349D01*
X113907251Y-146315376D01*
X113897867Y-146415713D01*
X113896728Y-146457147D01*
X113896589Y-146587882D01*
X114649047Y-146587882D01*
X114633007Y-146656363D01*
X114593637Y-146737355D01*
X114524806Y-146807351D01*
X114442919Y-146852441D01*
X114390737Y-146861804D01*
X114319971Y-146850441D01*
X114235540Y-146821943D01*
X114206858Y-146808831D01*
X114100791Y-146755858D01*
X114010272Y-146824901D01*
X113958039Y-146871597D01*
X113930247Y-146910140D01*
X113928840Y-146921452D01*
X113953668Y-146948868D01*
X114008083Y-146990532D01*
X114057472Y-147023037D01*
X114190748Y-147081468D01*
X114340161Y-147107915D01*
X114488249Y-147101039D01*
X114606295Y-147065096D01*
X114727982Y-146988101D01*
X114814460Y-146886728D01*
X114868559Y-146755570D01*
X114893109Y-146589224D01*
X114895286Y-146513108D01*
X114886573Y-146338685D01*
X114885503Y-146333611D01*
X114636173Y-146333611D01*
X114629306Y-146349968D01*
X114601083Y-146358988D01*
X114542873Y-146362854D01*
X114446042Y-146363749D01*
X114408757Y-146363765D01*
X114295317Y-146362413D01*
X114223378Y-146357505D01*
X114184687Y-146347760D01*
X114170995Y-146331899D01*
X114170510Y-146326805D01*
X114186137Y-146286326D01*
X114225247Y-146229621D01*
X114242061Y-146209766D01*
X114304481Y-146153611D01*
X114369547Y-146131532D01*
X114404603Y-146129686D01*
X114499442Y-146152766D01*
X114578973Y-146214759D01*
X114629423Y-146304802D01*
X114630317Y-146307735D01*
X114636173Y-146333611D01*
X114885503Y-146333611D01*
X114857601Y-146201343D01*
X114805410Y-146091461D01*
X114741579Y-146013461D01*
X114623567Y-145928882D01*
X114484842Y-145883686D01*
X114337290Y-145879600D01*
X114192796Y-145918354D01*
X114192796Y-145918354D01*
G37*
X114192796Y-145918354D02*
X114167981Y-145930037D01*
X114082094Y-145992951D01*
X114000879Y-146084769D01*
X113940236Y-146185868D01*
X113922988Y-146232349D01*
X113907251Y-146315376D01*
X113897867Y-146415713D01*
X113896728Y-146457147D01*
X113896589Y-146587882D01*
X114649047Y-146587882D01*
X114633007Y-146656363D01*
X114593637Y-146737355D01*
X114524806Y-146807351D01*
X114442919Y-146852441D01*
X114390737Y-146861804D01*
X114319971Y-146850441D01*
X114235540Y-146821943D01*
X114206858Y-146808831D01*
X114100791Y-146755858D01*
X114010272Y-146824901D01*
X113958039Y-146871597D01*
X113930247Y-146910140D01*
X113928840Y-146921452D01*
X113953668Y-146948868D01*
X114008083Y-146990532D01*
X114057472Y-147023037D01*
X114190748Y-147081468D01*
X114340161Y-147107915D01*
X114488249Y-147101039D01*
X114606295Y-147065096D01*
X114727982Y-146988101D01*
X114814460Y-146886728D01*
X114868559Y-146755570D01*
X114893109Y-146589224D01*
X114895286Y-146513108D01*
X114886573Y-146338685D01*
X114885503Y-146333611D01*
X114636173Y-146333611D01*
X114629306Y-146349968D01*
X114601083Y-146358988D01*
X114542873Y-146362854D01*
X114446042Y-146363749D01*
X114408757Y-146363765D01*
X114295317Y-146362413D01*
X114223378Y-146357505D01*
X114184687Y-146347760D01*
X114170995Y-146331899D01*
X114170510Y-146326805D01*
X114186137Y-146286326D01*
X114225247Y-146229621D01*
X114242061Y-146209766D01*
X114304481Y-146153611D01*
X114369547Y-146131532D01*
X114404603Y-146129686D01*
X114499442Y-146152766D01*
X114578973Y-146214759D01*
X114629423Y-146304802D01*
X114630317Y-146307735D01*
X114636173Y-146333611D01*
X114885503Y-146333611D01*
X114857601Y-146201343D01*
X114805410Y-146091461D01*
X114741579Y-146013461D01*
X114623567Y-145928882D01*
X114484842Y-145883686D01*
X114337290Y-145879600D01*
X114192796Y-145918354D01*
G36*
X116532753Y-145903568D02*
X116402478Y-145961163D01*
X116303581Y-146057334D01*
X116235918Y-146192229D01*
X116199345Y-146365996D01*
X116196724Y-146393126D01*
X116194670Y-146584408D01*
X116221301Y-146752073D01*
X116274999Y-146887967D01*
X116303753Y-146931681D01*
X116403909Y-147024198D01*
X116531463Y-147084119D01*
X116674163Y-147108985D01*
X116819760Y-147096339D01*
X116930438Y-147057391D01*
X117025616Y-146991755D01*
X117103406Y-146905699D01*
X117104751Y-146903685D01*
X117136343Y-146850570D01*
X117156873Y-146797160D01*
X117169305Y-146729754D01*
X117176603Y-146634653D01*
X117179818Y-146556666D01*
X117181156Y-146485944D01*
X116932186Y-146485944D01*
X116929753Y-146556348D01*
X116920920Y-146650068D01*
X116905336Y-146710214D01*
X116877234Y-146753006D01*
X116850914Y-146778002D01*
X116757608Y-146830338D01*
X116659980Y-146837333D01*
X116569058Y-146799676D01*
X116523598Y-146757479D01*
X116490838Y-146714956D01*
X116471677Y-146674267D01*
X116463267Y-146621314D01*
X116462763Y-146541997D01*
X116465355Y-146468950D01*
X116470929Y-146364601D01*
X116479766Y-146296920D01*
X116495693Y-146252774D01*
X116522538Y-146219031D01*
X116543811Y-146199746D01*
X116632794Y-146149086D01*
X116728789Y-146146560D01*
X116809281Y-146176567D01*
X116877947Y-146239231D01*
X116918856Y-146342168D01*
X116932186Y-146485944D01*
X117181156Y-146485944D01*
X117182754Y-146401582D01*
X117177740Y-146285600D01*
X117162717Y-146198367D01*
X117135624Y-146129530D01*
X117094400Y-146068737D01*
X117079115Y-146050686D01*
X116983546Y-145960746D01*
X116881039Y-145908211D01*
X116755679Y-145886201D01*
X116694550Y-145884402D01*
X116532753Y-145903568D01*
X116532753Y-145903568D01*
G37*
X116532753Y-145903568D02*
X116402478Y-145961163D01*
X116303581Y-146057334D01*
X116235918Y-146192229D01*
X116199345Y-146365996D01*
X116196724Y-146393126D01*
X116194670Y-146584408D01*
X116221301Y-146752073D01*
X116274999Y-146887967D01*
X116303753Y-146931681D01*
X116403909Y-147024198D01*
X116531463Y-147084119D01*
X116674163Y-147108985D01*
X116819760Y-147096339D01*
X116930438Y-147057391D01*
X117025616Y-146991755D01*
X117103406Y-146905699D01*
X117104751Y-146903685D01*
X117136343Y-146850570D01*
X117156873Y-146797160D01*
X117169305Y-146729754D01*
X117176603Y-146634653D01*
X117179818Y-146556666D01*
X117181156Y-146485944D01*
X116932186Y-146485944D01*
X116929753Y-146556348D01*
X116920920Y-146650068D01*
X116905336Y-146710214D01*
X116877234Y-146753006D01*
X116850914Y-146778002D01*
X116757608Y-146830338D01*
X116659980Y-146837333D01*
X116569058Y-146799676D01*
X116523598Y-146757479D01*
X116490838Y-146714956D01*
X116471677Y-146674267D01*
X116463267Y-146621314D01*
X116462763Y-146541997D01*
X116465355Y-146468950D01*
X116470929Y-146364601D01*
X116479766Y-146296920D01*
X116495693Y-146252774D01*
X116522538Y-146219031D01*
X116543811Y-146199746D01*
X116632794Y-146149086D01*
X116728789Y-146146560D01*
X116809281Y-146176567D01*
X116877947Y-146239231D01*
X116918856Y-146342168D01*
X116932186Y-146485944D01*
X117181156Y-146485944D01*
X117182754Y-146401582D01*
X117177740Y-146285600D01*
X117162717Y-146198367D01*
X117135624Y-146129530D01*
X117094400Y-146068737D01*
X117079115Y-146050686D01*
X116983546Y-145960746D01*
X116881039Y-145908211D01*
X116755679Y-145886201D01*
X116694550Y-145884402D01*
X116532753Y-145903568D01*
G36*
X107480693Y-147764784D02*
X107361663Y-147795731D01*
X107261979Y-147859600D01*
X107213712Y-147907313D01*
X107134592Y-148020106D01*
X107089248Y-148150950D01*
X107073670Y-148311792D01*
X107073590Y-148324794D01*
X107073451Y-148455530D01*
X107825909Y-148455530D01*
X107809870Y-148524010D01*
X107780909Y-148586031D01*
X107730222Y-148650654D01*
X107719621Y-148660971D01*
X107628506Y-148716805D01*
X107524600Y-148726275D01*
X107405000Y-148689540D01*
X107384726Y-148679647D01*
X107322544Y-148649574D01*
X107280894Y-148632440D01*
X107273627Y-148630855D01*
X107248260Y-148646242D01*
X107199880Y-148683887D01*
X107175321Y-148704459D01*
X107124430Y-148751714D01*
X107107719Y-148782917D01*
X107119317Y-148811620D01*
X107125517Y-148819468D01*
X107167507Y-148853819D01*
X107236794Y-148895565D01*
X107285118Y-148919935D01*
X107422289Y-148962873D01*
X107574153Y-148976786D01*
X107717976Y-148960300D01*
X107758255Y-148948496D01*
X107882922Y-148881689D01*
X107975329Y-148778892D01*
X108036010Y-148639105D01*
X108065502Y-148461330D01*
X108068740Y-148368373D01*
X108059286Y-148233033D01*
X107820510Y-148233033D01*
X107797416Y-148243038D01*
X107735338Y-148250888D01*
X107645086Y-148255521D01*
X107583942Y-148256314D01*
X107473960Y-148255549D01*
X107404543Y-148251970D01*
X107366462Y-148243649D01*
X107350485Y-148228657D01*
X107347373Y-148206903D01*
X107368722Y-148139892D01*
X107422471Y-148073664D01*
X107493178Y-148022832D01*
X107563911Y-148002038D01*
X107659984Y-148020484D01*
X107743151Y-148073811D01*
X107800814Y-148150677D01*
X107820510Y-148233033D01*
X108059286Y-148233033D01*
X108054972Y-148171291D01*
X108012480Y-148014271D01*
X107940365Y-147896069D01*
X107837727Y-147815440D01*
X107703668Y-147771139D01*
X107631043Y-147762607D01*
X107480693Y-147764784D01*
X107480693Y-147764784D01*
G37*
X107480693Y-147764784D02*
X107361663Y-147795731D01*
X107261979Y-147859600D01*
X107213712Y-147907313D01*
X107134592Y-148020106D01*
X107089248Y-148150950D01*
X107073670Y-148311792D01*
X107073590Y-148324794D01*
X107073451Y-148455530D01*
X107825909Y-148455530D01*
X107809870Y-148524010D01*
X107780909Y-148586031D01*
X107730222Y-148650654D01*
X107719621Y-148660971D01*
X107628506Y-148716805D01*
X107524600Y-148726275D01*
X107405000Y-148689540D01*
X107384726Y-148679647D01*
X107322544Y-148649574D01*
X107280894Y-148632440D01*
X107273627Y-148630855D01*
X107248260Y-148646242D01*
X107199880Y-148683887D01*
X107175321Y-148704459D01*
X107124430Y-148751714D01*
X107107719Y-148782917D01*
X107119317Y-148811620D01*
X107125517Y-148819468D01*
X107167507Y-148853819D01*
X107236794Y-148895565D01*
X107285118Y-148919935D01*
X107422289Y-148962873D01*
X107574153Y-148976786D01*
X107717976Y-148960300D01*
X107758255Y-148948496D01*
X107882922Y-148881689D01*
X107975329Y-148778892D01*
X108036010Y-148639105D01*
X108065502Y-148461330D01*
X108068740Y-148368373D01*
X108059286Y-148233033D01*
X107820510Y-148233033D01*
X107797416Y-148243038D01*
X107735338Y-148250888D01*
X107645086Y-148255521D01*
X107583942Y-148256314D01*
X107473960Y-148255549D01*
X107404543Y-148251970D01*
X107366462Y-148243649D01*
X107350485Y-148228657D01*
X107347373Y-148206903D01*
X107368722Y-148139892D01*
X107422471Y-148073664D01*
X107493178Y-148022832D01*
X107563911Y-148002038D01*
X107659984Y-148020484D01*
X107743151Y-148073811D01*
X107800814Y-148150677D01*
X107820510Y-148233033D01*
X108059286Y-148233033D01*
X108054972Y-148171291D01*
X108012480Y-148014271D01*
X107940365Y-147896069D01*
X107837727Y-147815440D01*
X107703668Y-147771139D01*
X107631043Y-147762607D01*
X107480693Y-147764784D01*
G36*
X108267554Y-147757883D02*
X108171823Y-147776755D01*
X108117323Y-147804699D01*
X108059992Y-147851123D01*
X108141559Y-147954111D01*
X108191850Y-148016479D01*
X108225999Y-148046907D01*
X108259937Y-148051555D01*
X108309594Y-148036586D01*
X108332904Y-148028117D01*
X108427937Y-148015622D01*
X108514968Y-148042406D01*
X108578862Y-148102915D01*
X108589241Y-148122208D01*
X108600544Y-148173314D01*
X108609268Y-148267500D01*
X108615003Y-148398089D01*
X108617340Y-148558405D01*
X108617373Y-148581211D01*
X108617373Y-148978471D01*
X108891295Y-148978471D01*
X108891295Y-147758275D01*
X108754334Y-147758275D01*
X108675362Y-147760337D01*
X108634221Y-147769513D01*
X108619008Y-147790290D01*
X108617373Y-147809886D01*
X108617373Y-147861497D01*
X108551760Y-147809886D01*
X108476525Y-147774675D01*
X108375456Y-147757265D01*
X108267554Y-147757883D01*
X108267554Y-147757883D01*
G37*
X108267554Y-147757883D02*
X108171823Y-147776755D01*
X108117323Y-147804699D01*
X108059992Y-147851123D01*
X108141559Y-147954111D01*
X108191850Y-148016479D01*
X108225999Y-148046907D01*
X108259937Y-148051555D01*
X108309594Y-148036586D01*
X108332904Y-148028117D01*
X108427937Y-148015622D01*
X108514968Y-148042406D01*
X108578862Y-148102915D01*
X108589241Y-148122208D01*
X108600544Y-148173314D01*
X108609268Y-148267500D01*
X108615003Y-148398089D01*
X108617340Y-148558405D01*
X108617373Y-148581211D01*
X108617373Y-148978471D01*
X108891295Y-148978471D01*
X108891295Y-147758275D01*
X108754334Y-147758275D01*
X108675362Y-147760337D01*
X108634221Y-147769513D01*
X108619008Y-147790290D01*
X108617373Y-147809886D01*
X108617373Y-147861497D01*
X108551760Y-147809886D01*
X108476525Y-147774675D01*
X108375456Y-147757265D01*
X108267554Y-147757883D01*
G36*
X109449541Y-147765669D02*
X109344580Y-147791163D01*
X109314239Y-147804669D01*
X109255427Y-147840046D01*
X109210291Y-147879890D01*
X109176894Y-147931120D01*
X109153299Y-148000654D01*
X109137567Y-148095409D01*
X109127761Y-148222305D01*
X109121943Y-148388258D01*
X109119734Y-148499108D01*
X109111604Y-148978471D01*
X109250469Y-148978471D01*
X109334713Y-148974938D01*
X109378116Y-148962866D01*
X109389334Y-148942594D01*
X109395256Y-148920674D01*
X109421734Y-148924865D01*
X109457814Y-148942441D01*
X109548138Y-148969382D01*
X109664223Y-148976642D01*
X109786320Y-148964767D01*
X109894679Y-148934305D01*
X109904398Y-148930077D01*
X110003432Y-148860505D01*
X110068719Y-148763789D01*
X110098760Y-148650738D01*
X110096465Y-148610122D01*
X109851367Y-148610122D01*
X109829771Y-148664782D01*
X109765741Y-148703952D01*
X109662435Y-148724974D01*
X109607226Y-148727766D01*
X109515218Y-148720620D01*
X109454059Y-148692848D01*
X109439138Y-148679647D01*
X109398713Y-148607829D01*
X109389334Y-148542686D01*
X109389334Y-148455530D01*
X109510731Y-148455530D01*
X109651847Y-148462722D01*
X109750827Y-148485345D01*
X109813367Y-148524964D01*
X109827369Y-148542628D01*
X109851367Y-148610122D01*
X110096465Y-148610122D01*
X110092059Y-148532157D01*
X110047120Y-148418855D01*
X109985804Y-148342285D01*
X109948668Y-148309181D01*
X109912313Y-148287425D01*
X109865010Y-148274161D01*
X109795027Y-148266528D01*
X109690636Y-148261670D01*
X109649230Y-148260273D01*
X109389334Y-148251780D01*
X109389715Y-148173116D01*
X109399781Y-148090428D01*
X109436171Y-148040431D01*
X109509689Y-148008489D01*
X109511661Y-148007920D01*
X109615895Y-147995361D01*
X109717892Y-148011766D01*
X109793695Y-148051657D01*
X109824110Y-148071354D01*
X109856868Y-148068629D01*
X109907279Y-148040091D01*
X109936881Y-148019950D01*
X109994782Y-147976919D01*
X110030648Y-147944662D01*
X110036403Y-147935427D01*
X110012705Y-147887636D01*
X109942687Y-147830562D01*
X109912275Y-147811305D01*
X109824845Y-147778140D01*
X109707017Y-147759350D01*
X109576134Y-147755129D01*
X109449541Y-147765669D01*
X109449541Y-147765669D01*
G37*
X109449541Y-147765669D02*
X109344580Y-147791163D01*
X109314239Y-147804669D01*
X109255427Y-147840046D01*
X109210291Y-147879890D01*
X109176894Y-147931120D01*
X109153299Y-148000654D01*
X109137567Y-148095409D01*
X109127761Y-148222305D01*
X109121943Y-148388258D01*
X109119734Y-148499108D01*
X109111604Y-148978471D01*
X109250469Y-148978471D01*
X109334713Y-148974938D01*
X109378116Y-148962866D01*
X109389334Y-148942594D01*
X109395256Y-148920674D01*
X109421734Y-148924865D01*
X109457814Y-148942441D01*
X109548138Y-148969382D01*
X109664223Y-148976642D01*
X109786320Y-148964767D01*
X109894679Y-148934305D01*
X109904398Y-148930077D01*
X110003432Y-148860505D01*
X110068719Y-148763789D01*
X110098760Y-148650738D01*
X110096465Y-148610122D01*
X109851367Y-148610122D01*
X109829771Y-148664782D01*
X109765741Y-148703952D01*
X109662435Y-148724974D01*
X109607226Y-148727766D01*
X109515218Y-148720620D01*
X109454059Y-148692848D01*
X109439138Y-148679647D01*
X109398713Y-148607829D01*
X109389334Y-148542686D01*
X109389334Y-148455530D01*
X109510731Y-148455530D01*
X109651847Y-148462722D01*
X109750827Y-148485345D01*
X109813367Y-148524964D01*
X109827369Y-148542628D01*
X109851367Y-148610122D01*
X110096465Y-148610122D01*
X110092059Y-148532157D01*
X110047120Y-148418855D01*
X109985804Y-148342285D01*
X109948668Y-148309181D01*
X109912313Y-148287425D01*
X109865010Y-148274161D01*
X109795027Y-148266528D01*
X109690636Y-148261670D01*
X109649230Y-148260273D01*
X109389334Y-148251780D01*
X109389715Y-148173116D01*
X109399781Y-148090428D01*
X109436171Y-148040431D01*
X109509689Y-148008489D01*
X109511661Y-148007920D01*
X109615895Y-147995361D01*
X109717892Y-148011766D01*
X109793695Y-148051657D01*
X109824110Y-148071354D01*
X109856868Y-148068629D01*
X109907279Y-148040091D01*
X109936881Y-148019950D01*
X109994782Y-147976919D01*
X110030648Y-147944662D01*
X110036403Y-147935427D01*
X110012705Y-147887636D01*
X109942687Y-147830562D01*
X109912275Y-147811305D01*
X109824845Y-147778140D01*
X109707017Y-147759350D01*
X109576134Y-147755129D01*
X109449541Y-147765669D01*
G36*
X110948472Y-147763332D02*
X110849986Y-147770726D01*
X110721224Y-148156706D01*
X110592463Y-148542686D01*
X110552089Y-148405726D01*
X110527793Y-148321083D01*
X110495833Y-148206697D01*
X110461321Y-148080963D01*
X110443072Y-148013520D01*
X110374429Y-147758275D01*
X110091227Y-147758275D01*
X110175878Y-148025971D01*
X110217565Y-148157638D01*
X110267926Y-148316458D01*
X110320519Y-148482128D01*
X110367470Y-148629843D01*
X110474411Y-148966020D01*
X110705339Y-148981044D01*
X110767950Y-148774316D01*
X110806562Y-148645896D01*
X110848700Y-148504322D01*
X110885528Y-148379285D01*
X110886982Y-148374309D01*
X110914489Y-148289586D01*
X110938758Y-148231778D01*
X110955757Y-148209918D01*
X110959250Y-148212446D01*
X110971510Y-148246336D01*
X110994805Y-148318930D01*
X111026300Y-148421101D01*
X111063158Y-148543720D01*
X111083101Y-148611167D01*
X111191105Y-148978471D01*
X111420321Y-148978471D01*
X111603561Y-148399500D01*
X111655037Y-148237091D01*
X111701930Y-148089602D01*
X111742023Y-147963960D01*
X111773103Y-147867095D01*
X111792955Y-147805934D01*
X111798989Y-147788065D01*
X111794212Y-147769768D01*
X111756703Y-147761755D01*
X111678645Y-147762557D01*
X111666426Y-147763163D01*
X111521674Y-147770726D01*
X111426870Y-148119353D01*
X111392023Y-148246497D01*
X111360883Y-148358265D01*
X111336191Y-148444953D01*
X111320688Y-148496856D01*
X111317824Y-148505318D01*
X111305954Y-148495587D01*
X111282017Y-148445172D01*
X111248761Y-148360935D01*
X111208936Y-148249741D01*
X111175270Y-148149297D01*
X111046959Y-147755939D01*
X110948472Y-147763332D01*
X110948472Y-147763332D01*
G37*
X110948472Y-147763332D02*
X110849986Y-147770726D01*
X110721224Y-148156706D01*
X110592463Y-148542686D01*
X110552089Y-148405726D01*
X110527793Y-148321083D01*
X110495833Y-148206697D01*
X110461321Y-148080963D01*
X110443072Y-148013520D01*
X110374429Y-147758275D01*
X110091227Y-147758275D01*
X110175878Y-148025971D01*
X110217565Y-148157638D01*
X110267926Y-148316458D01*
X110320519Y-148482128D01*
X110367470Y-148629843D01*
X110474411Y-148966020D01*
X110705339Y-148981044D01*
X110767950Y-148774316D01*
X110806562Y-148645896D01*
X110848700Y-148504322D01*
X110885528Y-148379285D01*
X110886982Y-148374309D01*
X110914489Y-148289586D01*
X110938758Y-148231778D01*
X110955757Y-148209918D01*
X110959250Y-148212446D01*
X110971510Y-148246336D01*
X110994805Y-148318930D01*
X111026300Y-148421101D01*
X111063158Y-148543720D01*
X111083101Y-148611167D01*
X111191105Y-148978471D01*
X111420321Y-148978471D01*
X111603561Y-148399500D01*
X111655037Y-148237091D01*
X111701930Y-148089602D01*
X111742023Y-147963960D01*
X111773103Y-147867095D01*
X111792955Y-147805934D01*
X111798989Y-147788065D01*
X111794212Y-147769768D01*
X111756703Y-147761755D01*
X111678645Y-147762557D01*
X111666426Y-147763163D01*
X111521674Y-147770726D01*
X111426870Y-148119353D01*
X111392023Y-148246497D01*
X111360883Y-148358265D01*
X111336191Y-148444953D01*
X111320688Y-148496856D01*
X111317824Y-148505318D01*
X111305954Y-148495587D01*
X111282017Y-148445172D01*
X111248761Y-148360935D01*
X111208936Y-148249741D01*
X111175270Y-148149297D01*
X111046959Y-147755939D01*
X110948472Y-147763332D01*
G36*
X111904432Y-148978471D02*
X112041393Y-148978471D01*
X112120889Y-148976140D01*
X112162292Y-148966488D01*
X112177199Y-148945525D01*
X112178353Y-148931351D01*
X112180867Y-148902927D01*
X112196720Y-148897475D01*
X112238379Y-148914998D01*
X112270776Y-148931351D01*
X112395151Y-148970103D01*
X112530354Y-148972346D01*
X112640274Y-148943444D01*
X112742634Y-148873619D01*
X112820660Y-148770555D01*
X112863386Y-148648989D01*
X112864474Y-148642192D01*
X112870822Y-148568032D01*
X112873979Y-148461570D01*
X112873725Y-148381052D01*
X112601711Y-148381052D01*
X112595410Y-148488070D01*
X112581075Y-148576278D01*
X112561669Y-148626090D01*
X112488254Y-148694162D01*
X112401086Y-148718564D01*
X112311196Y-148698831D01*
X112234383Y-148639968D01*
X112205292Y-148600379D01*
X112188283Y-148553138D01*
X112180316Y-148484181D01*
X112178353Y-148380607D01*
X112181866Y-148278039D01*
X112191143Y-148187921D01*
X112204294Y-148127613D01*
X112206486Y-148122208D01*
X112259522Y-148057940D01*
X112336933Y-148022656D01*
X112423546Y-148016959D01*
X112504193Y-148041453D01*
X112563703Y-148096742D01*
X112569876Y-148107743D01*
X112589199Y-148174827D01*
X112599726Y-148271284D01*
X112601711Y-148381052D01*
X112873725Y-148381052D01*
X112873596Y-148340225D01*
X112871806Y-148274918D01*
X112859627Y-148113355D01*
X112834315Y-147992053D01*
X112792207Y-147902379D01*
X112729641Y-147835699D01*
X112668900Y-147796557D01*
X112584036Y-147769040D01*
X112478485Y-147759603D01*
X112370402Y-147767290D01*
X112277942Y-147791146D01*
X112229090Y-147819685D01*
X112178353Y-147865601D01*
X112178353Y-147285137D01*
X111904432Y-147285137D01*
X111904432Y-148978471D01*
X111904432Y-148978471D01*
G37*
X111904432Y-148978471D02*
X112041393Y-148978471D01*
X112120889Y-148976140D01*
X112162292Y-148966488D01*
X112177199Y-148945525D01*
X112178353Y-148931351D01*
X112180867Y-148902927D01*
X112196720Y-148897475D01*
X112238379Y-148914998D01*
X112270776Y-148931351D01*
X112395151Y-148970103D01*
X112530354Y-148972346D01*
X112640274Y-148943444D01*
X112742634Y-148873619D01*
X112820660Y-148770555D01*
X112863386Y-148648989D01*
X112864474Y-148642192D01*
X112870822Y-148568032D01*
X112873979Y-148461570D01*
X112873725Y-148381052D01*
X112601711Y-148381052D01*
X112595410Y-148488070D01*
X112581075Y-148576278D01*
X112561669Y-148626090D01*
X112488254Y-148694162D01*
X112401086Y-148718564D01*
X112311196Y-148698831D01*
X112234383Y-148639968D01*
X112205292Y-148600379D01*
X112188283Y-148553138D01*
X112180316Y-148484181D01*
X112178353Y-148380607D01*
X112181866Y-148278039D01*
X112191143Y-148187921D01*
X112204294Y-148127613D01*
X112206486Y-148122208D01*
X112259522Y-148057940D01*
X112336933Y-148022656D01*
X112423546Y-148016959D01*
X112504193Y-148041453D01*
X112563703Y-148096742D01*
X112569876Y-148107743D01*
X112589199Y-148174827D01*
X112599726Y-148271284D01*
X112601711Y-148381052D01*
X112873725Y-148381052D01*
X112873596Y-148340225D01*
X112871806Y-148274918D01*
X112859627Y-148113355D01*
X112834315Y-147992053D01*
X112792207Y-147902379D01*
X112729641Y-147835699D01*
X112668900Y-147796557D01*
X112584036Y-147769040D01*
X112478485Y-147759603D01*
X112370402Y-147767290D01*
X112277942Y-147791146D01*
X112229090Y-147819685D01*
X112178353Y-147865601D01*
X112178353Y-147285137D01*
X111904432Y-147285137D01*
X111904432Y-148978471D01*
G36*
X113473236Y-147760921D02*
X113435970Y-147772091D01*
X113423957Y-147796633D01*
X113423451Y-147807712D01*
X113421296Y-147838572D01*
X113406449Y-147843417D01*
X113366343Y-147822260D01*
X113342520Y-147807806D01*
X113267362Y-147776850D01*
X113177594Y-147761544D01*
X113083471Y-147760367D01*
X112995246Y-147771799D01*
X112923174Y-147794320D01*
X112877508Y-147826409D01*
X112868502Y-147866545D01*
X112873047Y-147877415D01*
X112906179Y-147922534D01*
X112957555Y-147978026D01*
X112966848Y-147986996D01*
X113015818Y-148028245D01*
X113058069Y-148041572D01*
X113117159Y-148032271D01*
X113140831Y-148026090D01*
X113214496Y-148011246D01*
X113266290Y-148017921D01*
X113310031Y-148041465D01*
X113350098Y-148073061D01*
X113379608Y-148112798D01*
X113400116Y-148168252D01*
X113413176Y-148247003D01*
X113420344Y-148356629D01*
X113423176Y-148504706D01*
X113423451Y-148594111D01*
X113423451Y-148978471D01*
X113672471Y-148978471D01*
X113672471Y-147758275D01*
X113547961Y-147758275D01*
X113473236Y-147760921D01*
X113473236Y-147760921D01*
G37*
X113473236Y-147760921D02*
X113435970Y-147772091D01*
X113423957Y-147796633D01*
X113423451Y-147807712D01*
X113421296Y-147838572D01*
X113406449Y-147843417D01*
X113366343Y-147822260D01*
X113342520Y-147807806D01*
X113267362Y-147776850D01*
X113177594Y-147761544D01*
X113083471Y-147760367D01*
X112995246Y-147771799D01*
X112923174Y-147794320D01*
X112877508Y-147826409D01*
X112868502Y-147866545D01*
X112873047Y-147877415D01*
X112906179Y-147922534D01*
X112957555Y-147978026D01*
X112966848Y-147986996D01*
X113015818Y-148028245D01*
X113058069Y-148041572D01*
X113117159Y-148032271D01*
X113140831Y-148026090D01*
X113214496Y-148011246D01*
X113266290Y-148017921D01*
X113310031Y-148041465D01*
X113350098Y-148073061D01*
X113379608Y-148112798D01*
X113400116Y-148168252D01*
X113413176Y-148247003D01*
X113420344Y-148356629D01*
X113423176Y-148504706D01*
X113423451Y-148594111D01*
X113423451Y-148978471D01*
X113672471Y-148978471D01*
X113672471Y-147758275D01*
X113547961Y-147758275D01*
X113473236Y-147760921D01*
G36*
X114247280Y-147767922D02*
X114130130Y-147799180D01*
X114040949Y-147855837D01*
X113978016Y-147930045D01*
X113958452Y-147961716D01*
X113944008Y-147994891D01*
X113933911Y-148037329D01*
X113927385Y-148096788D01*
X113923658Y-148181029D01*
X113921954Y-148297810D01*
X113921500Y-148454890D01*
X113921491Y-148496565D01*
X113921491Y-148978471D01*
X114041020Y-148978471D01*
X114117261Y-148973131D01*
X114173634Y-148959604D01*
X114187758Y-148951262D01*
X114226370Y-148936864D01*
X114265808Y-148951262D01*
X114330738Y-148969237D01*
X114425055Y-148976472D01*
X114529593Y-148973333D01*
X114625189Y-148960186D01*
X114681000Y-148943318D01*
X114789002Y-148873986D01*
X114856497Y-148777772D01*
X114886841Y-148649844D01*
X114887123Y-148646559D01*
X114884460Y-148589808D01*
X114643647Y-148589808D01*
X114622595Y-148654358D01*
X114588303Y-148690686D01*
X114519468Y-148718162D01*
X114428610Y-148729129D01*
X114335958Y-148723731D01*
X114261744Y-148702110D01*
X114240951Y-148688239D01*
X114204619Y-148624143D01*
X114195412Y-148551278D01*
X114195412Y-148455530D01*
X114333173Y-148455530D01*
X114464047Y-148465605D01*
X114563259Y-148494148D01*
X114624977Y-148538639D01*
X114643647Y-148589808D01*
X114884460Y-148589808D01*
X114880564Y-148506790D01*
X114834466Y-148396282D01*
X114747800Y-148312712D01*
X114735821Y-148305110D01*
X114684345Y-148280357D01*
X114620632Y-148265368D01*
X114531565Y-148258082D01*
X114425755Y-148256407D01*
X114195412Y-148256314D01*
X114195412Y-148159755D01*
X114205183Y-148084836D01*
X114230116Y-148034644D01*
X114233035Y-148031972D01*
X114288519Y-148010015D01*
X114372273Y-148001505D01*
X114464833Y-148005687D01*
X114546730Y-148021809D01*
X114595327Y-148045990D01*
X114621659Y-148065359D01*
X114649465Y-148069057D01*
X114687839Y-148053188D01*
X114745875Y-148013855D01*
X114832669Y-147947164D01*
X114840635Y-147940916D01*
X114836553Y-147917800D01*
X114802499Y-147879352D01*
X114750740Y-147836627D01*
X114693545Y-147800679D01*
X114675575Y-147792191D01*
X114610028Y-147775252D01*
X114513980Y-147763170D01*
X114406671Y-147758323D01*
X114401653Y-147758313D01*
X114247280Y-147767922D01*
X114247280Y-147767922D01*
G37*
X114247280Y-147767922D02*
X114130130Y-147799180D01*
X114040949Y-147855837D01*
X113978016Y-147930045D01*
X113958452Y-147961716D01*
X113944008Y-147994891D01*
X113933911Y-148037329D01*
X113927385Y-148096788D01*
X113923658Y-148181029D01*
X113921954Y-148297810D01*
X113921500Y-148454890D01*
X113921491Y-148496565D01*
X113921491Y-148978471D01*
X114041020Y-148978471D01*
X114117261Y-148973131D01*
X114173634Y-148959604D01*
X114187758Y-148951262D01*
X114226370Y-148936864D01*
X114265808Y-148951262D01*
X114330738Y-148969237D01*
X114425055Y-148976472D01*
X114529593Y-148973333D01*
X114625189Y-148960186D01*
X114681000Y-148943318D01*
X114789002Y-148873986D01*
X114856497Y-148777772D01*
X114886841Y-148649844D01*
X114887123Y-148646559D01*
X114884460Y-148589808D01*
X114643647Y-148589808D01*
X114622595Y-148654358D01*
X114588303Y-148690686D01*
X114519468Y-148718162D01*
X114428610Y-148729129D01*
X114335958Y-148723731D01*
X114261744Y-148702110D01*
X114240951Y-148688239D01*
X114204619Y-148624143D01*
X114195412Y-148551278D01*
X114195412Y-148455530D01*
X114333173Y-148455530D01*
X114464047Y-148465605D01*
X114563259Y-148494148D01*
X114624977Y-148538639D01*
X114643647Y-148589808D01*
X114884460Y-148589808D01*
X114880564Y-148506790D01*
X114834466Y-148396282D01*
X114747800Y-148312712D01*
X114735821Y-148305110D01*
X114684345Y-148280357D01*
X114620632Y-148265368D01*
X114531565Y-148258082D01*
X114425755Y-148256407D01*
X114195412Y-148256314D01*
X114195412Y-148159755D01*
X114205183Y-148084836D01*
X114230116Y-148034644D01*
X114233035Y-148031972D01*
X114288519Y-148010015D01*
X114372273Y-148001505D01*
X114464833Y-148005687D01*
X114546730Y-148021809D01*
X114595327Y-148045990D01*
X114621659Y-148065359D01*
X114649465Y-148069057D01*
X114687839Y-148053188D01*
X114745875Y-148013855D01*
X114832669Y-147947164D01*
X114840635Y-147940916D01*
X114836553Y-147917800D01*
X114802499Y-147879352D01*
X114750740Y-147836627D01*
X114693545Y-147800679D01*
X114675575Y-147792191D01*
X114610028Y-147775252D01*
X114513980Y-147763170D01*
X114406671Y-147758323D01*
X114401653Y-147758313D01*
X114247280Y-147767922D01*
G36*
X115286091Y-145911560D02*
X115233588Y-145937499D01*
X115168842Y-145982700D01*
X115121653Y-146031991D01*
X115089335Y-146093885D01*
X115069203Y-146176896D01*
X115058570Y-146289538D01*
X115054753Y-146440324D01*
X115054530Y-146505149D01*
X115055182Y-146647221D01*
X115057888Y-146748757D01*
X115063776Y-146819015D01*
X115073973Y-146867256D01*
X115089606Y-146902738D01*
X115105872Y-146926943D01*
X115209705Y-147029929D01*
X115331979Y-147091874D01*
X115463886Y-147110506D01*
X115596616Y-147083549D01*
X115638667Y-147064486D01*
X115739334Y-147012015D01*
X115739334Y-147834259D01*
X115665865Y-147796267D01*
X115569059Y-147766872D01*
X115450072Y-147759342D01*
X115331255Y-147773245D01*
X115241527Y-147804476D01*
X115167101Y-147863954D01*
X115103510Y-147949066D01*
X115098729Y-147957805D01*
X115078563Y-147998966D01*
X115063835Y-148040454D01*
X115053697Y-148090713D01*
X115047301Y-148158184D01*
X115043799Y-148251309D01*
X115042342Y-148378531D01*
X115042079Y-148521701D01*
X115042079Y-148978471D01*
X115316000Y-148978471D01*
X115316000Y-148136231D01*
X115392617Y-148071763D01*
X115472207Y-148020194D01*
X115547578Y-148010818D01*
X115623367Y-148034947D01*
X115663759Y-148058574D01*
X115693821Y-148092227D01*
X115715203Y-148143087D01*
X115729550Y-148218334D01*
X115738510Y-148325146D01*
X115743730Y-148470704D01*
X115745569Y-148567588D01*
X115751785Y-148966020D01*
X115882520Y-148973547D01*
X116013255Y-148981073D01*
X116013255Y-146508582D01*
X115739334Y-146508582D01*
X115732350Y-146646423D01*
X115708818Y-146742107D01*
X115664865Y-146801641D01*
X115596618Y-146831029D01*
X115527667Y-146836902D01*
X115449614Y-146830154D01*
X115397811Y-146803594D01*
X115365417Y-146768499D01*
X115339916Y-146730752D01*
X115324735Y-146688700D01*
X115317981Y-146629779D01*
X115317759Y-146541428D01*
X115320032Y-146467448D01*
X115325251Y-146356000D01*
X115333021Y-146282833D01*
X115346105Y-146236422D01*
X115367268Y-146205244D01*
X115387240Y-146187223D01*
X115470686Y-146147925D01*
X115569449Y-146141579D01*
X115626159Y-146155116D01*
X115682308Y-146203233D01*
X115719501Y-146296833D01*
X115737528Y-146435254D01*
X115739334Y-146508582D01*
X116013255Y-146508582D01*
X116013255Y-145890628D01*
X115876295Y-145890628D01*
X115794065Y-145893879D01*
X115751640Y-145905426D01*
X115739339Y-145927952D01*
X115739334Y-145928620D01*
X115733626Y-145950681D01*
X115708453Y-145948176D01*
X115658402Y-145923935D01*
X115541781Y-145886851D01*
X115410571Y-145882953D01*
X115286091Y-145911560D01*
X115286091Y-145911560D01*
G37*
X115286091Y-145911560D02*
X115233588Y-145937499D01*
X115168842Y-145982700D01*
X115121653Y-146031991D01*
X115089335Y-146093885D01*
X115069203Y-146176896D01*
X115058570Y-146289538D01*
X115054753Y-146440324D01*
X115054530Y-146505149D01*
X115055182Y-146647221D01*
X115057888Y-146748757D01*
X115063776Y-146819015D01*
X115073973Y-146867256D01*
X115089606Y-146902738D01*
X115105872Y-146926943D01*
X115209705Y-147029929D01*
X115331979Y-147091874D01*
X115463886Y-147110506D01*
X115596616Y-147083549D01*
X115638667Y-147064486D01*
X115739334Y-147012015D01*
X115739334Y-147834259D01*
X115665865Y-147796267D01*
X115569059Y-147766872D01*
X115450072Y-147759342D01*
X115331255Y-147773245D01*
X115241527Y-147804476D01*
X115167101Y-147863954D01*
X115103510Y-147949066D01*
X115098729Y-147957805D01*
X115078563Y-147998966D01*
X115063835Y-148040454D01*
X115053697Y-148090713D01*
X115047301Y-148158184D01*
X115043799Y-148251309D01*
X115042342Y-148378531D01*
X115042079Y-148521701D01*
X115042079Y-148978471D01*
X115316000Y-148978471D01*
X115316000Y-148136231D01*
X115392617Y-148071763D01*
X115472207Y-148020194D01*
X115547578Y-148010818D01*
X115623367Y-148034947D01*
X115663759Y-148058574D01*
X115693821Y-148092227D01*
X115715203Y-148143087D01*
X115729550Y-148218334D01*
X115738510Y-148325146D01*
X115743730Y-148470704D01*
X115745569Y-148567588D01*
X115751785Y-148966020D01*
X115882520Y-148973547D01*
X116013255Y-148981073D01*
X116013255Y-146508582D01*
X115739334Y-146508582D01*
X115732350Y-146646423D01*
X115708818Y-146742107D01*
X115664865Y-146801641D01*
X115596618Y-146831029D01*
X115527667Y-146836902D01*
X115449614Y-146830154D01*
X115397811Y-146803594D01*
X115365417Y-146768499D01*
X115339916Y-146730752D01*
X115324735Y-146688700D01*
X115317981Y-146629779D01*
X115317759Y-146541428D01*
X115320032Y-146467448D01*
X115325251Y-146356000D01*
X115333021Y-146282833D01*
X115346105Y-146236422D01*
X115367268Y-146205244D01*
X115387240Y-146187223D01*
X115470686Y-146147925D01*
X115569449Y-146141579D01*
X115626159Y-146155116D01*
X115682308Y-146203233D01*
X115719501Y-146296833D01*
X115737528Y-146435254D01*
X115739334Y-146508582D01*
X116013255Y-146508582D01*
X116013255Y-145890628D01*
X115876295Y-145890628D01*
X115794065Y-145893879D01*
X115751640Y-145905426D01*
X115739339Y-145927952D01*
X115739334Y-145928620D01*
X115733626Y-145950681D01*
X115708453Y-145948176D01*
X115658402Y-145923935D01*
X115541781Y-145886851D01*
X115410571Y-145882953D01*
X115286091Y-145911560D01*
G04 #@! TD*
M02*
