G04 #@! TF.GenerationSoftware,KiCad,Pcbnew,5.0.2-bee76a0~70~ubuntu16.04.1*
G04 #@! TF.CreationDate,2019-09-17T19:16:02-07:00*
G04 #@! TF.ProjectId,rtl-half-adder,72746c2d-6861-46c6-962d-61646465722e,v1*
G04 #@! TF.SameCoordinates,Original*
G04 #@! TF.FileFunction,Other,Fab,Bot*
%FSLAX46Y46*%
G04 Gerber Fmt 4.6, Leading zero omitted, Abs format (unit mm)*
G04 Created by KiCad (PCBNEW 5.0.2-bee76a0~70~ubuntu16.04.1) date Tue 17 Sep 2019 07:16:02 PM PDT*
%MOMM*%
%LPD*%
G01*
G04 APERTURE LIST*
%ADD10C,0.100000*%
%ADD11C,0.150000*%
%ADD12C,0.075000*%
%ADD13C,0.080000*%
%ADD14C,0.120000*%
G04 APERTURE END LIST*
D10*
G04 #@! TO.C,Q17*
X125792000Y-103128000D02*
X127192000Y-103128000D01*
X127192000Y-106168000D02*
X127192000Y-103128000D01*
X125792000Y-105598000D02*
X126342000Y-106168000D01*
X126342000Y-106168000D02*
X127192000Y-106168000D01*
X125792000Y-105598000D02*
X125792000Y-103148000D01*
G04 #@! TO.C,Q18*
X155256000Y-98048000D02*
X156656000Y-98048000D01*
X156656000Y-101088000D02*
X156656000Y-98048000D01*
X155256000Y-100518000D02*
X155806000Y-101088000D01*
X155806000Y-101088000D02*
X156656000Y-101088000D01*
X155256000Y-100518000D02*
X155256000Y-98068000D01*
G04 #@! TO.C,R28*
X127778000Y-74514000D02*
X129778000Y-74514000D01*
X127778000Y-73314000D02*
X127778000Y-74514000D01*
X129778000Y-73314000D02*
X127778000Y-73314000D01*
X129778000Y-74514000D02*
X129778000Y-73314000D01*
G04 #@! TO.C,R29*
X130648000Y-68818000D02*
X130648000Y-66818000D01*
X129448000Y-68818000D02*
X130648000Y-68818000D01*
X129448000Y-66818000D02*
X129448000Y-68818000D01*
X130648000Y-66818000D02*
X129448000Y-66818000D01*
G04 #@! TO.C,R34*
X124044000Y-125206000D02*
X124044000Y-123206000D01*
X122844000Y-125206000D02*
X124044000Y-125206000D01*
X122844000Y-123206000D02*
X122844000Y-125206000D01*
X124044000Y-123206000D02*
X122844000Y-123206000D01*
G04 #@! TO.C,R35*
X150714000Y-100568000D02*
X150714000Y-98568000D01*
X149514000Y-100568000D02*
X150714000Y-100568000D01*
X149514000Y-98568000D02*
X149514000Y-100568000D01*
X150714000Y-98568000D02*
X149514000Y-98568000D01*
G04 #@! TO.C,R36*
X149514000Y-104664000D02*
X149514000Y-106664000D01*
X150714000Y-104664000D02*
X149514000Y-104664000D01*
X150714000Y-106664000D02*
X150714000Y-104664000D01*
X149514000Y-106664000D02*
X150714000Y-106664000D01*
G04 #@! TO.C,R37*
X149514000Y-111014000D02*
X149514000Y-113014000D01*
X150714000Y-111014000D02*
X149514000Y-111014000D01*
X150714000Y-113014000D02*
X150714000Y-111014000D01*
X149514000Y-113014000D02*
X150714000Y-113014000D01*
G04 #@! TO.C,R39*
X150714000Y-122666000D02*
X150714000Y-120666000D01*
X149514000Y-122666000D02*
X150714000Y-122666000D01*
X149514000Y-120666000D02*
X149514000Y-122666000D01*
X150714000Y-120666000D02*
X149514000Y-120666000D01*
G04 #@! TO.C,R30*
X136998000Y-68809000D02*
X136998000Y-66809000D01*
X135798000Y-68809000D02*
X136998000Y-68809000D01*
X135798000Y-66809000D02*
X135798000Y-68809000D01*
X136998000Y-66809000D02*
X135798000Y-66809000D01*
G04 #@! TO.C,R31*
X121250000Y-105648000D02*
X121250000Y-103648000D01*
X120050000Y-105648000D02*
X121250000Y-105648000D01*
X120050000Y-103648000D02*
X120050000Y-105648000D01*
X121250000Y-103648000D02*
X120050000Y-103648000D01*
G04 #@! TO.C,Q16*
X134174000Y-71378000D02*
X135574000Y-71378000D01*
X135574000Y-74418000D02*
X135574000Y-71378000D01*
X134174000Y-73848000D02*
X134724000Y-74418000D01*
X134724000Y-74418000D02*
X135574000Y-74418000D01*
X134174000Y-73848000D02*
X134174000Y-71398000D01*
G04 #@! TO.C,Q19*
X155256000Y-132592000D02*
X156656000Y-132592000D01*
X156656000Y-135632000D02*
X156656000Y-132592000D01*
X155256000Y-135062000D02*
X155806000Y-135632000D01*
X155806000Y-135632000D02*
X156656000Y-135632000D01*
X155256000Y-135062000D02*
X155256000Y-132612000D01*
G04 #@! TO.C,R32*
X124044000Y-112506000D02*
X124044000Y-110506000D01*
X122844000Y-112506000D02*
X124044000Y-112506000D01*
X122844000Y-110506000D02*
X122844000Y-112506000D01*
X124044000Y-110506000D02*
X122844000Y-110506000D01*
G04 #@! TO.C,R33*
X124044000Y-118856000D02*
X124044000Y-116856000D01*
X122844000Y-118856000D02*
X124044000Y-118856000D01*
X122844000Y-116856000D02*
X122844000Y-118856000D01*
X124044000Y-116856000D02*
X122844000Y-116856000D01*
G04 #@! TO.C,R38*
X150714000Y-135112000D02*
X150714000Y-133112000D01*
X149514000Y-135112000D02*
X150714000Y-135112000D01*
X149514000Y-133112000D02*
X149514000Y-135112000D01*
X150714000Y-133112000D02*
X149514000Y-133112000D01*
G04 #@! TO.C,R40*
X150714000Y-129016000D02*
X150714000Y-127016000D01*
X149514000Y-129016000D02*
X150714000Y-129016000D01*
X149514000Y-127016000D02*
X149514000Y-129016000D01*
X150714000Y-127016000D02*
X149514000Y-127016000D01*
G04 #@! TO.C,R41*
X77308000Y-59207000D02*
X76108000Y-59207000D01*
X76108000Y-59207000D02*
X76108000Y-61207000D01*
X76108000Y-61207000D02*
X77308000Y-61207000D01*
X77308000Y-61207000D02*
X77308000Y-59207000D01*
G04 #@! TO.C,R42*
X77708000Y-80934000D02*
X75708000Y-80934000D01*
X77708000Y-82134000D02*
X77708000Y-80934000D01*
X75708000Y-82134000D02*
X77708000Y-82134000D01*
X75708000Y-80934000D02*
X75708000Y-82134000D01*
G04 #@! TO.C,R43*
X75708000Y-102270000D02*
X75708000Y-103470000D01*
X75708000Y-103470000D02*
X77708000Y-103470000D01*
X77708000Y-103470000D02*
X77708000Y-102270000D01*
X77708000Y-102270000D02*
X75708000Y-102270000D01*
G04 #@! TO.C,R44*
X83836000Y-106842000D02*
X83836000Y-108042000D01*
X83836000Y-108042000D02*
X85836000Y-108042000D01*
X85836000Y-108042000D02*
X85836000Y-106842000D01*
X85836000Y-106842000D02*
X83836000Y-106842000D01*
G04 #@! TO.C,R45*
X97003000Y-108804000D02*
X97003000Y-107604000D01*
X97003000Y-107604000D02*
X95003000Y-107604000D01*
X95003000Y-107604000D02*
X95003000Y-108804000D01*
X95003000Y-108804000D02*
X97003000Y-108804000D01*
G04 #@! TO.C,R46*
X114824000Y-108042000D02*
X116824000Y-108042000D01*
X114824000Y-106842000D02*
X114824000Y-108042000D01*
X116824000Y-106842000D02*
X114824000Y-106842000D01*
X116824000Y-108042000D02*
X116824000Y-106842000D01*
G04 #@! TO.C,R47*
X83658000Y-76438000D02*
X83658000Y-74438000D01*
X82458000Y-76438000D02*
X83658000Y-76438000D01*
X82458000Y-74438000D02*
X82458000Y-76438000D01*
X83658000Y-74438000D02*
X82458000Y-74438000D01*
G04 #@! TO.C,R48*
X82058000Y-85760000D02*
X82058000Y-86960000D01*
X82058000Y-86960000D02*
X84058000Y-86960000D01*
X84058000Y-86960000D02*
X84058000Y-85760000D01*
X84058000Y-85760000D02*
X82058000Y-85760000D01*
G04 #@! TO.C,R49*
X82058000Y-114462000D02*
X82058000Y-115662000D01*
X82058000Y-115662000D02*
X84058000Y-115662000D01*
X84058000Y-115662000D02*
X84058000Y-114462000D01*
X84058000Y-114462000D02*
X82058000Y-114462000D01*
G04 #@! TO.C,R50*
X85836000Y-125638000D02*
X83836000Y-125638000D01*
X85836000Y-126838000D02*
X85836000Y-125638000D01*
X83836000Y-126838000D02*
X85836000Y-126838000D01*
X83836000Y-125638000D02*
X83836000Y-126838000D01*
G04 #@! TO.C,R51*
X95012000Y-126076000D02*
X97012000Y-126076000D01*
X95012000Y-124876000D02*
X95012000Y-126076000D01*
X97012000Y-124876000D02*
X95012000Y-124876000D01*
X97012000Y-126076000D02*
X97012000Y-124876000D01*
G04 #@! TO.C,R52*
X114570000Y-126838000D02*
X116570000Y-126838000D01*
X114570000Y-125638000D02*
X114570000Y-126838000D01*
X116570000Y-125638000D02*
X114570000Y-125638000D01*
X116570000Y-126838000D02*
X116570000Y-125638000D01*
G04 #@! TO.C,R53*
X189830000Y-66818000D02*
X188630000Y-66818000D01*
X188630000Y-66818000D02*
X188630000Y-68818000D01*
X188630000Y-68818000D02*
X189830000Y-68818000D01*
X189830000Y-68818000D02*
X189830000Y-66818000D01*
G04 #@! TO.C,R54*
X188630000Y-110252000D02*
X188630000Y-112252000D01*
X189830000Y-110252000D02*
X188630000Y-110252000D01*
X189830000Y-112252000D02*
X189830000Y-110252000D01*
X188630000Y-112252000D02*
X189830000Y-112252000D01*
G04 #@! TO.C,D5*
X129248000Y-60630000D02*
X130848000Y-60630000D01*
X129248000Y-63830000D02*
X129248000Y-60630000D01*
X130448000Y-63830000D02*
X129248000Y-63830000D01*
X130848000Y-63430000D02*
X130448000Y-63830000D01*
X130848000Y-60630000D02*
X130848000Y-63430000D01*
G04 #@! TO.C,D6*
X135598000Y-60630000D02*
X137198000Y-60630000D01*
X135598000Y-63830000D02*
X135598000Y-60630000D01*
X136798000Y-63830000D02*
X135598000Y-63830000D01*
X137198000Y-63430000D02*
X136798000Y-63830000D01*
X137198000Y-60630000D02*
X137198000Y-63430000D01*
G04 #@! TO.C,D7*
X129870000Y-109690000D02*
X129870000Y-111290000D01*
X126670000Y-109690000D02*
X129870000Y-109690000D01*
X126670000Y-110890000D02*
X126670000Y-109690000D01*
X127070000Y-111290000D02*
X126670000Y-110890000D01*
X129870000Y-111290000D02*
X127070000Y-111290000D01*
G04 #@! TO.C,D8*
X129870000Y-117640000D02*
X127070000Y-117640000D01*
X127070000Y-117640000D02*
X126670000Y-117240000D01*
X126670000Y-117240000D02*
X126670000Y-116040000D01*
X126670000Y-116040000D02*
X129870000Y-116040000D01*
X129870000Y-116040000D02*
X129870000Y-117640000D01*
G04 #@! TO.C,D9*
X129870000Y-122390000D02*
X129870000Y-123990000D01*
X126670000Y-122390000D02*
X129870000Y-122390000D01*
X126670000Y-123590000D02*
X126670000Y-122390000D01*
X127070000Y-123990000D02*
X126670000Y-123590000D01*
X129870000Y-123990000D02*
X127070000Y-123990000D01*
G04 #@! TO.C,D10*
X156540000Y-107480000D02*
X153740000Y-107480000D01*
X153740000Y-107480000D02*
X153340000Y-107080000D01*
X153340000Y-107080000D02*
X153340000Y-105880000D01*
X153340000Y-105880000D02*
X156540000Y-105880000D01*
X156540000Y-105880000D02*
X156540000Y-107480000D01*
G04 #@! TO.C,D11*
X156540000Y-113830000D02*
X153740000Y-113830000D01*
X153740000Y-113830000D02*
X153340000Y-113430000D01*
X153340000Y-113430000D02*
X153340000Y-112230000D01*
X153340000Y-112230000D02*
X156540000Y-112230000D01*
X156540000Y-112230000D02*
X156540000Y-113830000D01*
G04 #@! TO.C,D12*
X156540000Y-119850000D02*
X156540000Y-121450000D01*
X153340000Y-119850000D02*
X156540000Y-119850000D01*
X153340000Y-121050000D02*
X153340000Y-119850000D01*
X153740000Y-121450000D02*
X153340000Y-121050000D01*
X156540000Y-121450000D02*
X153740000Y-121450000D01*
G04 #@! TO.C,D13*
X156540000Y-127800000D02*
X153740000Y-127800000D01*
X153740000Y-127800000D02*
X153340000Y-127400000D01*
X153340000Y-127400000D02*
X153340000Y-126200000D01*
X153340000Y-126200000D02*
X156540000Y-126200000D01*
X156540000Y-126200000D02*
X156540000Y-127800000D01*
G04 #@! TO.C,D14*
X77508000Y-53010000D02*
X77508000Y-55810000D01*
X77508000Y-55810000D02*
X77108000Y-56210000D01*
X77108000Y-56210000D02*
X75908000Y-56210000D01*
X75908000Y-56210000D02*
X75908000Y-53010000D01*
X75908000Y-53010000D02*
X77508000Y-53010000D01*
G04 #@! TO.C,D15*
X69520000Y-80734000D02*
X72320000Y-80734000D01*
X72320000Y-80734000D02*
X72720000Y-81134000D01*
X72720000Y-81134000D02*
X72720000Y-82334000D01*
X72720000Y-82334000D02*
X69520000Y-82334000D01*
X69520000Y-82334000D02*
X69520000Y-80734000D01*
G04 #@! TO.C,D16*
X69520000Y-103670000D02*
X69520000Y-102070000D01*
X72720000Y-103670000D02*
X69520000Y-103670000D01*
X72720000Y-102470000D02*
X72720000Y-103670000D01*
X72320000Y-102070000D02*
X72720000Y-102470000D01*
X69520000Y-102070000D02*
X72320000Y-102070000D01*
G04 #@! TO.C,D17*
X84620000Y-101270000D02*
X84620000Y-104070000D01*
X84620000Y-104070000D02*
X84220000Y-104470000D01*
X84220000Y-104470000D02*
X83020000Y-104470000D01*
X83020000Y-104470000D02*
X83020000Y-101270000D01*
X83020000Y-101270000D02*
X84620000Y-101270000D01*
G04 #@! TO.C,D18*
X103200000Y-107404000D02*
X103200000Y-109004000D01*
X100000000Y-107404000D02*
X103200000Y-107404000D01*
X100000000Y-108604000D02*
X100000000Y-107404000D01*
X100400000Y-109004000D02*
X100000000Y-108604000D01*
X103200000Y-109004000D02*
X100400000Y-109004000D01*
G04 #@! TO.C,D19*
X117640000Y-101270000D02*
X117640000Y-104070000D01*
X117640000Y-104070000D02*
X117240000Y-104470000D01*
X117240000Y-104470000D02*
X116040000Y-104470000D01*
X116040000Y-104470000D02*
X116040000Y-101270000D01*
X116040000Y-101270000D02*
X117640000Y-101270000D01*
G04 #@! TO.C,D20*
X82258000Y-68250000D02*
X83858000Y-68250000D01*
X82258000Y-71450000D02*
X82258000Y-68250000D01*
X83458000Y-71450000D02*
X82258000Y-71450000D01*
X83858000Y-71050000D02*
X83458000Y-71450000D01*
X83858000Y-68250000D02*
X83858000Y-71050000D01*
G04 #@! TO.C,D21*
X75870000Y-87160000D02*
X75870000Y-85560000D01*
X79070000Y-87160000D02*
X75870000Y-87160000D01*
X79070000Y-85960000D02*
X79070000Y-87160000D01*
X78670000Y-85560000D02*
X79070000Y-85960000D01*
X75870000Y-85560000D02*
X78670000Y-85560000D01*
G04 #@! TO.C,D22*
X75870000Y-115862000D02*
X75870000Y-114262000D01*
X79070000Y-115862000D02*
X75870000Y-115862000D01*
X79070000Y-114662000D02*
X79070000Y-115862000D01*
X78670000Y-114262000D02*
X79070000Y-114662000D01*
X75870000Y-114262000D02*
X78670000Y-114262000D01*
G04 #@! TO.C,D23*
X83020000Y-132410000D02*
X83020000Y-129610000D01*
X83020000Y-129610000D02*
X83420000Y-129210000D01*
X83420000Y-129210000D02*
X84620000Y-129210000D01*
X84620000Y-129210000D02*
X84620000Y-132410000D01*
X84620000Y-132410000D02*
X83020000Y-132410000D01*
G04 #@! TO.C,D24*
X103200000Y-126276000D02*
X100400000Y-126276000D01*
X100400000Y-126276000D02*
X100000000Y-125876000D01*
X100000000Y-125876000D02*
X100000000Y-124676000D01*
X100000000Y-124676000D02*
X103200000Y-124676000D01*
X103200000Y-124676000D02*
X103200000Y-126276000D01*
G04 #@! TO.C,D25*
X115786000Y-132410000D02*
X115786000Y-129610000D01*
X115786000Y-129610000D02*
X116186000Y-129210000D01*
X116186000Y-129210000D02*
X117386000Y-129210000D01*
X117386000Y-129210000D02*
X117386000Y-132410000D01*
X117386000Y-132410000D02*
X115786000Y-132410000D01*
G04 #@! TO.C,D26*
X188430000Y-60630000D02*
X190030000Y-60630000D01*
X188430000Y-63830000D02*
X188430000Y-60630000D01*
X189630000Y-63830000D02*
X188430000Y-63830000D01*
X190030000Y-63430000D02*
X189630000Y-63830000D01*
X190030000Y-60630000D02*
X190030000Y-63430000D01*
G04 #@! TO.C,D27*
X190030000Y-118440000D02*
X188430000Y-118440000D01*
X190030000Y-115240000D02*
X190030000Y-118440000D01*
X188830000Y-115240000D02*
X190030000Y-115240000D01*
X188430000Y-115640000D02*
X188830000Y-115240000D01*
X188430000Y-118440000D02*
X188430000Y-115640000D01*
G04 #@! TD*
G04 #@! TO.C,Q17*
D11*
X129872952Y-102695619D02*
X129968190Y-102648000D01*
X130063428Y-102552761D01*
X130206285Y-102409904D01*
X130301523Y-102362285D01*
X130396761Y-102362285D01*
X130349142Y-102600380D02*
X130444380Y-102552761D01*
X130539619Y-102457523D01*
X130587238Y-102267047D01*
X130587238Y-101933714D01*
X130539619Y-101743238D01*
X130444380Y-101648000D01*
X130349142Y-101600380D01*
X130158666Y-101600380D01*
X130063428Y-101648000D01*
X129968190Y-101743238D01*
X129920571Y-101933714D01*
X129920571Y-102267047D01*
X129968190Y-102457523D01*
X130063428Y-102552761D01*
X130158666Y-102600380D01*
X130349142Y-102600380D01*
X129730095Y-102695619D02*
X128968190Y-102695619D01*
X128730095Y-102600380D02*
X128730095Y-101600380D01*
X128158666Y-102600380D01*
X128158666Y-101600380D01*
X127682476Y-102600380D02*
X127682476Y-101600380D01*
X127301523Y-101600380D01*
X127206285Y-101648000D01*
X127158666Y-101695619D01*
X127111047Y-101790857D01*
X127111047Y-101933714D01*
X127158666Y-102028952D01*
X127206285Y-102076571D01*
X127301523Y-102124190D01*
X127682476Y-102124190D01*
X126682476Y-102600380D02*
X126682476Y-101600380D01*
X126111047Y-102600380D01*
X126111047Y-101600380D01*
X125872952Y-102695619D02*
X125111047Y-102695619D01*
X124539619Y-102076571D02*
X124396761Y-102124190D01*
X124349142Y-102171809D01*
X124301523Y-102267047D01*
X124301523Y-102409904D01*
X124349142Y-102505142D01*
X124396761Y-102552761D01*
X124492000Y-102600380D01*
X124872952Y-102600380D01*
X124872952Y-101600380D01*
X124539619Y-101600380D01*
X124444380Y-101648000D01*
X124396761Y-101695619D01*
X124349142Y-101790857D01*
X124349142Y-101886095D01*
X124396761Y-101981333D01*
X124444380Y-102028952D01*
X124539619Y-102076571D01*
X124872952Y-102076571D01*
X123872952Y-102076571D02*
X123539619Y-102076571D01*
X123396761Y-102600380D02*
X123872952Y-102600380D01*
X123872952Y-101600380D01*
X123396761Y-101600380D01*
X122396761Y-102505142D02*
X122444380Y-102552761D01*
X122587238Y-102600380D01*
X122682476Y-102600380D01*
X122825333Y-102552761D01*
X122920571Y-102457523D01*
X122968190Y-102362285D01*
X123015809Y-102171809D01*
X123015809Y-102028952D01*
X122968190Y-101838476D01*
X122920571Y-101743238D01*
X122825333Y-101648000D01*
X122682476Y-101600380D01*
X122587238Y-101600380D01*
X122444380Y-101648000D01*
X122396761Y-101695619D01*
D12*
X126218190Y-104933714D02*
X126242000Y-104981333D01*
X126289619Y-105028952D01*
X126361047Y-105100380D01*
X126384857Y-105148000D01*
X126384857Y-105195619D01*
X126265809Y-105171809D02*
X126289619Y-105219428D01*
X126337238Y-105267047D01*
X126432476Y-105290857D01*
X126599142Y-105290857D01*
X126694380Y-105267047D01*
X126742000Y-105219428D01*
X126765809Y-105171809D01*
X126765809Y-105076571D01*
X126742000Y-105028952D01*
X126694380Y-104981333D01*
X126599142Y-104957523D01*
X126432476Y-104957523D01*
X126337238Y-104981333D01*
X126289619Y-105028952D01*
X126265809Y-105076571D01*
X126265809Y-105171809D01*
X126265809Y-104481333D02*
X126265809Y-104767047D01*
X126265809Y-104624190D02*
X126765809Y-104624190D01*
X126694380Y-104671809D01*
X126646761Y-104719428D01*
X126622952Y-104767047D01*
X126765809Y-104314666D02*
X126765809Y-103981333D01*
X126265809Y-104195619D01*
G04 #@! TO.C,Q18*
D11*
X159336952Y-97615619D02*
X159432190Y-97568000D01*
X159527428Y-97472761D01*
X159670285Y-97329904D01*
X159765523Y-97282285D01*
X159860761Y-97282285D01*
X159813142Y-97520380D02*
X159908380Y-97472761D01*
X160003619Y-97377523D01*
X160051238Y-97187047D01*
X160051238Y-96853714D01*
X160003619Y-96663238D01*
X159908380Y-96568000D01*
X159813142Y-96520380D01*
X159622666Y-96520380D01*
X159527428Y-96568000D01*
X159432190Y-96663238D01*
X159384571Y-96853714D01*
X159384571Y-97187047D01*
X159432190Y-97377523D01*
X159527428Y-97472761D01*
X159622666Y-97520380D01*
X159813142Y-97520380D01*
X159194095Y-97615619D02*
X158432190Y-97615619D01*
X158194095Y-97520380D02*
X158194095Y-96520380D01*
X157622666Y-97520380D01*
X157622666Y-96520380D01*
X157146476Y-97520380D02*
X157146476Y-96520380D01*
X156765523Y-96520380D01*
X156670285Y-96568000D01*
X156622666Y-96615619D01*
X156575047Y-96710857D01*
X156575047Y-96853714D01*
X156622666Y-96948952D01*
X156670285Y-96996571D01*
X156765523Y-97044190D01*
X157146476Y-97044190D01*
X156146476Y-97520380D02*
X156146476Y-96520380D01*
X155575047Y-97520380D01*
X155575047Y-96520380D01*
X155336952Y-97615619D02*
X154575047Y-97615619D01*
X154003619Y-96996571D02*
X153860761Y-97044190D01*
X153813142Y-97091809D01*
X153765523Y-97187047D01*
X153765523Y-97329904D01*
X153813142Y-97425142D01*
X153860761Y-97472761D01*
X153956000Y-97520380D01*
X154336952Y-97520380D01*
X154336952Y-96520380D01*
X154003619Y-96520380D01*
X153908380Y-96568000D01*
X153860761Y-96615619D01*
X153813142Y-96710857D01*
X153813142Y-96806095D01*
X153860761Y-96901333D01*
X153908380Y-96948952D01*
X154003619Y-96996571D01*
X154336952Y-96996571D01*
X153336952Y-96996571D02*
X153003619Y-96996571D01*
X152860761Y-97520380D02*
X153336952Y-97520380D01*
X153336952Y-96520380D01*
X152860761Y-96520380D01*
X151860761Y-97425142D02*
X151908380Y-97472761D01*
X152051238Y-97520380D01*
X152146476Y-97520380D01*
X152289333Y-97472761D01*
X152384571Y-97377523D01*
X152432190Y-97282285D01*
X152479809Y-97091809D01*
X152479809Y-96948952D01*
X152432190Y-96758476D01*
X152384571Y-96663238D01*
X152289333Y-96568000D01*
X152146476Y-96520380D01*
X152051238Y-96520380D01*
X151908380Y-96568000D01*
X151860761Y-96615619D01*
D12*
X155682190Y-99853714D02*
X155706000Y-99901333D01*
X155753619Y-99948952D01*
X155825047Y-100020380D01*
X155848857Y-100068000D01*
X155848857Y-100115619D01*
X155729809Y-100091809D02*
X155753619Y-100139428D01*
X155801238Y-100187047D01*
X155896476Y-100210857D01*
X156063142Y-100210857D01*
X156158380Y-100187047D01*
X156206000Y-100139428D01*
X156229809Y-100091809D01*
X156229809Y-99996571D01*
X156206000Y-99948952D01*
X156158380Y-99901333D01*
X156063142Y-99877523D01*
X155896476Y-99877523D01*
X155801238Y-99901333D01*
X155753619Y-99948952D01*
X155729809Y-99996571D01*
X155729809Y-100091809D01*
X155729809Y-99401333D02*
X155729809Y-99687047D01*
X155729809Y-99544190D02*
X156229809Y-99544190D01*
X156158380Y-99591809D01*
X156110761Y-99639428D01*
X156086952Y-99687047D01*
X156015523Y-99115619D02*
X156039333Y-99163238D01*
X156063142Y-99187047D01*
X156110761Y-99210857D01*
X156134571Y-99210857D01*
X156182190Y-99187047D01*
X156206000Y-99163238D01*
X156229809Y-99115619D01*
X156229809Y-99020380D01*
X156206000Y-98972761D01*
X156182190Y-98948952D01*
X156134571Y-98925142D01*
X156110761Y-98925142D01*
X156063142Y-98948952D01*
X156039333Y-98972761D01*
X156015523Y-99020380D01*
X156015523Y-99115619D01*
X155991714Y-99163238D01*
X155967904Y-99187047D01*
X155920285Y-99210857D01*
X155825047Y-99210857D01*
X155777428Y-99187047D01*
X155753619Y-99163238D01*
X155729809Y-99115619D01*
X155729809Y-99020380D01*
X155753619Y-98972761D01*
X155777428Y-98948952D01*
X155825047Y-98925142D01*
X155920285Y-98925142D01*
X155967904Y-98948952D01*
X155991714Y-98972761D01*
X156015523Y-99020380D01*
G04 #@! TO.C,R28*
D11*
X126833238Y-74366380D02*
X127404666Y-74366380D01*
X127118952Y-74366380D02*
X127118952Y-73366380D01*
X127214190Y-73509238D01*
X127309428Y-73604476D01*
X127404666Y-73652095D01*
X126214190Y-73366380D02*
X126118952Y-73366380D01*
X126023714Y-73414000D01*
X125976095Y-73461619D01*
X125928476Y-73556857D01*
X125880857Y-73747333D01*
X125880857Y-73985428D01*
X125928476Y-74175904D01*
X125976095Y-74271142D01*
X126023714Y-74318761D01*
X126118952Y-74366380D01*
X126214190Y-74366380D01*
X126309428Y-74318761D01*
X126357047Y-74271142D01*
X126404666Y-74175904D01*
X126452285Y-73985428D01*
X126452285Y-73747333D01*
X126404666Y-73556857D01*
X126357047Y-73461619D01*
X126309428Y-73414000D01*
X126214190Y-73366380D01*
X125452285Y-74366380D02*
X125452285Y-73366380D01*
X125357047Y-73985428D02*
X125071333Y-74366380D01*
X125071333Y-73699714D02*
X125452285Y-74080666D01*
D13*
X129099428Y-74140190D02*
X129266095Y-73902095D01*
X129385142Y-74140190D02*
X129385142Y-73640190D01*
X129194666Y-73640190D01*
X129147047Y-73664000D01*
X129123238Y-73687809D01*
X129099428Y-73735428D01*
X129099428Y-73806857D01*
X129123238Y-73854476D01*
X129147047Y-73878285D01*
X129194666Y-73902095D01*
X129385142Y-73902095D01*
X128908952Y-73687809D02*
X128885142Y-73664000D01*
X128837523Y-73640190D01*
X128718476Y-73640190D01*
X128670857Y-73664000D01*
X128647047Y-73687809D01*
X128623238Y-73735428D01*
X128623238Y-73783047D01*
X128647047Y-73854476D01*
X128932761Y-74140190D01*
X128623238Y-74140190D01*
X128337523Y-73854476D02*
X128385142Y-73830666D01*
X128408952Y-73806857D01*
X128432761Y-73759238D01*
X128432761Y-73735428D01*
X128408952Y-73687809D01*
X128385142Y-73664000D01*
X128337523Y-73640190D01*
X128242285Y-73640190D01*
X128194666Y-73664000D01*
X128170857Y-73687809D01*
X128147047Y-73735428D01*
X128147047Y-73759238D01*
X128170857Y-73806857D01*
X128194666Y-73830666D01*
X128242285Y-73854476D01*
X128337523Y-73854476D01*
X128385142Y-73878285D01*
X128408952Y-73902095D01*
X128432761Y-73949714D01*
X128432761Y-74044952D01*
X128408952Y-74092571D01*
X128385142Y-74116380D01*
X128337523Y-74140190D01*
X128242285Y-74140190D01*
X128194666Y-74116380D01*
X128170857Y-74092571D01*
X128147047Y-74044952D01*
X128147047Y-73949714D01*
X128170857Y-73902095D01*
X128194666Y-73878285D01*
X128242285Y-73854476D01*
G04 #@! TO.C,R29*
D11*
X128476285Y-67270380D02*
X128952476Y-67270380D01*
X129000095Y-67746571D01*
X128952476Y-67698952D01*
X128857238Y-67651333D01*
X128619142Y-67651333D01*
X128523904Y-67698952D01*
X128476285Y-67746571D01*
X128428666Y-67841809D01*
X128428666Y-68079904D01*
X128476285Y-68175142D01*
X128523904Y-68222761D01*
X128619142Y-68270380D01*
X128857238Y-68270380D01*
X128952476Y-68222761D01*
X129000095Y-68175142D01*
X127476285Y-68270380D02*
X128047714Y-68270380D01*
X127762000Y-68270380D02*
X127762000Y-67270380D01*
X127857238Y-67413238D01*
X127952476Y-67508476D01*
X128047714Y-67556095D01*
X126857238Y-67270380D02*
X126762000Y-67270380D01*
X126666761Y-67318000D01*
X126619142Y-67365619D01*
X126571523Y-67460857D01*
X126523904Y-67651333D01*
X126523904Y-67889428D01*
X126571523Y-68079904D01*
X126619142Y-68175142D01*
X126666761Y-68222761D01*
X126762000Y-68270380D01*
X126857238Y-68270380D01*
X126952476Y-68222761D01*
X127000095Y-68175142D01*
X127047714Y-68079904D01*
X127095333Y-67889428D01*
X127095333Y-67651333D01*
X127047714Y-67460857D01*
X127000095Y-67365619D01*
X126952476Y-67318000D01*
X126857238Y-67270380D01*
D13*
X130274190Y-67496571D02*
X130036095Y-67329904D01*
X130274190Y-67210857D02*
X129774190Y-67210857D01*
X129774190Y-67401333D01*
X129798000Y-67448952D01*
X129821809Y-67472761D01*
X129869428Y-67496571D01*
X129940857Y-67496571D01*
X129988476Y-67472761D01*
X130012285Y-67448952D01*
X130036095Y-67401333D01*
X130036095Y-67210857D01*
X129821809Y-67687047D02*
X129798000Y-67710857D01*
X129774190Y-67758476D01*
X129774190Y-67877523D01*
X129798000Y-67925142D01*
X129821809Y-67948952D01*
X129869428Y-67972761D01*
X129917047Y-67972761D01*
X129988476Y-67948952D01*
X130274190Y-67663238D01*
X130274190Y-67972761D01*
X130274190Y-68210857D02*
X130274190Y-68306095D01*
X130250380Y-68353714D01*
X130226571Y-68377523D01*
X130155142Y-68425142D01*
X130059904Y-68448952D01*
X129869428Y-68448952D01*
X129821809Y-68425142D01*
X129798000Y-68401333D01*
X129774190Y-68353714D01*
X129774190Y-68258476D01*
X129798000Y-68210857D01*
X129821809Y-68187047D01*
X129869428Y-68163238D01*
X129988476Y-68163238D01*
X130036095Y-68187047D01*
X130059904Y-68210857D01*
X130083714Y-68258476D01*
X130083714Y-68353714D01*
X130059904Y-68401333D01*
X130036095Y-68425142D01*
X129988476Y-68448952D01*
G04 #@! TO.C,R34*
D11*
X121872285Y-123658380D02*
X122348476Y-123658380D01*
X122396095Y-124134571D01*
X122348476Y-124086952D01*
X122253238Y-124039333D01*
X122015142Y-124039333D01*
X121919904Y-124086952D01*
X121872285Y-124134571D01*
X121824666Y-124229809D01*
X121824666Y-124467904D01*
X121872285Y-124563142D01*
X121919904Y-124610761D01*
X122015142Y-124658380D01*
X122253238Y-124658380D01*
X122348476Y-124610761D01*
X122396095Y-124563142D01*
X120872285Y-124658380D02*
X121443714Y-124658380D01*
X121158000Y-124658380D02*
X121158000Y-123658380D01*
X121253238Y-123801238D01*
X121348476Y-123896476D01*
X121443714Y-123944095D01*
X120253238Y-123658380D02*
X120158000Y-123658380D01*
X120062761Y-123706000D01*
X120015142Y-123753619D01*
X119967523Y-123848857D01*
X119919904Y-124039333D01*
X119919904Y-124277428D01*
X119967523Y-124467904D01*
X120015142Y-124563142D01*
X120062761Y-124610761D01*
X120158000Y-124658380D01*
X120253238Y-124658380D01*
X120348476Y-124610761D01*
X120396095Y-124563142D01*
X120443714Y-124467904D01*
X120491333Y-124277428D01*
X120491333Y-124039333D01*
X120443714Y-123848857D01*
X120396095Y-123753619D01*
X120348476Y-123706000D01*
X120253238Y-123658380D01*
D13*
X123670190Y-123884571D02*
X123432095Y-123717904D01*
X123670190Y-123598857D02*
X123170190Y-123598857D01*
X123170190Y-123789333D01*
X123194000Y-123836952D01*
X123217809Y-123860761D01*
X123265428Y-123884571D01*
X123336857Y-123884571D01*
X123384476Y-123860761D01*
X123408285Y-123836952D01*
X123432095Y-123789333D01*
X123432095Y-123598857D01*
X123170190Y-124051238D02*
X123170190Y-124360761D01*
X123360666Y-124194095D01*
X123360666Y-124265523D01*
X123384476Y-124313142D01*
X123408285Y-124336952D01*
X123455904Y-124360761D01*
X123574952Y-124360761D01*
X123622571Y-124336952D01*
X123646380Y-124313142D01*
X123670190Y-124265523D01*
X123670190Y-124122666D01*
X123646380Y-124075047D01*
X123622571Y-124051238D01*
X123336857Y-124789333D02*
X123670190Y-124789333D01*
X123146380Y-124670285D02*
X123503523Y-124551238D01*
X123503523Y-124860761D01*
G04 #@! TO.C,R35*
D11*
X148423238Y-100020380D02*
X148994666Y-100020380D01*
X148708952Y-100020380D02*
X148708952Y-99020380D01*
X148804190Y-99163238D01*
X148899428Y-99258476D01*
X148994666Y-99306095D01*
X147804190Y-99020380D02*
X147708952Y-99020380D01*
X147613714Y-99068000D01*
X147566095Y-99115619D01*
X147518476Y-99210857D01*
X147470857Y-99401333D01*
X147470857Y-99639428D01*
X147518476Y-99829904D01*
X147566095Y-99925142D01*
X147613714Y-99972761D01*
X147708952Y-100020380D01*
X147804190Y-100020380D01*
X147899428Y-99972761D01*
X147947047Y-99925142D01*
X147994666Y-99829904D01*
X148042285Y-99639428D01*
X148042285Y-99401333D01*
X147994666Y-99210857D01*
X147947047Y-99115619D01*
X147899428Y-99068000D01*
X147804190Y-99020380D01*
X147042285Y-100020380D02*
X147042285Y-99020380D01*
X146947047Y-99639428D02*
X146661333Y-100020380D01*
X146661333Y-99353714D02*
X147042285Y-99734666D01*
D13*
X150340190Y-99246571D02*
X150102095Y-99079904D01*
X150340190Y-98960857D02*
X149840190Y-98960857D01*
X149840190Y-99151333D01*
X149864000Y-99198952D01*
X149887809Y-99222761D01*
X149935428Y-99246571D01*
X150006857Y-99246571D01*
X150054476Y-99222761D01*
X150078285Y-99198952D01*
X150102095Y-99151333D01*
X150102095Y-98960857D01*
X149840190Y-99413238D02*
X149840190Y-99722761D01*
X150030666Y-99556095D01*
X150030666Y-99627523D01*
X150054476Y-99675142D01*
X150078285Y-99698952D01*
X150125904Y-99722761D01*
X150244952Y-99722761D01*
X150292571Y-99698952D01*
X150316380Y-99675142D01*
X150340190Y-99627523D01*
X150340190Y-99484666D01*
X150316380Y-99437047D01*
X150292571Y-99413238D01*
X149840190Y-100175142D02*
X149840190Y-99937047D01*
X150078285Y-99913238D01*
X150054476Y-99937047D01*
X150030666Y-99984666D01*
X150030666Y-100103714D01*
X150054476Y-100151333D01*
X150078285Y-100175142D01*
X150125904Y-100198952D01*
X150244952Y-100198952D01*
X150292571Y-100175142D01*
X150316380Y-100151333D01*
X150340190Y-100103714D01*
X150340190Y-99984666D01*
X150316380Y-99937047D01*
X150292571Y-99913238D01*
G04 #@! TO.C,R36*
D11*
X148542285Y-105116380D02*
X149018476Y-105116380D01*
X149066095Y-105592571D01*
X149018476Y-105544952D01*
X148923238Y-105497333D01*
X148685142Y-105497333D01*
X148589904Y-105544952D01*
X148542285Y-105592571D01*
X148494666Y-105687809D01*
X148494666Y-105925904D01*
X148542285Y-106021142D01*
X148589904Y-106068761D01*
X148685142Y-106116380D01*
X148923238Y-106116380D01*
X149018476Y-106068761D01*
X149066095Y-106021142D01*
X147542285Y-106116380D02*
X148113714Y-106116380D01*
X147828000Y-106116380D02*
X147828000Y-105116380D01*
X147923238Y-105259238D01*
X148018476Y-105354476D01*
X148113714Y-105402095D01*
X146923238Y-105116380D02*
X146828000Y-105116380D01*
X146732761Y-105164000D01*
X146685142Y-105211619D01*
X146637523Y-105306857D01*
X146589904Y-105497333D01*
X146589904Y-105735428D01*
X146637523Y-105925904D01*
X146685142Y-106021142D01*
X146732761Y-106068761D01*
X146828000Y-106116380D01*
X146923238Y-106116380D01*
X147018476Y-106068761D01*
X147066095Y-106021142D01*
X147113714Y-105925904D01*
X147161333Y-105735428D01*
X147161333Y-105497333D01*
X147113714Y-105306857D01*
X147066095Y-105211619D01*
X147018476Y-105164000D01*
X146923238Y-105116380D01*
D13*
X150340190Y-105342571D02*
X150102095Y-105175904D01*
X150340190Y-105056857D02*
X149840190Y-105056857D01*
X149840190Y-105247333D01*
X149864000Y-105294952D01*
X149887809Y-105318761D01*
X149935428Y-105342571D01*
X150006857Y-105342571D01*
X150054476Y-105318761D01*
X150078285Y-105294952D01*
X150102095Y-105247333D01*
X150102095Y-105056857D01*
X149840190Y-105509238D02*
X149840190Y-105818761D01*
X150030666Y-105652095D01*
X150030666Y-105723523D01*
X150054476Y-105771142D01*
X150078285Y-105794952D01*
X150125904Y-105818761D01*
X150244952Y-105818761D01*
X150292571Y-105794952D01*
X150316380Y-105771142D01*
X150340190Y-105723523D01*
X150340190Y-105580666D01*
X150316380Y-105533047D01*
X150292571Y-105509238D01*
X149840190Y-106247333D02*
X149840190Y-106152095D01*
X149864000Y-106104476D01*
X149887809Y-106080666D01*
X149959238Y-106033047D01*
X150054476Y-106009238D01*
X150244952Y-106009238D01*
X150292571Y-106033047D01*
X150316380Y-106056857D01*
X150340190Y-106104476D01*
X150340190Y-106199714D01*
X150316380Y-106247333D01*
X150292571Y-106271142D01*
X150244952Y-106294952D01*
X150125904Y-106294952D01*
X150078285Y-106271142D01*
X150054476Y-106247333D01*
X150030666Y-106199714D01*
X150030666Y-106104476D01*
X150054476Y-106056857D01*
X150078285Y-106033047D01*
X150125904Y-106009238D01*
G04 #@! TO.C,R37*
D11*
X148542285Y-111466380D02*
X149018476Y-111466380D01*
X149066095Y-111942571D01*
X149018476Y-111894952D01*
X148923238Y-111847333D01*
X148685142Y-111847333D01*
X148589904Y-111894952D01*
X148542285Y-111942571D01*
X148494666Y-112037809D01*
X148494666Y-112275904D01*
X148542285Y-112371142D01*
X148589904Y-112418761D01*
X148685142Y-112466380D01*
X148923238Y-112466380D01*
X149018476Y-112418761D01*
X149066095Y-112371142D01*
X147542285Y-112466380D02*
X148113714Y-112466380D01*
X147828000Y-112466380D02*
X147828000Y-111466380D01*
X147923238Y-111609238D01*
X148018476Y-111704476D01*
X148113714Y-111752095D01*
X146923238Y-111466380D02*
X146828000Y-111466380D01*
X146732761Y-111514000D01*
X146685142Y-111561619D01*
X146637523Y-111656857D01*
X146589904Y-111847333D01*
X146589904Y-112085428D01*
X146637523Y-112275904D01*
X146685142Y-112371142D01*
X146732761Y-112418761D01*
X146828000Y-112466380D01*
X146923238Y-112466380D01*
X147018476Y-112418761D01*
X147066095Y-112371142D01*
X147113714Y-112275904D01*
X147161333Y-112085428D01*
X147161333Y-111847333D01*
X147113714Y-111656857D01*
X147066095Y-111561619D01*
X147018476Y-111514000D01*
X146923238Y-111466380D01*
D13*
X150340190Y-111692571D02*
X150102095Y-111525904D01*
X150340190Y-111406857D02*
X149840190Y-111406857D01*
X149840190Y-111597333D01*
X149864000Y-111644952D01*
X149887809Y-111668761D01*
X149935428Y-111692571D01*
X150006857Y-111692571D01*
X150054476Y-111668761D01*
X150078285Y-111644952D01*
X150102095Y-111597333D01*
X150102095Y-111406857D01*
X149840190Y-111859238D02*
X149840190Y-112168761D01*
X150030666Y-112002095D01*
X150030666Y-112073523D01*
X150054476Y-112121142D01*
X150078285Y-112144952D01*
X150125904Y-112168761D01*
X150244952Y-112168761D01*
X150292571Y-112144952D01*
X150316380Y-112121142D01*
X150340190Y-112073523D01*
X150340190Y-111930666D01*
X150316380Y-111883047D01*
X150292571Y-111859238D01*
X149840190Y-112335428D02*
X149840190Y-112668761D01*
X150340190Y-112454476D01*
G04 #@! TO.C,R39*
D11*
X148542285Y-121118380D02*
X149018476Y-121118380D01*
X149066095Y-121594571D01*
X149018476Y-121546952D01*
X148923238Y-121499333D01*
X148685142Y-121499333D01*
X148589904Y-121546952D01*
X148542285Y-121594571D01*
X148494666Y-121689809D01*
X148494666Y-121927904D01*
X148542285Y-122023142D01*
X148589904Y-122070761D01*
X148685142Y-122118380D01*
X148923238Y-122118380D01*
X149018476Y-122070761D01*
X149066095Y-122023142D01*
X147542285Y-122118380D02*
X148113714Y-122118380D01*
X147828000Y-122118380D02*
X147828000Y-121118380D01*
X147923238Y-121261238D01*
X148018476Y-121356476D01*
X148113714Y-121404095D01*
X146923238Y-121118380D02*
X146828000Y-121118380D01*
X146732761Y-121166000D01*
X146685142Y-121213619D01*
X146637523Y-121308857D01*
X146589904Y-121499333D01*
X146589904Y-121737428D01*
X146637523Y-121927904D01*
X146685142Y-122023142D01*
X146732761Y-122070761D01*
X146828000Y-122118380D01*
X146923238Y-122118380D01*
X147018476Y-122070761D01*
X147066095Y-122023142D01*
X147113714Y-121927904D01*
X147161333Y-121737428D01*
X147161333Y-121499333D01*
X147113714Y-121308857D01*
X147066095Y-121213619D01*
X147018476Y-121166000D01*
X146923238Y-121118380D01*
D13*
X150340190Y-121344571D02*
X150102095Y-121177904D01*
X150340190Y-121058857D02*
X149840190Y-121058857D01*
X149840190Y-121249333D01*
X149864000Y-121296952D01*
X149887809Y-121320761D01*
X149935428Y-121344571D01*
X150006857Y-121344571D01*
X150054476Y-121320761D01*
X150078285Y-121296952D01*
X150102095Y-121249333D01*
X150102095Y-121058857D01*
X149840190Y-121511238D02*
X149840190Y-121820761D01*
X150030666Y-121654095D01*
X150030666Y-121725523D01*
X150054476Y-121773142D01*
X150078285Y-121796952D01*
X150125904Y-121820761D01*
X150244952Y-121820761D01*
X150292571Y-121796952D01*
X150316380Y-121773142D01*
X150340190Y-121725523D01*
X150340190Y-121582666D01*
X150316380Y-121535047D01*
X150292571Y-121511238D01*
X150340190Y-122058857D02*
X150340190Y-122154095D01*
X150316380Y-122201714D01*
X150292571Y-122225523D01*
X150221142Y-122273142D01*
X150125904Y-122296952D01*
X149935428Y-122296952D01*
X149887809Y-122273142D01*
X149864000Y-122249333D01*
X149840190Y-122201714D01*
X149840190Y-122106476D01*
X149864000Y-122058857D01*
X149887809Y-122035047D01*
X149935428Y-122011238D01*
X150054476Y-122011238D01*
X150102095Y-122035047D01*
X150125904Y-122058857D01*
X150149714Y-122106476D01*
X150149714Y-122201714D01*
X150125904Y-122249333D01*
X150102095Y-122273142D01*
X150054476Y-122296952D01*
G04 #@! TO.C,R30*
D11*
X134826285Y-67270380D02*
X135302476Y-67270380D01*
X135350095Y-67746571D01*
X135302476Y-67698952D01*
X135207238Y-67651333D01*
X134969142Y-67651333D01*
X134873904Y-67698952D01*
X134826285Y-67746571D01*
X134778666Y-67841809D01*
X134778666Y-68079904D01*
X134826285Y-68175142D01*
X134873904Y-68222761D01*
X134969142Y-68270380D01*
X135207238Y-68270380D01*
X135302476Y-68222761D01*
X135350095Y-68175142D01*
X133826285Y-68270380D02*
X134397714Y-68270380D01*
X134112000Y-68270380D02*
X134112000Y-67270380D01*
X134207238Y-67413238D01*
X134302476Y-67508476D01*
X134397714Y-67556095D01*
X133207238Y-67270380D02*
X133112000Y-67270380D01*
X133016761Y-67318000D01*
X132969142Y-67365619D01*
X132921523Y-67460857D01*
X132873904Y-67651333D01*
X132873904Y-67889428D01*
X132921523Y-68079904D01*
X132969142Y-68175142D01*
X133016761Y-68222761D01*
X133112000Y-68270380D01*
X133207238Y-68270380D01*
X133302476Y-68222761D01*
X133350095Y-68175142D01*
X133397714Y-68079904D01*
X133445333Y-67889428D01*
X133445333Y-67651333D01*
X133397714Y-67460857D01*
X133350095Y-67365619D01*
X133302476Y-67318000D01*
X133207238Y-67270380D01*
D13*
X136624190Y-67496571D02*
X136386095Y-67329904D01*
X136624190Y-67210857D02*
X136124190Y-67210857D01*
X136124190Y-67401333D01*
X136148000Y-67448952D01*
X136171809Y-67472761D01*
X136219428Y-67496571D01*
X136290857Y-67496571D01*
X136338476Y-67472761D01*
X136362285Y-67448952D01*
X136386095Y-67401333D01*
X136386095Y-67210857D01*
X136124190Y-67663238D02*
X136124190Y-67972761D01*
X136314666Y-67806095D01*
X136314666Y-67877523D01*
X136338476Y-67925142D01*
X136362285Y-67948952D01*
X136409904Y-67972761D01*
X136528952Y-67972761D01*
X136576571Y-67948952D01*
X136600380Y-67925142D01*
X136624190Y-67877523D01*
X136624190Y-67734666D01*
X136600380Y-67687047D01*
X136576571Y-67663238D01*
X136124190Y-68282285D02*
X136124190Y-68329904D01*
X136148000Y-68377523D01*
X136171809Y-68401333D01*
X136219428Y-68425142D01*
X136314666Y-68448952D01*
X136433714Y-68448952D01*
X136528952Y-68425142D01*
X136576571Y-68401333D01*
X136600380Y-68377523D01*
X136624190Y-68329904D01*
X136624190Y-68282285D01*
X136600380Y-68234666D01*
X136576571Y-68210857D01*
X136528952Y-68187047D01*
X136433714Y-68163238D01*
X136314666Y-68163238D01*
X136219428Y-68187047D01*
X136171809Y-68210857D01*
X136148000Y-68234666D01*
X136124190Y-68282285D01*
G04 #@! TO.C,R31*
D11*
X121245238Y-107132380D02*
X121816666Y-107132380D01*
X121530952Y-107132380D02*
X121530952Y-106132380D01*
X121626190Y-106275238D01*
X121721428Y-106370476D01*
X121816666Y-106418095D01*
X120626190Y-106132380D02*
X120530952Y-106132380D01*
X120435714Y-106180000D01*
X120388095Y-106227619D01*
X120340476Y-106322857D01*
X120292857Y-106513333D01*
X120292857Y-106751428D01*
X120340476Y-106941904D01*
X120388095Y-107037142D01*
X120435714Y-107084761D01*
X120530952Y-107132380D01*
X120626190Y-107132380D01*
X120721428Y-107084761D01*
X120769047Y-107037142D01*
X120816666Y-106941904D01*
X120864285Y-106751428D01*
X120864285Y-106513333D01*
X120816666Y-106322857D01*
X120769047Y-106227619D01*
X120721428Y-106180000D01*
X120626190Y-106132380D01*
X119864285Y-107132380D02*
X119864285Y-106132380D01*
X119769047Y-106751428D02*
X119483333Y-107132380D01*
X119483333Y-106465714D02*
X119864285Y-106846666D01*
D13*
X120876190Y-104326571D02*
X120638095Y-104159904D01*
X120876190Y-104040857D02*
X120376190Y-104040857D01*
X120376190Y-104231333D01*
X120400000Y-104278952D01*
X120423809Y-104302761D01*
X120471428Y-104326571D01*
X120542857Y-104326571D01*
X120590476Y-104302761D01*
X120614285Y-104278952D01*
X120638095Y-104231333D01*
X120638095Y-104040857D01*
X120376190Y-104493238D02*
X120376190Y-104802761D01*
X120566666Y-104636095D01*
X120566666Y-104707523D01*
X120590476Y-104755142D01*
X120614285Y-104778952D01*
X120661904Y-104802761D01*
X120780952Y-104802761D01*
X120828571Y-104778952D01*
X120852380Y-104755142D01*
X120876190Y-104707523D01*
X120876190Y-104564666D01*
X120852380Y-104517047D01*
X120828571Y-104493238D01*
X120876190Y-105278952D02*
X120876190Y-104993238D01*
X120876190Y-105136095D02*
X120376190Y-105136095D01*
X120447619Y-105088476D01*
X120495238Y-105040857D01*
X120519047Y-104993238D01*
G04 #@! TO.C,Q16*
D11*
X143588952Y-73445619D02*
X143684190Y-73398000D01*
X143779428Y-73302761D01*
X143922285Y-73159904D01*
X144017523Y-73112285D01*
X144112761Y-73112285D01*
X144065142Y-73350380D02*
X144160380Y-73302761D01*
X144255619Y-73207523D01*
X144303238Y-73017047D01*
X144303238Y-72683714D01*
X144255619Y-72493238D01*
X144160380Y-72398000D01*
X144065142Y-72350380D01*
X143874666Y-72350380D01*
X143779428Y-72398000D01*
X143684190Y-72493238D01*
X143636571Y-72683714D01*
X143636571Y-73017047D01*
X143684190Y-73207523D01*
X143779428Y-73302761D01*
X143874666Y-73350380D01*
X144065142Y-73350380D01*
X143446095Y-73445619D02*
X142684190Y-73445619D01*
X142446095Y-73350380D02*
X142446095Y-72350380D01*
X141874666Y-73350380D01*
X141874666Y-72350380D01*
X141398476Y-73350380D02*
X141398476Y-72350380D01*
X141017523Y-72350380D01*
X140922285Y-72398000D01*
X140874666Y-72445619D01*
X140827047Y-72540857D01*
X140827047Y-72683714D01*
X140874666Y-72778952D01*
X140922285Y-72826571D01*
X141017523Y-72874190D01*
X141398476Y-72874190D01*
X140398476Y-73350380D02*
X140398476Y-72350380D01*
X139827047Y-73350380D01*
X139827047Y-72350380D01*
X139588952Y-73445619D02*
X138827047Y-73445619D01*
X138255619Y-72826571D02*
X138112761Y-72874190D01*
X138065142Y-72921809D01*
X138017523Y-73017047D01*
X138017523Y-73159904D01*
X138065142Y-73255142D01*
X138112761Y-73302761D01*
X138208000Y-73350380D01*
X138588952Y-73350380D01*
X138588952Y-72350380D01*
X138255619Y-72350380D01*
X138160380Y-72398000D01*
X138112761Y-72445619D01*
X138065142Y-72540857D01*
X138065142Y-72636095D01*
X138112761Y-72731333D01*
X138160380Y-72778952D01*
X138255619Y-72826571D01*
X138588952Y-72826571D01*
X137588952Y-72826571D02*
X137255619Y-72826571D01*
X137112761Y-73350380D02*
X137588952Y-73350380D01*
X137588952Y-72350380D01*
X137112761Y-72350380D01*
X136112761Y-73255142D02*
X136160380Y-73302761D01*
X136303238Y-73350380D01*
X136398476Y-73350380D01*
X136541333Y-73302761D01*
X136636571Y-73207523D01*
X136684190Y-73112285D01*
X136731809Y-72921809D01*
X136731809Y-72778952D01*
X136684190Y-72588476D01*
X136636571Y-72493238D01*
X136541333Y-72398000D01*
X136398476Y-72350380D01*
X136303238Y-72350380D01*
X136160380Y-72398000D01*
X136112761Y-72445619D01*
D12*
X135147809Y-72612285D02*
X135124000Y-72564666D01*
X135076380Y-72517047D01*
X135004952Y-72445619D01*
X134981142Y-72398000D01*
X134981142Y-72350380D01*
X135100190Y-72374190D02*
X135076380Y-72326571D01*
X135028761Y-72278952D01*
X134933523Y-72255142D01*
X134766857Y-72255142D01*
X134671619Y-72278952D01*
X134624000Y-72326571D01*
X134600190Y-72374190D01*
X134600190Y-72469428D01*
X134624000Y-72517047D01*
X134671619Y-72564666D01*
X134766857Y-72588476D01*
X134933523Y-72588476D01*
X135028761Y-72564666D01*
X135076380Y-72517047D01*
X135100190Y-72469428D01*
X135100190Y-72374190D01*
X135100190Y-73064666D02*
X135100190Y-72778952D01*
X135100190Y-72921809D02*
X134600190Y-72921809D01*
X134671619Y-72874190D01*
X134719238Y-72826571D01*
X134743047Y-72778952D01*
X134600190Y-73493238D02*
X134600190Y-73398000D01*
X134624000Y-73350380D01*
X134647809Y-73326571D01*
X134719238Y-73278952D01*
X134814476Y-73255142D01*
X135004952Y-73255142D01*
X135052571Y-73278952D01*
X135076380Y-73302761D01*
X135100190Y-73350380D01*
X135100190Y-73445619D01*
X135076380Y-73493238D01*
X135052571Y-73517047D01*
X135004952Y-73540857D01*
X134885904Y-73540857D01*
X134838285Y-73517047D01*
X134814476Y-73493238D01*
X134790666Y-73445619D01*
X134790666Y-73350380D01*
X134814476Y-73302761D01*
X134838285Y-73278952D01*
X134885904Y-73255142D01*
G04 #@! TO.C,Q19*
D11*
X159336952Y-132159619D02*
X159432190Y-132112000D01*
X159527428Y-132016761D01*
X159670285Y-131873904D01*
X159765523Y-131826285D01*
X159860761Y-131826285D01*
X159813142Y-132064380D02*
X159908380Y-132016761D01*
X160003619Y-131921523D01*
X160051238Y-131731047D01*
X160051238Y-131397714D01*
X160003619Y-131207238D01*
X159908380Y-131112000D01*
X159813142Y-131064380D01*
X159622666Y-131064380D01*
X159527428Y-131112000D01*
X159432190Y-131207238D01*
X159384571Y-131397714D01*
X159384571Y-131731047D01*
X159432190Y-131921523D01*
X159527428Y-132016761D01*
X159622666Y-132064380D01*
X159813142Y-132064380D01*
X159194095Y-132159619D02*
X158432190Y-132159619D01*
X158194095Y-132064380D02*
X158194095Y-131064380D01*
X157622666Y-132064380D01*
X157622666Y-131064380D01*
X157146476Y-132064380D02*
X157146476Y-131064380D01*
X156765523Y-131064380D01*
X156670285Y-131112000D01*
X156622666Y-131159619D01*
X156575047Y-131254857D01*
X156575047Y-131397714D01*
X156622666Y-131492952D01*
X156670285Y-131540571D01*
X156765523Y-131588190D01*
X157146476Y-131588190D01*
X156146476Y-132064380D02*
X156146476Y-131064380D01*
X155575047Y-132064380D01*
X155575047Y-131064380D01*
X155336952Y-132159619D02*
X154575047Y-132159619D01*
X154003619Y-131540571D02*
X153860761Y-131588190D01*
X153813142Y-131635809D01*
X153765523Y-131731047D01*
X153765523Y-131873904D01*
X153813142Y-131969142D01*
X153860761Y-132016761D01*
X153956000Y-132064380D01*
X154336952Y-132064380D01*
X154336952Y-131064380D01*
X154003619Y-131064380D01*
X153908380Y-131112000D01*
X153860761Y-131159619D01*
X153813142Y-131254857D01*
X153813142Y-131350095D01*
X153860761Y-131445333D01*
X153908380Y-131492952D01*
X154003619Y-131540571D01*
X154336952Y-131540571D01*
X153336952Y-131540571D02*
X153003619Y-131540571D01*
X152860761Y-132064380D02*
X153336952Y-132064380D01*
X153336952Y-131064380D01*
X152860761Y-131064380D01*
X151860761Y-131969142D02*
X151908380Y-132016761D01*
X152051238Y-132064380D01*
X152146476Y-132064380D01*
X152289333Y-132016761D01*
X152384571Y-131921523D01*
X152432190Y-131826285D01*
X152479809Y-131635809D01*
X152479809Y-131492952D01*
X152432190Y-131302476D01*
X152384571Y-131207238D01*
X152289333Y-131112000D01*
X152146476Y-131064380D01*
X152051238Y-131064380D01*
X151908380Y-131112000D01*
X151860761Y-131159619D01*
D12*
X155682190Y-134397714D02*
X155706000Y-134445333D01*
X155753619Y-134492952D01*
X155825047Y-134564380D01*
X155848857Y-134612000D01*
X155848857Y-134659619D01*
X155729809Y-134635809D02*
X155753619Y-134683428D01*
X155801238Y-134731047D01*
X155896476Y-134754857D01*
X156063142Y-134754857D01*
X156158380Y-134731047D01*
X156206000Y-134683428D01*
X156229809Y-134635809D01*
X156229809Y-134540571D01*
X156206000Y-134492952D01*
X156158380Y-134445333D01*
X156063142Y-134421523D01*
X155896476Y-134421523D01*
X155801238Y-134445333D01*
X155753619Y-134492952D01*
X155729809Y-134540571D01*
X155729809Y-134635809D01*
X155729809Y-133945333D02*
X155729809Y-134231047D01*
X155729809Y-134088190D02*
X156229809Y-134088190D01*
X156158380Y-134135809D01*
X156110761Y-134183428D01*
X156086952Y-134231047D01*
X155729809Y-133707238D02*
X155729809Y-133612000D01*
X155753619Y-133564380D01*
X155777428Y-133540571D01*
X155848857Y-133492952D01*
X155944095Y-133469142D01*
X156134571Y-133469142D01*
X156182190Y-133492952D01*
X156206000Y-133516761D01*
X156229809Y-133564380D01*
X156229809Y-133659619D01*
X156206000Y-133707238D01*
X156182190Y-133731047D01*
X156134571Y-133754857D01*
X156015523Y-133754857D01*
X155967904Y-133731047D01*
X155944095Y-133707238D01*
X155920285Y-133659619D01*
X155920285Y-133564380D01*
X155944095Y-133516761D01*
X155967904Y-133492952D01*
X156015523Y-133469142D01*
G04 #@! TO.C,R32*
D11*
X121872285Y-110958380D02*
X122348476Y-110958380D01*
X122396095Y-111434571D01*
X122348476Y-111386952D01*
X122253238Y-111339333D01*
X122015142Y-111339333D01*
X121919904Y-111386952D01*
X121872285Y-111434571D01*
X121824666Y-111529809D01*
X121824666Y-111767904D01*
X121872285Y-111863142D01*
X121919904Y-111910761D01*
X122015142Y-111958380D01*
X122253238Y-111958380D01*
X122348476Y-111910761D01*
X122396095Y-111863142D01*
X120872285Y-111958380D02*
X121443714Y-111958380D01*
X121158000Y-111958380D02*
X121158000Y-110958380D01*
X121253238Y-111101238D01*
X121348476Y-111196476D01*
X121443714Y-111244095D01*
X120253238Y-110958380D02*
X120158000Y-110958380D01*
X120062761Y-111006000D01*
X120015142Y-111053619D01*
X119967523Y-111148857D01*
X119919904Y-111339333D01*
X119919904Y-111577428D01*
X119967523Y-111767904D01*
X120015142Y-111863142D01*
X120062761Y-111910761D01*
X120158000Y-111958380D01*
X120253238Y-111958380D01*
X120348476Y-111910761D01*
X120396095Y-111863142D01*
X120443714Y-111767904D01*
X120491333Y-111577428D01*
X120491333Y-111339333D01*
X120443714Y-111148857D01*
X120396095Y-111053619D01*
X120348476Y-111006000D01*
X120253238Y-110958380D01*
D13*
X123670190Y-111184571D02*
X123432095Y-111017904D01*
X123670190Y-110898857D02*
X123170190Y-110898857D01*
X123170190Y-111089333D01*
X123194000Y-111136952D01*
X123217809Y-111160761D01*
X123265428Y-111184571D01*
X123336857Y-111184571D01*
X123384476Y-111160761D01*
X123408285Y-111136952D01*
X123432095Y-111089333D01*
X123432095Y-110898857D01*
X123170190Y-111351238D02*
X123170190Y-111660761D01*
X123360666Y-111494095D01*
X123360666Y-111565523D01*
X123384476Y-111613142D01*
X123408285Y-111636952D01*
X123455904Y-111660761D01*
X123574952Y-111660761D01*
X123622571Y-111636952D01*
X123646380Y-111613142D01*
X123670190Y-111565523D01*
X123670190Y-111422666D01*
X123646380Y-111375047D01*
X123622571Y-111351238D01*
X123217809Y-111851238D02*
X123194000Y-111875047D01*
X123170190Y-111922666D01*
X123170190Y-112041714D01*
X123194000Y-112089333D01*
X123217809Y-112113142D01*
X123265428Y-112136952D01*
X123313047Y-112136952D01*
X123384476Y-112113142D01*
X123670190Y-111827428D01*
X123670190Y-112136952D01*
G04 #@! TO.C,R33*
D11*
X121872285Y-117308380D02*
X122348476Y-117308380D01*
X122396095Y-117784571D01*
X122348476Y-117736952D01*
X122253238Y-117689333D01*
X122015142Y-117689333D01*
X121919904Y-117736952D01*
X121872285Y-117784571D01*
X121824666Y-117879809D01*
X121824666Y-118117904D01*
X121872285Y-118213142D01*
X121919904Y-118260761D01*
X122015142Y-118308380D01*
X122253238Y-118308380D01*
X122348476Y-118260761D01*
X122396095Y-118213142D01*
X120872285Y-118308380D02*
X121443714Y-118308380D01*
X121158000Y-118308380D02*
X121158000Y-117308380D01*
X121253238Y-117451238D01*
X121348476Y-117546476D01*
X121443714Y-117594095D01*
X120253238Y-117308380D02*
X120158000Y-117308380D01*
X120062761Y-117356000D01*
X120015142Y-117403619D01*
X119967523Y-117498857D01*
X119919904Y-117689333D01*
X119919904Y-117927428D01*
X119967523Y-118117904D01*
X120015142Y-118213142D01*
X120062761Y-118260761D01*
X120158000Y-118308380D01*
X120253238Y-118308380D01*
X120348476Y-118260761D01*
X120396095Y-118213142D01*
X120443714Y-118117904D01*
X120491333Y-117927428D01*
X120491333Y-117689333D01*
X120443714Y-117498857D01*
X120396095Y-117403619D01*
X120348476Y-117356000D01*
X120253238Y-117308380D01*
D13*
X123670190Y-117534571D02*
X123432095Y-117367904D01*
X123670190Y-117248857D02*
X123170190Y-117248857D01*
X123170190Y-117439333D01*
X123194000Y-117486952D01*
X123217809Y-117510761D01*
X123265428Y-117534571D01*
X123336857Y-117534571D01*
X123384476Y-117510761D01*
X123408285Y-117486952D01*
X123432095Y-117439333D01*
X123432095Y-117248857D01*
X123170190Y-117701238D02*
X123170190Y-118010761D01*
X123360666Y-117844095D01*
X123360666Y-117915523D01*
X123384476Y-117963142D01*
X123408285Y-117986952D01*
X123455904Y-118010761D01*
X123574952Y-118010761D01*
X123622571Y-117986952D01*
X123646380Y-117963142D01*
X123670190Y-117915523D01*
X123670190Y-117772666D01*
X123646380Y-117725047D01*
X123622571Y-117701238D01*
X123170190Y-118177428D02*
X123170190Y-118486952D01*
X123360666Y-118320285D01*
X123360666Y-118391714D01*
X123384476Y-118439333D01*
X123408285Y-118463142D01*
X123455904Y-118486952D01*
X123574952Y-118486952D01*
X123622571Y-118463142D01*
X123646380Y-118439333D01*
X123670190Y-118391714D01*
X123670190Y-118248857D01*
X123646380Y-118201238D01*
X123622571Y-118177428D01*
G04 #@! TO.C,R38*
D11*
X148423238Y-134564380D02*
X148994666Y-134564380D01*
X148708952Y-134564380D02*
X148708952Y-133564380D01*
X148804190Y-133707238D01*
X148899428Y-133802476D01*
X148994666Y-133850095D01*
X147804190Y-133564380D02*
X147708952Y-133564380D01*
X147613714Y-133612000D01*
X147566095Y-133659619D01*
X147518476Y-133754857D01*
X147470857Y-133945333D01*
X147470857Y-134183428D01*
X147518476Y-134373904D01*
X147566095Y-134469142D01*
X147613714Y-134516761D01*
X147708952Y-134564380D01*
X147804190Y-134564380D01*
X147899428Y-134516761D01*
X147947047Y-134469142D01*
X147994666Y-134373904D01*
X148042285Y-134183428D01*
X148042285Y-133945333D01*
X147994666Y-133754857D01*
X147947047Y-133659619D01*
X147899428Y-133612000D01*
X147804190Y-133564380D01*
X147042285Y-134564380D02*
X147042285Y-133564380D01*
X146947047Y-134183428D02*
X146661333Y-134564380D01*
X146661333Y-133897714D02*
X147042285Y-134278666D01*
D13*
X150340190Y-133790571D02*
X150102095Y-133623904D01*
X150340190Y-133504857D02*
X149840190Y-133504857D01*
X149840190Y-133695333D01*
X149864000Y-133742952D01*
X149887809Y-133766761D01*
X149935428Y-133790571D01*
X150006857Y-133790571D01*
X150054476Y-133766761D01*
X150078285Y-133742952D01*
X150102095Y-133695333D01*
X150102095Y-133504857D01*
X149840190Y-133957238D02*
X149840190Y-134266761D01*
X150030666Y-134100095D01*
X150030666Y-134171523D01*
X150054476Y-134219142D01*
X150078285Y-134242952D01*
X150125904Y-134266761D01*
X150244952Y-134266761D01*
X150292571Y-134242952D01*
X150316380Y-134219142D01*
X150340190Y-134171523D01*
X150340190Y-134028666D01*
X150316380Y-133981047D01*
X150292571Y-133957238D01*
X150054476Y-134552476D02*
X150030666Y-134504857D01*
X150006857Y-134481047D01*
X149959238Y-134457238D01*
X149935428Y-134457238D01*
X149887809Y-134481047D01*
X149864000Y-134504857D01*
X149840190Y-134552476D01*
X149840190Y-134647714D01*
X149864000Y-134695333D01*
X149887809Y-134719142D01*
X149935428Y-134742952D01*
X149959238Y-134742952D01*
X150006857Y-134719142D01*
X150030666Y-134695333D01*
X150054476Y-134647714D01*
X150054476Y-134552476D01*
X150078285Y-134504857D01*
X150102095Y-134481047D01*
X150149714Y-134457238D01*
X150244952Y-134457238D01*
X150292571Y-134481047D01*
X150316380Y-134504857D01*
X150340190Y-134552476D01*
X150340190Y-134647714D01*
X150316380Y-134695333D01*
X150292571Y-134719142D01*
X150244952Y-134742952D01*
X150149714Y-134742952D01*
X150102095Y-134719142D01*
X150078285Y-134695333D01*
X150054476Y-134647714D01*
G04 #@! TO.C,R40*
D11*
X148542285Y-127468380D02*
X149018476Y-127468380D01*
X149066095Y-127944571D01*
X149018476Y-127896952D01*
X148923238Y-127849333D01*
X148685142Y-127849333D01*
X148589904Y-127896952D01*
X148542285Y-127944571D01*
X148494666Y-128039809D01*
X148494666Y-128277904D01*
X148542285Y-128373142D01*
X148589904Y-128420761D01*
X148685142Y-128468380D01*
X148923238Y-128468380D01*
X149018476Y-128420761D01*
X149066095Y-128373142D01*
X147542285Y-128468380D02*
X148113714Y-128468380D01*
X147828000Y-128468380D02*
X147828000Y-127468380D01*
X147923238Y-127611238D01*
X148018476Y-127706476D01*
X148113714Y-127754095D01*
X146923238Y-127468380D02*
X146828000Y-127468380D01*
X146732761Y-127516000D01*
X146685142Y-127563619D01*
X146637523Y-127658857D01*
X146589904Y-127849333D01*
X146589904Y-128087428D01*
X146637523Y-128277904D01*
X146685142Y-128373142D01*
X146732761Y-128420761D01*
X146828000Y-128468380D01*
X146923238Y-128468380D01*
X147018476Y-128420761D01*
X147066095Y-128373142D01*
X147113714Y-128277904D01*
X147161333Y-128087428D01*
X147161333Y-127849333D01*
X147113714Y-127658857D01*
X147066095Y-127563619D01*
X147018476Y-127516000D01*
X146923238Y-127468380D01*
D13*
X150340190Y-127694571D02*
X150102095Y-127527904D01*
X150340190Y-127408857D02*
X149840190Y-127408857D01*
X149840190Y-127599333D01*
X149864000Y-127646952D01*
X149887809Y-127670761D01*
X149935428Y-127694571D01*
X150006857Y-127694571D01*
X150054476Y-127670761D01*
X150078285Y-127646952D01*
X150102095Y-127599333D01*
X150102095Y-127408857D01*
X150006857Y-128123142D02*
X150340190Y-128123142D01*
X149816380Y-128004095D02*
X150173523Y-127885047D01*
X150173523Y-128194571D01*
X149840190Y-128480285D02*
X149840190Y-128527904D01*
X149864000Y-128575523D01*
X149887809Y-128599333D01*
X149935428Y-128623142D01*
X150030666Y-128646952D01*
X150149714Y-128646952D01*
X150244952Y-128623142D01*
X150292571Y-128599333D01*
X150316380Y-128575523D01*
X150340190Y-128527904D01*
X150340190Y-128480285D01*
X150316380Y-128432666D01*
X150292571Y-128408857D01*
X150244952Y-128385047D01*
X150149714Y-128361238D01*
X150030666Y-128361238D01*
X149935428Y-128385047D01*
X149887809Y-128408857D01*
X149864000Y-128432666D01*
X149840190Y-128480285D01*
G04 #@! TO.C,R41*
D11*
X75136285Y-59650380D02*
X75612476Y-59650380D01*
X75660095Y-60126571D01*
X75612476Y-60078952D01*
X75517238Y-60031333D01*
X75279142Y-60031333D01*
X75183904Y-60078952D01*
X75136285Y-60126571D01*
X75088666Y-60221809D01*
X75088666Y-60459904D01*
X75136285Y-60555142D01*
X75183904Y-60602761D01*
X75279142Y-60650380D01*
X75517238Y-60650380D01*
X75612476Y-60602761D01*
X75660095Y-60555142D01*
X74136285Y-60650380D02*
X74707714Y-60650380D01*
X74422000Y-60650380D02*
X74422000Y-59650380D01*
X74517238Y-59793238D01*
X74612476Y-59888476D01*
X74707714Y-59936095D01*
X73517238Y-59650380D02*
X73422000Y-59650380D01*
X73326761Y-59698000D01*
X73279142Y-59745619D01*
X73231523Y-59840857D01*
X73183904Y-60031333D01*
X73183904Y-60269428D01*
X73231523Y-60459904D01*
X73279142Y-60555142D01*
X73326761Y-60602761D01*
X73422000Y-60650380D01*
X73517238Y-60650380D01*
X73612476Y-60602761D01*
X73660095Y-60555142D01*
X73707714Y-60459904D01*
X73755333Y-60269428D01*
X73755333Y-60031333D01*
X73707714Y-59840857D01*
X73660095Y-59745619D01*
X73612476Y-59698000D01*
X73517238Y-59650380D01*
D13*
X76934190Y-59885571D02*
X76696095Y-59718904D01*
X76934190Y-59599857D02*
X76434190Y-59599857D01*
X76434190Y-59790333D01*
X76458000Y-59837952D01*
X76481809Y-59861761D01*
X76529428Y-59885571D01*
X76600857Y-59885571D01*
X76648476Y-59861761D01*
X76672285Y-59837952D01*
X76696095Y-59790333D01*
X76696095Y-59599857D01*
X76600857Y-60314142D02*
X76934190Y-60314142D01*
X76410380Y-60195095D02*
X76767523Y-60076047D01*
X76767523Y-60385571D01*
X76934190Y-60837952D02*
X76934190Y-60552238D01*
X76934190Y-60695095D02*
X76434190Y-60695095D01*
X76505619Y-60647476D01*
X76553238Y-60599857D01*
X76577047Y-60552238D01*
G04 #@! TO.C,R42*
D11*
X77422285Y-79336380D02*
X77898476Y-79336380D01*
X77946095Y-79812571D01*
X77898476Y-79764952D01*
X77803238Y-79717333D01*
X77565142Y-79717333D01*
X77469904Y-79764952D01*
X77422285Y-79812571D01*
X77374666Y-79907809D01*
X77374666Y-80145904D01*
X77422285Y-80241142D01*
X77469904Y-80288761D01*
X77565142Y-80336380D01*
X77803238Y-80336380D01*
X77898476Y-80288761D01*
X77946095Y-80241142D01*
X76422285Y-80336380D02*
X76993714Y-80336380D01*
X76708000Y-80336380D02*
X76708000Y-79336380D01*
X76803238Y-79479238D01*
X76898476Y-79574476D01*
X76993714Y-79622095D01*
X75803238Y-79336380D02*
X75708000Y-79336380D01*
X75612761Y-79384000D01*
X75565142Y-79431619D01*
X75517523Y-79526857D01*
X75469904Y-79717333D01*
X75469904Y-79955428D01*
X75517523Y-80145904D01*
X75565142Y-80241142D01*
X75612761Y-80288761D01*
X75708000Y-80336380D01*
X75803238Y-80336380D01*
X75898476Y-80288761D01*
X75946095Y-80241142D01*
X75993714Y-80145904D01*
X76041333Y-79955428D01*
X76041333Y-79717333D01*
X75993714Y-79526857D01*
X75946095Y-79431619D01*
X75898476Y-79384000D01*
X75803238Y-79336380D01*
D13*
X77029428Y-81760190D02*
X77196095Y-81522095D01*
X77315142Y-81760190D02*
X77315142Y-81260190D01*
X77124666Y-81260190D01*
X77077047Y-81284000D01*
X77053238Y-81307809D01*
X77029428Y-81355428D01*
X77029428Y-81426857D01*
X77053238Y-81474476D01*
X77077047Y-81498285D01*
X77124666Y-81522095D01*
X77315142Y-81522095D01*
X76600857Y-81426857D02*
X76600857Y-81760190D01*
X76719904Y-81236380D02*
X76838952Y-81593523D01*
X76529428Y-81593523D01*
X76362761Y-81307809D02*
X76338952Y-81284000D01*
X76291333Y-81260190D01*
X76172285Y-81260190D01*
X76124666Y-81284000D01*
X76100857Y-81307809D01*
X76077047Y-81355428D01*
X76077047Y-81403047D01*
X76100857Y-81474476D01*
X76386571Y-81760190D01*
X76077047Y-81760190D01*
G04 #@! TO.C,R43*
D11*
X77422285Y-100672380D02*
X77898476Y-100672380D01*
X77946095Y-101148571D01*
X77898476Y-101100952D01*
X77803238Y-101053333D01*
X77565142Y-101053333D01*
X77469904Y-101100952D01*
X77422285Y-101148571D01*
X77374666Y-101243809D01*
X77374666Y-101481904D01*
X77422285Y-101577142D01*
X77469904Y-101624761D01*
X77565142Y-101672380D01*
X77803238Y-101672380D01*
X77898476Y-101624761D01*
X77946095Y-101577142D01*
X76422285Y-101672380D02*
X76993714Y-101672380D01*
X76708000Y-101672380D02*
X76708000Y-100672380D01*
X76803238Y-100815238D01*
X76898476Y-100910476D01*
X76993714Y-100958095D01*
X75803238Y-100672380D02*
X75708000Y-100672380D01*
X75612761Y-100720000D01*
X75565142Y-100767619D01*
X75517523Y-100862857D01*
X75469904Y-101053333D01*
X75469904Y-101291428D01*
X75517523Y-101481904D01*
X75565142Y-101577142D01*
X75612761Y-101624761D01*
X75708000Y-101672380D01*
X75803238Y-101672380D01*
X75898476Y-101624761D01*
X75946095Y-101577142D01*
X75993714Y-101481904D01*
X76041333Y-101291428D01*
X76041333Y-101053333D01*
X75993714Y-100862857D01*
X75946095Y-100767619D01*
X75898476Y-100720000D01*
X75803238Y-100672380D01*
D13*
X77029428Y-103096190D02*
X77196095Y-102858095D01*
X77315142Y-103096190D02*
X77315142Y-102596190D01*
X77124666Y-102596190D01*
X77077047Y-102620000D01*
X77053238Y-102643809D01*
X77029428Y-102691428D01*
X77029428Y-102762857D01*
X77053238Y-102810476D01*
X77077047Y-102834285D01*
X77124666Y-102858095D01*
X77315142Y-102858095D01*
X76600857Y-102762857D02*
X76600857Y-103096190D01*
X76719904Y-102572380D02*
X76838952Y-102929523D01*
X76529428Y-102929523D01*
X76386571Y-102596190D02*
X76077047Y-102596190D01*
X76243714Y-102786666D01*
X76172285Y-102786666D01*
X76124666Y-102810476D01*
X76100857Y-102834285D01*
X76077047Y-102881904D01*
X76077047Y-103000952D01*
X76100857Y-103048571D01*
X76124666Y-103072380D01*
X76172285Y-103096190D01*
X76315142Y-103096190D01*
X76362761Y-103072380D01*
X76386571Y-103048571D01*
G04 #@! TO.C,R44*
D11*
X82756285Y-106894380D02*
X83232476Y-106894380D01*
X83280095Y-107370571D01*
X83232476Y-107322952D01*
X83137238Y-107275333D01*
X82899142Y-107275333D01*
X82803904Y-107322952D01*
X82756285Y-107370571D01*
X82708666Y-107465809D01*
X82708666Y-107703904D01*
X82756285Y-107799142D01*
X82803904Y-107846761D01*
X82899142Y-107894380D01*
X83137238Y-107894380D01*
X83232476Y-107846761D01*
X83280095Y-107799142D01*
X81756285Y-107894380D02*
X82327714Y-107894380D01*
X82042000Y-107894380D02*
X82042000Y-106894380D01*
X82137238Y-107037238D01*
X82232476Y-107132476D01*
X82327714Y-107180095D01*
X81137238Y-106894380D02*
X81042000Y-106894380D01*
X80946761Y-106942000D01*
X80899142Y-106989619D01*
X80851523Y-107084857D01*
X80803904Y-107275333D01*
X80803904Y-107513428D01*
X80851523Y-107703904D01*
X80899142Y-107799142D01*
X80946761Y-107846761D01*
X81042000Y-107894380D01*
X81137238Y-107894380D01*
X81232476Y-107846761D01*
X81280095Y-107799142D01*
X81327714Y-107703904D01*
X81375333Y-107513428D01*
X81375333Y-107275333D01*
X81327714Y-107084857D01*
X81280095Y-106989619D01*
X81232476Y-106942000D01*
X81137238Y-106894380D01*
D13*
X85157428Y-107668190D02*
X85324095Y-107430095D01*
X85443142Y-107668190D02*
X85443142Y-107168190D01*
X85252666Y-107168190D01*
X85205047Y-107192000D01*
X85181238Y-107215809D01*
X85157428Y-107263428D01*
X85157428Y-107334857D01*
X85181238Y-107382476D01*
X85205047Y-107406285D01*
X85252666Y-107430095D01*
X85443142Y-107430095D01*
X84728857Y-107334857D02*
X84728857Y-107668190D01*
X84847904Y-107144380D02*
X84966952Y-107501523D01*
X84657428Y-107501523D01*
X84252666Y-107334857D02*
X84252666Y-107668190D01*
X84371714Y-107144380D02*
X84490761Y-107501523D01*
X84181238Y-107501523D01*
G04 #@! TO.C,R45*
D11*
X96717285Y-105878380D02*
X97193476Y-105878380D01*
X97241095Y-106354571D01*
X97193476Y-106306952D01*
X97098238Y-106259333D01*
X96860142Y-106259333D01*
X96764904Y-106306952D01*
X96717285Y-106354571D01*
X96669666Y-106449809D01*
X96669666Y-106687904D01*
X96717285Y-106783142D01*
X96764904Y-106830761D01*
X96860142Y-106878380D01*
X97098238Y-106878380D01*
X97193476Y-106830761D01*
X97241095Y-106783142D01*
X95717285Y-106878380D02*
X96288714Y-106878380D01*
X96003000Y-106878380D02*
X96003000Y-105878380D01*
X96098238Y-106021238D01*
X96193476Y-106116476D01*
X96288714Y-106164095D01*
X95098238Y-105878380D02*
X95003000Y-105878380D01*
X94907761Y-105926000D01*
X94860142Y-105973619D01*
X94812523Y-106068857D01*
X94764904Y-106259333D01*
X94764904Y-106497428D01*
X94812523Y-106687904D01*
X94860142Y-106783142D01*
X94907761Y-106830761D01*
X95003000Y-106878380D01*
X95098238Y-106878380D01*
X95193476Y-106830761D01*
X95241095Y-106783142D01*
X95288714Y-106687904D01*
X95336333Y-106497428D01*
X95336333Y-106259333D01*
X95288714Y-106068857D01*
X95241095Y-105973619D01*
X95193476Y-105926000D01*
X95098238Y-105878380D01*
D13*
X96324428Y-108430190D02*
X96491095Y-108192095D01*
X96610142Y-108430190D02*
X96610142Y-107930190D01*
X96419666Y-107930190D01*
X96372047Y-107954000D01*
X96348238Y-107977809D01*
X96324428Y-108025428D01*
X96324428Y-108096857D01*
X96348238Y-108144476D01*
X96372047Y-108168285D01*
X96419666Y-108192095D01*
X96610142Y-108192095D01*
X95895857Y-108096857D02*
X95895857Y-108430190D01*
X96014904Y-107906380D02*
X96133952Y-108263523D01*
X95824428Y-108263523D01*
X95395857Y-107930190D02*
X95633952Y-107930190D01*
X95657761Y-108168285D01*
X95633952Y-108144476D01*
X95586333Y-108120666D01*
X95467285Y-108120666D01*
X95419666Y-108144476D01*
X95395857Y-108168285D01*
X95372047Y-108215904D01*
X95372047Y-108334952D01*
X95395857Y-108382571D01*
X95419666Y-108406380D01*
X95467285Y-108430190D01*
X95586333Y-108430190D01*
X95633952Y-108406380D01*
X95657761Y-108382571D01*
G04 #@! TO.C,R46*
D11*
X113744285Y-106894380D02*
X114220476Y-106894380D01*
X114268095Y-107370571D01*
X114220476Y-107322952D01*
X114125238Y-107275333D01*
X113887142Y-107275333D01*
X113791904Y-107322952D01*
X113744285Y-107370571D01*
X113696666Y-107465809D01*
X113696666Y-107703904D01*
X113744285Y-107799142D01*
X113791904Y-107846761D01*
X113887142Y-107894380D01*
X114125238Y-107894380D01*
X114220476Y-107846761D01*
X114268095Y-107799142D01*
X112744285Y-107894380D02*
X113315714Y-107894380D01*
X113030000Y-107894380D02*
X113030000Y-106894380D01*
X113125238Y-107037238D01*
X113220476Y-107132476D01*
X113315714Y-107180095D01*
X112125238Y-106894380D02*
X112030000Y-106894380D01*
X111934761Y-106942000D01*
X111887142Y-106989619D01*
X111839523Y-107084857D01*
X111791904Y-107275333D01*
X111791904Y-107513428D01*
X111839523Y-107703904D01*
X111887142Y-107799142D01*
X111934761Y-107846761D01*
X112030000Y-107894380D01*
X112125238Y-107894380D01*
X112220476Y-107846761D01*
X112268095Y-107799142D01*
X112315714Y-107703904D01*
X112363333Y-107513428D01*
X112363333Y-107275333D01*
X112315714Y-107084857D01*
X112268095Y-106989619D01*
X112220476Y-106942000D01*
X112125238Y-106894380D01*
D13*
X116145428Y-107668190D02*
X116312095Y-107430095D01*
X116431142Y-107668190D02*
X116431142Y-107168190D01*
X116240666Y-107168190D01*
X116193047Y-107192000D01*
X116169238Y-107215809D01*
X116145428Y-107263428D01*
X116145428Y-107334857D01*
X116169238Y-107382476D01*
X116193047Y-107406285D01*
X116240666Y-107430095D01*
X116431142Y-107430095D01*
X115716857Y-107334857D02*
X115716857Y-107668190D01*
X115835904Y-107144380D02*
X115954952Y-107501523D01*
X115645428Y-107501523D01*
X115240666Y-107168190D02*
X115335904Y-107168190D01*
X115383523Y-107192000D01*
X115407333Y-107215809D01*
X115454952Y-107287238D01*
X115478761Y-107382476D01*
X115478761Y-107572952D01*
X115454952Y-107620571D01*
X115431142Y-107644380D01*
X115383523Y-107668190D01*
X115288285Y-107668190D01*
X115240666Y-107644380D01*
X115216857Y-107620571D01*
X115193047Y-107572952D01*
X115193047Y-107453904D01*
X115216857Y-107406285D01*
X115240666Y-107382476D01*
X115288285Y-107358666D01*
X115383523Y-107358666D01*
X115431142Y-107382476D01*
X115454952Y-107406285D01*
X115478761Y-107453904D01*
G04 #@! TO.C,R47*
D11*
X81486285Y-74890380D02*
X81962476Y-74890380D01*
X82010095Y-75366571D01*
X81962476Y-75318952D01*
X81867238Y-75271333D01*
X81629142Y-75271333D01*
X81533904Y-75318952D01*
X81486285Y-75366571D01*
X81438666Y-75461809D01*
X81438666Y-75699904D01*
X81486285Y-75795142D01*
X81533904Y-75842761D01*
X81629142Y-75890380D01*
X81867238Y-75890380D01*
X81962476Y-75842761D01*
X82010095Y-75795142D01*
X80486285Y-75890380D02*
X81057714Y-75890380D01*
X80772000Y-75890380D02*
X80772000Y-74890380D01*
X80867238Y-75033238D01*
X80962476Y-75128476D01*
X81057714Y-75176095D01*
X79867238Y-74890380D02*
X79772000Y-74890380D01*
X79676761Y-74938000D01*
X79629142Y-74985619D01*
X79581523Y-75080857D01*
X79533904Y-75271333D01*
X79533904Y-75509428D01*
X79581523Y-75699904D01*
X79629142Y-75795142D01*
X79676761Y-75842761D01*
X79772000Y-75890380D01*
X79867238Y-75890380D01*
X79962476Y-75842761D01*
X80010095Y-75795142D01*
X80057714Y-75699904D01*
X80105333Y-75509428D01*
X80105333Y-75271333D01*
X80057714Y-75080857D01*
X80010095Y-74985619D01*
X79962476Y-74938000D01*
X79867238Y-74890380D01*
D13*
X83284190Y-75116571D02*
X83046095Y-74949904D01*
X83284190Y-74830857D02*
X82784190Y-74830857D01*
X82784190Y-75021333D01*
X82808000Y-75068952D01*
X82831809Y-75092761D01*
X82879428Y-75116571D01*
X82950857Y-75116571D01*
X82998476Y-75092761D01*
X83022285Y-75068952D01*
X83046095Y-75021333D01*
X83046095Y-74830857D01*
X82950857Y-75545142D02*
X83284190Y-75545142D01*
X82760380Y-75426095D02*
X83117523Y-75307047D01*
X83117523Y-75616571D01*
X82784190Y-75759428D02*
X82784190Y-76092761D01*
X83284190Y-75878476D01*
G04 #@! TO.C,R48*
D11*
X83772285Y-84162380D02*
X84248476Y-84162380D01*
X84296095Y-84638571D01*
X84248476Y-84590952D01*
X84153238Y-84543333D01*
X83915142Y-84543333D01*
X83819904Y-84590952D01*
X83772285Y-84638571D01*
X83724666Y-84733809D01*
X83724666Y-84971904D01*
X83772285Y-85067142D01*
X83819904Y-85114761D01*
X83915142Y-85162380D01*
X84153238Y-85162380D01*
X84248476Y-85114761D01*
X84296095Y-85067142D01*
X82772285Y-85162380D02*
X83343714Y-85162380D01*
X83058000Y-85162380D02*
X83058000Y-84162380D01*
X83153238Y-84305238D01*
X83248476Y-84400476D01*
X83343714Y-84448095D01*
X82153238Y-84162380D02*
X82058000Y-84162380D01*
X81962761Y-84210000D01*
X81915142Y-84257619D01*
X81867523Y-84352857D01*
X81819904Y-84543333D01*
X81819904Y-84781428D01*
X81867523Y-84971904D01*
X81915142Y-85067142D01*
X81962761Y-85114761D01*
X82058000Y-85162380D01*
X82153238Y-85162380D01*
X82248476Y-85114761D01*
X82296095Y-85067142D01*
X82343714Y-84971904D01*
X82391333Y-84781428D01*
X82391333Y-84543333D01*
X82343714Y-84352857D01*
X82296095Y-84257619D01*
X82248476Y-84210000D01*
X82153238Y-84162380D01*
D13*
X83379428Y-86586190D02*
X83546095Y-86348095D01*
X83665142Y-86586190D02*
X83665142Y-86086190D01*
X83474666Y-86086190D01*
X83427047Y-86110000D01*
X83403238Y-86133809D01*
X83379428Y-86181428D01*
X83379428Y-86252857D01*
X83403238Y-86300476D01*
X83427047Y-86324285D01*
X83474666Y-86348095D01*
X83665142Y-86348095D01*
X82950857Y-86252857D02*
X82950857Y-86586190D01*
X83069904Y-86062380D02*
X83188952Y-86419523D01*
X82879428Y-86419523D01*
X82617523Y-86300476D02*
X82665142Y-86276666D01*
X82688952Y-86252857D01*
X82712761Y-86205238D01*
X82712761Y-86181428D01*
X82688952Y-86133809D01*
X82665142Y-86110000D01*
X82617523Y-86086190D01*
X82522285Y-86086190D01*
X82474666Y-86110000D01*
X82450857Y-86133809D01*
X82427047Y-86181428D01*
X82427047Y-86205238D01*
X82450857Y-86252857D01*
X82474666Y-86276666D01*
X82522285Y-86300476D01*
X82617523Y-86300476D01*
X82665142Y-86324285D01*
X82688952Y-86348095D01*
X82712761Y-86395714D01*
X82712761Y-86490952D01*
X82688952Y-86538571D01*
X82665142Y-86562380D01*
X82617523Y-86586190D01*
X82522285Y-86586190D01*
X82474666Y-86562380D01*
X82450857Y-86538571D01*
X82427047Y-86490952D01*
X82427047Y-86395714D01*
X82450857Y-86348095D01*
X82474666Y-86324285D01*
X82522285Y-86300476D01*
G04 #@! TO.C,R49*
D11*
X83772285Y-112864380D02*
X84248476Y-112864380D01*
X84296095Y-113340571D01*
X84248476Y-113292952D01*
X84153238Y-113245333D01*
X83915142Y-113245333D01*
X83819904Y-113292952D01*
X83772285Y-113340571D01*
X83724666Y-113435809D01*
X83724666Y-113673904D01*
X83772285Y-113769142D01*
X83819904Y-113816761D01*
X83915142Y-113864380D01*
X84153238Y-113864380D01*
X84248476Y-113816761D01*
X84296095Y-113769142D01*
X82772285Y-113864380D02*
X83343714Y-113864380D01*
X83058000Y-113864380D02*
X83058000Y-112864380D01*
X83153238Y-113007238D01*
X83248476Y-113102476D01*
X83343714Y-113150095D01*
X82153238Y-112864380D02*
X82058000Y-112864380D01*
X81962761Y-112912000D01*
X81915142Y-112959619D01*
X81867523Y-113054857D01*
X81819904Y-113245333D01*
X81819904Y-113483428D01*
X81867523Y-113673904D01*
X81915142Y-113769142D01*
X81962761Y-113816761D01*
X82058000Y-113864380D01*
X82153238Y-113864380D01*
X82248476Y-113816761D01*
X82296095Y-113769142D01*
X82343714Y-113673904D01*
X82391333Y-113483428D01*
X82391333Y-113245333D01*
X82343714Y-113054857D01*
X82296095Y-112959619D01*
X82248476Y-112912000D01*
X82153238Y-112864380D01*
D13*
X83379428Y-115288190D02*
X83546095Y-115050095D01*
X83665142Y-115288190D02*
X83665142Y-114788190D01*
X83474666Y-114788190D01*
X83427047Y-114812000D01*
X83403238Y-114835809D01*
X83379428Y-114883428D01*
X83379428Y-114954857D01*
X83403238Y-115002476D01*
X83427047Y-115026285D01*
X83474666Y-115050095D01*
X83665142Y-115050095D01*
X82950857Y-114954857D02*
X82950857Y-115288190D01*
X83069904Y-114764380D02*
X83188952Y-115121523D01*
X82879428Y-115121523D01*
X82665142Y-115288190D02*
X82569904Y-115288190D01*
X82522285Y-115264380D01*
X82498476Y-115240571D01*
X82450857Y-115169142D01*
X82427047Y-115073904D01*
X82427047Y-114883428D01*
X82450857Y-114835809D01*
X82474666Y-114812000D01*
X82522285Y-114788190D01*
X82617523Y-114788190D01*
X82665142Y-114812000D01*
X82688952Y-114835809D01*
X82712761Y-114883428D01*
X82712761Y-115002476D01*
X82688952Y-115050095D01*
X82665142Y-115073904D01*
X82617523Y-115097714D01*
X82522285Y-115097714D01*
X82474666Y-115073904D01*
X82450857Y-115050095D01*
X82427047Y-115002476D01*
G04 #@! TO.C,R50*
D11*
X82756285Y-125690380D02*
X83232476Y-125690380D01*
X83280095Y-126166571D01*
X83232476Y-126118952D01*
X83137238Y-126071333D01*
X82899142Y-126071333D01*
X82803904Y-126118952D01*
X82756285Y-126166571D01*
X82708666Y-126261809D01*
X82708666Y-126499904D01*
X82756285Y-126595142D01*
X82803904Y-126642761D01*
X82899142Y-126690380D01*
X83137238Y-126690380D01*
X83232476Y-126642761D01*
X83280095Y-126595142D01*
X81756285Y-126690380D02*
X82327714Y-126690380D01*
X82042000Y-126690380D02*
X82042000Y-125690380D01*
X82137238Y-125833238D01*
X82232476Y-125928476D01*
X82327714Y-125976095D01*
X81137238Y-125690380D02*
X81042000Y-125690380D01*
X80946761Y-125738000D01*
X80899142Y-125785619D01*
X80851523Y-125880857D01*
X80803904Y-126071333D01*
X80803904Y-126309428D01*
X80851523Y-126499904D01*
X80899142Y-126595142D01*
X80946761Y-126642761D01*
X81042000Y-126690380D01*
X81137238Y-126690380D01*
X81232476Y-126642761D01*
X81280095Y-126595142D01*
X81327714Y-126499904D01*
X81375333Y-126309428D01*
X81375333Y-126071333D01*
X81327714Y-125880857D01*
X81280095Y-125785619D01*
X81232476Y-125738000D01*
X81137238Y-125690380D01*
D13*
X85157428Y-126464190D02*
X85324095Y-126226095D01*
X85443142Y-126464190D02*
X85443142Y-125964190D01*
X85252666Y-125964190D01*
X85205047Y-125988000D01*
X85181238Y-126011809D01*
X85157428Y-126059428D01*
X85157428Y-126130857D01*
X85181238Y-126178476D01*
X85205047Y-126202285D01*
X85252666Y-126226095D01*
X85443142Y-126226095D01*
X84705047Y-125964190D02*
X84943142Y-125964190D01*
X84966952Y-126202285D01*
X84943142Y-126178476D01*
X84895523Y-126154666D01*
X84776476Y-126154666D01*
X84728857Y-126178476D01*
X84705047Y-126202285D01*
X84681238Y-126249904D01*
X84681238Y-126368952D01*
X84705047Y-126416571D01*
X84728857Y-126440380D01*
X84776476Y-126464190D01*
X84895523Y-126464190D01*
X84943142Y-126440380D01*
X84966952Y-126416571D01*
X84371714Y-125964190D02*
X84324095Y-125964190D01*
X84276476Y-125988000D01*
X84252666Y-126011809D01*
X84228857Y-126059428D01*
X84205047Y-126154666D01*
X84205047Y-126273714D01*
X84228857Y-126368952D01*
X84252666Y-126416571D01*
X84276476Y-126440380D01*
X84324095Y-126464190D01*
X84371714Y-126464190D01*
X84419333Y-126440380D01*
X84443142Y-126416571D01*
X84466952Y-126368952D01*
X84490761Y-126273714D01*
X84490761Y-126154666D01*
X84466952Y-126059428D01*
X84443142Y-126011809D01*
X84419333Y-125988000D01*
X84371714Y-125964190D01*
G04 #@! TO.C,R51*
D11*
X96726285Y-123150380D02*
X97202476Y-123150380D01*
X97250095Y-123626571D01*
X97202476Y-123578952D01*
X97107238Y-123531333D01*
X96869142Y-123531333D01*
X96773904Y-123578952D01*
X96726285Y-123626571D01*
X96678666Y-123721809D01*
X96678666Y-123959904D01*
X96726285Y-124055142D01*
X96773904Y-124102761D01*
X96869142Y-124150380D01*
X97107238Y-124150380D01*
X97202476Y-124102761D01*
X97250095Y-124055142D01*
X95726285Y-124150380D02*
X96297714Y-124150380D01*
X96012000Y-124150380D02*
X96012000Y-123150380D01*
X96107238Y-123293238D01*
X96202476Y-123388476D01*
X96297714Y-123436095D01*
X95107238Y-123150380D02*
X95012000Y-123150380D01*
X94916761Y-123198000D01*
X94869142Y-123245619D01*
X94821523Y-123340857D01*
X94773904Y-123531333D01*
X94773904Y-123769428D01*
X94821523Y-123959904D01*
X94869142Y-124055142D01*
X94916761Y-124102761D01*
X95012000Y-124150380D01*
X95107238Y-124150380D01*
X95202476Y-124102761D01*
X95250095Y-124055142D01*
X95297714Y-123959904D01*
X95345333Y-123769428D01*
X95345333Y-123531333D01*
X95297714Y-123340857D01*
X95250095Y-123245619D01*
X95202476Y-123198000D01*
X95107238Y-123150380D01*
D13*
X96333428Y-125702190D02*
X96500095Y-125464095D01*
X96619142Y-125702190D02*
X96619142Y-125202190D01*
X96428666Y-125202190D01*
X96381047Y-125226000D01*
X96357238Y-125249809D01*
X96333428Y-125297428D01*
X96333428Y-125368857D01*
X96357238Y-125416476D01*
X96381047Y-125440285D01*
X96428666Y-125464095D01*
X96619142Y-125464095D01*
X95881047Y-125202190D02*
X96119142Y-125202190D01*
X96142952Y-125440285D01*
X96119142Y-125416476D01*
X96071523Y-125392666D01*
X95952476Y-125392666D01*
X95904857Y-125416476D01*
X95881047Y-125440285D01*
X95857238Y-125487904D01*
X95857238Y-125606952D01*
X95881047Y-125654571D01*
X95904857Y-125678380D01*
X95952476Y-125702190D01*
X96071523Y-125702190D01*
X96119142Y-125678380D01*
X96142952Y-125654571D01*
X95381047Y-125702190D02*
X95666761Y-125702190D01*
X95523904Y-125702190D02*
X95523904Y-125202190D01*
X95571523Y-125273619D01*
X95619142Y-125321238D01*
X95666761Y-125345047D01*
G04 #@! TO.C,R52*
D11*
X113490285Y-125690380D02*
X113966476Y-125690380D01*
X114014095Y-126166571D01*
X113966476Y-126118952D01*
X113871238Y-126071333D01*
X113633142Y-126071333D01*
X113537904Y-126118952D01*
X113490285Y-126166571D01*
X113442666Y-126261809D01*
X113442666Y-126499904D01*
X113490285Y-126595142D01*
X113537904Y-126642761D01*
X113633142Y-126690380D01*
X113871238Y-126690380D01*
X113966476Y-126642761D01*
X114014095Y-126595142D01*
X112490285Y-126690380D02*
X113061714Y-126690380D01*
X112776000Y-126690380D02*
X112776000Y-125690380D01*
X112871238Y-125833238D01*
X112966476Y-125928476D01*
X113061714Y-125976095D01*
X111871238Y-125690380D02*
X111776000Y-125690380D01*
X111680761Y-125738000D01*
X111633142Y-125785619D01*
X111585523Y-125880857D01*
X111537904Y-126071333D01*
X111537904Y-126309428D01*
X111585523Y-126499904D01*
X111633142Y-126595142D01*
X111680761Y-126642761D01*
X111776000Y-126690380D01*
X111871238Y-126690380D01*
X111966476Y-126642761D01*
X112014095Y-126595142D01*
X112061714Y-126499904D01*
X112109333Y-126309428D01*
X112109333Y-126071333D01*
X112061714Y-125880857D01*
X112014095Y-125785619D01*
X111966476Y-125738000D01*
X111871238Y-125690380D01*
D13*
X115891428Y-126464190D02*
X116058095Y-126226095D01*
X116177142Y-126464190D02*
X116177142Y-125964190D01*
X115986666Y-125964190D01*
X115939047Y-125988000D01*
X115915238Y-126011809D01*
X115891428Y-126059428D01*
X115891428Y-126130857D01*
X115915238Y-126178476D01*
X115939047Y-126202285D01*
X115986666Y-126226095D01*
X116177142Y-126226095D01*
X115439047Y-125964190D02*
X115677142Y-125964190D01*
X115700952Y-126202285D01*
X115677142Y-126178476D01*
X115629523Y-126154666D01*
X115510476Y-126154666D01*
X115462857Y-126178476D01*
X115439047Y-126202285D01*
X115415238Y-126249904D01*
X115415238Y-126368952D01*
X115439047Y-126416571D01*
X115462857Y-126440380D01*
X115510476Y-126464190D01*
X115629523Y-126464190D01*
X115677142Y-126440380D01*
X115700952Y-126416571D01*
X115224761Y-126011809D02*
X115200952Y-125988000D01*
X115153333Y-125964190D01*
X115034285Y-125964190D01*
X114986666Y-125988000D01*
X114962857Y-126011809D01*
X114939047Y-126059428D01*
X114939047Y-126107047D01*
X114962857Y-126178476D01*
X115248571Y-126464190D01*
X114939047Y-126464190D01*
G04 #@! TO.C,R53*
D11*
X187658285Y-67270380D02*
X188134476Y-67270380D01*
X188182095Y-67746571D01*
X188134476Y-67698952D01*
X188039238Y-67651333D01*
X187801142Y-67651333D01*
X187705904Y-67698952D01*
X187658285Y-67746571D01*
X187610666Y-67841809D01*
X187610666Y-68079904D01*
X187658285Y-68175142D01*
X187705904Y-68222761D01*
X187801142Y-68270380D01*
X188039238Y-68270380D01*
X188134476Y-68222761D01*
X188182095Y-68175142D01*
X186658285Y-68270380D02*
X187229714Y-68270380D01*
X186944000Y-68270380D02*
X186944000Y-67270380D01*
X187039238Y-67413238D01*
X187134476Y-67508476D01*
X187229714Y-67556095D01*
X186039238Y-67270380D02*
X185944000Y-67270380D01*
X185848761Y-67318000D01*
X185801142Y-67365619D01*
X185753523Y-67460857D01*
X185705904Y-67651333D01*
X185705904Y-67889428D01*
X185753523Y-68079904D01*
X185801142Y-68175142D01*
X185848761Y-68222761D01*
X185944000Y-68270380D01*
X186039238Y-68270380D01*
X186134476Y-68222761D01*
X186182095Y-68175142D01*
X186229714Y-68079904D01*
X186277333Y-67889428D01*
X186277333Y-67651333D01*
X186229714Y-67460857D01*
X186182095Y-67365619D01*
X186134476Y-67318000D01*
X186039238Y-67270380D01*
D13*
X189456190Y-67496571D02*
X189218095Y-67329904D01*
X189456190Y-67210857D02*
X188956190Y-67210857D01*
X188956190Y-67401333D01*
X188980000Y-67448952D01*
X189003809Y-67472761D01*
X189051428Y-67496571D01*
X189122857Y-67496571D01*
X189170476Y-67472761D01*
X189194285Y-67448952D01*
X189218095Y-67401333D01*
X189218095Y-67210857D01*
X188956190Y-67948952D02*
X188956190Y-67710857D01*
X189194285Y-67687047D01*
X189170476Y-67710857D01*
X189146666Y-67758476D01*
X189146666Y-67877523D01*
X189170476Y-67925142D01*
X189194285Y-67948952D01*
X189241904Y-67972761D01*
X189360952Y-67972761D01*
X189408571Y-67948952D01*
X189432380Y-67925142D01*
X189456190Y-67877523D01*
X189456190Y-67758476D01*
X189432380Y-67710857D01*
X189408571Y-67687047D01*
X188956190Y-68139428D02*
X188956190Y-68448952D01*
X189146666Y-68282285D01*
X189146666Y-68353714D01*
X189170476Y-68401333D01*
X189194285Y-68425142D01*
X189241904Y-68448952D01*
X189360952Y-68448952D01*
X189408571Y-68425142D01*
X189432380Y-68401333D01*
X189456190Y-68353714D01*
X189456190Y-68210857D01*
X189432380Y-68163238D01*
X189408571Y-68139428D01*
G04 #@! TO.C,R54*
D11*
X187658285Y-110704380D02*
X188134476Y-110704380D01*
X188182095Y-111180571D01*
X188134476Y-111132952D01*
X188039238Y-111085333D01*
X187801142Y-111085333D01*
X187705904Y-111132952D01*
X187658285Y-111180571D01*
X187610666Y-111275809D01*
X187610666Y-111513904D01*
X187658285Y-111609142D01*
X187705904Y-111656761D01*
X187801142Y-111704380D01*
X188039238Y-111704380D01*
X188134476Y-111656761D01*
X188182095Y-111609142D01*
X186658285Y-111704380D02*
X187229714Y-111704380D01*
X186944000Y-111704380D02*
X186944000Y-110704380D01*
X187039238Y-110847238D01*
X187134476Y-110942476D01*
X187229714Y-110990095D01*
X186039238Y-110704380D02*
X185944000Y-110704380D01*
X185848761Y-110752000D01*
X185801142Y-110799619D01*
X185753523Y-110894857D01*
X185705904Y-111085333D01*
X185705904Y-111323428D01*
X185753523Y-111513904D01*
X185801142Y-111609142D01*
X185848761Y-111656761D01*
X185944000Y-111704380D01*
X186039238Y-111704380D01*
X186134476Y-111656761D01*
X186182095Y-111609142D01*
X186229714Y-111513904D01*
X186277333Y-111323428D01*
X186277333Y-111085333D01*
X186229714Y-110894857D01*
X186182095Y-110799619D01*
X186134476Y-110752000D01*
X186039238Y-110704380D01*
D13*
X189456190Y-110930571D02*
X189218095Y-110763904D01*
X189456190Y-110644857D02*
X188956190Y-110644857D01*
X188956190Y-110835333D01*
X188980000Y-110882952D01*
X189003809Y-110906761D01*
X189051428Y-110930571D01*
X189122857Y-110930571D01*
X189170476Y-110906761D01*
X189194285Y-110882952D01*
X189218095Y-110835333D01*
X189218095Y-110644857D01*
X188956190Y-111382952D02*
X188956190Y-111144857D01*
X189194285Y-111121047D01*
X189170476Y-111144857D01*
X189146666Y-111192476D01*
X189146666Y-111311523D01*
X189170476Y-111359142D01*
X189194285Y-111382952D01*
X189241904Y-111406761D01*
X189360952Y-111406761D01*
X189408571Y-111382952D01*
X189432380Y-111359142D01*
X189456190Y-111311523D01*
X189456190Y-111192476D01*
X189432380Y-111144857D01*
X189408571Y-111121047D01*
X189122857Y-111835333D02*
X189456190Y-111835333D01*
X188932380Y-111716285D02*
X189289523Y-111597238D01*
X189289523Y-111906761D01*
G04 #@! TO.C,D5*
D11*
X131976571Y-59666190D02*
X131976571Y-60142380D01*
X132309904Y-59142380D02*
X131976571Y-59666190D01*
X131643238Y-59142380D01*
X130928952Y-60094761D02*
X131024190Y-60142380D01*
X131214666Y-60142380D01*
X131309904Y-60094761D01*
X131357523Y-59999523D01*
X131357523Y-59618571D01*
X131309904Y-59523333D01*
X131214666Y-59475714D01*
X131024190Y-59475714D01*
X130928952Y-59523333D01*
X130881333Y-59618571D01*
X130881333Y-59713809D01*
X131357523Y-59809047D01*
X130309904Y-60142380D02*
X130405142Y-60094761D01*
X130452761Y-59999523D01*
X130452761Y-59142380D01*
X129786095Y-60142380D02*
X129881333Y-60094761D01*
X129928952Y-59999523D01*
X129928952Y-59142380D01*
X129262285Y-60142380D02*
X129357523Y-60094761D01*
X129405142Y-60047142D01*
X129452761Y-59951904D01*
X129452761Y-59666190D01*
X129405142Y-59570952D01*
X129357523Y-59523333D01*
X129262285Y-59475714D01*
X129119428Y-59475714D01*
X129024190Y-59523333D01*
X128976571Y-59570952D01*
X128928952Y-59666190D01*
X128928952Y-59951904D01*
X128976571Y-60047142D01*
X129024190Y-60094761D01*
X129119428Y-60142380D01*
X129262285Y-60142380D01*
X128595619Y-59475714D02*
X128405142Y-60142380D01*
X128214666Y-59666190D01*
X128024190Y-60142380D01*
X127833714Y-59475714D01*
D14*
X130409904Y-61639523D02*
X129609904Y-61639523D01*
X129609904Y-61830000D01*
X129648000Y-61944285D01*
X129724190Y-62020476D01*
X129800380Y-62058571D01*
X129952761Y-62096666D01*
X130067047Y-62096666D01*
X130219428Y-62058571D01*
X130295619Y-62020476D01*
X130371809Y-61944285D01*
X130409904Y-61830000D01*
X130409904Y-61639523D01*
X129609904Y-62820476D02*
X129609904Y-62439523D01*
X129990857Y-62401428D01*
X129952761Y-62439523D01*
X129914666Y-62515714D01*
X129914666Y-62706190D01*
X129952761Y-62782380D01*
X129990857Y-62820476D01*
X130067047Y-62858571D01*
X130257523Y-62858571D01*
X130333714Y-62820476D01*
X130371809Y-62782380D01*
X130409904Y-62706190D01*
X130409904Y-62515714D01*
X130371809Y-62439523D01*
X130333714Y-62401428D01*
G04 #@! TO.C,D6*
D11*
X138326571Y-59666190D02*
X138326571Y-60142380D01*
X138659904Y-59142380D02*
X138326571Y-59666190D01*
X137993238Y-59142380D01*
X137278952Y-60094761D02*
X137374190Y-60142380D01*
X137564666Y-60142380D01*
X137659904Y-60094761D01*
X137707523Y-59999523D01*
X137707523Y-59618571D01*
X137659904Y-59523333D01*
X137564666Y-59475714D01*
X137374190Y-59475714D01*
X137278952Y-59523333D01*
X137231333Y-59618571D01*
X137231333Y-59713809D01*
X137707523Y-59809047D01*
X136659904Y-60142380D02*
X136755142Y-60094761D01*
X136802761Y-59999523D01*
X136802761Y-59142380D01*
X136136095Y-60142380D02*
X136231333Y-60094761D01*
X136278952Y-59999523D01*
X136278952Y-59142380D01*
X135612285Y-60142380D02*
X135707523Y-60094761D01*
X135755142Y-60047142D01*
X135802761Y-59951904D01*
X135802761Y-59666190D01*
X135755142Y-59570952D01*
X135707523Y-59523333D01*
X135612285Y-59475714D01*
X135469428Y-59475714D01*
X135374190Y-59523333D01*
X135326571Y-59570952D01*
X135278952Y-59666190D01*
X135278952Y-59951904D01*
X135326571Y-60047142D01*
X135374190Y-60094761D01*
X135469428Y-60142380D01*
X135612285Y-60142380D01*
X134945619Y-59475714D02*
X134755142Y-60142380D01*
X134564666Y-59666190D01*
X134374190Y-60142380D01*
X134183714Y-59475714D01*
D14*
X136759904Y-61639523D02*
X135959904Y-61639523D01*
X135959904Y-61830000D01*
X135998000Y-61944285D01*
X136074190Y-62020476D01*
X136150380Y-62058571D01*
X136302761Y-62096666D01*
X136417047Y-62096666D01*
X136569428Y-62058571D01*
X136645619Y-62020476D01*
X136721809Y-61944285D01*
X136759904Y-61830000D01*
X136759904Y-61639523D01*
X135959904Y-62782380D02*
X135959904Y-62630000D01*
X135998000Y-62553809D01*
X136036095Y-62515714D01*
X136150380Y-62439523D01*
X136302761Y-62401428D01*
X136607523Y-62401428D01*
X136683714Y-62439523D01*
X136721809Y-62477619D01*
X136759904Y-62553809D01*
X136759904Y-62706190D01*
X136721809Y-62782380D01*
X136683714Y-62820476D01*
X136607523Y-62858571D01*
X136417047Y-62858571D01*
X136340857Y-62820476D01*
X136302761Y-62782380D01*
X136264666Y-62706190D01*
X136264666Y-62553809D01*
X136302761Y-62477619D01*
X136340857Y-62439523D01*
X136417047Y-62401428D01*
G04 #@! TO.C,D7*
D11*
X130198571Y-108216190D02*
X130198571Y-108692380D01*
X130531904Y-107692380D02*
X130198571Y-108216190D01*
X129865238Y-107692380D01*
X129150952Y-108644761D02*
X129246190Y-108692380D01*
X129436666Y-108692380D01*
X129531904Y-108644761D01*
X129579523Y-108549523D01*
X129579523Y-108168571D01*
X129531904Y-108073333D01*
X129436666Y-108025714D01*
X129246190Y-108025714D01*
X129150952Y-108073333D01*
X129103333Y-108168571D01*
X129103333Y-108263809D01*
X129579523Y-108359047D01*
X128531904Y-108692380D02*
X128627142Y-108644761D01*
X128674761Y-108549523D01*
X128674761Y-107692380D01*
X128008095Y-108692380D02*
X128103333Y-108644761D01*
X128150952Y-108549523D01*
X128150952Y-107692380D01*
X127484285Y-108692380D02*
X127579523Y-108644761D01*
X127627142Y-108597142D01*
X127674761Y-108501904D01*
X127674761Y-108216190D01*
X127627142Y-108120952D01*
X127579523Y-108073333D01*
X127484285Y-108025714D01*
X127341428Y-108025714D01*
X127246190Y-108073333D01*
X127198571Y-108120952D01*
X127150952Y-108216190D01*
X127150952Y-108501904D01*
X127198571Y-108597142D01*
X127246190Y-108644761D01*
X127341428Y-108692380D01*
X127484285Y-108692380D01*
X126817619Y-108025714D02*
X126627142Y-108692380D01*
X126436666Y-108216190D01*
X126246190Y-108692380D01*
X126055714Y-108025714D01*
D14*
X128860476Y-110851904D02*
X128860476Y-110051904D01*
X128670000Y-110051904D01*
X128555714Y-110090000D01*
X128479523Y-110166190D01*
X128441428Y-110242380D01*
X128403333Y-110394761D01*
X128403333Y-110509047D01*
X128441428Y-110661428D01*
X128479523Y-110737619D01*
X128555714Y-110813809D01*
X128670000Y-110851904D01*
X128860476Y-110851904D01*
X128136666Y-110051904D02*
X127603333Y-110051904D01*
X127946190Y-110851904D01*
G04 #@! TO.C,D8*
D11*
X130198571Y-114566190D02*
X130198571Y-115042380D01*
X130531904Y-114042380D02*
X130198571Y-114566190D01*
X129865238Y-114042380D01*
X129150952Y-114994761D02*
X129246190Y-115042380D01*
X129436666Y-115042380D01*
X129531904Y-114994761D01*
X129579523Y-114899523D01*
X129579523Y-114518571D01*
X129531904Y-114423333D01*
X129436666Y-114375714D01*
X129246190Y-114375714D01*
X129150952Y-114423333D01*
X129103333Y-114518571D01*
X129103333Y-114613809D01*
X129579523Y-114709047D01*
X128531904Y-115042380D02*
X128627142Y-114994761D01*
X128674761Y-114899523D01*
X128674761Y-114042380D01*
X128008095Y-115042380D02*
X128103333Y-114994761D01*
X128150952Y-114899523D01*
X128150952Y-114042380D01*
X127484285Y-115042380D02*
X127579523Y-114994761D01*
X127627142Y-114947142D01*
X127674761Y-114851904D01*
X127674761Y-114566190D01*
X127627142Y-114470952D01*
X127579523Y-114423333D01*
X127484285Y-114375714D01*
X127341428Y-114375714D01*
X127246190Y-114423333D01*
X127198571Y-114470952D01*
X127150952Y-114566190D01*
X127150952Y-114851904D01*
X127198571Y-114947142D01*
X127246190Y-114994761D01*
X127341428Y-115042380D01*
X127484285Y-115042380D01*
X126817619Y-114375714D02*
X126627142Y-115042380D01*
X126436666Y-114566190D01*
X126246190Y-115042380D01*
X126055714Y-114375714D01*
D14*
X128860476Y-117201904D02*
X128860476Y-116401904D01*
X128670000Y-116401904D01*
X128555714Y-116440000D01*
X128479523Y-116516190D01*
X128441428Y-116592380D01*
X128403333Y-116744761D01*
X128403333Y-116859047D01*
X128441428Y-117011428D01*
X128479523Y-117087619D01*
X128555714Y-117163809D01*
X128670000Y-117201904D01*
X128860476Y-117201904D01*
X127946190Y-116744761D02*
X128022380Y-116706666D01*
X128060476Y-116668571D01*
X128098571Y-116592380D01*
X128098571Y-116554285D01*
X128060476Y-116478095D01*
X128022380Y-116440000D01*
X127946190Y-116401904D01*
X127793809Y-116401904D01*
X127717619Y-116440000D01*
X127679523Y-116478095D01*
X127641428Y-116554285D01*
X127641428Y-116592380D01*
X127679523Y-116668571D01*
X127717619Y-116706666D01*
X127793809Y-116744761D01*
X127946190Y-116744761D01*
X128022380Y-116782857D01*
X128060476Y-116820952D01*
X128098571Y-116897142D01*
X128098571Y-117049523D01*
X128060476Y-117125714D01*
X128022380Y-117163809D01*
X127946190Y-117201904D01*
X127793809Y-117201904D01*
X127717619Y-117163809D01*
X127679523Y-117125714D01*
X127641428Y-117049523D01*
X127641428Y-116897142D01*
X127679523Y-116820952D01*
X127717619Y-116782857D01*
X127793809Y-116744761D01*
G04 #@! TO.C,D9*
D11*
X130198571Y-120916190D02*
X130198571Y-121392380D01*
X130531904Y-120392380D02*
X130198571Y-120916190D01*
X129865238Y-120392380D01*
X129150952Y-121344761D02*
X129246190Y-121392380D01*
X129436666Y-121392380D01*
X129531904Y-121344761D01*
X129579523Y-121249523D01*
X129579523Y-120868571D01*
X129531904Y-120773333D01*
X129436666Y-120725714D01*
X129246190Y-120725714D01*
X129150952Y-120773333D01*
X129103333Y-120868571D01*
X129103333Y-120963809D01*
X129579523Y-121059047D01*
X128531904Y-121392380D02*
X128627142Y-121344761D01*
X128674761Y-121249523D01*
X128674761Y-120392380D01*
X128008095Y-121392380D02*
X128103333Y-121344761D01*
X128150952Y-121249523D01*
X128150952Y-120392380D01*
X127484285Y-121392380D02*
X127579523Y-121344761D01*
X127627142Y-121297142D01*
X127674761Y-121201904D01*
X127674761Y-120916190D01*
X127627142Y-120820952D01*
X127579523Y-120773333D01*
X127484285Y-120725714D01*
X127341428Y-120725714D01*
X127246190Y-120773333D01*
X127198571Y-120820952D01*
X127150952Y-120916190D01*
X127150952Y-121201904D01*
X127198571Y-121297142D01*
X127246190Y-121344761D01*
X127341428Y-121392380D01*
X127484285Y-121392380D01*
X126817619Y-120725714D02*
X126627142Y-121392380D01*
X126436666Y-120916190D01*
X126246190Y-121392380D01*
X126055714Y-120725714D01*
D14*
X128860476Y-123551904D02*
X128860476Y-122751904D01*
X128670000Y-122751904D01*
X128555714Y-122790000D01*
X128479523Y-122866190D01*
X128441428Y-122942380D01*
X128403333Y-123094761D01*
X128403333Y-123209047D01*
X128441428Y-123361428D01*
X128479523Y-123437619D01*
X128555714Y-123513809D01*
X128670000Y-123551904D01*
X128860476Y-123551904D01*
X128022380Y-123551904D02*
X127870000Y-123551904D01*
X127793809Y-123513809D01*
X127755714Y-123475714D01*
X127679523Y-123361428D01*
X127641428Y-123209047D01*
X127641428Y-122904285D01*
X127679523Y-122828095D01*
X127717619Y-122790000D01*
X127793809Y-122751904D01*
X127946190Y-122751904D01*
X128022380Y-122790000D01*
X128060476Y-122828095D01*
X128098571Y-122904285D01*
X128098571Y-123094761D01*
X128060476Y-123170952D01*
X128022380Y-123209047D01*
X127946190Y-123247142D01*
X127793809Y-123247142D01*
X127717619Y-123209047D01*
X127679523Y-123170952D01*
X127641428Y-123094761D01*
G04 #@! TO.C,D10*
D11*
X156868571Y-104406190D02*
X156868571Y-104882380D01*
X157201904Y-103882380D02*
X156868571Y-104406190D01*
X156535238Y-103882380D01*
X155820952Y-104834761D02*
X155916190Y-104882380D01*
X156106666Y-104882380D01*
X156201904Y-104834761D01*
X156249523Y-104739523D01*
X156249523Y-104358571D01*
X156201904Y-104263333D01*
X156106666Y-104215714D01*
X155916190Y-104215714D01*
X155820952Y-104263333D01*
X155773333Y-104358571D01*
X155773333Y-104453809D01*
X156249523Y-104549047D01*
X155201904Y-104882380D02*
X155297142Y-104834761D01*
X155344761Y-104739523D01*
X155344761Y-103882380D01*
X154678095Y-104882380D02*
X154773333Y-104834761D01*
X154820952Y-104739523D01*
X154820952Y-103882380D01*
X154154285Y-104882380D02*
X154249523Y-104834761D01*
X154297142Y-104787142D01*
X154344761Y-104691904D01*
X154344761Y-104406190D01*
X154297142Y-104310952D01*
X154249523Y-104263333D01*
X154154285Y-104215714D01*
X154011428Y-104215714D01*
X153916190Y-104263333D01*
X153868571Y-104310952D01*
X153820952Y-104406190D01*
X153820952Y-104691904D01*
X153868571Y-104787142D01*
X153916190Y-104834761D01*
X154011428Y-104882380D01*
X154154285Y-104882380D01*
X153487619Y-104215714D02*
X153297142Y-104882380D01*
X153106666Y-104406190D01*
X152916190Y-104882380D01*
X152725714Y-104215714D01*
D14*
X155911428Y-107041904D02*
X155911428Y-106241904D01*
X155720952Y-106241904D01*
X155606666Y-106280000D01*
X155530476Y-106356190D01*
X155492380Y-106432380D01*
X155454285Y-106584761D01*
X155454285Y-106699047D01*
X155492380Y-106851428D01*
X155530476Y-106927619D01*
X155606666Y-107003809D01*
X155720952Y-107041904D01*
X155911428Y-107041904D01*
X154692380Y-107041904D02*
X155149523Y-107041904D01*
X154920952Y-107041904D02*
X154920952Y-106241904D01*
X154997142Y-106356190D01*
X155073333Y-106432380D01*
X155149523Y-106470476D01*
X154197142Y-106241904D02*
X154120952Y-106241904D01*
X154044761Y-106280000D01*
X154006666Y-106318095D01*
X153968571Y-106394285D01*
X153930476Y-106546666D01*
X153930476Y-106737142D01*
X153968571Y-106889523D01*
X154006666Y-106965714D01*
X154044761Y-107003809D01*
X154120952Y-107041904D01*
X154197142Y-107041904D01*
X154273333Y-107003809D01*
X154311428Y-106965714D01*
X154349523Y-106889523D01*
X154387619Y-106737142D01*
X154387619Y-106546666D01*
X154349523Y-106394285D01*
X154311428Y-106318095D01*
X154273333Y-106280000D01*
X154197142Y-106241904D01*
G04 #@! TO.C,D11*
D11*
X156868571Y-110756190D02*
X156868571Y-111232380D01*
X157201904Y-110232380D02*
X156868571Y-110756190D01*
X156535238Y-110232380D01*
X155820952Y-111184761D02*
X155916190Y-111232380D01*
X156106666Y-111232380D01*
X156201904Y-111184761D01*
X156249523Y-111089523D01*
X156249523Y-110708571D01*
X156201904Y-110613333D01*
X156106666Y-110565714D01*
X155916190Y-110565714D01*
X155820952Y-110613333D01*
X155773333Y-110708571D01*
X155773333Y-110803809D01*
X156249523Y-110899047D01*
X155201904Y-111232380D02*
X155297142Y-111184761D01*
X155344761Y-111089523D01*
X155344761Y-110232380D01*
X154678095Y-111232380D02*
X154773333Y-111184761D01*
X154820952Y-111089523D01*
X154820952Y-110232380D01*
X154154285Y-111232380D02*
X154249523Y-111184761D01*
X154297142Y-111137142D01*
X154344761Y-111041904D01*
X154344761Y-110756190D01*
X154297142Y-110660952D01*
X154249523Y-110613333D01*
X154154285Y-110565714D01*
X154011428Y-110565714D01*
X153916190Y-110613333D01*
X153868571Y-110660952D01*
X153820952Y-110756190D01*
X153820952Y-111041904D01*
X153868571Y-111137142D01*
X153916190Y-111184761D01*
X154011428Y-111232380D01*
X154154285Y-111232380D01*
X153487619Y-110565714D02*
X153297142Y-111232380D01*
X153106666Y-110756190D01*
X152916190Y-111232380D01*
X152725714Y-110565714D01*
D14*
X155911428Y-113391904D02*
X155911428Y-112591904D01*
X155720952Y-112591904D01*
X155606666Y-112630000D01*
X155530476Y-112706190D01*
X155492380Y-112782380D01*
X155454285Y-112934761D01*
X155454285Y-113049047D01*
X155492380Y-113201428D01*
X155530476Y-113277619D01*
X155606666Y-113353809D01*
X155720952Y-113391904D01*
X155911428Y-113391904D01*
X154692380Y-113391904D02*
X155149523Y-113391904D01*
X154920952Y-113391904D02*
X154920952Y-112591904D01*
X154997142Y-112706190D01*
X155073333Y-112782380D01*
X155149523Y-112820476D01*
X153930476Y-113391904D02*
X154387619Y-113391904D01*
X154159047Y-113391904D02*
X154159047Y-112591904D01*
X154235238Y-112706190D01*
X154311428Y-112782380D01*
X154387619Y-112820476D01*
G04 #@! TO.C,D12*
D11*
X156868571Y-118376190D02*
X156868571Y-118852380D01*
X157201904Y-117852380D02*
X156868571Y-118376190D01*
X156535238Y-117852380D01*
X155820952Y-118804761D02*
X155916190Y-118852380D01*
X156106666Y-118852380D01*
X156201904Y-118804761D01*
X156249523Y-118709523D01*
X156249523Y-118328571D01*
X156201904Y-118233333D01*
X156106666Y-118185714D01*
X155916190Y-118185714D01*
X155820952Y-118233333D01*
X155773333Y-118328571D01*
X155773333Y-118423809D01*
X156249523Y-118519047D01*
X155201904Y-118852380D02*
X155297142Y-118804761D01*
X155344761Y-118709523D01*
X155344761Y-117852380D01*
X154678095Y-118852380D02*
X154773333Y-118804761D01*
X154820952Y-118709523D01*
X154820952Y-117852380D01*
X154154285Y-118852380D02*
X154249523Y-118804761D01*
X154297142Y-118757142D01*
X154344761Y-118661904D01*
X154344761Y-118376190D01*
X154297142Y-118280952D01*
X154249523Y-118233333D01*
X154154285Y-118185714D01*
X154011428Y-118185714D01*
X153916190Y-118233333D01*
X153868571Y-118280952D01*
X153820952Y-118376190D01*
X153820952Y-118661904D01*
X153868571Y-118757142D01*
X153916190Y-118804761D01*
X154011428Y-118852380D01*
X154154285Y-118852380D01*
X153487619Y-118185714D02*
X153297142Y-118852380D01*
X153106666Y-118376190D01*
X152916190Y-118852380D01*
X152725714Y-118185714D01*
D14*
X155911428Y-121011904D02*
X155911428Y-120211904D01*
X155720952Y-120211904D01*
X155606666Y-120250000D01*
X155530476Y-120326190D01*
X155492380Y-120402380D01*
X155454285Y-120554761D01*
X155454285Y-120669047D01*
X155492380Y-120821428D01*
X155530476Y-120897619D01*
X155606666Y-120973809D01*
X155720952Y-121011904D01*
X155911428Y-121011904D01*
X154692380Y-121011904D02*
X155149523Y-121011904D01*
X154920952Y-121011904D02*
X154920952Y-120211904D01*
X154997142Y-120326190D01*
X155073333Y-120402380D01*
X155149523Y-120440476D01*
X154387619Y-120288095D02*
X154349523Y-120250000D01*
X154273333Y-120211904D01*
X154082857Y-120211904D01*
X154006666Y-120250000D01*
X153968571Y-120288095D01*
X153930476Y-120364285D01*
X153930476Y-120440476D01*
X153968571Y-120554761D01*
X154425714Y-121011904D01*
X153930476Y-121011904D01*
G04 #@! TO.C,D13*
D11*
X156868571Y-124726190D02*
X156868571Y-125202380D01*
X157201904Y-124202380D02*
X156868571Y-124726190D01*
X156535238Y-124202380D01*
X155820952Y-125154761D02*
X155916190Y-125202380D01*
X156106666Y-125202380D01*
X156201904Y-125154761D01*
X156249523Y-125059523D01*
X156249523Y-124678571D01*
X156201904Y-124583333D01*
X156106666Y-124535714D01*
X155916190Y-124535714D01*
X155820952Y-124583333D01*
X155773333Y-124678571D01*
X155773333Y-124773809D01*
X156249523Y-124869047D01*
X155201904Y-125202380D02*
X155297142Y-125154761D01*
X155344761Y-125059523D01*
X155344761Y-124202380D01*
X154678095Y-125202380D02*
X154773333Y-125154761D01*
X154820952Y-125059523D01*
X154820952Y-124202380D01*
X154154285Y-125202380D02*
X154249523Y-125154761D01*
X154297142Y-125107142D01*
X154344761Y-125011904D01*
X154344761Y-124726190D01*
X154297142Y-124630952D01*
X154249523Y-124583333D01*
X154154285Y-124535714D01*
X154011428Y-124535714D01*
X153916190Y-124583333D01*
X153868571Y-124630952D01*
X153820952Y-124726190D01*
X153820952Y-125011904D01*
X153868571Y-125107142D01*
X153916190Y-125154761D01*
X154011428Y-125202380D01*
X154154285Y-125202380D01*
X153487619Y-124535714D02*
X153297142Y-125202380D01*
X153106666Y-124726190D01*
X152916190Y-125202380D01*
X152725714Y-124535714D01*
D14*
X155911428Y-127361904D02*
X155911428Y-126561904D01*
X155720952Y-126561904D01*
X155606666Y-126600000D01*
X155530476Y-126676190D01*
X155492380Y-126752380D01*
X155454285Y-126904761D01*
X155454285Y-127019047D01*
X155492380Y-127171428D01*
X155530476Y-127247619D01*
X155606666Y-127323809D01*
X155720952Y-127361904D01*
X155911428Y-127361904D01*
X154692380Y-127361904D02*
X155149523Y-127361904D01*
X154920952Y-127361904D02*
X154920952Y-126561904D01*
X154997142Y-126676190D01*
X155073333Y-126752380D01*
X155149523Y-126790476D01*
X154425714Y-126561904D02*
X153930476Y-126561904D01*
X154197142Y-126866666D01*
X154082857Y-126866666D01*
X154006666Y-126904761D01*
X153968571Y-126942857D01*
X153930476Y-127019047D01*
X153930476Y-127209523D01*
X153968571Y-127285714D01*
X154006666Y-127323809D01*
X154082857Y-127361904D01*
X154311428Y-127361904D01*
X154387619Y-127323809D01*
X154425714Y-127285714D01*
G04 #@! TO.C,D14*
D11*
X75080571Y-54586190D02*
X75080571Y-55062380D01*
X75413904Y-54062380D02*
X75080571Y-54586190D01*
X74747238Y-54062380D01*
X74032952Y-55014761D02*
X74128190Y-55062380D01*
X74318666Y-55062380D01*
X74413904Y-55014761D01*
X74461523Y-54919523D01*
X74461523Y-54538571D01*
X74413904Y-54443333D01*
X74318666Y-54395714D01*
X74128190Y-54395714D01*
X74032952Y-54443333D01*
X73985333Y-54538571D01*
X73985333Y-54633809D01*
X74461523Y-54729047D01*
X73413904Y-55062380D02*
X73509142Y-55014761D01*
X73556761Y-54919523D01*
X73556761Y-54062380D01*
X72890095Y-55062380D02*
X72985333Y-55014761D01*
X73032952Y-54919523D01*
X73032952Y-54062380D01*
X72366285Y-55062380D02*
X72461523Y-55014761D01*
X72509142Y-54967142D01*
X72556761Y-54871904D01*
X72556761Y-54586190D01*
X72509142Y-54490952D01*
X72461523Y-54443333D01*
X72366285Y-54395714D01*
X72223428Y-54395714D01*
X72128190Y-54443333D01*
X72080571Y-54490952D01*
X72032952Y-54586190D01*
X72032952Y-54871904D01*
X72080571Y-54967142D01*
X72128190Y-55014761D01*
X72223428Y-55062380D01*
X72366285Y-55062380D01*
X71699619Y-54395714D02*
X71509142Y-55062380D01*
X71318666Y-54586190D01*
X71128190Y-55062380D01*
X70937714Y-54395714D01*
D14*
X77069904Y-53638571D02*
X76269904Y-53638571D01*
X76269904Y-53829047D01*
X76308000Y-53943333D01*
X76384190Y-54019523D01*
X76460380Y-54057619D01*
X76612761Y-54095714D01*
X76727047Y-54095714D01*
X76879428Y-54057619D01*
X76955619Y-54019523D01*
X77031809Y-53943333D01*
X77069904Y-53829047D01*
X77069904Y-53638571D01*
X77069904Y-54857619D02*
X77069904Y-54400476D01*
X77069904Y-54629047D02*
X76269904Y-54629047D01*
X76384190Y-54552857D01*
X76460380Y-54476666D01*
X76498476Y-54400476D01*
X76536571Y-55543333D02*
X77069904Y-55543333D01*
X76231809Y-55352857D02*
X76803238Y-55162380D01*
X76803238Y-55657619D01*
G04 #@! TO.C,D15*
D11*
X73048571Y-79224190D02*
X73048571Y-79700380D01*
X73381904Y-78700380D02*
X73048571Y-79224190D01*
X72715238Y-78700380D01*
X72000952Y-79652761D02*
X72096190Y-79700380D01*
X72286666Y-79700380D01*
X72381904Y-79652761D01*
X72429523Y-79557523D01*
X72429523Y-79176571D01*
X72381904Y-79081333D01*
X72286666Y-79033714D01*
X72096190Y-79033714D01*
X72000952Y-79081333D01*
X71953333Y-79176571D01*
X71953333Y-79271809D01*
X72429523Y-79367047D01*
X71381904Y-79700380D02*
X71477142Y-79652761D01*
X71524761Y-79557523D01*
X71524761Y-78700380D01*
X70858095Y-79700380D02*
X70953333Y-79652761D01*
X71000952Y-79557523D01*
X71000952Y-78700380D01*
X70334285Y-79700380D02*
X70429523Y-79652761D01*
X70477142Y-79605142D01*
X70524761Y-79509904D01*
X70524761Y-79224190D01*
X70477142Y-79128952D01*
X70429523Y-79081333D01*
X70334285Y-79033714D01*
X70191428Y-79033714D01*
X70096190Y-79081333D01*
X70048571Y-79128952D01*
X70000952Y-79224190D01*
X70000952Y-79509904D01*
X70048571Y-79605142D01*
X70096190Y-79652761D01*
X70191428Y-79700380D01*
X70334285Y-79700380D01*
X69667619Y-79033714D02*
X69477142Y-79700380D01*
X69286666Y-79224190D01*
X69096190Y-79700380D01*
X68905714Y-79033714D01*
D14*
X72091428Y-81895904D02*
X72091428Y-81095904D01*
X71900952Y-81095904D01*
X71786666Y-81134000D01*
X71710476Y-81210190D01*
X71672380Y-81286380D01*
X71634285Y-81438761D01*
X71634285Y-81553047D01*
X71672380Y-81705428D01*
X71710476Y-81781619D01*
X71786666Y-81857809D01*
X71900952Y-81895904D01*
X72091428Y-81895904D01*
X70872380Y-81895904D02*
X71329523Y-81895904D01*
X71100952Y-81895904D02*
X71100952Y-81095904D01*
X71177142Y-81210190D01*
X71253333Y-81286380D01*
X71329523Y-81324476D01*
X70148571Y-81095904D02*
X70529523Y-81095904D01*
X70567619Y-81476857D01*
X70529523Y-81438761D01*
X70453333Y-81400666D01*
X70262857Y-81400666D01*
X70186666Y-81438761D01*
X70148571Y-81476857D01*
X70110476Y-81553047D01*
X70110476Y-81743523D01*
X70148571Y-81819714D01*
X70186666Y-81857809D01*
X70262857Y-81895904D01*
X70453333Y-81895904D01*
X70529523Y-81857809D01*
X70567619Y-81819714D01*
G04 #@! TO.C,D16*
D11*
X73048571Y-100560190D02*
X73048571Y-101036380D01*
X73381904Y-100036380D02*
X73048571Y-100560190D01*
X72715238Y-100036380D01*
X72000952Y-100988761D02*
X72096190Y-101036380D01*
X72286666Y-101036380D01*
X72381904Y-100988761D01*
X72429523Y-100893523D01*
X72429523Y-100512571D01*
X72381904Y-100417333D01*
X72286666Y-100369714D01*
X72096190Y-100369714D01*
X72000952Y-100417333D01*
X71953333Y-100512571D01*
X71953333Y-100607809D01*
X72429523Y-100703047D01*
X71381904Y-101036380D02*
X71477142Y-100988761D01*
X71524761Y-100893523D01*
X71524761Y-100036380D01*
X70858095Y-101036380D02*
X70953333Y-100988761D01*
X71000952Y-100893523D01*
X71000952Y-100036380D01*
X70334285Y-101036380D02*
X70429523Y-100988761D01*
X70477142Y-100941142D01*
X70524761Y-100845904D01*
X70524761Y-100560190D01*
X70477142Y-100464952D01*
X70429523Y-100417333D01*
X70334285Y-100369714D01*
X70191428Y-100369714D01*
X70096190Y-100417333D01*
X70048571Y-100464952D01*
X70000952Y-100560190D01*
X70000952Y-100845904D01*
X70048571Y-100941142D01*
X70096190Y-100988761D01*
X70191428Y-101036380D01*
X70334285Y-101036380D01*
X69667619Y-100369714D02*
X69477142Y-101036380D01*
X69286666Y-100560190D01*
X69096190Y-101036380D01*
X68905714Y-100369714D01*
D14*
X72091428Y-103231904D02*
X72091428Y-102431904D01*
X71900952Y-102431904D01*
X71786666Y-102470000D01*
X71710476Y-102546190D01*
X71672380Y-102622380D01*
X71634285Y-102774761D01*
X71634285Y-102889047D01*
X71672380Y-103041428D01*
X71710476Y-103117619D01*
X71786666Y-103193809D01*
X71900952Y-103231904D01*
X72091428Y-103231904D01*
X70872380Y-103231904D02*
X71329523Y-103231904D01*
X71100952Y-103231904D02*
X71100952Y-102431904D01*
X71177142Y-102546190D01*
X71253333Y-102622380D01*
X71329523Y-102660476D01*
X70186666Y-102431904D02*
X70339047Y-102431904D01*
X70415238Y-102470000D01*
X70453333Y-102508095D01*
X70529523Y-102622380D01*
X70567619Y-102774761D01*
X70567619Y-103079523D01*
X70529523Y-103155714D01*
X70491428Y-103193809D01*
X70415238Y-103231904D01*
X70262857Y-103231904D01*
X70186666Y-103193809D01*
X70148571Y-103155714D01*
X70110476Y-103079523D01*
X70110476Y-102889047D01*
X70148571Y-102812857D01*
X70186666Y-102774761D01*
X70262857Y-102736666D01*
X70415238Y-102736666D01*
X70491428Y-102774761D01*
X70529523Y-102812857D01*
X70567619Y-102889047D01*
G04 #@! TO.C,D17*
D11*
X85748571Y-100306190D02*
X85748571Y-100782380D01*
X86081904Y-99782380D02*
X85748571Y-100306190D01*
X85415238Y-99782380D01*
X84700952Y-100734761D02*
X84796190Y-100782380D01*
X84986666Y-100782380D01*
X85081904Y-100734761D01*
X85129523Y-100639523D01*
X85129523Y-100258571D01*
X85081904Y-100163333D01*
X84986666Y-100115714D01*
X84796190Y-100115714D01*
X84700952Y-100163333D01*
X84653333Y-100258571D01*
X84653333Y-100353809D01*
X85129523Y-100449047D01*
X84081904Y-100782380D02*
X84177142Y-100734761D01*
X84224761Y-100639523D01*
X84224761Y-99782380D01*
X83558095Y-100782380D02*
X83653333Y-100734761D01*
X83700952Y-100639523D01*
X83700952Y-99782380D01*
X83034285Y-100782380D02*
X83129523Y-100734761D01*
X83177142Y-100687142D01*
X83224761Y-100591904D01*
X83224761Y-100306190D01*
X83177142Y-100210952D01*
X83129523Y-100163333D01*
X83034285Y-100115714D01*
X82891428Y-100115714D01*
X82796190Y-100163333D01*
X82748571Y-100210952D01*
X82700952Y-100306190D01*
X82700952Y-100591904D01*
X82748571Y-100687142D01*
X82796190Y-100734761D01*
X82891428Y-100782380D01*
X83034285Y-100782380D01*
X82367619Y-100115714D02*
X82177142Y-100782380D01*
X81986666Y-100306190D01*
X81796190Y-100782380D01*
X81605714Y-100115714D01*
D14*
X84181904Y-101898571D02*
X83381904Y-101898571D01*
X83381904Y-102089047D01*
X83420000Y-102203333D01*
X83496190Y-102279523D01*
X83572380Y-102317619D01*
X83724761Y-102355714D01*
X83839047Y-102355714D01*
X83991428Y-102317619D01*
X84067619Y-102279523D01*
X84143809Y-102203333D01*
X84181904Y-102089047D01*
X84181904Y-101898571D01*
X84181904Y-103117619D02*
X84181904Y-102660476D01*
X84181904Y-102889047D02*
X83381904Y-102889047D01*
X83496190Y-102812857D01*
X83572380Y-102736666D01*
X83610476Y-102660476D01*
X83381904Y-103384285D02*
X83381904Y-103917619D01*
X84181904Y-103574761D01*
G04 #@! TO.C,D18*
D11*
X103528571Y-105930190D02*
X103528571Y-106406380D01*
X103861904Y-105406380D02*
X103528571Y-105930190D01*
X103195238Y-105406380D01*
X102480952Y-106358761D02*
X102576190Y-106406380D01*
X102766666Y-106406380D01*
X102861904Y-106358761D01*
X102909523Y-106263523D01*
X102909523Y-105882571D01*
X102861904Y-105787333D01*
X102766666Y-105739714D01*
X102576190Y-105739714D01*
X102480952Y-105787333D01*
X102433333Y-105882571D01*
X102433333Y-105977809D01*
X102909523Y-106073047D01*
X101861904Y-106406380D02*
X101957142Y-106358761D01*
X102004761Y-106263523D01*
X102004761Y-105406380D01*
X101338095Y-106406380D02*
X101433333Y-106358761D01*
X101480952Y-106263523D01*
X101480952Y-105406380D01*
X100814285Y-106406380D02*
X100909523Y-106358761D01*
X100957142Y-106311142D01*
X101004761Y-106215904D01*
X101004761Y-105930190D01*
X100957142Y-105834952D01*
X100909523Y-105787333D01*
X100814285Y-105739714D01*
X100671428Y-105739714D01*
X100576190Y-105787333D01*
X100528571Y-105834952D01*
X100480952Y-105930190D01*
X100480952Y-106215904D01*
X100528571Y-106311142D01*
X100576190Y-106358761D01*
X100671428Y-106406380D01*
X100814285Y-106406380D01*
X100147619Y-105739714D02*
X99957142Y-106406380D01*
X99766666Y-105930190D01*
X99576190Y-106406380D01*
X99385714Y-105739714D01*
D14*
X102571428Y-108565904D02*
X102571428Y-107765904D01*
X102380952Y-107765904D01*
X102266666Y-107804000D01*
X102190476Y-107880190D01*
X102152380Y-107956380D01*
X102114285Y-108108761D01*
X102114285Y-108223047D01*
X102152380Y-108375428D01*
X102190476Y-108451619D01*
X102266666Y-108527809D01*
X102380952Y-108565904D01*
X102571428Y-108565904D01*
X101352380Y-108565904D02*
X101809523Y-108565904D01*
X101580952Y-108565904D02*
X101580952Y-107765904D01*
X101657142Y-107880190D01*
X101733333Y-107956380D01*
X101809523Y-107994476D01*
X100895238Y-108108761D02*
X100971428Y-108070666D01*
X101009523Y-108032571D01*
X101047619Y-107956380D01*
X101047619Y-107918285D01*
X101009523Y-107842095D01*
X100971428Y-107804000D01*
X100895238Y-107765904D01*
X100742857Y-107765904D01*
X100666666Y-107804000D01*
X100628571Y-107842095D01*
X100590476Y-107918285D01*
X100590476Y-107956380D01*
X100628571Y-108032571D01*
X100666666Y-108070666D01*
X100742857Y-108108761D01*
X100895238Y-108108761D01*
X100971428Y-108146857D01*
X101009523Y-108184952D01*
X101047619Y-108261142D01*
X101047619Y-108413523D01*
X101009523Y-108489714D01*
X100971428Y-108527809D01*
X100895238Y-108565904D01*
X100742857Y-108565904D01*
X100666666Y-108527809D01*
X100628571Y-108489714D01*
X100590476Y-108413523D01*
X100590476Y-108261142D01*
X100628571Y-108184952D01*
X100666666Y-108146857D01*
X100742857Y-108108761D01*
G04 #@! TO.C,D19*
D11*
X115212571Y-102846190D02*
X115212571Y-103322380D01*
X115545904Y-102322380D02*
X115212571Y-102846190D01*
X114879238Y-102322380D01*
X114164952Y-103274761D02*
X114260190Y-103322380D01*
X114450666Y-103322380D01*
X114545904Y-103274761D01*
X114593523Y-103179523D01*
X114593523Y-102798571D01*
X114545904Y-102703333D01*
X114450666Y-102655714D01*
X114260190Y-102655714D01*
X114164952Y-102703333D01*
X114117333Y-102798571D01*
X114117333Y-102893809D01*
X114593523Y-102989047D01*
X113545904Y-103322380D02*
X113641142Y-103274761D01*
X113688761Y-103179523D01*
X113688761Y-102322380D01*
X113022095Y-103322380D02*
X113117333Y-103274761D01*
X113164952Y-103179523D01*
X113164952Y-102322380D01*
X112498285Y-103322380D02*
X112593523Y-103274761D01*
X112641142Y-103227142D01*
X112688761Y-103131904D01*
X112688761Y-102846190D01*
X112641142Y-102750952D01*
X112593523Y-102703333D01*
X112498285Y-102655714D01*
X112355428Y-102655714D01*
X112260190Y-102703333D01*
X112212571Y-102750952D01*
X112164952Y-102846190D01*
X112164952Y-103131904D01*
X112212571Y-103227142D01*
X112260190Y-103274761D01*
X112355428Y-103322380D01*
X112498285Y-103322380D01*
X111831619Y-102655714D02*
X111641142Y-103322380D01*
X111450666Y-102846190D01*
X111260190Y-103322380D01*
X111069714Y-102655714D01*
D14*
X117201904Y-101898571D02*
X116401904Y-101898571D01*
X116401904Y-102089047D01*
X116440000Y-102203333D01*
X116516190Y-102279523D01*
X116592380Y-102317619D01*
X116744761Y-102355714D01*
X116859047Y-102355714D01*
X117011428Y-102317619D01*
X117087619Y-102279523D01*
X117163809Y-102203333D01*
X117201904Y-102089047D01*
X117201904Y-101898571D01*
X117201904Y-103117619D02*
X117201904Y-102660476D01*
X117201904Y-102889047D02*
X116401904Y-102889047D01*
X116516190Y-102812857D01*
X116592380Y-102736666D01*
X116630476Y-102660476D01*
X117201904Y-103498571D02*
X117201904Y-103650952D01*
X117163809Y-103727142D01*
X117125714Y-103765238D01*
X117011428Y-103841428D01*
X116859047Y-103879523D01*
X116554285Y-103879523D01*
X116478095Y-103841428D01*
X116440000Y-103803333D01*
X116401904Y-103727142D01*
X116401904Y-103574761D01*
X116440000Y-103498571D01*
X116478095Y-103460476D01*
X116554285Y-103422380D01*
X116744761Y-103422380D01*
X116820952Y-103460476D01*
X116859047Y-103498571D01*
X116897142Y-103574761D01*
X116897142Y-103727142D01*
X116859047Y-103803333D01*
X116820952Y-103841428D01*
X116744761Y-103879523D01*
G04 #@! TO.C,D20*
D11*
X81430571Y-69826190D02*
X81430571Y-70302380D01*
X81763904Y-69302380D02*
X81430571Y-69826190D01*
X81097238Y-69302380D01*
X80382952Y-70254761D02*
X80478190Y-70302380D01*
X80668666Y-70302380D01*
X80763904Y-70254761D01*
X80811523Y-70159523D01*
X80811523Y-69778571D01*
X80763904Y-69683333D01*
X80668666Y-69635714D01*
X80478190Y-69635714D01*
X80382952Y-69683333D01*
X80335333Y-69778571D01*
X80335333Y-69873809D01*
X80811523Y-69969047D01*
X79763904Y-70302380D02*
X79859142Y-70254761D01*
X79906761Y-70159523D01*
X79906761Y-69302380D01*
X79240095Y-70302380D02*
X79335333Y-70254761D01*
X79382952Y-70159523D01*
X79382952Y-69302380D01*
X78716285Y-70302380D02*
X78811523Y-70254761D01*
X78859142Y-70207142D01*
X78906761Y-70111904D01*
X78906761Y-69826190D01*
X78859142Y-69730952D01*
X78811523Y-69683333D01*
X78716285Y-69635714D01*
X78573428Y-69635714D01*
X78478190Y-69683333D01*
X78430571Y-69730952D01*
X78382952Y-69826190D01*
X78382952Y-70111904D01*
X78430571Y-70207142D01*
X78478190Y-70254761D01*
X78573428Y-70302380D01*
X78716285Y-70302380D01*
X78049619Y-69635714D02*
X77859142Y-70302380D01*
X77668666Y-69826190D01*
X77478190Y-70302380D01*
X77287714Y-69635714D01*
D14*
X83419904Y-68878571D02*
X82619904Y-68878571D01*
X82619904Y-69069047D01*
X82658000Y-69183333D01*
X82734190Y-69259523D01*
X82810380Y-69297619D01*
X82962761Y-69335714D01*
X83077047Y-69335714D01*
X83229428Y-69297619D01*
X83305619Y-69259523D01*
X83381809Y-69183333D01*
X83419904Y-69069047D01*
X83419904Y-68878571D01*
X82696095Y-69640476D02*
X82658000Y-69678571D01*
X82619904Y-69754761D01*
X82619904Y-69945238D01*
X82658000Y-70021428D01*
X82696095Y-70059523D01*
X82772285Y-70097619D01*
X82848476Y-70097619D01*
X82962761Y-70059523D01*
X83419904Y-69602380D01*
X83419904Y-70097619D01*
X82619904Y-70592857D02*
X82619904Y-70669047D01*
X82658000Y-70745238D01*
X82696095Y-70783333D01*
X82772285Y-70821428D01*
X82924666Y-70859523D01*
X83115142Y-70859523D01*
X83267523Y-70821428D01*
X83343714Y-70783333D01*
X83381809Y-70745238D01*
X83419904Y-70669047D01*
X83419904Y-70592857D01*
X83381809Y-70516666D01*
X83343714Y-70478571D01*
X83267523Y-70440476D01*
X83115142Y-70402380D01*
X82924666Y-70402380D01*
X82772285Y-70440476D01*
X82696095Y-70478571D01*
X82658000Y-70516666D01*
X82619904Y-70592857D01*
G04 #@! TO.C,D21*
D11*
X79398571Y-84050190D02*
X79398571Y-84526380D01*
X79731904Y-83526380D02*
X79398571Y-84050190D01*
X79065238Y-83526380D01*
X78350952Y-84478761D02*
X78446190Y-84526380D01*
X78636666Y-84526380D01*
X78731904Y-84478761D01*
X78779523Y-84383523D01*
X78779523Y-84002571D01*
X78731904Y-83907333D01*
X78636666Y-83859714D01*
X78446190Y-83859714D01*
X78350952Y-83907333D01*
X78303333Y-84002571D01*
X78303333Y-84097809D01*
X78779523Y-84193047D01*
X77731904Y-84526380D02*
X77827142Y-84478761D01*
X77874761Y-84383523D01*
X77874761Y-83526380D01*
X77208095Y-84526380D02*
X77303333Y-84478761D01*
X77350952Y-84383523D01*
X77350952Y-83526380D01*
X76684285Y-84526380D02*
X76779523Y-84478761D01*
X76827142Y-84431142D01*
X76874761Y-84335904D01*
X76874761Y-84050190D01*
X76827142Y-83954952D01*
X76779523Y-83907333D01*
X76684285Y-83859714D01*
X76541428Y-83859714D01*
X76446190Y-83907333D01*
X76398571Y-83954952D01*
X76350952Y-84050190D01*
X76350952Y-84335904D01*
X76398571Y-84431142D01*
X76446190Y-84478761D01*
X76541428Y-84526380D01*
X76684285Y-84526380D01*
X76017619Y-83859714D02*
X75827142Y-84526380D01*
X75636666Y-84050190D01*
X75446190Y-84526380D01*
X75255714Y-83859714D01*
D14*
X78441428Y-86721904D02*
X78441428Y-85921904D01*
X78250952Y-85921904D01*
X78136666Y-85960000D01*
X78060476Y-86036190D01*
X78022380Y-86112380D01*
X77984285Y-86264761D01*
X77984285Y-86379047D01*
X78022380Y-86531428D01*
X78060476Y-86607619D01*
X78136666Y-86683809D01*
X78250952Y-86721904D01*
X78441428Y-86721904D01*
X77679523Y-85998095D02*
X77641428Y-85960000D01*
X77565238Y-85921904D01*
X77374761Y-85921904D01*
X77298571Y-85960000D01*
X77260476Y-85998095D01*
X77222380Y-86074285D01*
X77222380Y-86150476D01*
X77260476Y-86264761D01*
X77717619Y-86721904D01*
X77222380Y-86721904D01*
X76460476Y-86721904D02*
X76917619Y-86721904D01*
X76689047Y-86721904D02*
X76689047Y-85921904D01*
X76765238Y-86036190D01*
X76841428Y-86112380D01*
X76917619Y-86150476D01*
G04 #@! TO.C,D22*
D11*
X79398571Y-112752190D02*
X79398571Y-113228380D01*
X79731904Y-112228380D02*
X79398571Y-112752190D01*
X79065238Y-112228380D01*
X78350952Y-113180761D02*
X78446190Y-113228380D01*
X78636666Y-113228380D01*
X78731904Y-113180761D01*
X78779523Y-113085523D01*
X78779523Y-112704571D01*
X78731904Y-112609333D01*
X78636666Y-112561714D01*
X78446190Y-112561714D01*
X78350952Y-112609333D01*
X78303333Y-112704571D01*
X78303333Y-112799809D01*
X78779523Y-112895047D01*
X77731904Y-113228380D02*
X77827142Y-113180761D01*
X77874761Y-113085523D01*
X77874761Y-112228380D01*
X77208095Y-113228380D02*
X77303333Y-113180761D01*
X77350952Y-113085523D01*
X77350952Y-112228380D01*
X76684285Y-113228380D02*
X76779523Y-113180761D01*
X76827142Y-113133142D01*
X76874761Y-113037904D01*
X76874761Y-112752190D01*
X76827142Y-112656952D01*
X76779523Y-112609333D01*
X76684285Y-112561714D01*
X76541428Y-112561714D01*
X76446190Y-112609333D01*
X76398571Y-112656952D01*
X76350952Y-112752190D01*
X76350952Y-113037904D01*
X76398571Y-113133142D01*
X76446190Y-113180761D01*
X76541428Y-113228380D01*
X76684285Y-113228380D01*
X76017619Y-112561714D02*
X75827142Y-113228380D01*
X75636666Y-112752190D01*
X75446190Y-113228380D01*
X75255714Y-112561714D01*
D14*
X78441428Y-115423904D02*
X78441428Y-114623904D01*
X78250952Y-114623904D01*
X78136666Y-114662000D01*
X78060476Y-114738190D01*
X78022380Y-114814380D01*
X77984285Y-114966761D01*
X77984285Y-115081047D01*
X78022380Y-115233428D01*
X78060476Y-115309619D01*
X78136666Y-115385809D01*
X78250952Y-115423904D01*
X78441428Y-115423904D01*
X77679523Y-114700095D02*
X77641428Y-114662000D01*
X77565238Y-114623904D01*
X77374761Y-114623904D01*
X77298571Y-114662000D01*
X77260476Y-114700095D01*
X77222380Y-114776285D01*
X77222380Y-114852476D01*
X77260476Y-114966761D01*
X77717619Y-115423904D01*
X77222380Y-115423904D01*
X76917619Y-114700095D02*
X76879523Y-114662000D01*
X76803333Y-114623904D01*
X76612857Y-114623904D01*
X76536666Y-114662000D01*
X76498571Y-114700095D01*
X76460476Y-114776285D01*
X76460476Y-114852476D01*
X76498571Y-114966761D01*
X76955714Y-115423904D01*
X76460476Y-115423904D01*
G04 #@! TO.C,D23*
D11*
X82192571Y-130786190D02*
X82192571Y-131262380D01*
X82525904Y-130262380D02*
X82192571Y-130786190D01*
X81859238Y-130262380D01*
X81144952Y-131214761D02*
X81240190Y-131262380D01*
X81430666Y-131262380D01*
X81525904Y-131214761D01*
X81573523Y-131119523D01*
X81573523Y-130738571D01*
X81525904Y-130643333D01*
X81430666Y-130595714D01*
X81240190Y-130595714D01*
X81144952Y-130643333D01*
X81097333Y-130738571D01*
X81097333Y-130833809D01*
X81573523Y-130929047D01*
X80525904Y-131262380D02*
X80621142Y-131214761D01*
X80668761Y-131119523D01*
X80668761Y-130262380D01*
X80002095Y-131262380D02*
X80097333Y-131214761D01*
X80144952Y-131119523D01*
X80144952Y-130262380D01*
X79478285Y-131262380D02*
X79573523Y-131214761D01*
X79621142Y-131167142D01*
X79668761Y-131071904D01*
X79668761Y-130786190D01*
X79621142Y-130690952D01*
X79573523Y-130643333D01*
X79478285Y-130595714D01*
X79335428Y-130595714D01*
X79240190Y-130643333D01*
X79192571Y-130690952D01*
X79144952Y-130786190D01*
X79144952Y-131071904D01*
X79192571Y-131167142D01*
X79240190Y-131214761D01*
X79335428Y-131262380D01*
X79478285Y-131262380D01*
X78811619Y-130595714D02*
X78621142Y-131262380D01*
X78430666Y-130786190D01*
X78240190Y-131262380D01*
X78049714Y-130595714D01*
D14*
X84181904Y-129838571D02*
X83381904Y-129838571D01*
X83381904Y-130029047D01*
X83420000Y-130143333D01*
X83496190Y-130219523D01*
X83572380Y-130257619D01*
X83724761Y-130295714D01*
X83839047Y-130295714D01*
X83991428Y-130257619D01*
X84067619Y-130219523D01*
X84143809Y-130143333D01*
X84181904Y-130029047D01*
X84181904Y-129838571D01*
X83458095Y-130600476D02*
X83420000Y-130638571D01*
X83381904Y-130714761D01*
X83381904Y-130905238D01*
X83420000Y-130981428D01*
X83458095Y-131019523D01*
X83534285Y-131057619D01*
X83610476Y-131057619D01*
X83724761Y-131019523D01*
X84181904Y-130562380D01*
X84181904Y-131057619D01*
X83381904Y-131324285D02*
X83381904Y-131819523D01*
X83686666Y-131552857D01*
X83686666Y-131667142D01*
X83724761Y-131743333D01*
X83762857Y-131781428D01*
X83839047Y-131819523D01*
X84029523Y-131819523D01*
X84105714Y-131781428D01*
X84143809Y-131743333D01*
X84181904Y-131667142D01*
X84181904Y-131438571D01*
X84143809Y-131362380D01*
X84105714Y-131324285D01*
G04 #@! TO.C,D24*
D11*
X103528571Y-123202190D02*
X103528571Y-123678380D01*
X103861904Y-122678380D02*
X103528571Y-123202190D01*
X103195238Y-122678380D01*
X102480952Y-123630761D02*
X102576190Y-123678380D01*
X102766666Y-123678380D01*
X102861904Y-123630761D01*
X102909523Y-123535523D01*
X102909523Y-123154571D01*
X102861904Y-123059333D01*
X102766666Y-123011714D01*
X102576190Y-123011714D01*
X102480952Y-123059333D01*
X102433333Y-123154571D01*
X102433333Y-123249809D01*
X102909523Y-123345047D01*
X101861904Y-123678380D02*
X101957142Y-123630761D01*
X102004761Y-123535523D01*
X102004761Y-122678380D01*
X101338095Y-123678380D02*
X101433333Y-123630761D01*
X101480952Y-123535523D01*
X101480952Y-122678380D01*
X100814285Y-123678380D02*
X100909523Y-123630761D01*
X100957142Y-123583142D01*
X101004761Y-123487904D01*
X101004761Y-123202190D01*
X100957142Y-123106952D01*
X100909523Y-123059333D01*
X100814285Y-123011714D01*
X100671428Y-123011714D01*
X100576190Y-123059333D01*
X100528571Y-123106952D01*
X100480952Y-123202190D01*
X100480952Y-123487904D01*
X100528571Y-123583142D01*
X100576190Y-123630761D01*
X100671428Y-123678380D01*
X100814285Y-123678380D01*
X100147619Y-123011714D02*
X99957142Y-123678380D01*
X99766666Y-123202190D01*
X99576190Y-123678380D01*
X99385714Y-123011714D01*
D14*
X102571428Y-125837904D02*
X102571428Y-125037904D01*
X102380952Y-125037904D01*
X102266666Y-125076000D01*
X102190476Y-125152190D01*
X102152380Y-125228380D01*
X102114285Y-125380761D01*
X102114285Y-125495047D01*
X102152380Y-125647428D01*
X102190476Y-125723619D01*
X102266666Y-125799809D01*
X102380952Y-125837904D01*
X102571428Y-125837904D01*
X101809523Y-125114095D02*
X101771428Y-125076000D01*
X101695238Y-125037904D01*
X101504761Y-125037904D01*
X101428571Y-125076000D01*
X101390476Y-125114095D01*
X101352380Y-125190285D01*
X101352380Y-125266476D01*
X101390476Y-125380761D01*
X101847619Y-125837904D01*
X101352380Y-125837904D01*
X100666666Y-125304571D02*
X100666666Y-125837904D01*
X100857142Y-124999809D02*
X101047619Y-125571238D01*
X100552380Y-125571238D01*
G04 #@! TO.C,D25*
D11*
X114958571Y-130786190D02*
X114958571Y-131262380D01*
X115291904Y-130262380D02*
X114958571Y-130786190D01*
X114625238Y-130262380D01*
X113910952Y-131214761D02*
X114006190Y-131262380D01*
X114196666Y-131262380D01*
X114291904Y-131214761D01*
X114339523Y-131119523D01*
X114339523Y-130738571D01*
X114291904Y-130643333D01*
X114196666Y-130595714D01*
X114006190Y-130595714D01*
X113910952Y-130643333D01*
X113863333Y-130738571D01*
X113863333Y-130833809D01*
X114339523Y-130929047D01*
X113291904Y-131262380D02*
X113387142Y-131214761D01*
X113434761Y-131119523D01*
X113434761Y-130262380D01*
X112768095Y-131262380D02*
X112863333Y-131214761D01*
X112910952Y-131119523D01*
X112910952Y-130262380D01*
X112244285Y-131262380D02*
X112339523Y-131214761D01*
X112387142Y-131167142D01*
X112434761Y-131071904D01*
X112434761Y-130786190D01*
X112387142Y-130690952D01*
X112339523Y-130643333D01*
X112244285Y-130595714D01*
X112101428Y-130595714D01*
X112006190Y-130643333D01*
X111958571Y-130690952D01*
X111910952Y-130786190D01*
X111910952Y-131071904D01*
X111958571Y-131167142D01*
X112006190Y-131214761D01*
X112101428Y-131262380D01*
X112244285Y-131262380D01*
X111577619Y-130595714D02*
X111387142Y-131262380D01*
X111196666Y-130786190D01*
X111006190Y-131262380D01*
X110815714Y-130595714D01*
D14*
X116947904Y-129838571D02*
X116147904Y-129838571D01*
X116147904Y-130029047D01*
X116186000Y-130143333D01*
X116262190Y-130219523D01*
X116338380Y-130257619D01*
X116490761Y-130295714D01*
X116605047Y-130295714D01*
X116757428Y-130257619D01*
X116833619Y-130219523D01*
X116909809Y-130143333D01*
X116947904Y-130029047D01*
X116947904Y-129838571D01*
X116224095Y-130600476D02*
X116186000Y-130638571D01*
X116147904Y-130714761D01*
X116147904Y-130905238D01*
X116186000Y-130981428D01*
X116224095Y-131019523D01*
X116300285Y-131057619D01*
X116376476Y-131057619D01*
X116490761Y-131019523D01*
X116947904Y-130562380D01*
X116947904Y-131057619D01*
X116147904Y-131781428D02*
X116147904Y-131400476D01*
X116528857Y-131362380D01*
X116490761Y-131400476D01*
X116452666Y-131476666D01*
X116452666Y-131667142D01*
X116490761Y-131743333D01*
X116528857Y-131781428D01*
X116605047Y-131819523D01*
X116795523Y-131819523D01*
X116871714Y-131781428D01*
X116909809Y-131743333D01*
X116947904Y-131667142D01*
X116947904Y-131476666D01*
X116909809Y-131400476D01*
X116871714Y-131362380D01*
G04 #@! TO.C,D26*
D11*
X187602571Y-62206190D02*
X187602571Y-62682380D01*
X187935904Y-61682380D02*
X187602571Y-62206190D01*
X187269238Y-61682380D01*
X186554952Y-62634761D02*
X186650190Y-62682380D01*
X186840666Y-62682380D01*
X186935904Y-62634761D01*
X186983523Y-62539523D01*
X186983523Y-62158571D01*
X186935904Y-62063333D01*
X186840666Y-62015714D01*
X186650190Y-62015714D01*
X186554952Y-62063333D01*
X186507333Y-62158571D01*
X186507333Y-62253809D01*
X186983523Y-62349047D01*
X185935904Y-62682380D02*
X186031142Y-62634761D01*
X186078761Y-62539523D01*
X186078761Y-61682380D01*
X185412095Y-62682380D02*
X185507333Y-62634761D01*
X185554952Y-62539523D01*
X185554952Y-61682380D01*
X184888285Y-62682380D02*
X184983523Y-62634761D01*
X185031142Y-62587142D01*
X185078761Y-62491904D01*
X185078761Y-62206190D01*
X185031142Y-62110952D01*
X184983523Y-62063333D01*
X184888285Y-62015714D01*
X184745428Y-62015714D01*
X184650190Y-62063333D01*
X184602571Y-62110952D01*
X184554952Y-62206190D01*
X184554952Y-62491904D01*
X184602571Y-62587142D01*
X184650190Y-62634761D01*
X184745428Y-62682380D01*
X184888285Y-62682380D01*
X184221619Y-62015714D02*
X184031142Y-62682380D01*
X183840666Y-62206190D01*
X183650190Y-62682380D01*
X183459714Y-62015714D01*
D14*
X189591904Y-61258571D02*
X188791904Y-61258571D01*
X188791904Y-61449047D01*
X188830000Y-61563333D01*
X188906190Y-61639523D01*
X188982380Y-61677619D01*
X189134761Y-61715714D01*
X189249047Y-61715714D01*
X189401428Y-61677619D01*
X189477619Y-61639523D01*
X189553809Y-61563333D01*
X189591904Y-61449047D01*
X189591904Y-61258571D01*
X188868095Y-62020476D02*
X188830000Y-62058571D01*
X188791904Y-62134761D01*
X188791904Y-62325238D01*
X188830000Y-62401428D01*
X188868095Y-62439523D01*
X188944285Y-62477619D01*
X189020476Y-62477619D01*
X189134761Y-62439523D01*
X189591904Y-61982380D01*
X189591904Y-62477619D01*
X188791904Y-63163333D02*
X188791904Y-63010952D01*
X188830000Y-62934761D01*
X188868095Y-62896666D01*
X188982380Y-62820476D01*
X189134761Y-62782380D01*
X189439523Y-62782380D01*
X189515714Y-62820476D01*
X189553809Y-62858571D01*
X189591904Y-62934761D01*
X189591904Y-63087142D01*
X189553809Y-63163333D01*
X189515714Y-63201428D01*
X189439523Y-63239523D01*
X189249047Y-63239523D01*
X189172857Y-63201428D01*
X189134761Y-63163333D01*
X189096666Y-63087142D01*
X189096666Y-62934761D01*
X189134761Y-62858571D01*
X189172857Y-62820476D01*
X189249047Y-62782380D01*
G04 #@! TO.C,D27*
D11*
X187602571Y-116816190D02*
X187602571Y-117292380D01*
X187935904Y-116292380D02*
X187602571Y-116816190D01*
X187269238Y-116292380D01*
X186554952Y-117244761D02*
X186650190Y-117292380D01*
X186840666Y-117292380D01*
X186935904Y-117244761D01*
X186983523Y-117149523D01*
X186983523Y-116768571D01*
X186935904Y-116673333D01*
X186840666Y-116625714D01*
X186650190Y-116625714D01*
X186554952Y-116673333D01*
X186507333Y-116768571D01*
X186507333Y-116863809D01*
X186983523Y-116959047D01*
X185935904Y-117292380D02*
X186031142Y-117244761D01*
X186078761Y-117149523D01*
X186078761Y-116292380D01*
X185412095Y-117292380D02*
X185507333Y-117244761D01*
X185554952Y-117149523D01*
X185554952Y-116292380D01*
X184888285Y-117292380D02*
X184983523Y-117244761D01*
X185031142Y-117197142D01*
X185078761Y-117101904D01*
X185078761Y-116816190D01*
X185031142Y-116720952D01*
X184983523Y-116673333D01*
X184888285Y-116625714D01*
X184745428Y-116625714D01*
X184650190Y-116673333D01*
X184602571Y-116720952D01*
X184554952Y-116816190D01*
X184554952Y-117101904D01*
X184602571Y-117197142D01*
X184650190Y-117244761D01*
X184745428Y-117292380D01*
X184888285Y-117292380D01*
X184221619Y-116625714D02*
X184031142Y-117292380D01*
X183840666Y-116816190D01*
X183650190Y-117292380D01*
X183459714Y-116625714D01*
D14*
X189591904Y-115868571D02*
X188791904Y-115868571D01*
X188791904Y-116059047D01*
X188830000Y-116173333D01*
X188906190Y-116249523D01*
X188982380Y-116287619D01*
X189134761Y-116325714D01*
X189249047Y-116325714D01*
X189401428Y-116287619D01*
X189477619Y-116249523D01*
X189553809Y-116173333D01*
X189591904Y-116059047D01*
X189591904Y-115868571D01*
X188868095Y-116630476D02*
X188830000Y-116668571D01*
X188791904Y-116744761D01*
X188791904Y-116935238D01*
X188830000Y-117011428D01*
X188868095Y-117049523D01*
X188944285Y-117087619D01*
X189020476Y-117087619D01*
X189134761Y-117049523D01*
X189591904Y-116592380D01*
X189591904Y-117087619D01*
X188791904Y-117354285D02*
X188791904Y-117887619D01*
X189591904Y-117544761D01*
G04 #@! TD*
M02*
